<?xml version="1.0" encoding="utf-8" standalone="no"?>
<!DOCTYPE svg PUBLIC "-//W3C//DTD SVG 1.1//EN"
  "http://www.w3.org/Graphics/SVG/1.1/DTD/svg11.dtd">
<!-- Created with matplotlib (https://matplotlib.org/) -->
<svg height="345.6pt" version="1.1" viewBox="0 0 460.8 345.6" width="460.8pt" xmlns="http://www.w3.org/2000/svg" xmlns:xlink="http://www.w3.org/1999/xlink">
 <defs>
  <style type="text/css">
*{stroke-linecap:butt;stroke-linejoin:round;}
  </style>
 </defs>
 <g id="figure_1">
  <g id="patch_1">
   <path d="M 0 345.6 
L 460.8 345.6 
L 460.8 0 
L 0 0 
z
" style="fill:#ffffff;"/>
  </g>
  <g id="axes_1">
   <g id="patch_2">
    <path d="M 33.64 317.72 
L 403.54 317.72 
L 403.54 14.76 
L 33.64 14.76 
z
" style="fill:#ffffff;"/>
   </g>
   <g id="matplotlib.axis_1">
    <g id="xtick_1">
     <g id="line2d_1">
      <defs>
       <path d="M 0 0 
L 0 3.5 
" id="ma35473c197" style="stroke:#000000;stroke-width:0.8;"/>
      </defs>
      <g>
       <use style="stroke:#000000;stroke-width:0.8;" x="33.64" xlink:href="#ma35473c197" y="317.72"/>
      </g>
     </g>
     <g id="text_1">
      <!-- 0 -->
      <defs>
       <path d="M 31.78125 66.40625 
Q 24.171875 66.40625 20.328125 58.90625 
Q 16.5 51.421875 16.5 36.375 
Q 16.5 21.390625 20.328125 13.890625 
Q 24.171875 6.390625 31.78125 6.390625 
Q 39.453125 6.390625 43.28125 13.890625 
Q 47.125 21.390625 47.125 36.375 
Q 47.125 51.421875 43.28125 58.90625 
Q 39.453125 66.40625 31.78125 66.40625 
z
M 31.78125 74.21875 
Q 44.046875 74.21875 50.515625 64.515625 
Q 56.984375 54.828125 56.984375 36.375 
Q 56.984375 17.96875 50.515625 8.265625 
Q 44.046875 -1.421875 31.78125 -1.421875 
Q 19.53125 -1.421875 13.0625 8.265625 
Q 6.59375 17.96875 6.59375 36.375 
Q 6.59375 54.828125 13.0625 64.515625 
Q 19.53125 74.21875 31.78125 74.21875 
z
" id="DejaVuSans-48"/>
      </defs>
      <g transform="translate(30.45875 332.318437)scale(0.1 -0.1)">
       <use xlink:href="#DejaVuSans-48"/>
      </g>
     </g>
    </g>
    <g id="xtick_2">
     <g id="line2d_2">
      <g>
       <use style="stroke:#000000;stroke-width:0.8;" x="107.62" xlink:href="#ma35473c197" y="317.72"/>
      </g>
     </g>
     <g id="text_2">
      <!-- 2000 -->
      <defs>
       <path d="M 19.1875 8.296875 
L 53.609375 8.296875 
L 53.609375 0 
L 7.328125 0 
L 7.328125 8.296875 
Q 12.9375 14.109375 22.625 23.890625 
Q 32.328125 33.6875 34.8125 36.53125 
Q 39.546875 41.84375 41.421875 45.53125 
Q 43.3125 49.21875 43.3125 52.78125 
Q 43.3125 58.59375 39.234375 62.25 
Q 35.15625 65.921875 28.609375 65.921875 
Q 23.96875 65.921875 18.8125 64.3125 
Q 13.671875 62.703125 7.8125 59.421875 
L 7.8125 69.390625 
Q 13.765625 71.78125 18.9375 73 
Q 24.125 74.21875 28.421875 74.21875 
Q 39.75 74.21875 46.484375 68.546875 
Q 53.21875 62.890625 53.21875 53.421875 
Q 53.21875 48.921875 51.53125 44.890625 
Q 49.859375 40.875 45.40625 35.40625 
Q 44.1875 33.984375 37.640625 27.21875 
Q 31.109375 20.453125 19.1875 8.296875 
z
" id="DejaVuSans-50"/>
      </defs>
      <g transform="translate(94.895 332.318437)scale(0.1 -0.1)">
       <use xlink:href="#DejaVuSans-50"/>
       <use x="63.623047" xlink:href="#DejaVuSans-48"/>
       <use x="127.246094" xlink:href="#DejaVuSans-48"/>
       <use x="190.869141" xlink:href="#DejaVuSans-48"/>
      </g>
     </g>
    </g>
    <g id="xtick_3">
     <g id="line2d_3">
      <g>
       <use style="stroke:#000000;stroke-width:0.8;" x="181.6" xlink:href="#ma35473c197" y="317.72"/>
      </g>
     </g>
     <g id="text_3">
      <!-- 4000 -->
      <defs>
       <path d="M 37.796875 64.3125 
L 12.890625 25.390625 
L 37.796875 25.390625 
z
M 35.203125 72.90625 
L 47.609375 72.90625 
L 47.609375 25.390625 
L 58.015625 25.390625 
L 58.015625 17.1875 
L 47.609375 17.1875 
L 47.609375 0 
L 37.796875 0 
L 37.796875 17.1875 
L 4.890625 17.1875 
L 4.890625 26.703125 
z
" id="DejaVuSans-52"/>
      </defs>
      <g transform="translate(168.875 332.318437)scale(0.1 -0.1)">
       <use xlink:href="#DejaVuSans-52"/>
       <use x="63.623047" xlink:href="#DejaVuSans-48"/>
       <use x="127.246094" xlink:href="#DejaVuSans-48"/>
       <use x="190.869141" xlink:href="#DejaVuSans-48"/>
      </g>
     </g>
    </g>
    <g id="xtick_4">
     <g id="line2d_4">
      <g>
       <use style="stroke:#000000;stroke-width:0.8;" x="255.58" xlink:href="#ma35473c197" y="317.72"/>
      </g>
     </g>
     <g id="text_4">
      <!-- 6000 -->
      <defs>
       <path d="M 33.015625 40.375 
Q 26.375 40.375 22.484375 35.828125 
Q 18.609375 31.296875 18.609375 23.390625 
Q 18.609375 15.53125 22.484375 10.953125 
Q 26.375 6.390625 33.015625 6.390625 
Q 39.65625 6.390625 43.53125 10.953125 
Q 47.40625 15.53125 47.40625 23.390625 
Q 47.40625 31.296875 43.53125 35.828125 
Q 39.65625 40.375 33.015625 40.375 
z
M 52.59375 71.296875 
L 52.59375 62.3125 
Q 48.875 64.0625 45.09375 64.984375 
Q 41.3125 65.921875 37.59375 65.921875 
Q 27.828125 65.921875 22.671875 59.328125 
Q 17.53125 52.734375 16.796875 39.40625 
Q 19.671875 43.65625 24.015625 45.921875 
Q 28.375 48.1875 33.59375 48.1875 
Q 44.578125 48.1875 50.953125 41.515625 
Q 57.328125 34.859375 57.328125 23.390625 
Q 57.328125 12.15625 50.6875 5.359375 
Q 44.046875 -1.421875 33.015625 -1.421875 
Q 20.359375 -1.421875 13.671875 8.265625 
Q 6.984375 17.96875 6.984375 36.375 
Q 6.984375 53.65625 15.1875 63.9375 
Q 23.390625 74.21875 37.203125 74.21875 
Q 40.921875 74.21875 44.703125 73.484375 
Q 48.484375 72.75 52.59375 71.296875 
z
" id="DejaVuSans-54"/>
      </defs>
      <g transform="translate(242.855 332.318437)scale(0.1 -0.1)">
       <use xlink:href="#DejaVuSans-54"/>
       <use x="63.623047" xlink:href="#DejaVuSans-48"/>
       <use x="127.246094" xlink:href="#DejaVuSans-48"/>
       <use x="190.869141" xlink:href="#DejaVuSans-48"/>
      </g>
     </g>
    </g>
    <g id="xtick_5">
     <g id="line2d_5">
      <g>
       <use style="stroke:#000000;stroke-width:0.8;" x="329.56" xlink:href="#ma35473c197" y="317.72"/>
      </g>
     </g>
     <g id="text_5">
      <!-- 8000 -->
      <defs>
       <path d="M 31.78125 34.625 
Q 24.75 34.625 20.71875 30.859375 
Q 16.703125 27.09375 16.703125 20.515625 
Q 16.703125 13.921875 20.71875 10.15625 
Q 24.75 6.390625 31.78125 6.390625 
Q 38.8125 6.390625 42.859375 10.171875 
Q 46.921875 13.96875 46.921875 20.515625 
Q 46.921875 27.09375 42.890625 30.859375 
Q 38.875 34.625 31.78125 34.625 
z
M 21.921875 38.8125 
Q 15.578125 40.375 12.03125 44.71875 
Q 8.5 49.078125 8.5 55.328125 
Q 8.5 64.0625 14.71875 69.140625 
Q 20.953125 74.21875 31.78125 74.21875 
Q 42.671875 74.21875 48.875 69.140625 
Q 55.078125 64.0625 55.078125 55.328125 
Q 55.078125 49.078125 51.53125 44.71875 
Q 48 40.375 41.703125 38.8125 
Q 48.828125 37.15625 52.796875 32.3125 
Q 56.78125 27.484375 56.78125 20.515625 
Q 56.78125 9.90625 50.3125 4.234375 
Q 43.84375 -1.421875 31.78125 -1.421875 
Q 19.734375 -1.421875 13.25 4.234375 
Q 6.78125 9.90625 6.78125 20.515625 
Q 6.78125 27.484375 10.78125 32.3125 
Q 14.796875 37.15625 21.921875 38.8125 
z
M 18.3125 54.390625 
Q 18.3125 48.734375 21.84375 45.5625 
Q 25.390625 42.390625 31.78125 42.390625 
Q 38.140625 42.390625 41.71875 45.5625 
Q 45.3125 48.734375 45.3125 54.390625 
Q 45.3125 60.0625 41.71875 63.234375 
Q 38.140625 66.40625 31.78125 66.40625 
Q 25.390625 66.40625 21.84375 63.234375 
Q 18.3125 60.0625 18.3125 54.390625 
z
" id="DejaVuSans-56"/>
      </defs>
      <g transform="translate(316.835 332.318437)scale(0.1 -0.1)">
       <use xlink:href="#DejaVuSans-56"/>
       <use x="63.623047" xlink:href="#DejaVuSans-48"/>
       <use x="127.246094" xlink:href="#DejaVuSans-48"/>
       <use x="190.869141" xlink:href="#DejaVuSans-48"/>
      </g>
     </g>
    </g>
    <g id="xtick_6">
     <g id="line2d_6">
      <g>
       <use style="stroke:#000000;stroke-width:0.8;" x="403.54" xlink:href="#ma35473c197" y="317.72"/>
      </g>
     </g>
     <g id="text_6">
      <!-- 10000 -->
      <defs>
       <path d="M 12.40625 8.296875 
L 28.515625 8.296875 
L 28.515625 63.921875 
L 10.984375 60.40625 
L 10.984375 69.390625 
L 28.421875 72.90625 
L 38.28125 72.90625 
L 38.28125 8.296875 
L 54.390625 8.296875 
L 54.390625 0 
L 12.40625 0 
z
" id="DejaVuSans-49"/>
      </defs>
      <g transform="translate(387.63375 332.318437)scale(0.1 -0.1)">
       <use xlink:href="#DejaVuSans-49"/>
       <use x="63.623047" xlink:href="#DejaVuSans-48"/>
       <use x="127.246094" xlink:href="#DejaVuSans-48"/>
       <use x="190.869141" xlink:href="#DejaVuSans-48"/>
       <use x="254.492188" xlink:href="#DejaVuSans-48"/>
      </g>
     </g>
    </g>
   </g>
   <g id="matplotlib.axis_2">
    <g id="ytick_1">
     <g id="line2d_7">
      <defs>
       <path d="M 0 0 
L -3.5 0 
" id="mf4c3622ce8" style="stroke:#000000;stroke-width:0.8;"/>
      </defs>
      <g>
       <use style="stroke:#000000;stroke-width:0.8;" x="33.64" xlink:href="#mf4c3622ce8" y="317.72"/>
      </g>
     </g>
     <g id="text_7">
      <!-- 0.0 -->
      <defs>
       <path d="M 10.6875 12.40625 
L 21 12.40625 
L 21 0 
L 10.6875 0 
z
" id="DejaVuSans-46"/>
      </defs>
      <g transform="translate(10.736875 321.519219)scale(0.1 -0.1)">
       <use xlink:href="#DejaVuSans-48"/>
       <use x="63.623047" xlink:href="#DejaVuSans-46"/>
       <use x="95.410156" xlink:href="#DejaVuSans-48"/>
      </g>
     </g>
    </g>
    <g id="ytick_2">
     <g id="line2d_8">
      <g>
       <use style="stroke:#000000;stroke-width:0.8;" x="33.64" xlink:href="#mf4c3622ce8" y="257.128"/>
      </g>
     </g>
     <g id="text_8">
      <!-- 0.2 -->
      <g transform="translate(10.736875 260.927219)scale(0.1 -0.1)">
       <use xlink:href="#DejaVuSans-48"/>
       <use x="63.623047" xlink:href="#DejaVuSans-46"/>
       <use x="95.410156" xlink:href="#DejaVuSans-50"/>
      </g>
     </g>
    </g>
    <g id="ytick_3">
     <g id="line2d_9">
      <g>
       <use style="stroke:#000000;stroke-width:0.8;" x="33.64" xlink:href="#mf4c3622ce8" y="196.536"/>
      </g>
     </g>
     <g id="text_9">
      <!-- 0.4 -->
      <g transform="translate(10.736875 200.335219)scale(0.1 -0.1)">
       <use xlink:href="#DejaVuSans-48"/>
       <use x="63.623047" xlink:href="#DejaVuSans-46"/>
       <use x="95.410156" xlink:href="#DejaVuSans-52"/>
      </g>
     </g>
    </g>
    <g id="ytick_4">
     <g id="line2d_10">
      <g>
       <use style="stroke:#000000;stroke-width:0.8;" x="33.64" xlink:href="#mf4c3622ce8" y="135.944"/>
      </g>
     </g>
     <g id="text_10">
      <!-- 0.6 -->
      <g transform="translate(10.736875 139.743219)scale(0.1 -0.1)">
       <use xlink:href="#DejaVuSans-48"/>
       <use x="63.623047" xlink:href="#DejaVuSans-46"/>
       <use x="95.410156" xlink:href="#DejaVuSans-54"/>
      </g>
     </g>
    </g>
    <g id="ytick_5">
     <g id="line2d_11">
      <g>
       <use style="stroke:#000000;stroke-width:0.8;" x="33.64" xlink:href="#mf4c3622ce8" y="75.352"/>
      </g>
     </g>
     <g id="text_11">
      <!-- 0.8 -->
      <g transform="translate(10.736875 79.151219)scale(0.1 -0.1)">
       <use xlink:href="#DejaVuSans-48"/>
       <use x="63.623047" xlink:href="#DejaVuSans-46"/>
       <use x="95.410156" xlink:href="#DejaVuSans-56"/>
      </g>
     </g>
    </g>
    <g id="ytick_6">
     <g id="line2d_12">
      <g>
       <use style="stroke:#000000;stroke-width:0.8;" x="33.64" xlink:href="#mf4c3622ce8" y="14.76"/>
      </g>
     </g>
     <g id="text_12">
      <!-- 1.0 -->
      <g transform="translate(10.736875 18.559219)scale(0.1 -0.1)">
       <use xlink:href="#DejaVuSans-49"/>
       <use x="63.623047" xlink:href="#DejaVuSans-46"/>
       <use x="95.410156" xlink:href="#DejaVuSans-48"/>
      </g>
     </g>
    </g>
   </g>
   <g id="patch_3">
    <path d="M 33.64 317.72 
L 33.64 14.76 
" style="fill:none;stroke:#000000;stroke-linecap:square;stroke-linejoin:miter;stroke-width:0.8;"/>
   </g>
   <g id="patch_4">
    <path d="M 403.54 317.72 
L 403.54 14.76 
" style="fill:none;stroke:#000000;stroke-linecap:square;stroke-linejoin:miter;stroke-width:0.8;"/>
   </g>
   <g id="patch_5">
    <path d="M 33.64 317.72 
L 403.54 317.72 
" style="fill:none;stroke:#000000;stroke-linecap:square;stroke-linejoin:miter;stroke-width:0.8;"/>
   </g>
   <g id="patch_6">
    <path d="M 33.64 14.76 
L 403.54 14.76 
" style="fill:none;stroke:#000000;stroke-linecap:square;stroke-linejoin:miter;stroke-width:0.8;"/>
   </g>
  </g>
  <g id="axes_2">
   <g id="matplotlib.axis_3">
    <g id="ytick_7">
     <g id="line2d_13">
      <defs>
       <path d="M 0 0 
L 3.5 0 
" id="mab2c2cfd7f" style="stroke:#000000;stroke-width:0.8;"/>
      </defs>
      <g>
       <use style="stroke:#000000;stroke-width:0.8;" x="403.54" xlink:href="#mab2c2cfd7f" y="317.72"/>
      </g>
     </g>
     <g id="text_13">
      <!-- 0 -->
      <g transform="translate(410.54 321.519219)scale(0.1 -0.1)">
       <use xlink:href="#DejaVuSans-48"/>
      </g>
     </g>
    </g>
    <g id="ytick_8">
     <g id="line2d_14">
      <g>
       <use style="stroke:#000000;stroke-width:0.8;" x="403.54" xlink:href="#mab2c2cfd7f" y="257.128"/>
      </g>
     </g>
     <g id="text_14">
      <!-- 2000 -->
      <g transform="translate(410.54 260.927219)scale(0.1 -0.1)">
       <use xlink:href="#DejaVuSans-50"/>
       <use x="63.623047" xlink:href="#DejaVuSans-48"/>
       <use x="127.246094" xlink:href="#DejaVuSans-48"/>
       <use x="190.869141" xlink:href="#DejaVuSans-48"/>
      </g>
     </g>
    </g>
    <g id="ytick_9">
     <g id="line2d_15">
      <g>
       <use style="stroke:#000000;stroke-width:0.8;" x="403.54" xlink:href="#mab2c2cfd7f" y="196.536"/>
      </g>
     </g>
     <g id="text_15">
      <!-- 4000 -->
      <g transform="translate(410.54 200.335219)scale(0.1 -0.1)">
       <use xlink:href="#DejaVuSans-52"/>
       <use x="63.623047" xlink:href="#DejaVuSans-48"/>
       <use x="127.246094" xlink:href="#DejaVuSans-48"/>
       <use x="190.869141" xlink:href="#DejaVuSans-48"/>
      </g>
     </g>
    </g>
    <g id="ytick_10">
     <g id="line2d_16">
      <g>
       <use style="stroke:#000000;stroke-width:0.8;" x="403.54" xlink:href="#mab2c2cfd7f" y="135.944"/>
      </g>
     </g>
     <g id="text_16">
      <!-- 6000 -->
      <g transform="translate(410.54 139.743219)scale(0.1 -0.1)">
       <use xlink:href="#DejaVuSans-54"/>
       <use x="63.623047" xlink:href="#DejaVuSans-48"/>
       <use x="127.246094" xlink:href="#DejaVuSans-48"/>
       <use x="190.869141" xlink:href="#DejaVuSans-48"/>
      </g>
     </g>
    </g>
    <g id="ytick_11">
     <g id="line2d_17">
      <g>
       <use style="stroke:#000000;stroke-width:0.8;" x="403.54" xlink:href="#mab2c2cfd7f" y="75.352"/>
      </g>
     </g>
     <g id="text_17">
      <!-- 8000 -->
      <g transform="translate(410.54 79.151219)scale(0.1 -0.1)">
       <use xlink:href="#DejaVuSans-56"/>
       <use x="63.623047" xlink:href="#DejaVuSans-48"/>
       <use x="127.246094" xlink:href="#DejaVuSans-48"/>
       <use x="190.869141" xlink:href="#DejaVuSans-48"/>
      </g>
     </g>
    </g>
    <g id="ytick_12">
     <g id="line2d_18">
      <g>
       <use style="stroke:#000000;stroke-width:0.8;" x="403.54" xlink:href="#mab2c2cfd7f" y="14.76"/>
      </g>
     </g>
     <g id="text_18">
      <!-- 10000 -->
      <g transform="translate(410.54 18.559219)scale(0.1 -0.1)">
       <use xlink:href="#DejaVuSans-49"/>
       <use x="63.623047" xlink:href="#DejaVuSans-48"/>
       <use x="127.246094" xlink:href="#DejaVuSans-48"/>
       <use x="190.869141" xlink:href="#DejaVuSans-48"/>
       <use x="254.492188" xlink:href="#DejaVuSans-48"/>
      </g>
     </g>
    </g>
    <g id="text_19">
     <!-- size -->
     <defs>
      <path d="M 44.28125 53.078125 
L 44.28125 44.578125 
Q 40.484375 46.53125 36.375 47.5 
Q 32.28125 48.484375 27.875 48.484375 
Q 21.1875 48.484375 17.84375 46.4375 
Q 14.5 44.390625 14.5 40.28125 
Q 14.5 37.15625 16.890625 35.375 
Q 19.28125 33.59375 26.515625 31.984375 
L 29.59375 31.296875 
Q 39.15625 29.25 43.1875 25.515625 
Q 47.21875 21.78125 47.21875 15.09375 
Q 47.21875 7.46875 41.1875 3.015625 
Q 35.15625 -1.421875 24.609375 -1.421875 
Q 20.21875 -1.421875 15.453125 -0.5625 
Q 10.6875 0.296875 5.421875 2 
L 5.421875 11.28125 
Q 10.40625 8.6875 15.234375 7.390625 
Q 20.0625 6.109375 24.8125 6.109375 
Q 31.15625 6.109375 34.5625 8.28125 
Q 37.984375 10.453125 37.984375 14.40625 
Q 37.984375 18.0625 35.515625 20.015625 
Q 33.0625 21.96875 24.703125 23.78125 
L 21.578125 24.515625 
Q 13.234375 26.265625 9.515625 29.90625 
Q 5.8125 33.546875 5.8125 39.890625 
Q 5.8125 47.609375 11.28125 51.796875 
Q 16.75 56 26.8125 56 
Q 31.78125 56 36.171875 55.265625 
Q 40.578125 54.546875 44.28125 53.078125 
z
" id="DejaVuSans-115"/>
      <path d="M 9.421875 54.6875 
L 18.40625 54.6875 
L 18.40625 0 
L 9.421875 0 
z
M 9.421875 75.984375 
L 18.40625 75.984375 
L 18.40625 64.59375 
L 9.421875 64.59375 
z
" id="DejaVuSans-105"/>
      <path d="M 5.515625 54.6875 
L 48.1875 54.6875 
L 48.1875 46.484375 
L 14.40625 7.171875 
L 48.1875 7.171875 
L 48.1875 0 
L 4.296875 0 
L 4.296875 8.203125 
L 38.09375 47.515625 
L 5.515625 47.515625 
z
" id="DejaVuSans-122"/>
      <path d="M 56.203125 29.59375 
L 56.203125 25.203125 
L 14.890625 25.203125 
Q 15.484375 15.921875 20.484375 11.0625 
Q 25.484375 6.203125 34.421875 6.203125 
Q 39.59375 6.203125 44.453125 7.46875 
Q 49.3125 8.734375 54.109375 11.28125 
L 54.109375 2.78125 
Q 49.265625 0.734375 44.1875 -0.34375 
Q 39.109375 -1.421875 33.890625 -1.421875 
Q 20.796875 -1.421875 13.15625 6.1875 
Q 5.515625 13.8125 5.515625 26.8125 
Q 5.515625 40.234375 12.765625 48.109375 
Q 20.015625 56 32.328125 56 
Q 43.359375 56 49.78125 48.890625 
Q 56.203125 41.796875 56.203125 29.59375 
z
M 47.21875 32.234375 
Q 47.125 39.59375 43.09375 43.984375 
Q 39.0625 48.390625 32.421875 48.390625 
Q 24.90625 48.390625 20.390625 44.140625 
Q 15.875 39.890625 15.1875 32.171875 
z
" id="DejaVuSans-101"/>
     </defs>
     <g transform="translate(453.950937 175.934531)rotate(-90)scale(0.1 -0.1)">
      <use xlink:href="#DejaVuSans-115"/>
      <use x="52.099609" xlink:href="#DejaVuSans-105"/>
      <use x="79.882812" xlink:href="#DejaVuSans-122"/>
      <use x="132.373047" xlink:href="#DejaVuSans-101"/>
     </g>
    </g>
   </g>
   <g id="line2d_19">
    <path clip-path="url(#pca0036c076)" d="M 33.64 255.673792 
L 33.89893 254.158992 
L 34.23184 252.220048 
L 34.26883 252.220048 
L 34.41679 251.67472 
L 34.45378 251.765608 
L 34.52776 251.856496 
L 34.67572 251.129392 
L 34.71271 251.22028 
L 34.7497 251.37176 
L 34.82368 251.22028 
L 34.86067 251.008208 
L 34.89766 251.159688 
L 34.93465 251.250576 
L 34.97164 251.0688 
L 35.08261 251.341464 
L 35.15659 251.795904 
L 35.23057 251.765608 
L 35.45251 252.189752 
L 35.60047 251.0688 
L 35.78542 251.947384 
L 35.8594 251.765608 
L 35.89639 251.856496 
L 36.45124 254.128696 
L 36.48823 254.128696 
L 36.89512 256.431192 
L 37.08007 256.007048 
L 37.11706 256.340304 
L 37.15405 256.06764 
L 37.19104 255.946456 
L 37.22803 256.188824 
L 37.41298 257.673328 
L 37.48696 258.18836 
L 37.56094 258.03688 
L 37.59793 257.73392 
L 37.63492 257.976288 
L 37.81987 258.824576 
L 37.85686 258.763984 
L 38.15278 260.430264 
L 38.18977 260.399968 
L 38.22676 260.066712 
L 38.26375 260.369672 
L 38.37472 261.036184 
L 38.48569 261.36944 
L 38.52268 261.339144 
L 38.55967 261.187664 
L 38.59666 261.399736 
L 38.63365 261.763288 
L 38.70763 261.490624 
L 39.41044 265.4594 
L 39.5584 265.277624 
L 39.74335 267.004496 
L 39.78034 266.67124 
L 39.81733 266.913608 
L 40.11325 269.064624 
L 40.37218 270.276464 
L 40.40917 270.640016 
L 40.48315 270.579424 
L 40.6681 270.15528 
L 40.96402 271.97304 
L 41.00101 271.760968 
L 41.18596 273.003104 
L 41.33392 274.24524 
L 41.59285 275.76004 
L 41.62984 275.699448 
L 41.66683 275.790336 
L 41.81479 276.941584 
L 41.88877 276.699216 
L 41.99974 276.911288 
L 42.03673 276.66892 
L 42.07372 276.911288 
L 42.33265 277.214248 
L 42.36964 276.880992 
L 42.40663 276.97188 
L 42.59158 277.668688 
L 42.77653 278.18372 
L 42.81352 278.03224 
L 42.99847 279.425856 
L 43.18342 280.334736 
L 43.22041 280.243848 
L 43.2574 280.334736 
L 43.33138 280.516512 
L 43.36837 280.30444 
L 43.40536 280.45592 
L 43.47934 280.970952 
L 43.51633 280.91036 
L 43.55332 280.849768 
L 44.07118 284.788248 
L 44.25613 285.939496 
L 44.58904 287.484592 
L 44.33011 285.9092 
L 44.62603 287.090744 
L 44.66302 286.727192 
L 44.70001 287.302816 
L 45.03292 289.059984 
L 45.1069 288.969096 
L 45.73573 291.301888 
L 45.80971 291.05952 
L 45.88369 291.150408 
L 45.99466 291.05952 
L 46.40155 293.452904 
L 46.43854 293.392312 
L 46.54951 292.7258 
L 46.5865 292.937872 
L 46.62349 292.937872 
L 46.80844 293.4832 
L 46.84543 293.271128 
L 46.88242 293.604384 
L 47.06737 294.604152 
L 47.10436 294.180008 
L 47.14135 294.452672 
L 47.3263 295.30096 
L 47.54824 296.300728 
L 47.65921 296.906648 
L 47.73319 296.421912 
L 47.77018 296.846056 
L 47.80717 296.785464 
L 48.0661 298.48204 
L 48.10309 298.542632 
L 48.32503 299.84536 
L 48.36202 299.724176 
L 48.39901 299.905952 
L 48.436 299.99684 
L 48.47299 299.784768 
L 48.50998 300.178616 
L 48.54697 300.118024 
L 48.73192 301.20868 
L 48.87988 302.178152 
L 49.13881 303.662656 
L 49.47172 304.874496 
L 49.65667 305.874264 
L 49.73065 306.05604 
L 49.98958 307.934392 
L 50.17453 308.873568 
L 50.39647 310.60044 
L 50.6554 313.205896 
L 50.87734 317.447336 
L 50.87734 317.447336 
" style="fill:none;stroke:#1f77b4;stroke-linecap:square;stroke-width:1.5;"/>
   </g>
   <g id="line2d_20">
    <path clip-path="url(#pca0036c076)" d="M 33.64 255.673792 
L 34.04689 253.553072 
L 34.08388 253.674256 
L 34.19485 253.431888 
L 34.23184 253.64396 
L 34.26883 253.310704 
L 34.30582 253.098632 
L 34.34281 253.250112 
L 34.3798 253.341 
L 34.41679 253.068336 
L 34.49077 253.128928 
L 34.52776 253.219816 
L 34.56475 252.704784 
L 34.63873 252.88656 
L 34.82368 253.674256 
L 34.86067 253.613664 
L 34.93465 254.674024 
L 34.97164 254.158992 
L 35.04562 253.553072 
L 35.1196 253.765144 
L 35.30455 254.55284 
L 35.37853 254.613432 
L 35.52649 255.340536 
L 35.74843 256.491784 
L 35.89639 257.067408 
L 36.08134 256.340304 
L 36.11833 256.612968 
L 36.34027 257.73392 
L 36.37726 257.703624 
L 36.41425 257.764216 
L 36.63619 259.157832 
L 36.67318 259.127536 
L 36.71017 258.854872 
L 36.78415 259.127536 
L 36.89512 259.581976 
L 37.15405 260.733224 
L 37.19104 260.76352 
L 37.339 261.399736 
L 37.41298 261.187664 
L 37.44997 261.308848 
L 37.59793 262.490392 
L 37.63492 262.369208 
L 37.78288 263.762824 
L 37.85686 263.49016 
L 37.89385 263.368976 
L 38.15278 265.277624 
L 38.18977 265.126144 
L 38.33773 265.732064 
L 38.37472 265.519992 
L 38.41171 265.671472 
L 38.55967 266.277392 
L 38.59666 266.186504 
L 38.8186 268.307224 
L 39.66937 272.700144 
L 39.70636 272.73044 
L 39.74335 272.942512 
L 39.78034 272.851624 
L 39.89131 272.488072 
L 39.9283 272.57896 
L 40.00228 273.003104 
L 40.15024 273.821096 
L 40.33519 275.063232 
L 40.48315 275.941816 
L 40.52014 275.91152 
L 41.11198 279.153192 
L 41.14897 279.213784 
L 41.29693 279.819704 
L 41.33392 279.607632 
L 41.37091 279.789408 
L 41.51887 280.274144 
L 41.59285 279.971184 
L 41.62984 280.183256 
L 41.66683 280.15296 
L 41.70382 280.213552 
L 41.96275 281.81924 
L 41.99974 281.66776 
L 42.11071 281.97072 
L 42.22168 282.909896 
L 42.40663 284.061144 
L 42.44362 284.000552 
L 42.48061 283.637 
L 42.5176 283.818776 
L 42.73954 285.424464 
L 42.81352 285.878904 
L 42.8875 285.818312 
L 42.92449 286.454528 
L 42.99847 286.424232 
L 43.10944 286.121272 
L 43.2574 286.606008 
L 43.29439 286.36364 
L 43.33138 286.454528 
L 43.36837 286.81808 
L 43.44235 286.787784 
L 43.47934 286.787784 
L 43.70128 288.605544 
L 43.73827 288.575248 
L 43.81225 288.363176 
L 43.84924 288.544952 
L 44.25613 291.786624 
L 45.40282 296.997536 
L 45.43981 296.876352 
L 45.58777 298.0276 
L 45.62476 297.967008 
L 45.66175 297.72464 
L 45.69874 297.906416 
L 45.73573 298.0276 
L 45.77272 298.754704 
L 45.8467 298.663816 
L 45.92068 298.391152 
L 45.95767 298.694112 
L 46.06864 298.845592 
L 46.10563 298.542632 
L 46.14262 298.603224 
L 46.36456 300.693648 
L 46.51252 302.238744 
L 46.54951 302.208448 
L 46.88242 304.420056 
L 46.9564 304.23828 
L 47.03038 303.874728 
L 47.10436 303.965616 
L 47.40028 304.69272 
L 47.6962 307.389064 
L 47.73319 307.479952 
L 48.0661 310.630736 
L 48.21406 311.600208 
L 48.62095 316.841416 
L 48.62095 316.841416 
" style="fill:none;stroke:#ff7f0e;stroke-linecap:square;stroke-width:1.5;"/>
   </g>
   <g id="line2d_21">
    <path clip-path="url(#pca0036c076)" d="M 33.64 255.673792 
L 33.89893 253.977216 
L 33.93592 254.068104 
L 33.97291 254.0984 
L 34.23184 253.250112 
L 34.26883 253.431888 
L 34.30582 253.553072 
L 34.34281 253.18952 
L 34.3798 253.341 
L 34.41679 253.583368 
L 34.45378 253.371296 
L 34.56475 252.977448 
L 34.67572 253.674256 
L 34.71271 253.583368 
L 34.7497 253.401592 
L 34.78669 253.734848 
L 34.97164 254.522544 
L 35.04562 253.977216 
L 35.08261 254.280176 
L 35.26756 254.976984 
L 35.30455 255.00728 
L 35.34154 254.8558 
L 35.37853 255.037576 
L 35.41552 254.916392 
L 35.4895 255.189056 
L 35.52649 255.128464 
L 35.74843 256.67356 
L 35.89639 256.097936 
L 36.00736 257.370368 
L 36.04435 257.188592 
L 36.08134 256.915928 
L 36.11833 257.370368 
L 36.56221 260.339376 
L 36.67318 259.975824 
L 36.85813 260.793816 
L 36.89512 260.76352 
L 37.19104 261.945064 
L 37.44997 263.399272 
L 37.48696 263.33868 
L 38.00482 265.671472 
L 38.0788 265.853248 
L 38.11579 265.550288 
L 38.15278 265.792656 
L 39.00355 271.306528 
L 39.66937 275.547968 
L 39.70636 275.214712 
L 39.74335 275.60856 
L 39.85432 276.578032 
L 39.89131 276.396256 
L 40.18723 278.274608 
L 40.26121 278.03224 
L 40.2982 278.18372 
L 40.37218 278.607864 
L 40.52014 279.789408 
L 40.55713 279.69852 
L 40.59412 279.516744 
L 40.6681 280.243848 
L 40.74208 280.183256 
L 40.81606 280.334736 
L 41.11198 282.394864 
L 41.14897 282.27368 
L 41.22295 281.97072 
L 41.25994 282.182792 
L 41.4079 282.546344 
L 41.48188 282.8796 
L 41.62984 283.970256 
L 41.7778 284.061144 
L 41.81479 283.93996 
L 41.85178 284.000552 
L 42.11071 285.969792 
L 42.1477 286.06068 
L 42.33265 287.393704 
L 42.40663 286.939264 
L 42.5176 287.12104 
L 42.62857 287.939032 
L 42.66556 287.848144 
L 42.73954 287.757256 
L 43.22041 291.423072 
L 43.2574 291.150408 
L 43.29439 291.05952 
L 43.51633 293.513496 
L 43.66429 293.755864 
L 43.70128 293.755864 
L 43.73827 294.08912 
L 43.77526 293.543792 
L 43.81225 293.967936 
L 43.88623 293.816456 
L 44.10817 295.088888 
L 44.3671 295.725104 
L 44.99593 299.330328 
L 45.25486 301.36016 
L 45.4768 302.481112 
L 45.66175 302.87496 
L 45.69874 302.965848 
L 45.73573 302.784072 
L 45.77272 302.72348 
L 45.80971 303.3294 
L 45.88369 302.784072 
L 46.03165 302.632592 
L 46.06864 302.481112 
L 46.77145 307.994984 
L 46.80844 308.055576 
L 47.40028 316.65964 
L 47.40028 316.65964 
" style="fill:none;stroke:#2ca02c;stroke-linecap:square;stroke-width:1.5;"/>
   </g>
   <g id="line2d_22">
    <path clip-path="url(#pca0036c076)" d="M 33.64 255.643496 
L 33.75097 254.825504 
L 33.78796 254.916392 
L 33.89893 255.098168 
L 33.93592 254.886096 
L 33.97291 254.916392 
L 34.0099 255.340536 
L 34.08388 255.098168 
L 34.12087 255.15876 
L 34.30582 254.40136 
L 34.34281 254.431656 
L 34.41679 254.583136 
L 34.45378 254.825504 
L 34.49077 254.280176 
L 34.52776 254.795208 
L 34.67572 255.067872 
L 34.71271 254.764912 
L 34.7497 255.279944 
L 34.78669 255.31024 
L 34.82368 255.00728 
L 34.89766 255.037576 
L 34.93465 255.31024 
L 35.00863 255.249648 
L 35.04562 255.037576 
L 35.08261 255.31024 
L 35.1196 255.279944 
L 35.41552 256.734152 
L 35.4895 256.612968 
L 35.52649 256.734152 
L 35.71144 257.158296 
L 35.74843 257.249184 
L 35.82241 256.97652 
L 35.8594 257.037112 
L 36.04435 257.552144 
L 36.11833 257.340072 
L 36.30328 258.400432 
L 36.34027 258.218656 
L 36.48823 259.279016 
L 36.56221 259.612272 
L 36.71017 260.399968 
L 36.74716 260.369672 
L 36.78415 260.581744 
L 36.82114 260.399968 
L 36.85813 260.036416 
L 36.89512 260.430264 
L 37.04308 260.824112 
L 37.08007 260.824112 
L 37.30201 261.763288 
L 37.339 261.430032 
L 37.37599 262.005656 
L 37.48696 263.005424 
L 37.56094 263.64164 
L 37.59793 263.217496 
L 37.74589 263.671936 
L 38.00482 266.883312 
L 38.22676 268.579888 
L 38.63365 270.215872 
L 38.67064 270.427944 
L 38.70763 269.973504 
L 38.78161 270.337056 
L 39.00355 271.488304 
L 39.15151 272.942512 
L 39.1885 272.912216 
L 39.48442 273.63932 
L 39.70636 275.123824 
L 39.78034 275.487376 
L 39.89131 275.426784 
L 40.07626 276.729512 
L 40.15024 276.911288 
L 40.74208 279.334968 
L 40.77907 279.122896 
L 40.81606 279.001712 
L 40.85305 279.24408 
L 40.89004 279.122896 
L 41.25994 281.3648 
L 41.37091 280.91036 
L 41.44489 281.546576 
L 41.51887 280.819472 
L 41.55586 281.031544 
L 41.59285 281.092136 
L 41.62984 281.607168 
L 41.70382 281.304208 
L 41.85178 281.66776 
L 41.92576 281.001248 
L 41.99974 281.334504 
L 42.1477 282.334272 
L 42.22168 282.031312 
L 42.25867 282.213088 
L 42.55459 284.939728 
L 42.66556 284.454992 
L 42.70255 284.515584 
L 42.73954 284.364104 
L 42.77653 284.182328 
L 42.81352 284.454992 
L 42.85051 284.485288 
L 42.96148 285.091208 
L 42.99847 284.69736 
L 43.07245 285.091208 
L 43.10944 284.84884 
L 43.14643 285.060912 
L 43.22041 285.485056 
L 43.33138 286.151568 
L 43.36837 285.878904 
L 43.44235 286.121272 
L 43.47934 286.000088 
L 43.51633 286.242456 
L 43.81225 287.787552 
L 43.84924 287.817848 
L 43.96021 288.454064 
L 43.9972 288.393472 
L 44.03419 288.060216 
L 44.07118 288.33288 
L 44.21914 288.817616 
L 44.29312 289.120576 
L 44.3671 289.54472 
L 44.44108 289.514424 
L 44.47807 289.54472 
L 44.62603 289.877976 
L 44.66302 289.908272 
L 44.81098 290.241528 
L 44.92195 291.332184 
L 45.06991 291.726032 
L 45.1069 291.756328 
L 45.29185 291.36248 
L 45.36583 291.786624 
L 45.40282 291.756328 
L 45.55078 291.120112 
L 45.77272 292.816688 
L 45.80971 292.695504 
L 46.40155 297.179312 
L 46.47553 297.451976 
L 46.62349 298.360856 
L 46.88242 300.60276 
L 46.91941 300.90572 
L 46.9564 300.633056 
L 46.99339 300.2998 
L 47.03038 300.60276 
L 47.10436 300.572464 
L 47.84416 305.75308 
L 48.36202 310.842808 
L 48.39901 310.630736 
L 48.436 310.994288 
L 48.58396 312.236424 
L 48.87988 315.417504 
L 48.91687 315.417504 
L 49.06483 316.689936 
L 49.06483 316.689936 
" style="fill:none;stroke:#d62728;stroke-linecap:square;stroke-width:1.5;"/>
   </g>
   <g id="line2d_23">
    <path clip-path="url(#pca0036c076)" d="M 33.64 255.643496 
L 33.86194 254.189288 
L 34.15786 251.8262 
L 34.19485 251.735312 
L 34.23184 251.917088 
L 34.30582 252.310936 
L 34.34281 252.068568 
L 34.49077 251.735312 
L 34.52776 251.917088 
L 34.56475 251.644424 
L 34.67572 251.129392 
L 34.71271 251.159688 
L 34.82368 251.52324 
L 34.86067 251.705016 
L 34.89766 251.492944 
L 34.93465 251.432352 
L 34.97164 251.462648 
L 35.00863 251.038504 
L 35.08261 251.432352 
L 35.1196 251.614128 
L 35.15659 251.583832 
L 35.26756 250.705248 
L 35.34154 251.099096 
L 35.45251 251.856496 
L 35.4895 251.735312 
L 35.67445 252.189752 
L 35.71144 251.8262 
L 35.74843 252.28064 
L 35.93338 252.977448 
L 35.97037 252.73508 
L 36.00736 253.007744 
L 36.04435 252.947152 
L 36.15532 253.371296 
L 36.2293 252.977448 
L 36.26629 253.128928 
L 36.41425 254.128696 
L 36.5992 254.946688 
L 36.67318 254.461952 
L 36.71017 254.674024 
L 36.93211 255.855568 
L 36.9691 255.704088 
L 37.15405 257.43096 
L 37.19104 257.037112 
L 37.22803 257.27948 
L 37.48696 258.551912 
L 37.52395 258.218656 
L 37.59793 258.370136 
L 37.63492 258.430728 
L 37.67191 258.097472 
L 37.7089 258.18836 
L 37.78288 258.612504 
L 37.85686 258.49132 
L 37.89385 258.49132 
L 38.22676 259.824344 
L 38.37472 260.702928 
L 38.41171 260.339376 
L 38.4487 260.793816 
L 38.59666 260.642336 
L 38.63365 260.672632 
L 38.74462 261.278552 
L 38.78161 261.096776 
L 38.85559 260.824112 
L 38.89258 260.854408 
L 39.11452 262.641872 
L 39.15151 262.58128 
L 39.1885 262.702464 
L 39.22549 262.702464 
L 39.66937 266.307688 
L 39.70636 266.186504 
L 39.74335 266.428872 
L 40.40917 268.64048 
L 40.77907 272.336592 
L 41.038 273.457544 
L 41.11198 273.457544 
L 41.55586 275.972112 
L 41.59285 276.456848 
L 41.66683 276.21448 
L 42.40663 279.971184 
L 42.48061 279.85 
L 42.96148 282.758416 
L 42.55459 279.69852 
L 43.03546 282.485752 
L 43.07245 282.42516 
L 43.2574 283.303744 
L 43.33138 283.455224 
L 43.36837 283.273448 
L 43.55332 284.879136 
L 43.96021 287.333112 
L 43.9972 287.302816 
L 44.07118 286.878672 
L 44.10817 287.030152 
L 45.06991 291.36248 
L 45.55078 295.119184 
L 45.69874 295.694808 
L 45.73573 295.634216 
L 45.92068 296.96724 
L 45.95767 296.997536 
L 46.03165 296.240136 
L 46.06864 296.66428 
L 46.36456 298.239672 
L 46.43854 298.17908 
L 46.47553 297.997304 
L 46.62349 299.08796 
L 46.69747 298.997072 
L 46.84543 299.602992 
L 47.17834 302.572 
L 47.25232 302.329632 
L 47.28931 302.26904 
L 47.6962 306.268112 
L 48.39901 310.933696 
L 48.58396 312.630272 
L 48.62095 312.630272 
L 49.02784 317.144376 
L 49.02784 317.144376 
" style="fill:none;stroke:#9467bd;stroke-linecap:square;stroke-width:1.5;"/>
   </g>
   <g id="patch_7">
    <path d="M 33.64 317.72 
L 33.64 14.76 
" style="fill:none;stroke:#000000;stroke-linecap:square;stroke-linejoin:miter;stroke-width:0.8;"/>
   </g>
   <g id="patch_8">
    <path d="M 403.54 317.72 
L 403.54 14.76 
" style="fill:none;stroke:#000000;stroke-linecap:square;stroke-linejoin:miter;stroke-width:0.8;"/>
   </g>
   <g id="patch_9">
    <path d="M 33.64 317.72 
L 403.54 317.72 
" style="fill:none;stroke:#000000;stroke-linecap:square;stroke-linejoin:miter;stroke-width:0.8;"/>
   </g>
   <g id="patch_10">
    <path d="M 33.64 14.76 
L 403.54 14.76 
" style="fill:none;stroke:#000000;stroke-linecap:square;stroke-linejoin:miter;stroke-width:0.8;"/>
   </g>
   <g id="text_20">
    <!-- Size history of the universe for effective cosmological constant 0.6 -->
    <defs>
     <path d="M 53.515625 70.515625 
L 53.515625 60.890625 
Q 47.90625 63.578125 42.921875 64.890625 
Q 37.9375 66.21875 33.296875 66.21875 
Q 25.25 66.21875 20.875 63.09375 
Q 16.5 59.96875 16.5 54.203125 
Q 16.5 49.359375 19.40625 46.890625 
Q 22.3125 44.4375 30.421875 42.921875 
L 36.375 41.703125 
Q 47.40625 39.59375 52.65625 34.296875 
Q 57.90625 29 57.90625 20.125 
Q 57.90625 9.515625 50.796875 4.046875 
Q 43.703125 -1.421875 29.984375 -1.421875 
Q 24.8125 -1.421875 18.96875 -0.25 
Q 13.140625 0.921875 6.890625 3.21875 
L 6.890625 13.375 
Q 12.890625 10.015625 18.65625 8.296875 
Q 24.421875 6.59375 29.984375 6.59375 
Q 38.421875 6.59375 43.015625 9.90625 
Q 47.609375 13.234375 47.609375 19.390625 
Q 47.609375 24.75 44.3125 27.78125 
Q 41.015625 30.8125 33.5 32.328125 
L 27.484375 33.5 
Q 16.453125 35.6875 11.515625 40.375 
Q 6.59375 45.0625 6.59375 53.421875 
Q 6.59375 63.09375 13.40625 68.65625 
Q 20.21875 74.21875 32.171875 74.21875 
Q 37.3125 74.21875 42.625 73.28125 
Q 47.953125 72.359375 53.515625 70.515625 
z
" id="DejaVuSans-83"/>
     <path id="DejaVuSans-32"/>
     <path d="M 54.890625 33.015625 
L 54.890625 0 
L 45.90625 0 
L 45.90625 32.71875 
Q 45.90625 40.484375 42.875 44.328125 
Q 39.84375 48.1875 33.796875 48.1875 
Q 26.515625 48.1875 22.3125 43.546875 
Q 18.109375 38.921875 18.109375 30.90625 
L 18.109375 0 
L 9.078125 0 
L 9.078125 75.984375 
L 18.109375 75.984375 
L 18.109375 46.1875 
Q 21.34375 51.125 25.703125 53.5625 
Q 30.078125 56 35.796875 56 
Q 45.21875 56 50.046875 50.171875 
Q 54.890625 44.34375 54.890625 33.015625 
z
" id="DejaVuSans-104"/>
     <path d="M 18.3125 70.21875 
L 18.3125 54.6875 
L 36.8125 54.6875 
L 36.8125 47.703125 
L 18.3125 47.703125 
L 18.3125 18.015625 
Q 18.3125 11.328125 20.140625 9.421875 
Q 21.96875 7.515625 27.59375 7.515625 
L 36.8125 7.515625 
L 36.8125 0 
L 27.59375 0 
Q 17.1875 0 13.234375 3.875 
Q 9.28125 7.765625 9.28125 18.015625 
L 9.28125 47.703125 
L 2.6875 47.703125 
L 2.6875 54.6875 
L 9.28125 54.6875 
L 9.28125 70.21875 
z
" id="DejaVuSans-116"/>
     <path d="M 30.609375 48.390625 
Q 23.390625 48.390625 19.1875 42.75 
Q 14.984375 37.109375 14.984375 27.296875 
Q 14.984375 17.484375 19.15625 11.84375 
Q 23.34375 6.203125 30.609375 6.203125 
Q 37.796875 6.203125 41.984375 11.859375 
Q 46.1875 17.53125 46.1875 27.296875 
Q 46.1875 37.015625 41.984375 42.703125 
Q 37.796875 48.390625 30.609375 48.390625 
z
M 30.609375 56 
Q 42.328125 56 49.015625 48.375 
Q 55.71875 40.765625 55.71875 27.296875 
Q 55.71875 13.875 49.015625 6.21875 
Q 42.328125 -1.421875 30.609375 -1.421875 
Q 18.84375 -1.421875 12.171875 6.21875 
Q 5.515625 13.875 5.515625 27.296875 
Q 5.515625 40.765625 12.171875 48.375 
Q 18.84375 56 30.609375 56 
z
" id="DejaVuSans-111"/>
     <path d="M 41.109375 46.296875 
Q 39.59375 47.171875 37.8125 47.578125 
Q 36.03125 48 33.890625 48 
Q 26.265625 48 22.1875 43.046875 
Q 18.109375 38.09375 18.109375 28.8125 
L 18.109375 0 
L 9.078125 0 
L 9.078125 54.6875 
L 18.109375 54.6875 
L 18.109375 46.1875 
Q 20.953125 51.171875 25.484375 53.578125 
Q 30.03125 56 36.53125 56 
Q 37.453125 56 38.578125 55.875 
Q 39.703125 55.765625 41.0625 55.515625 
z
" id="DejaVuSans-114"/>
     <path d="M 32.171875 -5.078125 
Q 28.375 -14.84375 24.75 -17.8125 
Q 21.140625 -20.796875 15.09375 -20.796875 
L 7.90625 -20.796875 
L 7.90625 -13.28125 
L 13.1875 -13.28125 
Q 16.890625 -13.28125 18.9375 -11.515625 
Q 21 -9.765625 23.484375 -3.21875 
L 25.09375 0.875 
L 2.984375 54.6875 
L 12.5 54.6875 
L 29.59375 11.921875 
L 46.6875 54.6875 
L 56.203125 54.6875 
z
" id="DejaVuSans-121"/>
     <path d="M 37.109375 75.984375 
L 37.109375 68.5 
L 28.515625 68.5 
Q 23.6875 68.5 21.796875 66.546875 
Q 19.921875 64.59375 19.921875 59.515625 
L 19.921875 54.6875 
L 34.71875 54.6875 
L 34.71875 47.703125 
L 19.921875 47.703125 
L 19.921875 0 
L 10.890625 0 
L 10.890625 47.703125 
L 2.296875 47.703125 
L 2.296875 54.6875 
L 10.890625 54.6875 
L 10.890625 58.5 
Q 10.890625 67.625 15.140625 71.796875 
Q 19.390625 75.984375 28.609375 75.984375 
z
" id="DejaVuSans-102"/>
     <path d="M 8.5 21.578125 
L 8.5 54.6875 
L 17.484375 54.6875 
L 17.484375 21.921875 
Q 17.484375 14.15625 20.5 10.265625 
Q 23.53125 6.390625 29.59375 6.390625 
Q 36.859375 6.390625 41.078125 11.03125 
Q 45.3125 15.671875 45.3125 23.6875 
L 45.3125 54.6875 
L 54.296875 54.6875 
L 54.296875 0 
L 45.3125 0 
L 45.3125 8.40625 
Q 42.046875 3.421875 37.71875 1 
Q 33.40625 -1.421875 27.6875 -1.421875 
Q 18.265625 -1.421875 13.375 4.4375 
Q 8.5 10.296875 8.5 21.578125 
z
M 31.109375 56 
z
" id="DejaVuSans-117"/>
     <path d="M 54.890625 33.015625 
L 54.890625 0 
L 45.90625 0 
L 45.90625 32.71875 
Q 45.90625 40.484375 42.875 44.328125 
Q 39.84375 48.1875 33.796875 48.1875 
Q 26.515625 48.1875 22.3125 43.546875 
Q 18.109375 38.921875 18.109375 30.90625 
L 18.109375 0 
L 9.078125 0 
L 9.078125 54.6875 
L 18.109375 54.6875 
L 18.109375 46.1875 
Q 21.34375 51.125 25.703125 53.5625 
Q 30.078125 56 35.796875 56 
Q 45.21875 56 50.046875 50.171875 
Q 54.890625 44.34375 54.890625 33.015625 
z
" id="DejaVuSans-110"/>
     <path d="M 2.984375 54.6875 
L 12.5 54.6875 
L 29.59375 8.796875 
L 46.6875 54.6875 
L 56.203125 54.6875 
L 35.6875 0 
L 23.484375 0 
z
" id="DejaVuSans-118"/>
     <path d="M 48.78125 52.59375 
L 48.78125 44.1875 
Q 44.96875 46.296875 41.140625 47.34375 
Q 37.3125 48.390625 33.40625 48.390625 
Q 24.65625 48.390625 19.8125 42.84375 
Q 14.984375 37.3125 14.984375 27.296875 
Q 14.984375 17.28125 19.8125 11.734375 
Q 24.65625 6.203125 33.40625 6.203125 
Q 37.3125 6.203125 41.140625 7.25 
Q 44.96875 8.296875 48.78125 10.40625 
L 48.78125 2.09375 
Q 45.015625 0.34375 40.984375 -0.53125 
Q 36.96875 -1.421875 32.421875 -1.421875 
Q 20.0625 -1.421875 12.78125 6.34375 
Q 5.515625 14.109375 5.515625 27.296875 
Q 5.515625 40.671875 12.859375 48.328125 
Q 20.21875 56 33.015625 56 
Q 37.15625 56 41.109375 55.140625 
Q 45.0625 54.296875 48.78125 52.59375 
z
" id="DejaVuSans-99"/>
     <path d="M 52 44.1875 
Q 55.375 50.25 60.0625 53.125 
Q 64.75 56 71.09375 56 
Q 79.640625 56 84.28125 50.015625 
Q 88.921875 44.046875 88.921875 33.015625 
L 88.921875 0 
L 79.890625 0 
L 79.890625 32.71875 
Q 79.890625 40.578125 77.09375 44.375 
Q 74.3125 48.1875 68.609375 48.1875 
Q 61.625 48.1875 57.5625 43.546875 
Q 53.515625 38.921875 53.515625 30.90625 
L 53.515625 0 
L 44.484375 0 
L 44.484375 32.71875 
Q 44.484375 40.625 41.703125 44.40625 
Q 38.921875 48.1875 33.109375 48.1875 
Q 26.21875 48.1875 22.15625 43.53125 
Q 18.109375 38.875 18.109375 30.90625 
L 18.109375 0 
L 9.078125 0 
L 9.078125 54.6875 
L 18.109375 54.6875 
L 18.109375 46.1875 
Q 21.1875 51.21875 25.484375 53.609375 
Q 29.78125 56 35.6875 56 
Q 41.65625 56 45.828125 52.96875 
Q 50 49.953125 52 44.1875 
z
" id="DejaVuSans-109"/>
     <path d="M 9.421875 75.984375 
L 18.40625 75.984375 
L 18.40625 0 
L 9.421875 0 
z
" id="DejaVuSans-108"/>
     <path d="M 45.40625 27.984375 
Q 45.40625 37.75 41.375 43.109375 
Q 37.359375 48.484375 30.078125 48.484375 
Q 22.859375 48.484375 18.828125 43.109375 
Q 14.796875 37.75 14.796875 27.984375 
Q 14.796875 18.265625 18.828125 12.890625 
Q 22.859375 7.515625 30.078125 7.515625 
Q 37.359375 7.515625 41.375 12.890625 
Q 45.40625 18.265625 45.40625 27.984375 
z
M 54.390625 6.78125 
Q 54.390625 -7.171875 48.1875 -13.984375 
Q 42 -20.796875 29.203125 -20.796875 
Q 24.46875 -20.796875 20.265625 -20.09375 
Q 16.0625 -19.390625 12.109375 -17.921875 
L 12.109375 -9.1875 
Q 16.0625 -11.328125 19.921875 -12.34375 
Q 23.78125 -13.375 27.78125 -13.375 
Q 36.625 -13.375 41.015625 -8.765625 
Q 45.40625 -4.15625 45.40625 5.171875 
L 45.40625 9.625 
Q 42.625 4.78125 38.28125 2.390625 
Q 33.9375 0 27.875 0 
Q 17.828125 0 11.671875 7.65625 
Q 5.515625 15.328125 5.515625 27.984375 
Q 5.515625 40.671875 11.671875 48.328125 
Q 17.828125 56 27.875 56 
Q 33.9375 56 38.28125 53.609375 
Q 42.625 51.21875 45.40625 46.390625 
L 45.40625 54.6875 
L 54.390625 54.6875 
z
" id="DejaVuSans-103"/>
     <path d="M 34.28125 27.484375 
Q 23.390625 27.484375 19.1875 25 
Q 14.984375 22.515625 14.984375 16.5 
Q 14.984375 11.71875 18.140625 8.90625 
Q 21.296875 6.109375 26.703125 6.109375 
Q 34.1875 6.109375 38.703125 11.40625 
Q 43.21875 16.703125 43.21875 25.484375 
L 43.21875 27.484375 
z
M 52.203125 31.203125 
L 52.203125 0 
L 43.21875 0 
L 43.21875 8.296875 
Q 40.140625 3.328125 35.546875 0.953125 
Q 30.953125 -1.421875 24.3125 -1.421875 
Q 15.921875 -1.421875 10.953125 3.296875 
Q 6 8.015625 6 15.921875 
Q 6 25.140625 12.171875 29.828125 
Q 18.359375 34.515625 30.609375 34.515625 
L 43.21875 34.515625 
L 43.21875 35.40625 
Q 43.21875 41.609375 39.140625 45 
Q 35.0625 48.390625 27.6875 48.390625 
Q 23 48.390625 18.546875 47.265625 
Q 14.109375 46.140625 10.015625 43.890625 
L 10.015625 52.203125 
Q 14.9375 54.109375 19.578125 55.046875 
Q 24.21875 56 28.609375 56 
Q 40.484375 56 46.34375 49.84375 
Q 52.203125 43.703125 52.203125 31.203125 
z
" id="DejaVuSans-97"/>
    </defs>
    <g transform="translate(17.934062 8.76)scale(0.12 -0.12)">
     <use xlink:href="#DejaVuSans-83"/>
     <use x="63.476562" xlink:href="#DejaVuSans-105"/>
     <use x="91.259766" xlink:href="#DejaVuSans-122"/>
     <use x="143.75" xlink:href="#DejaVuSans-101"/>
     <use x="205.273438" xlink:href="#DejaVuSans-32"/>
     <use x="237.060547" xlink:href="#DejaVuSans-104"/>
     <use x="300.439453" xlink:href="#DejaVuSans-105"/>
     <use x="328.222656" xlink:href="#DejaVuSans-115"/>
     <use x="380.322266" xlink:href="#DejaVuSans-116"/>
     <use x="419.53125" xlink:href="#DejaVuSans-111"/>
     <use x="480.712891" xlink:href="#DejaVuSans-114"/>
     <use x="521.826172" xlink:href="#DejaVuSans-121"/>
     <use x="581.005859" xlink:href="#DejaVuSans-32"/>
     <use x="612.792969" xlink:href="#DejaVuSans-111"/>
     <use x="673.974609" xlink:href="#DejaVuSans-102"/>
     <use x="709.179688" xlink:href="#DejaVuSans-32"/>
     <use x="740.966797" xlink:href="#DejaVuSans-116"/>
     <use x="780.175781" xlink:href="#DejaVuSans-104"/>
     <use x="843.554688" xlink:href="#DejaVuSans-101"/>
     <use x="905.078125" xlink:href="#DejaVuSans-32"/>
     <use x="936.865234" xlink:href="#DejaVuSans-117"/>
     <use x="1000.244141" xlink:href="#DejaVuSans-110"/>
     <use x="1063.623047" xlink:href="#DejaVuSans-105"/>
     <use x="1091.40625" xlink:href="#DejaVuSans-118"/>
     <use x="1150.585938" xlink:href="#DejaVuSans-101"/>
     <use x="1212.109375" xlink:href="#DejaVuSans-114"/>
     <use x="1253.222656" xlink:href="#DejaVuSans-115"/>
     <use x="1305.322266" xlink:href="#DejaVuSans-101"/>
     <use x="1366.845703" xlink:href="#DejaVuSans-32"/>
     <use x="1398.632812" xlink:href="#DejaVuSans-102"/>
     <use x="1433.837891" xlink:href="#DejaVuSans-111"/>
     <use x="1495.019531" xlink:href="#DejaVuSans-114"/>
     <use x="1536.132812" xlink:href="#DejaVuSans-32"/>
     <use x="1567.919922" xlink:href="#DejaVuSans-101"/>
     <use x="1629.443359" xlink:href="#DejaVuSans-102"/>
     <use x="1664.648438" xlink:href="#DejaVuSans-102"/>
     <use x="1699.853516" xlink:href="#DejaVuSans-101"/>
     <use x="1761.376953" xlink:href="#DejaVuSans-99"/>
     <use x="1816.357422" xlink:href="#DejaVuSans-116"/>
     <use x="1855.566406" xlink:href="#DejaVuSans-105"/>
     <use x="1883.349609" xlink:href="#DejaVuSans-118"/>
     <use x="1942.529297" xlink:href="#DejaVuSans-101"/>
     <use x="2004.052734" xlink:href="#DejaVuSans-32"/>
     <use x="2035.839844" xlink:href="#DejaVuSans-99"/>
     <use x="2090.820312" xlink:href="#DejaVuSans-111"/>
     <use x="2152.001953" xlink:href="#DejaVuSans-115"/>
     <use x="2204.101562" xlink:href="#DejaVuSans-109"/>
     <use x="2301.513672" xlink:href="#DejaVuSans-111"/>
     <use x="2362.695312" xlink:href="#DejaVuSans-108"/>
     <use x="2390.478516" xlink:href="#DejaVuSans-111"/>
     <use x="2451.660156" xlink:href="#DejaVuSans-103"/>
     <use x="2515.136719" xlink:href="#DejaVuSans-105"/>
     <use x="2542.919922" xlink:href="#DejaVuSans-99"/>
     <use x="2597.900391" xlink:href="#DejaVuSans-97"/>
     <use x="2659.179688" xlink:href="#DejaVuSans-108"/>
     <use x="2686.962891" xlink:href="#DejaVuSans-32"/>
     <use x="2718.75" xlink:href="#DejaVuSans-99"/>
     <use x="2773.730469" xlink:href="#DejaVuSans-111"/>
     <use x="2834.912109" xlink:href="#DejaVuSans-110"/>
     <use x="2898.291016" xlink:href="#DejaVuSans-115"/>
     <use x="2950.390625" xlink:href="#DejaVuSans-116"/>
     <use x="2989.599609" xlink:href="#DejaVuSans-97"/>
     <use x="3050.878906" xlink:href="#DejaVuSans-110"/>
     <use x="3114.257812" xlink:href="#DejaVuSans-116"/>
     <use x="3153.466797" xlink:href="#DejaVuSans-32"/>
     <use x="3185.253906" xlink:href="#DejaVuSans-48"/>
     <use x="3248.876953" xlink:href="#DejaVuSans-46"/>
     <use x="3280.664062" xlink:href="#DejaVuSans-54"/>
    </g>
   </g>
  </g>
 </g>
 <defs>
  <clipPath id="pca0036c076">
   <rect height="302.96" width="369.9" x="33.64" y="14.76"/>
  </clipPath>
 </defs>
</svg>
