<?xml version="1.0" encoding="utf-8" standalone="no"?>
<!DOCTYPE svg PUBLIC "-//W3C//DTD SVG 1.1//EN"
  "http://www.w3.org/Graphics/SVG/1.1/DTD/svg11.dtd">
<!-- Created with matplotlib (https://matplotlib.org/) -->
<svg height="345.6pt" version="1.1" viewBox="0 0 460.8 345.6" width="460.8pt" xmlns="http://www.w3.org/2000/svg" xmlns:xlink="http://www.w3.org/1999/xlink">
 <defs>
  <style type="text/css">
*{stroke-linecap:butt;stroke-linejoin:round;}
  </style>
 </defs>
 <g id="figure_1">
  <g id="patch_1">
   <path d="M 0 345.6 
L 460.8 345.6 
L 460.8 0 
L 0 0 
z
" style="fill:#ffffff;"/>
  </g>
  <g id="axes_1">
   <g id="patch_2">
    <path d="M 33.64 317.72 
L 403.54 317.72 
L 403.54 14.76 
L 33.64 14.76 
z
" style="fill:#ffffff;"/>
   </g>
   <g id="matplotlib.axis_1">
    <g id="xtick_1">
     <g id="line2d_1">
      <defs>
       <path d="M 0 0 
L 0 3.5 
" id="m5969b987d8" style="stroke:#000000;stroke-width:0.8;"/>
      </defs>
      <g>
       <use style="stroke:#000000;stroke-width:0.8;" x="33.64" xlink:href="#m5969b987d8" y="317.72"/>
      </g>
     </g>
     <g id="text_1">
      <!-- 0 -->
      <defs>
       <path d="M 31.78125 66.40625 
Q 24.171875 66.40625 20.328125 58.90625 
Q 16.5 51.421875 16.5 36.375 
Q 16.5 21.390625 20.328125 13.890625 
Q 24.171875 6.390625 31.78125 6.390625 
Q 39.453125 6.390625 43.28125 13.890625 
Q 47.125 21.390625 47.125 36.375 
Q 47.125 51.421875 43.28125 58.90625 
Q 39.453125 66.40625 31.78125 66.40625 
z
M 31.78125 74.21875 
Q 44.046875 74.21875 50.515625 64.515625 
Q 56.984375 54.828125 56.984375 36.375 
Q 56.984375 17.96875 50.515625 8.265625 
Q 44.046875 -1.421875 31.78125 -1.421875 
Q 19.53125 -1.421875 13.0625 8.265625 
Q 6.59375 17.96875 6.59375 36.375 
Q 6.59375 54.828125 13.0625 64.515625 
Q 19.53125 74.21875 31.78125 74.21875 
z
" id="DejaVuSans-48"/>
      </defs>
      <g transform="translate(30.45875 332.318437)scale(0.1 -0.1)">
       <use xlink:href="#DejaVuSans-48"/>
      </g>
     </g>
    </g>
    <g id="xtick_2">
     <g id="line2d_2">
      <g>
       <use style="stroke:#000000;stroke-width:0.8;" x="107.62" xlink:href="#m5969b987d8" y="317.72"/>
      </g>
     </g>
     <g id="text_2">
      <!-- 2000 -->
      <defs>
       <path d="M 19.1875 8.296875 
L 53.609375 8.296875 
L 53.609375 0 
L 7.328125 0 
L 7.328125 8.296875 
Q 12.9375 14.109375 22.625 23.890625 
Q 32.328125 33.6875 34.8125 36.53125 
Q 39.546875 41.84375 41.421875 45.53125 
Q 43.3125 49.21875 43.3125 52.78125 
Q 43.3125 58.59375 39.234375 62.25 
Q 35.15625 65.921875 28.609375 65.921875 
Q 23.96875 65.921875 18.8125 64.3125 
Q 13.671875 62.703125 7.8125 59.421875 
L 7.8125 69.390625 
Q 13.765625 71.78125 18.9375 73 
Q 24.125 74.21875 28.421875 74.21875 
Q 39.75 74.21875 46.484375 68.546875 
Q 53.21875 62.890625 53.21875 53.421875 
Q 53.21875 48.921875 51.53125 44.890625 
Q 49.859375 40.875 45.40625 35.40625 
Q 44.1875 33.984375 37.640625 27.21875 
Q 31.109375 20.453125 19.1875 8.296875 
z
" id="DejaVuSans-50"/>
      </defs>
      <g transform="translate(94.895 332.318437)scale(0.1 -0.1)">
       <use xlink:href="#DejaVuSans-50"/>
       <use x="63.623047" xlink:href="#DejaVuSans-48"/>
       <use x="127.246094" xlink:href="#DejaVuSans-48"/>
       <use x="190.869141" xlink:href="#DejaVuSans-48"/>
      </g>
     </g>
    </g>
    <g id="xtick_3">
     <g id="line2d_3">
      <g>
       <use style="stroke:#000000;stroke-width:0.8;" x="181.6" xlink:href="#m5969b987d8" y="317.72"/>
      </g>
     </g>
     <g id="text_3">
      <!-- 4000 -->
      <defs>
       <path d="M 37.796875 64.3125 
L 12.890625 25.390625 
L 37.796875 25.390625 
z
M 35.203125 72.90625 
L 47.609375 72.90625 
L 47.609375 25.390625 
L 58.015625 25.390625 
L 58.015625 17.1875 
L 47.609375 17.1875 
L 47.609375 0 
L 37.796875 0 
L 37.796875 17.1875 
L 4.890625 17.1875 
L 4.890625 26.703125 
z
" id="DejaVuSans-52"/>
      </defs>
      <g transform="translate(168.875 332.318437)scale(0.1 -0.1)">
       <use xlink:href="#DejaVuSans-52"/>
       <use x="63.623047" xlink:href="#DejaVuSans-48"/>
       <use x="127.246094" xlink:href="#DejaVuSans-48"/>
       <use x="190.869141" xlink:href="#DejaVuSans-48"/>
      </g>
     </g>
    </g>
    <g id="xtick_4">
     <g id="line2d_4">
      <g>
       <use style="stroke:#000000;stroke-width:0.8;" x="255.58" xlink:href="#m5969b987d8" y="317.72"/>
      </g>
     </g>
     <g id="text_4">
      <!-- 6000 -->
      <defs>
       <path d="M 33.015625 40.375 
Q 26.375 40.375 22.484375 35.828125 
Q 18.609375 31.296875 18.609375 23.390625 
Q 18.609375 15.53125 22.484375 10.953125 
Q 26.375 6.390625 33.015625 6.390625 
Q 39.65625 6.390625 43.53125 10.953125 
Q 47.40625 15.53125 47.40625 23.390625 
Q 47.40625 31.296875 43.53125 35.828125 
Q 39.65625 40.375 33.015625 40.375 
z
M 52.59375 71.296875 
L 52.59375 62.3125 
Q 48.875 64.0625 45.09375 64.984375 
Q 41.3125 65.921875 37.59375 65.921875 
Q 27.828125 65.921875 22.671875 59.328125 
Q 17.53125 52.734375 16.796875 39.40625 
Q 19.671875 43.65625 24.015625 45.921875 
Q 28.375 48.1875 33.59375 48.1875 
Q 44.578125 48.1875 50.953125 41.515625 
Q 57.328125 34.859375 57.328125 23.390625 
Q 57.328125 12.15625 50.6875 5.359375 
Q 44.046875 -1.421875 33.015625 -1.421875 
Q 20.359375 -1.421875 13.671875 8.265625 
Q 6.984375 17.96875 6.984375 36.375 
Q 6.984375 53.65625 15.1875 63.9375 
Q 23.390625 74.21875 37.203125 74.21875 
Q 40.921875 74.21875 44.703125 73.484375 
Q 48.484375 72.75 52.59375 71.296875 
z
" id="DejaVuSans-54"/>
      </defs>
      <g transform="translate(242.855 332.318437)scale(0.1 -0.1)">
       <use xlink:href="#DejaVuSans-54"/>
       <use x="63.623047" xlink:href="#DejaVuSans-48"/>
       <use x="127.246094" xlink:href="#DejaVuSans-48"/>
       <use x="190.869141" xlink:href="#DejaVuSans-48"/>
      </g>
     </g>
    </g>
    <g id="xtick_5">
     <g id="line2d_5">
      <g>
       <use style="stroke:#000000;stroke-width:0.8;" x="329.56" xlink:href="#m5969b987d8" y="317.72"/>
      </g>
     </g>
     <g id="text_5">
      <!-- 8000 -->
      <defs>
       <path d="M 31.78125 34.625 
Q 24.75 34.625 20.71875 30.859375 
Q 16.703125 27.09375 16.703125 20.515625 
Q 16.703125 13.921875 20.71875 10.15625 
Q 24.75 6.390625 31.78125 6.390625 
Q 38.8125 6.390625 42.859375 10.171875 
Q 46.921875 13.96875 46.921875 20.515625 
Q 46.921875 27.09375 42.890625 30.859375 
Q 38.875 34.625 31.78125 34.625 
z
M 21.921875 38.8125 
Q 15.578125 40.375 12.03125 44.71875 
Q 8.5 49.078125 8.5 55.328125 
Q 8.5 64.0625 14.71875 69.140625 
Q 20.953125 74.21875 31.78125 74.21875 
Q 42.671875 74.21875 48.875 69.140625 
Q 55.078125 64.0625 55.078125 55.328125 
Q 55.078125 49.078125 51.53125 44.71875 
Q 48 40.375 41.703125 38.8125 
Q 48.828125 37.15625 52.796875 32.3125 
Q 56.78125 27.484375 56.78125 20.515625 
Q 56.78125 9.90625 50.3125 4.234375 
Q 43.84375 -1.421875 31.78125 -1.421875 
Q 19.734375 -1.421875 13.25 4.234375 
Q 6.78125 9.90625 6.78125 20.515625 
Q 6.78125 27.484375 10.78125 32.3125 
Q 14.796875 37.15625 21.921875 38.8125 
z
M 18.3125 54.390625 
Q 18.3125 48.734375 21.84375 45.5625 
Q 25.390625 42.390625 31.78125 42.390625 
Q 38.140625 42.390625 41.71875 45.5625 
Q 45.3125 48.734375 45.3125 54.390625 
Q 45.3125 60.0625 41.71875 63.234375 
Q 38.140625 66.40625 31.78125 66.40625 
Q 25.390625 66.40625 21.84375 63.234375 
Q 18.3125 60.0625 18.3125 54.390625 
z
" id="DejaVuSans-56"/>
      </defs>
      <g transform="translate(316.835 332.318437)scale(0.1 -0.1)">
       <use xlink:href="#DejaVuSans-56"/>
       <use x="63.623047" xlink:href="#DejaVuSans-48"/>
       <use x="127.246094" xlink:href="#DejaVuSans-48"/>
       <use x="190.869141" xlink:href="#DejaVuSans-48"/>
      </g>
     </g>
    </g>
    <g id="xtick_6">
     <g id="line2d_6">
      <g>
       <use style="stroke:#000000;stroke-width:0.8;" x="403.54" xlink:href="#m5969b987d8" y="317.72"/>
      </g>
     </g>
     <g id="text_6">
      <!-- 10000 -->
      <defs>
       <path d="M 12.40625 8.296875 
L 28.515625 8.296875 
L 28.515625 63.921875 
L 10.984375 60.40625 
L 10.984375 69.390625 
L 28.421875 72.90625 
L 38.28125 72.90625 
L 38.28125 8.296875 
L 54.390625 8.296875 
L 54.390625 0 
L 12.40625 0 
z
" id="DejaVuSans-49"/>
      </defs>
      <g transform="translate(387.63375 332.318437)scale(0.1 -0.1)">
       <use xlink:href="#DejaVuSans-49"/>
       <use x="63.623047" xlink:href="#DejaVuSans-48"/>
       <use x="127.246094" xlink:href="#DejaVuSans-48"/>
       <use x="190.869141" xlink:href="#DejaVuSans-48"/>
       <use x="254.492188" xlink:href="#DejaVuSans-48"/>
      </g>
     </g>
    </g>
   </g>
   <g id="matplotlib.axis_2">
    <g id="ytick_1">
     <g id="line2d_7">
      <defs>
       <path d="M 0 0 
L -3.5 0 
" id="md2a67dacd9" style="stroke:#000000;stroke-width:0.8;"/>
      </defs>
      <g>
       <use style="stroke:#000000;stroke-width:0.8;" x="33.64" xlink:href="#md2a67dacd9" y="317.72"/>
      </g>
     </g>
     <g id="text_7">
      <!-- 0.0 -->
      <defs>
       <path d="M 10.6875 12.40625 
L 21 12.40625 
L 21 0 
L 10.6875 0 
z
" id="DejaVuSans-46"/>
      </defs>
      <g transform="translate(10.736875 321.519219)scale(0.1 -0.1)">
       <use xlink:href="#DejaVuSans-48"/>
       <use x="63.623047" xlink:href="#DejaVuSans-46"/>
       <use x="95.410156" xlink:href="#DejaVuSans-48"/>
      </g>
     </g>
    </g>
    <g id="ytick_2">
     <g id="line2d_8">
      <g>
       <use style="stroke:#000000;stroke-width:0.8;" x="33.64" xlink:href="#md2a67dacd9" y="257.128"/>
      </g>
     </g>
     <g id="text_8">
      <!-- 0.2 -->
      <g transform="translate(10.736875 260.927219)scale(0.1 -0.1)">
       <use xlink:href="#DejaVuSans-48"/>
       <use x="63.623047" xlink:href="#DejaVuSans-46"/>
       <use x="95.410156" xlink:href="#DejaVuSans-50"/>
      </g>
     </g>
    </g>
    <g id="ytick_3">
     <g id="line2d_9">
      <g>
       <use style="stroke:#000000;stroke-width:0.8;" x="33.64" xlink:href="#md2a67dacd9" y="196.536"/>
      </g>
     </g>
     <g id="text_9">
      <!-- 0.4 -->
      <g transform="translate(10.736875 200.335219)scale(0.1 -0.1)">
       <use xlink:href="#DejaVuSans-48"/>
       <use x="63.623047" xlink:href="#DejaVuSans-46"/>
       <use x="95.410156" xlink:href="#DejaVuSans-52"/>
      </g>
     </g>
    </g>
    <g id="ytick_4">
     <g id="line2d_10">
      <g>
       <use style="stroke:#000000;stroke-width:0.8;" x="33.64" xlink:href="#md2a67dacd9" y="135.944"/>
      </g>
     </g>
     <g id="text_10">
      <!-- 0.6 -->
      <g transform="translate(10.736875 139.743219)scale(0.1 -0.1)">
       <use xlink:href="#DejaVuSans-48"/>
       <use x="63.623047" xlink:href="#DejaVuSans-46"/>
       <use x="95.410156" xlink:href="#DejaVuSans-54"/>
      </g>
     </g>
    </g>
    <g id="ytick_5">
     <g id="line2d_11">
      <g>
       <use style="stroke:#000000;stroke-width:0.8;" x="33.64" xlink:href="#md2a67dacd9" y="75.352"/>
      </g>
     </g>
     <g id="text_11">
      <!-- 0.8 -->
      <g transform="translate(10.736875 79.151219)scale(0.1 -0.1)">
       <use xlink:href="#DejaVuSans-48"/>
       <use x="63.623047" xlink:href="#DejaVuSans-46"/>
       <use x="95.410156" xlink:href="#DejaVuSans-56"/>
      </g>
     </g>
    </g>
    <g id="ytick_6">
     <g id="line2d_12">
      <g>
       <use style="stroke:#000000;stroke-width:0.8;" x="33.64" xlink:href="#md2a67dacd9" y="14.76"/>
      </g>
     </g>
     <g id="text_12">
      <!-- 1.0 -->
      <g transform="translate(10.736875 18.559219)scale(0.1 -0.1)">
       <use xlink:href="#DejaVuSans-49"/>
       <use x="63.623047" xlink:href="#DejaVuSans-46"/>
       <use x="95.410156" xlink:href="#DejaVuSans-48"/>
      </g>
     </g>
    </g>
   </g>
   <g id="patch_3">
    <path d="M 33.64 317.72 
L 33.64 14.76 
" style="fill:none;stroke:#000000;stroke-linecap:square;stroke-linejoin:miter;stroke-width:0.8;"/>
   </g>
   <g id="patch_4">
    <path d="M 403.54 317.72 
L 403.54 14.76 
" style="fill:none;stroke:#000000;stroke-linecap:square;stroke-linejoin:miter;stroke-width:0.8;"/>
   </g>
   <g id="patch_5">
    <path d="M 33.64 317.72 
L 403.54 317.72 
" style="fill:none;stroke:#000000;stroke-linecap:square;stroke-linejoin:miter;stroke-width:0.8;"/>
   </g>
   <g id="patch_6">
    <path d="M 33.64 14.76 
L 403.54 14.76 
" style="fill:none;stroke:#000000;stroke-linecap:square;stroke-linejoin:miter;stroke-width:0.8;"/>
   </g>
  </g>
  <g id="axes_2">
   <g id="matplotlib.axis_3">
    <g id="ytick_7">
     <g id="line2d_13">
      <defs>
       <path d="M 0 0 
L 3.5 0 
" id="m05be239687" style="stroke:#000000;stroke-width:0.8;"/>
      </defs>
      <g>
       <use style="stroke:#000000;stroke-width:0.8;" x="403.54" xlink:href="#m05be239687" y="317.72"/>
      </g>
     </g>
     <g id="text_13">
      <!-- 0 -->
      <g transform="translate(410.54 321.519219)scale(0.1 -0.1)">
       <use xlink:href="#DejaVuSans-48"/>
      </g>
     </g>
    </g>
    <g id="ytick_8">
     <g id="line2d_14">
      <g>
       <use style="stroke:#000000;stroke-width:0.8;" x="403.54" xlink:href="#m05be239687" y="257.128"/>
      </g>
     </g>
     <g id="text_14">
      <!-- 2000 -->
      <g transform="translate(410.54 260.927219)scale(0.1 -0.1)">
       <use xlink:href="#DejaVuSans-50"/>
       <use x="63.623047" xlink:href="#DejaVuSans-48"/>
       <use x="127.246094" xlink:href="#DejaVuSans-48"/>
       <use x="190.869141" xlink:href="#DejaVuSans-48"/>
      </g>
     </g>
    </g>
    <g id="ytick_9">
     <g id="line2d_15">
      <g>
       <use style="stroke:#000000;stroke-width:0.8;" x="403.54" xlink:href="#m05be239687" y="196.536"/>
      </g>
     </g>
     <g id="text_15">
      <!-- 4000 -->
      <g transform="translate(410.54 200.335219)scale(0.1 -0.1)">
       <use xlink:href="#DejaVuSans-52"/>
       <use x="63.623047" xlink:href="#DejaVuSans-48"/>
       <use x="127.246094" xlink:href="#DejaVuSans-48"/>
       <use x="190.869141" xlink:href="#DejaVuSans-48"/>
      </g>
     </g>
    </g>
    <g id="ytick_10">
     <g id="line2d_16">
      <g>
       <use style="stroke:#000000;stroke-width:0.8;" x="403.54" xlink:href="#m05be239687" y="135.944"/>
      </g>
     </g>
     <g id="text_16">
      <!-- 6000 -->
      <g transform="translate(410.54 139.743219)scale(0.1 -0.1)">
       <use xlink:href="#DejaVuSans-54"/>
       <use x="63.623047" xlink:href="#DejaVuSans-48"/>
       <use x="127.246094" xlink:href="#DejaVuSans-48"/>
       <use x="190.869141" xlink:href="#DejaVuSans-48"/>
      </g>
     </g>
    </g>
    <g id="ytick_11">
     <g id="line2d_17">
      <g>
       <use style="stroke:#000000;stroke-width:0.8;" x="403.54" xlink:href="#m05be239687" y="75.352"/>
      </g>
     </g>
     <g id="text_17">
      <!-- 8000 -->
      <g transform="translate(410.54 79.151219)scale(0.1 -0.1)">
       <use xlink:href="#DejaVuSans-56"/>
       <use x="63.623047" xlink:href="#DejaVuSans-48"/>
       <use x="127.246094" xlink:href="#DejaVuSans-48"/>
       <use x="190.869141" xlink:href="#DejaVuSans-48"/>
      </g>
     </g>
    </g>
    <g id="ytick_12">
     <g id="line2d_18">
      <g>
       <use style="stroke:#000000;stroke-width:0.8;" x="403.54" xlink:href="#m05be239687" y="14.76"/>
      </g>
     </g>
     <g id="text_18">
      <!-- 10000 -->
      <g transform="translate(410.54 18.559219)scale(0.1 -0.1)">
       <use xlink:href="#DejaVuSans-49"/>
       <use x="63.623047" xlink:href="#DejaVuSans-48"/>
       <use x="127.246094" xlink:href="#DejaVuSans-48"/>
       <use x="190.869141" xlink:href="#DejaVuSans-48"/>
       <use x="254.492188" xlink:href="#DejaVuSans-48"/>
      </g>
     </g>
    </g>
    <g id="text_19">
     <!-- size -->
     <defs>
      <path d="M 44.28125 53.078125 
L 44.28125 44.578125 
Q 40.484375 46.53125 36.375 47.5 
Q 32.28125 48.484375 27.875 48.484375 
Q 21.1875 48.484375 17.84375 46.4375 
Q 14.5 44.390625 14.5 40.28125 
Q 14.5 37.15625 16.890625 35.375 
Q 19.28125 33.59375 26.515625 31.984375 
L 29.59375 31.296875 
Q 39.15625 29.25 43.1875 25.515625 
Q 47.21875 21.78125 47.21875 15.09375 
Q 47.21875 7.46875 41.1875 3.015625 
Q 35.15625 -1.421875 24.609375 -1.421875 
Q 20.21875 -1.421875 15.453125 -0.5625 
Q 10.6875 0.296875 5.421875 2 
L 5.421875 11.28125 
Q 10.40625 8.6875 15.234375 7.390625 
Q 20.0625 6.109375 24.8125 6.109375 
Q 31.15625 6.109375 34.5625 8.28125 
Q 37.984375 10.453125 37.984375 14.40625 
Q 37.984375 18.0625 35.515625 20.015625 
Q 33.0625 21.96875 24.703125 23.78125 
L 21.578125 24.515625 
Q 13.234375 26.265625 9.515625 29.90625 
Q 5.8125 33.546875 5.8125 39.890625 
Q 5.8125 47.609375 11.28125 51.796875 
Q 16.75 56 26.8125 56 
Q 31.78125 56 36.171875 55.265625 
Q 40.578125 54.546875 44.28125 53.078125 
z
" id="DejaVuSans-115"/>
      <path d="M 9.421875 54.6875 
L 18.40625 54.6875 
L 18.40625 0 
L 9.421875 0 
z
M 9.421875 75.984375 
L 18.40625 75.984375 
L 18.40625 64.59375 
L 9.421875 64.59375 
z
" id="DejaVuSans-105"/>
      <path d="M 5.515625 54.6875 
L 48.1875 54.6875 
L 48.1875 46.484375 
L 14.40625 7.171875 
L 48.1875 7.171875 
L 48.1875 0 
L 4.296875 0 
L 4.296875 8.203125 
L 38.09375 47.515625 
L 5.515625 47.515625 
z
" id="DejaVuSans-122"/>
      <path d="M 56.203125 29.59375 
L 56.203125 25.203125 
L 14.890625 25.203125 
Q 15.484375 15.921875 20.484375 11.0625 
Q 25.484375 6.203125 34.421875 6.203125 
Q 39.59375 6.203125 44.453125 7.46875 
Q 49.3125 8.734375 54.109375 11.28125 
L 54.109375 2.78125 
Q 49.265625 0.734375 44.1875 -0.34375 
Q 39.109375 -1.421875 33.890625 -1.421875 
Q 20.796875 -1.421875 13.15625 6.1875 
Q 5.515625 13.8125 5.515625 26.8125 
Q 5.515625 40.234375 12.765625 48.109375 
Q 20.015625 56 32.328125 56 
Q 43.359375 56 49.78125 48.890625 
Q 56.203125 41.796875 56.203125 29.59375 
z
M 47.21875 32.234375 
Q 47.125 39.59375 43.09375 43.984375 
Q 39.0625 48.390625 32.421875 48.390625 
Q 24.90625 48.390625 20.390625 44.140625 
Q 15.875 39.890625 15.1875 32.171875 
z
" id="DejaVuSans-101"/>
     </defs>
     <g transform="translate(453.950937 175.934531)rotate(-90)scale(0.1 -0.1)">
      <use xlink:href="#DejaVuSans-115"/>
      <use x="52.099609" xlink:href="#DejaVuSans-105"/>
      <use x="79.882812" xlink:href="#DejaVuSans-122"/>
      <use x="132.373047" xlink:href="#DejaVuSans-101"/>
     </g>
    </g>
   </g>
   <g id="line2d_19">
    <path clip-path="url(#pfbc6f9ac0a)" d="M 33.64 255.643496 
L 33.86194 253.49248 
L 34.04689 251.765608 
L 34.19485 250.856728 
L 34.23184 251.250576 
L 34.26883 251.159688 
L 34.49077 249.523704 
L 34.7497 248.887488 
L 34.89766 248.281568 
L 35.00863 248.220976 
L 35.04562 247.88772 
L 35.08261 248.160384 
L 35.19358 248.49364 
L 35.26756 248.402752 
L 35.30455 248.099792 
L 35.34154 248.584528 
L 35.37853 248.402752 
L 35.41552 248.433048 
L 35.45251 248.281568 
L 35.4895 248.584528 
L 35.52649 248.433048 
L 35.56348 248.463344 
L 35.60047 248.0392 
L 35.67445 248.251272 
L 35.74843 249.038968 
L 35.82241 248.857192 
L 35.8594 248.705712 
L 35.89639 248.978376 
L 35.93338 248.766304 
L 36.15532 249.341928 
L 36.34027 249.644888 
L 36.41425 249.220744 
L 36.45124 249.25104 
L 36.63619 250.432584 
L 36.71017 250.46288 
L 36.78415 250.099328 
L 36.85813 249.826664 
L 36.93211 249.887256 
L 36.9691 249.978144 
L 37.11706 249.644888 
L 37.19104 249.675184 
L 37.22803 249.917552 
L 37.30201 249.796368 
L 37.339 249.826664 
L 37.48696 250.402288 
L 37.59793 249.644888 
L 37.63492 250.038736 
L 37.74589 250.493176 
L 37.78288 250.341696 
L 37.81987 250.15992 
L 37.85686 250.432584 
L 37.89385 250.432584 
L 37.93084 250.281104 
L 37.96783 250.493176 
L 38.04181 250.705248 
L 38.0788 250.644656 
L 38.11579 250.281104 
L 38.18977 250.46288 
L 38.26375 250.432584 
L 38.33773 251.099096 
L 38.52268 252.795672 
L 38.59666 252.341232 
L 38.67064 251.795904 
L 38.70763 252.007976 
L 38.78161 252.43212 
L 38.8186 252.098864 
L 38.92957 251.917088 
L 39.22549 252.704784 
L 39.26248 252.644192 
L 39.29947 252.977448 
L 39.37345 252.825968 
L 39.48442 252.43212 
L 39.59539 252.825968 
L 39.63238 252.795672 
L 39.70636 252.462416 
L 39.74335 252.553304 
L 39.81733 252.977448 
L 39.89131 252.250344 
L 39.9283 252.492712 
L 39.96529 252.523008 
L 40.11325 253.068336 
L 40.18723 252.795672 
L 40.22422 252.947152 
L 40.2982 253.79544 
L 40.33519 253.341 
L 40.44616 252.947152 
L 40.59412 254.0984 
L 40.63111 254.068104 
L 40.74208 254.189288 
L 40.77907 254.007512 
L 40.81606 254.55284 
L 40.89004 254.461952 
L 40.92703 254.340768 
L 40.96402 254.795208 
L 41.038 254.613432 
L 41.07499 254.492248 
L 41.11198 254.643728 
L 41.25994 255.15876 
L 41.51887 256.340304 
L 41.96275 258.976056 
L 41.99974 258.763984 
L 42.07372 258.248952 
L 42.11071 258.551912 
L 42.1477 258.94576 
L 42.22168 258.612504 
L 42.33265 258.067176 
L 42.36964 258.582208 
L 42.44362 258.33984 
L 42.48061 257.945992 
L 42.55459 258.127768 
L 42.59158 258.127768 
L 42.62857 258.279248 
L 42.66556 258.03688 
L 42.77653 257.58244 
L 42.85051 257.764216 
L 42.96148 258.582208 
L 42.99847 258.33984 
L 43.03546 258.067176 
L 43.07245 258.097472 
L 43.22041 258.915464 
L 43.33138 258.6428 
L 43.47934 259.24872 
L 43.51633 258.854872 
L 43.59031 259.006352 
L 43.73827 259.672864 
L 43.77526 259.70316 
L 43.92322 260.46056 
L 43.96021 260.30908 
L 44.03419 259.945528 
L 44.07118 260.1576 
L 44.18215 260.884704 
L 44.33011 261.884472 
L 44.55205 262.975128 
L 44.62603 262.793352 
L 44.737 262.369208 
L 44.81098 262.4298 
L 44.84797 262.460096 
L 45.32884 265.277624 
L 45.69874 266.550056 
L 45.73573 266.51976 
L 45.77272 266.186504 
L 45.80971 266.307688 
L 45.88369 266.277392 
L 45.95767 266.762128 
L 45.99466 266.701536 
L 46.03165 266.82272 
L 46.06864 267.095384 
L 46.10563 266.701536 
L 46.14262 266.731832 
L 46.17961 266.913608 
L 46.25359 266.277392 
L 46.29058 266.489464 
L 46.54951 267.943672 
L 46.73446 268.852552 
L 46.91941 269.70084 
L 46.9564 269.519064 
L 47.03038 270.337056 
L 47.10436 270.064392 
L 47.21533 270.094688 
L 47.43727 271.21564 
L 47.47426 271.185344 
L 47.51125 271.336824 
L 47.58523 271.21564 
L 47.65921 271.245936 
L 47.80717 270.579424 
L 47.84416 270.791496 
L 47.91814 270.7612 
L 48.02911 270.185576 
L 48.0661 270.276464 
L 48.10309 270.185576 
L 48.14008 270.367352 
L 48.17707 270.397648 
L 48.28804 271.21564 
L 48.32503 270.91268 
L 48.36202 271.003568 
L 48.436 270.488536 
L 48.47299 270.7612 
L 48.50998 270.60972 
L 48.54697 270.821792 
L 48.58396 270.730904 
L 48.76891 271.851856 
L 48.8059 271.760968 
L 48.84289 271.67008 
L 49.02784 272.851624 
L 49.06483 272.700144 
L 49.1758 272.366888 
L 49.28677 273.0334 
L 49.36075 272.972808 
L 49.39774 273.003104 
L 49.84162 274.942048 
L 49.87861 274.760272 
L 49.9156 274.972344 
L 49.95259 274.972344 
L 50.02657 275.15412 
L 50.06356 274.881456 
L 50.13754 274.911752 
L 50.2855 275.547968 
L 50.6554 277.093064 
L 50.72938 277.365728 
L 50.76637 277.12336 
L 50.80336 277.032472 
L 50.98831 278.244312 
L 51.0253 278.153424 
L 51.21025 278.759344 
L 51.32122 279.183488 
L 51.35821 278.880528 
L 51.43219 279.122896 
L 51.54316 278.759344 
L 51.58015 278.880528 
L 51.83908 279.910592 
L 51.98704 280.486216 
L 52.06102 280.365032 
L 52.09801 280.274144 
L 52.28296 281.031544 
L 52.35694 281.06184 
L 52.46791 280.789176 
L 52.5049 280.849768 
L 52.61587 280.486216 
L 52.65286 280.75888 
L 52.68985 280.577104 
L 52.80082 280.122664 
L 52.94878 280.637696 
L 53.17072 279.819704 
L 53.2447 280.45592 
L 53.31868 280.395328 
L 53.6146 281.304208 
L 53.76256 280.819472 
L 53.87353 281.425392 
L 53.91052 281.395096 
L 53.94751 281.031544 
L 53.9845 281.21332 
L 54.09547 281.51628 
L 54.13246 281.06184 
L 54.20644 281.3648 
L 54.24343 281.334504 
L 54.42838 282.334272 
L 54.50236 282.031312 
L 54.53935 282.152496 
L 54.57634 282.152496 
L 54.61333 281.940424 
L 54.65032 282.001016 
L 54.7243 282.667528 
L 54.79828 282.606936 
L 54.83527 282.455456 
L 54.87226 282.485752 
L 54.94624 282.455456 
L 55.02022 282.788712 
L 55.05721 282.546344 
L 55.0942 282.788712 
L 55.35313 283.606704 
L 55.39012 283.424928 
L 55.53808 283.667296 
L 55.72303 284.636768 
L 55.79701 284.24292 
L 55.834 284.364104 
L 56.01895 285.272984 
L 56.05594 285.333576 
L 56.09293 284.879136 
L 56.12992 285.363872 
L 56.16691 285.242688 
L 56.2039 285.1518 
L 56.24089 285.363872 
L 56.27788 285.060912 
L 56.31487 285.091208 
L 56.35186 284.788248 
L 56.42584 284.939728 
L 56.49982 285.424464 
L 56.53681 285.1518 
L 56.61079 284.939728 
L 56.64778 285.00032 
L 56.83273 285.788016 
L 56.90671 285.878904 
L 57.09166 285.212392 
L 57.20263 286.303048 
L 57.27661 286.090976 
L 57.35059 286.151568 
L 57.42457 286.06068 
L 57.60952 287.666368 
L 57.64651 287.211928 
L 57.72049 287.484592 
L 57.79447 288.241992 
L 57.86845 288.151104 
L 57.90544 287.87844 
L 57.97942 287.969328 
L 58.12738 288.726728 
L 58.34932 289.029688 
L 58.57126 288.272288 
L 58.60825 288.423768 
L 58.83019 289.332648 
L 58.86718 289.150872 
L 59.05213 290.332416 
L 59.08912 290.059752 
L 59.1631 290.241528 
L 59.27407 289.726496 
L 59.31106 289.99916 
L 59.42203 290.998928 
L 59.56999 291.907808 
L 59.68096 291.756328 
L 60.2728 294.452672 
L 60.30979 293.998232 
L 60.34678 293.78616 
L 60.38377 293.93764 
L 60.42076 294.058824 
L 60.56872 294.573856 
L 60.6427 294.84652 
L 60.71668 294.664744 
L 60.75367 294.54356 
L 60.79066 294.664744 
L 60.82765 294.785928 
L 60.86464 294.634448 
L 60.90163 294.755632 
L 60.93862 294.39208 
L 61.0126 294.604152 
L 61.16056 294.2406 
L 61.23454 294.119416 
L 61.30852 294.452672 
L 61.41949 294.634448 
L 61.45648 294.785928 
L 61.49347 294.755632 
L 61.53046 294.604152 
L 61.60444 295.119184 
L 61.64143 295.088888 
L 61.71541 294.634448 
L 61.7524 294.967704 
L 61.78939 294.998 
L 61.90036 295.694808 
L 61.93735 295.664512 
L 62.01133 295.876584 
L 62.08531 296.573392 
L 62.15929 296.543096 
L 62.27026 296.785464 
L 62.41822 296.421912 
L 62.60317 297.451976 
L 62.64016 297.361088 
L 62.78812 297.694344 
L 62.89909 297.391384 
L 62.93608 297.42168 
L 63.04705 297.87612 
L 63.19501 298.512336 
L 63.52792 299.84536 
L 63.56491 299.69388 
L 63.6019 299.875656 
L 63.89782 301.905488 
L 63.93481 301.844896 
L 63.9718 301.541936 
L 64.00879 301.693416 
L 64.04578 301.875192 
L 64.08277 301.51164 
L 64.26772 301.20868 
L 64.48966 301.693416 
L 64.60063 300.90572 
L 64.63762 300.936016 
L 65.0815 302.844664 
L 65.11849 302.632592 
L 65.15548 303.02644 
L 65.19247 303.087032 
L 65.34043 303.905024 
L 65.37742 303.905024 
L 65.56237 305.025976 
L 65.78431 305.75308 
L 65.63635 304.935088 
L 65.8213 305.541008 
L 65.89528 305.328936 
L 65.93227 305.45012 
L 66.08023 305.328936 
L 66.26518 306.268112 
L 66.30217 306.237816 
L 66.45013 306.51048 
L 66.48712 306.328704 
L 66.52411 306.540776 
L 66.74605 307.237584 
L 66.78304 307.1164 
L 66.931 307.57084 
L 66.96799 307.41936 
L 67.00498 307.601136 
L 67.26391 309.115936 
L 67.33789 308.964456 
L 67.92973 311.751688 
L 67.96672 311.721392 
L 68.00371 311.781984 
L 68.07769 312.206128 
L 68.22565 313.084712 
L 68.29963 312.690864 
L 68.33662 312.87264 
L 68.70652 316.902008 
L 68.70652 316.902008 
" style="fill:none;stroke:#1f77b4;stroke-linecap:square;stroke-width:1.5;"/>
   </g>
   <g id="line2d_20">
    <path clip-path="url(#pfbc6f9ac0a)" d="M 33.64 255.704088 
L 33.71398 255.189056 
L 33.78796 255.401128 
L 33.86194 255.00728 
L 34.12087 253.007744 
L 34.3798 251.553536 
L 34.45378 252.038272 
L 34.49077 251.856496 
L 34.60174 251.099096 
L 34.63873 251.280872 
L 34.71271 251.22028 
L 34.7497 251.341464 
L 34.89766 250.553768 
L 34.97164 250.674952 
L 35.1196 250.61436 
L 35.23057 250.15992 
L 35.26756 250.341696 
L 35.30455 250.432584 
L 35.34154 250.281104 
L 35.41552 250.129624 
L 35.45251 250.220512 
L 35.52649 250.371992 
L 35.67445 250.947616 
L 35.71144 251.038504 
L 35.74843 250.947616 
L 35.8594 250.493176 
L 35.93338 250.826432 
L 35.97037 250.705248 
L 36.15532 249.675184 
L 36.26629 249.826664 
L 36.34027 249.85696 
L 36.37726 250.129624 
L 36.41425 250.038736 
L 36.56221 249.493408 
L 36.5992 249.463112 
L 36.74716 250.190216 
L 36.78415 249.826664 
L 36.82114 249.766072 
L 36.85813 249.978144 
L 36.89512 249.675184 
L 36.93211 249.554 
L 36.9691 249.766072 
L 37.00609 249.826664 
L 37.11706 250.76584 
L 37.15405 250.584064 
L 37.339 249.796368 
L 37.37599 249.978144 
L 37.48696 250.523472 
L 37.56094 250.977912 
L 37.63492 250.674952 
L 37.67191 250.61436 
L 37.81987 251.614128 
L 37.85686 251.311168 
L 37.93084 251.189984 
L 38.15278 250.220512 
L 38.18977 250.341696 
L 38.30074 251.099096 
L 38.4487 250.402288 
L 38.67064 251.795904 
L 38.92957 252.310936 
L 38.96656 252.220048 
L 39.07753 252.613896 
L 39.11452 252.523008 
L 39.1885 252.401824 
L 39.22549 252.523008 
L 39.37345 252.644192 
L 39.5584 253.371296 
L 39.59539 252.73508 
L 39.66937 252.977448 
L 39.70636 252.977448 
L 39.81733 252.704784 
L 39.9283 252.916856 
L 39.96529 253.18952 
L 40.03927 252.947152 
L 40.15024 252.220048 
L 40.22422 252.795672 
L 40.26121 252.704784 
L 40.2982 252.613896 
L 40.33519 252.704784 
L 40.52014 253.856032 
L 40.6681 253.250112 
L 40.70509 253.280408 
L 40.85305 253.79544 
L 40.89004 253.64396 
L 40.92703 253.79544 
L 41.00101 253.916624 
L 41.25994 255.673792 
L 41.44489 255.00728 
L 41.51887 255.189056 
L 41.55586 255.219352 
L 41.70382 254.461952 
L 41.7778 254.643728 
L 41.81479 254.674024 
L 41.96275 255.401128 
L 41.99974 255.370832 
L 42.03673 255.370832 
L 42.11071 255.734384 
L 42.1477 255.6132 
L 42.22168 255.249648 
L 42.29566 255.31024 
L 42.5176 256.855336 
L 42.55459 256.612968 
L 42.70255 256.52208 
L 42.73954 256.491784 
L 42.77653 256.612968 
L 42.92449 257.27948 
L 43.10944 256.794744 
L 43.14643 257.249184 
L 43.22041 257.158296 
L 43.2574 257.218888 
L 43.36837 256.612968 
L 43.44235 257.188592 
L 43.51633 257.006816 
L 43.66429 257.855104 
L 43.70128 257.491552 
L 43.81225 257.643032 
L 43.88623 258.158064 
L 43.96021 257.915696 
L 43.9972 257.552144 
L 44.07118 257.73392 
L 44.18215 258.067176 
L 44.44108 259.460792 
L 44.47807 259.491088 
L 44.51506 259.4002 
L 44.58904 260.30908 
L 44.66302 260.127304 
L 44.70001 259.642568 
L 44.737 260.097008 
L 44.77399 260.278784 
L 44.81098 260.1576 
L 44.88496 259.612272 
L 44.92195 260.1576 
L 45.03292 260.854408 
L 45.1069 260.702928 
L 45.25486 260.339376 
L 45.4768 261.52092 
L 45.55078 261.339144 
L 45.62476 261.278552 
L 45.66175 261.6724 
L 45.80971 261.096776 
L 45.8467 261.187664 
L 45.88369 261.308848 
L 45.92068 261.187664 
L 45.99466 261.005888 
L 46.10563 262.005656 
L 46.14262 261.308848 
L 46.2166 261.82388 
L 46.51252 259.915232 
L 46.54951 260.218192 
L 46.62349 260.066712 
L 46.69747 259.975824 
L 46.80844 260.490856 
L 47.03038 260.036416 
L 47.06737 260.581744 
L 47.14135 260.187896 
L 47.17834 260.036416 
L 47.21533 260.1576 
L 47.25232 260.218192 
L 47.28931 260.1576 
L 47.36329 259.915232 
L 47.40028 260.097008 
L 47.6962 262.12684 
L 47.73319 262.005656 
L 47.80717 262.338912 
L 47.84416 262.641872 
L 47.91814 262.4298 
L 47.95513 262.399504 
L 47.99212 262.490392 
L 48.10309 263.03572 
L 48.14008 262.702464 
L 48.17707 262.58128 
L 48.21406 262.823648 
L 48.50998 264.126376 
L 48.54697 264.156672 
L 48.58396 263.884008 
L 48.62095 264.186968 
L 48.69493 264.156672 
L 48.73192 264.641408 
L 48.91687 265.61088 
L 48.95386 265.398808 
L 48.99085 265.732064 
L 49.13881 266.095616 
L 49.36075 267.095384 
L 49.5457 268.18604 
L 49.61968 268.03456 
L 49.69366 268.731368 
L 49.80463 268.579888 
L 49.84162 268.367816 
L 49.87861 268.64048 
L 50.10055 270.185576 
L 50.17453 269.609952 
L 50.24851 269.791728 
L 50.43346 270.276464 
L 50.47045 270.0038 
L 50.50744 270.488536 
L 50.58142 270.397648 
L 50.87734 271.094456 
L 51.09928 272.033632 
L 51.21025 272.42748 
L 51.17326 271.942744 
L 51.24724 272.336592 
L 51.28423 272.366888 
L 51.43219 272.154816 
L 51.72811 273.063696 
L 51.7651 272.88192 
L 51.80209 272.942512 
L 51.87607 273.669616 
L 51.91306 273.578728 
L 52.06102 272.639552 
L 52.09801 273.063696 
L 52.24597 273.669616 
L 52.31995 272.972808 
L 52.35694 273.18488 
L 52.68985 275.396488 
L 52.91179 276.36596 
L 52.98577 276.608328 
L 53.13373 277.486912 
L 53.2447 277.820168 
L 53.28169 277.547504 
L 53.31868 277.517208 
L 53.50363 276.880992 
L 53.65159 277.911056 
L 53.91052 278.48668 
L 54.09547 279.032008 
L 54.24343 278.910824 
L 54.46537 280.334736 
L 54.53935 280.213552 
L 54.57634 279.910592 
L 54.65032 280.15296 
L 54.98323 282.061608 
L 55.0942 281.81924 
L 55.16818 281.607168 
L 55.39012 282.697824 
L 55.42711 282.697824 
L 55.57507 282.334272 
L 55.79701 283.121968 
L 55.834 282.72812 
L 55.87099 282.667528 
L 55.94497 282.546344 
L 56.01895 283.18256 
L 56.05594 282.909896 
L 56.09293 283.273448 
L 56.24089 284.000552 
L 56.27788 283.424928 
L 56.35186 283.48552 
L 56.5738 284.54588 
L 56.61079 284.273216 
L 56.68477 284.515584 
L 56.79574 284.970024 
L 56.83273 284.939728 
L 57.01768 285.60624 
L 57.05467 285.30328 
L 57.12865 285.424464 
L 57.23962 284.939728 
L 57.27661 285.272984 
L 57.42457 286.000088 
L 57.46156 285.515352 
L 57.53554 285.788016 
L 57.57253 285.575944 
L 57.60952 285.75772 
L 57.75748 286.21216 
L 57.90544 286.848376 
L 57.94243 286.757488 
L 57.97942 286.878672 
L 58.01641 286.575712 
L 58.09039 286.848376 
L 58.20136 287.302816 
L 58.23835 287.242224 
L 58.27534 287.242224 
L 58.49728 288.151104 
L 58.53427 287.787552 
L 58.57126 288.241992 
L 58.60825 288.120808 
L 58.71922 288.48436 
L 58.7932 288.060216 
L 58.83019 288.302584 
L 58.90417 288.605544 
L 58.94116 288.302584 
L 59.05213 288.393472 
L 59.1631 287.939032 
L 59.20009 288.060216 
L 59.27407 288.211696 
L 59.31106 288.060216 
L 59.34805 287.696664 
L 59.42203 287.787552 
L 59.60698 288.48436 
L 59.75494 287.72696 
L 59.93989 288.908504 
L 59.97688 288.817616 
L 60.01387 288.969096 
L 60.19882 289.54472 
L 60.23581 289.54472 
L 60.2728 289.39324 
L 60.45775 290.30212 
L 60.60571 290.635376 
L 60.6427 290.271824 
L 60.71668 290.574784 
L 61.04959 291.877512 
L 61.27153 293.18024 
L 61.34551 292.604616 
L 61.45648 292.695504 
L 61.53046 293.33172 
L 61.60444 293.271128 
L 61.71541 292.968168 
L 61.90036 293.574088 
L 61.97434 293.967936 
L 62.01133 293.604384 
L 62.04832 293.543792 
L 62.75113 297.179312 
L 62.82511 296.81576 
L 63.49093 299.23944 
L 63.52792 299.148552 
L 63.74986 300.269504 
L 63.78685 299.815064 
L 63.82384 300.178616 
L 64.04578 301.451048 
L 64.15675 300.693648 
L 64.19374 300.966312 
L 64.26772 301.602528 
L 64.30471 301.20868 
L 64.3417 300.90572 
L 64.41568 301.087496 
L 64.45267 301.481344 
L 64.52665 301.238976 
L 64.56364 301.329864 
L 64.60063 301.238976 
L 64.67461 301.0572 
L 64.93354 302.814368 
L 64.97053 302.662888 
L 65.00752 302.905256 
L 65.04451 302.753776 
L 65.0815 302.996144 
L 65.11849 302.965848 
L 65.22946 302.602296 
L 65.41441 303.450584 
L 65.4514 303.602064 
L 65.48839 303.541472 
L 65.56237 303.268808 
L 65.59936 303.299104 
L 65.8213 304.147392 
L 65.96926 303.056736 
L 66.26518 304.965384 
L 66.30217 304.8442 
L 66.33916 304.904792 
L 66.59809 306.843736 
L 66.63508 306.66196 
L 66.70906 306.692256 
L 66.74605 306.783144 
L 66.89401 308.17676 
L 66.931 308.02528 
L 67.63381 313.872408 
L 67.81876 315.629576 
L 67.85575 316.841416 
L 67.85575 316.841416 
" style="fill:none;stroke:#ff7f0e;stroke-linecap:square;stroke-width:1.5;"/>
   </g>
   <g id="line2d_21">
    <path clip-path="url(#pfbc6f9ac0a)" d="M 33.64 255.643496 
L 33.71398 255.340536 
L 33.93592 253.068336 
L 34.15786 251.97768 
L 34.19485 251.97768 
L 34.23184 252.250344 
L 34.30582 252.007976 
L 34.3798 252.250344 
L 34.45378 252.038272 
L 34.63873 251.008208 
L 34.78669 250.371992 
L 34.82368 250.402288 
L 34.86067 250.371992 
L 35.00863 249.70548 
L 35.15659 249.523704 
L 35.26756 249.160152 
L 35.30455 249.311632 
L 35.34154 249.09956 
L 35.52649 248.069496 
L 35.63746 247.221208 
L 35.67445 247.312096 
L 35.71144 247.554464 
L 35.74843 247.2818 
L 35.78542 247.221208 
L 35.82241 247.58476 
L 35.89639 247.2818 
L 36.04435 246.615288 
L 36.15532 247.190912 
L 36.19231 247.069728 
L 36.26629 246.463808 
L 36.30328 246.67588 
L 36.34027 247.342392 
L 36.41425 246.736472 
L 36.48823 246.22144 
L 36.52522 246.312328 
L 36.67318 247.463576 
L 36.71017 247.402984 
L 36.74716 247.312096 
L 36.93211 249.069264 
L 37.00609 248.917784 
L 37.04308 248.584528 
L 37.08007 248.736008 
L 37.26502 249.887256 
L 37.30201 249.796368 
L 37.41298 249.432816 
L 37.44997 249.493408 
L 37.52395 249.978144 
L 37.59793 249.826664 
L 37.63492 249.887256 
L 37.74589 250.705248 
L 37.78288 250.61436 
L 37.81987 250.3114 
L 37.89385 250.46288 
L 37.96783 250.46288 
L 38.30074 252.553304 
L 38.37472 252.28064 
L 38.41171 252.523008 
L 38.74462 253.583368 
L 38.78161 253.219816 
L 38.8186 253.18952 
L 39.00355 254.310472 
L 39.07753 253.856032 
L 39.11452 254.037808 
L 39.26248 254.734616 
L 39.33646 254.492248 
L 39.37345 254.70432 
L 39.41044 254.643728 
L 39.44743 254.734616 
L 39.5584 255.128464 
L 39.70636 254.55284 
L 39.81733 254.431656 
L 39.85432 254.280176 
L 39.89131 254.492248 
L 39.9283 254.795208 
L 40.00228 254.583136 
L 40.07626 254.431656 
L 40.2982 255.582904 
L 40.33519 255.431424 
L 40.37218 255.643496 
L 40.52014 256.188824 
L 40.74208 256.855336 
L 41.038 257.824808 
L 41.07499 257.703624 
L 41.11198 257.915696 
L 41.25994 258.763984 
L 41.29693 258.612504 
L 41.37091 258.673096 
L 41.51887 259.127536 
L 41.55586 259.127536 
L 41.7778 260.339376 
L 41.85178 260.127304 
L 41.96275 259.794048 
L 41.99974 259.824344 
L 42.22168 260.733224 
L 42.70255 262.490392 
L 42.81352 263.156904 
L 42.85051 263.096312 
L 42.8875 262.88424 
L 42.92449 263.1872 
L 42.96148 263.429568 
L 42.99847 263.156904 
L 43.07245 262.975128 
L 43.10944 263.03572 
L 43.18342 263.005424 
L 43.33138 263.823416 
L 43.51633 264.55052 
L 43.55332 264.368744 
L 43.59031 264.459632 
L 43.88623 265.580584 
L 43.9972 265.095848 
L 44.14516 265.671472 
L 44.18215 265.792656 
L 44.21914 265.550288 
L 44.25613 265.61088 
L 44.40409 266.247096 
L 44.51506 266.156208 
L 44.58904 266.550056 
L 44.737 266.095616 
L 44.92195 266.67124 
L 44.99593 266.337984 
L 45.14389 266.853016 
L 45.21787 266.82272 
L 45.40282 267.943672 
L 45.4768 267.640712 
L 45.51379 267.489232 
L 45.55078 267.761896 
L 45.58777 267.701304 
L 45.62476 268.216336 
L 45.69874 268.125448 
L 45.77272 268.276928 
L 45.80971 268.549592 
L 45.8467 268.18604 
L 45.88369 268.216336 
L 46.06864 269.125216 
L 46.10563 269.004032 
L 46.17961 268.428408 
L 46.2166 268.670776 
L 46.47553 270.0038 
L 46.69747 271.155048 
L 46.73446 271.124752 
L 46.77145 271.185344 
L 46.91941 271.609488 
L 47.03038 271.548896 
L 47.14135 270.882384 
L 47.17834 271.185344 
L 47.21533 271.003568 
L 47.25232 271.185344 
L 47.62222 272.972808 
L 47.65921 272.760736 
L 47.73319 272.851624 
L 47.88115 273.427248 
L 47.95513 273.003104 
L 47.99212 273.245472 
L 48.02911 273.427248 
L 48.0661 273.366656 
L 48.21406 272.972808 
L 48.436 274.09376 
L 48.47299 273.911984 
L 48.54697 273.911984 
L 48.62095 273.33636 
L 48.69493 273.548432 
L 48.76891 273.669616 
L 48.84289 273.427248 
L 48.87988 273.578728 
L 48.91687 273.730208 
L 48.99085 273.366656 
L 49.02784 273.548432 
L 49.13881 273.7908 
L 49.10182 273.427248 
L 49.1758 273.730208 
L 49.21279 273.730208 
L 49.32376 273.215176 
L 49.36075 273.457544 
L 49.95259 276.275072 
L 50.06356 276.093296 
L 50.24851 275.366192 
L 50.43346 275.850928 
L 50.80336 277.850464 
L 50.84035 277.698984 
L 50.87734 277.820168 
L 50.95132 277.971648 
L 51.06229 277.698984 
L 51.32122 278.910824 
L 51.35821 278.759344 
L 51.3952 278.971416 
L 51.43219 278.910824 
L 52.24597 283.152264 
L 52.31995 282.819008 
L 52.39393 282.849304 
L 52.43092 282.970488 
L 52.5049 282.940192 
L 52.54189 282.72812 
L 52.68985 283.78848 
L 52.72684 283.727888 
L 53.02276 284.818544 
L 53.09674 284.576176 
L 53.20771 285.060912 
L 53.2447 284.909432 
L 53.31868 285.00032 
L 53.50363 284.576176 
L 53.54062 284.576176 
L 53.65159 284.273216 
L 53.68858 284.303512 
L 53.76256 284.364104 
L 53.9845 285.242688 
L 54.02149 285.212392 
L 54.09547 285.818312 
L 54.13246 285.727424 
L 54.24343 285.30328 
L 54.3544 286.030384 
L 54.39139 285.969792 
L 54.42838 285.939496 
L 54.57634 286.727192 
L 54.68731 286.424232 
L 54.7243 286.545416 
L 54.83527 286.878672 
L 54.87226 286.424232 
L 54.94624 286.454528 
L 55.0942 287.030152 
L 55.24216 286.6666 
L 55.39012 287.514888 
L 55.42711 287.333112 
L 55.4641 287.787552 
L 55.53808 287.424 
L 55.57507 287.302816 
L 55.61206 287.424 
L 55.68604 287.605776 
L 55.72303 287.87844 
L 55.76002 287.787552 
L 55.94497 287.12104 
L 56.27788 288.63584 
L 56.35186 288.33288 
L 56.42584 287.87844 
L 56.46283 288.241992 
L 56.53681 288.151104 
L 56.5738 288.090512 
L 56.61079 288.120808 
L 56.75875 288.544952 
L 56.79574 288.302584 
L 56.86972 288.454064 
L 57.05467 289.24176 
L 57.16564 288.48436 
L 57.27661 288.575248 
L 57.3136 288.9388 
L 57.35059 288.757024 
L 57.38758 288.363176 
L 57.46156 288.575248 
L 57.57253 288.363176 
L 57.60952 288.575248 
L 57.64651 288.151104 
L 57.6835 287.999624 
L 57.83146 288.514656 
L 57.94243 287.999624 
L 58.01641 288.120808 
L 58.34932 289.6962 
L 58.38631 289.605312 
L 58.4233 289.302352 
L 58.49728 289.453832 
L 58.57126 289.756792 
L 58.68223 290.544488 
L 58.71922 290.423304 
L 59.20009 292.150176 
L 59.23708 291.756328 
L 59.27407 291.726032 
L 59.42203 292.544024 
L 59.533 292.27136 
L 59.56999 292.453136 
L 59.60698 292.331952 
L 59.68096 292.180472 
L 59.71795 292.331952 
L 59.86591 292.846984 
L 59.9029 292.7258 
L 59.97688 292.846984 
L 60.01387 292.846984 
L 60.12484 293.18024 
L 60.16183 293.119648 
L 60.19882 292.998464 
L 60.42076 294.119416 
L 60.45775 294.149712 
L 60.49474 293.816456 
L 60.53173 293.907344 
L 60.67969 294.755632 
L 60.75367 294.301192 
L 60.79066 294.513264 
L 60.82765 294.482968 
L 60.97561 295.937176 
L 61.0126 295.90688 
L 61.04959 295.513032 
L 61.08658 295.60392 
L 61.27153 296.906648 
L 61.56745 295.997768 
L 61.71541 296.81576 
L 61.7524 296.694576 
L 62.15929 298.391152 
L 62.23327 298.906184 
L 62.27026 298.785 
L 62.45521 297.936712 
L 62.67715 299.330328 
L 63.08404 300.814832 
L 63.19501 300.996608 
L 63.26899 301.572232 
L 63.30598 301.451048 
L 63.34297 301.299568 
L 63.63889 303.753544 
L 63.67588 303.692952 
L 64.19374 306.571072 
L 64.23073 306.540776 
L 64.48966 308.752384 
L 64.67461 310.418664 
L 64.82257 311.479024 
L 65.0815 314.963064 
L 65.22946 317.023192 
L 65.22946 317.023192 
" style="fill:none;stroke:#2ca02c;stroke-linecap:square;stroke-width:1.5;"/>
   </g>
   <g id="line2d_22">
    <path clip-path="url(#pfbc6f9ac0a)" d="M 33.64 255.704088 
L 33.97291 252.007976 
L 34.0099 252.159456 
L 34.19485 251.280872 
L 34.34281 251.311168 
L 34.60174 250.15992 
L 34.63873 250.15992 
L 34.71271 250.038736 
L 34.7497 250.069032 
L 34.78669 250.61436 
L 34.86067 250.069032 
L 35.1196 249.25104 
L 35.19358 249.341928 
L 35.30455 248.887488 
L 35.37853 249.70548 
L 35.45251 249.372224 
L 35.71144 248.19068 
L 35.78542 248.402752 
L 35.82241 248.554232 
L 35.93338 249.493408 
L 35.97037 249.129856 
L 36.00736 249.281336 
L 36.08134 249.584296 
L 36.11833 249.160152 
L 36.19231 249.281336 
L 36.2293 249.675184 
L 36.26629 249.069264 
L 36.37726 249.796368 
L 36.41425 249.644888 
L 36.52522 248.7966 
L 36.5992 249.341928 
L 36.63619 249.069264 
L 36.67318 249.09956 
L 36.85813 249.917552 
L 36.89512 249.675184 
L 36.93211 249.85696 
L 36.9691 250.00844 
L 37.00609 249.85696 
L 37.04308 249.826664 
L 37.22803 248.917784 
L 37.339 248.826896 
L 37.41298 248.433048 
L 37.44997 248.49364 
L 37.81987 249.947848 
L 37.93084 249.584296 
L 37.96783 249.735776 
L 38.00482 249.463112 
L 38.15278 250.00844 
L 38.18977 249.766072 
L 38.26375 249.493408 
L 38.30074 249.766072 
L 38.59666 249.069264 
L 38.63365 249.523704 
L 38.67064 249.463112 
L 38.70763 249.038968 
L 38.74462 249.372224 
L 38.78161 249.978144 
L 38.85559 249.766072 
L 38.92957 249.554 
L 39.11452 250.584064 
L 39.15151 250.432584 
L 39.22549 250.584064 
L 39.26248 250.61436 
L 39.44743 251.705016 
L 39.48442 251.735312 
L 39.52141 251.917088 
L 39.59539 251.462648 
L 39.63238 251.644424 
L 39.81733 251.492944 
L 39.9283 251.8262 
L 39.96529 251.735312 
L 40.07626 251.735312 
L 40.11325 251.67472 
L 40.18723 251.947384 
L 40.26121 251.917088 
L 40.37218 251.8262 
L 40.44616 252.12916 
L 40.48315 251.67472 
L 40.55713 251.886792 
L 40.63111 252.28064 
L 40.6681 252.068568 
L 40.74208 252.098864 
L 41.11198 253.704552 
L 41.14897 253.49248 
L 41.18596 253.734848 
L 41.25994 253.765144 
L 41.48188 254.461952 
L 41.59285 254.371064 
L 41.74081 255.00728 
L 41.7778 254.886096 
L 41.81479 255.00728 
L 42.07372 255.431424 
L 42.11071 255.370832 
L 42.25867 255.098168 
L 42.44362 256.21912 
L 42.48061 256.158528 
L 42.5176 256.310008 
L 42.55459 256.06764 
L 42.62857 256.097936 
L 42.66556 256.431192 
L 42.73954 256.21912 
L 42.81352 256.3706 
L 42.85051 256.249416 
L 42.8875 256.097936 
L 42.92449 256.310008 
L 43.03546 256.855336 
L 43.07245 256.582672 
L 43.22041 257.309776 
L 43.33138 257.400664 
L 43.47934 258.097472 
L 43.51633 257.915696 
L 43.70128 256.946224 
L 43.77526 257.249184 
L 43.92322 257.976288 
L 43.96021 258.006584 
L 43.9972 258.248952 
L 44.07118 258.006584 
L 44.10817 257.703624 
L 44.14516 257.976288 
L 44.21914 258.763984 
L 44.29312 258.49132 
L 44.33011 258.49132 
L 44.3671 258.370136 
L 44.51506 258.854872 
L 44.55205 258.824576 
L 44.77399 259.915232 
L 44.81098 259.733456 
L 44.84797 259.70316 
L 44.88496 260.187896 
L 44.95894 260.097008 
L 44.99593 260.066712 
L 45.03292 260.1576 
L 45.25486 261.36944 
L 45.32884 260.61204 
L 45.36583 261.036184 
L 45.40282 261.551216 
L 45.4768 261.127072 
L 45.51379 261.36944 
L 45.55078 261.036184 
L 45.62476 260.672632 
L 45.66175 260.915 
L 45.69874 261.005888 
L 45.88369 259.945528 
L 46.03165 260.521152 
L 46.06864 260.30908 
L 46.10563 260.551448 
L 46.14262 260.733224 
L 46.17961 260.46056 
L 46.2166 260.672632 
L 46.29058 260.733224 
L 46.32757 260.581744 
L 46.36456 260.702928 
L 46.43854 260.854408 
L 46.47553 260.793816 
L 46.5865 260.642336 
L 46.73446 261.551216 
L 46.77145 261.490624 
L 46.9564 261.06648 
L 46.99339 261.21796 
L 47.17834 261.854176 
L 47.43727 260.884704 
L 47.47426 260.915 
L 47.54824 260.76352 
L 47.58523 260.793816 
L 47.62222 260.854408 
L 47.73319 260.642336 
L 47.88115 261.36944 
L 48.02911 261.036184 
L 48.32503 259.975824 
L 48.50998 259.672864 
L 48.65794 260.915 
L 48.69493 260.76352 
L 48.76891 260.854408 
L 48.8059 261.06648 
L 48.84289 260.76352 
L 48.95386 260.339376 
L 48.99085 260.490856 
L 49.06483 261.096776 
L 49.13881 260.884704 
L 49.36075 259.945528 
L 49.39774 260.187896 
L 49.61968 261.854176 
L 49.76764 263.03572 
L 49.87861 263.005424 
L 49.9156 262.73276 
L 49.95259 263.1872 
L 49.98958 263.066016 
L 50.13754 263.459864 
L 50.17453 263.429568 
L 50.43346 264.944368 
L 50.61841 264.217264 
L 50.76637 265.338216 
L 50.80336 265.217032 
L 51.0253 266.277392 
L 51.06229 266.277392 
L 51.21025 267.27716 
L 51.24724 267.155976 
L 51.3952 267.610416 
L 51.61714 268.398112 
L 51.7651 268.852552 
L 51.95005 268.610184 
L 52.02403 268.489 
L 52.06102 268.549592 
L 52.09801 268.701072 
L 52.17199 268.549592 
L 52.24597 268.246632 
L 52.31995 268.276928 
L 52.5049 268.822256 
L 52.54189 268.610184 
L 52.57888 268.579888 
L 52.76383 269.216104 
L 52.91179 268.852552 
L 53.05975 269.2464 
L 53.17072 269.882616 
L 53.35567 269.2464 
L 53.6146 270.821792 
L 53.65159 270.549128 
L 53.72557 270.367352 
L 53.87353 269.973504 
L 54.05848 270.670312 
L 54.16945 270.397648 
L 54.31741 270.821792 
L 54.3544 270.670312 
L 54.39139 270.730904 
L 54.53935 271.21564 
L 54.57634 271.094456 
L 54.65032 270.670312 
L 54.7243 270.730904 
L 54.87226 271.06416 
L 55.05721 272.063928 
L 55.20517 272.942512 
L 55.24216 272.760736 
L 55.31614 272.215408 
L 55.39012 272.518368 
L 55.68604 274.427016 
L 55.79701 274.124056 
L 55.834 274.09376 
L 55.94497 275.15412 
L 55.98196 275.093528 
L 56.01895 275.184416 
L 56.12992 274.790568 
L 56.16691 274.820864 
L 56.2039 274.790568 
L 56.42584 276.305368 
L 56.46283 276.184184 
L 56.49982 275.881224 
L 56.5738 276.153888 
L 56.86972 276.729512 
L 56.90671 276.66892 
L 57.12865 278.03224 
L 57.16564 277.668688 
L 57.23962 277.971648 
L 57.53554 279.274376 
L 57.57253 279.183488 
L 57.64651 278.577568 
L 57.6835 278.819936 
L 57.97942 280.092368 
L 58.12738 279.39556 
L 58.16437 279.334968 
L 58.38631 279.940888 
L 58.46029 279.39556 
L 58.49728 279.819704 
L 58.53427 279.880296 
L 58.57126 279.85 
L 58.68223 280.667992 
L 58.71922 280.516512 
L 58.75621 280.274144 
L 58.90417 281.031544 
L 59.34805 282.334272 
L 59.38504 282.303976 
L 59.42203 282.061608 
L 59.49601 282.27368 
L 59.64397 283.394632 
L 59.68096 283.18256 
L 59.71795 283.455224 
L 59.86591 284.152032 
L 59.93989 283.93996 
L 59.97688 283.727888 
L 60.05086 284.333808 
L 60.08785 284.121736 
L 60.12484 283.879368 
L 60.16183 284.152032 
L 60.45775 285.030616 
L 60.6427 286.000088 
L 60.67969 285.848608 
L 60.93862 285.212392 
L 61.08658 285.545648 
L 61.12357 285.45476 
L 61.27153 286.575712 
L 61.30852 286.484824 
L 61.34551 286.545416 
L 61.45648 287.060448 
L 61.56745 286.484824 
L 61.60444 286.51512 
L 61.71541 286.878672 
L 61.78939 286.727192 
L 61.82638 286.787784 
L 61.86337 286.787784 
L 61.90036 286.393936 
L 61.93735 286.6666 
L 62.01133 286.878672 
L 62.15929 286.303048 
L 62.19628 286.36364 
L 62.23327 286.727192 
L 62.27026 286.36364 
L 62.52919 284.69736 
L 62.60317 284.454992 
L 62.67715 284.879136 
L 62.71414 284.54588 
L 62.78812 284.879136 
L 62.8621 285.212392 
L 62.89909 284.84884 
L 62.93608 285.00032 
L 63.12103 286.090976 
L 63.15802 285.969792 
L 63.19501 286.181864 
L 63.34297 286.575712 
L 63.49093 286.242456 
L 63.52792 286.454528 
L 63.56491 286.21216 
L 63.6019 286.36364 
L 63.71287 285.818312 
L 63.93481 286.96956 
L 64.04578 287.12104 
L 64.26772 287.757256 
L 64.30471 287.514888 
L 64.3417 287.817848 
L 64.48966 288.1814 
L 64.56364 288.847912 
L 64.60063 288.454064 
L 64.7116 288.878208 
L 64.74859 288.63584 
L 64.78558 288.575248 
L 64.82257 288.878208 
L 64.89655 288.817616 
L 64.93354 288.605544 
L 64.97053 288.878208 
L 65.0815 289.938568 
L 65.15548 289.665904 
L 65.22946 290.059752 
L 65.26645 290.544488 
L 65.34043 290.241528 
L 65.4514 289.938568 
L 65.59936 290.726264 
L 65.63635 290.635376 
L 65.71033 290.180936 
L 65.74732 290.393008 
L 65.8213 290.998928 
L 65.89528 290.90804 
L 65.93227 290.786856 
L 66.1912 292.786392 
L 66.22819 292.846984 
L 66.26518 292.483432 
L 66.30217 292.968168 
L 66.48712 293.755864 
L 66.63508 293.240832 
L 66.67207 293.18024 
L 66.82003 292.331952 
L 66.931 292.544024 
L 67.00498 292.42284 
L 67.04197 292.483432 
L 67.18993 293.574088 
L 67.26391 293.33172 
L 67.37488 293.301424 
L 67.48585 294.573856 
L 67.52284 294.482968 
L 67.63381 295.210072 
L 67.6708 295.45244 
L 67.70779 295.391848 
L 67.78177 294.907112 
L 67.81876 294.998 
L 67.89274 295.846288 
L 67.96672 295.725104 
L 68.11468 295.573624 
L 68.15167 295.60392 
L 68.26264 296.331024 
L 68.29963 295.967472 
L 68.37361 296.179544 
L 68.4106 296.149248 
L 68.44759 295.937176 
L 68.66953 297.391384 
L 68.81749 296.876352 
L 69.00244 297.967008 
L 69.11341 297.936712 
L 69.18739 297.967008 
L 69.33535 299.330328 
L 69.40933 298.997072 
L 69.55729 298.360856 
L 69.59428 298.48204 
L 69.63127 298.48204 
L 69.77923 299.300032 
L 69.8902 299.027368 
L 69.96418 299.84536 
L 70.03816 299.451512 
L 70.33408 300.996608 
L 70.55602 302.511408 
L 70.63 302.753776 
L 70.77796 303.602064 
L 71.07388 304.601832 
L 71.25883 305.783376 
L 71.40679 306.752848 
L 71.70271 308.903864 
L 71.85067 310.206592 
L 72.29455 316.05372 
L 72.33154 317.11408 
L 72.33154 317.11408 
" style="fill:none;stroke:#d62728;stroke-linecap:square;stroke-width:1.5;"/>
   </g>
   <g id="line2d_23">
    <path clip-path="url(#pfbc6f9ac0a)" d="M 33.64 255.704088 
L 34.23184 249.160152 
L 34.26883 249.220744 
L 34.45378 248.251272 
L 34.49077 248.311864 
L 34.67572 248.554232 
L 34.71271 248.463344 
L 34.93465 247.100024 
L 34.97164 247.13032 
L 35.1196 246.312328 
L 35.19358 246.797064 
L 35.23057 246.706176 
L 35.30455 246.130552 
L 35.37853 246.160848 
L 35.41552 246.130552 
L 35.45251 245.948776 
L 35.52649 246.039664 
L 35.71144 246.615288 
L 35.8594 246.06996 
L 35.97037 245.706408 
L 36.00736 245.797296 
L 36.08134 246.039664 
L 36.15532 246.009368 
L 36.41425 245.342856 
L 37.04308 247.312096 
L 37.08007 247.039432 
L 37.11706 247.251504 
L 37.15405 247.372688 
L 37.339 246.5244 
L 37.48696 247.100024 
L 37.56094 246.615288 
L 37.59793 246.857656 
L 37.67191 246.97884 
L 37.7089 246.67588 
L 37.85686 247.342392 
L 37.89385 247.221208 
L 38.00482 247.645352 
L 38.0788 247.2818 
L 38.11579 247.493872 
L 38.30074 248.705712 
L 38.48569 248.160384 
L 38.37472 248.736008 
L 38.52268 248.372456 
L 38.63365 248.94808 
L 38.78161 248.554232 
L 39.07753 249.372224 
L 39.11452 249.372224 
L 40.03927 252.310936 
L 40.07626 252.159456 
L 40.18723 252.553304 
L 40.22422 253.007744 
L 40.26121 252.765376 
L 40.2982 252.462416 
L 40.37218 252.674488 
L 40.44616 252.5836 
L 40.52014 252.28064 
L 40.55713 252.310936 
L 40.59412 252.341232 
L 40.92703 253.431888 
L 41.25994 254.461952 
L 41.29693 254.280176 
L 41.37091 254.189288 
L 41.4079 254.371064 
L 41.44489 254.037808 
L 41.48188 254.037808 
L 41.81479 251.462648 
L 42.07372 253.068336 
L 42.18469 253.401592 
L 42.44362 254.461952 
L 42.5176 254.643728 
L 42.55459 254.280176 
L 42.59158 254.795208 
L 42.73954 255.340536 
L 42.8875 255.946456 
L 42.96148 256.703856 
L 42.99847 256.279712 
L 43.03546 256.06764 
L 43.07245 256.249416 
L 43.22041 257.067408 
L 43.2574 256.612968 
L 43.29439 257.128 
L 43.40536 257.158296 
L 43.66429 258.370136 
L 43.88623 259.006352 
L 44.10817 259.824344 
L 44.14516 259.794048 
L 44.3671 258.824576 
L 44.40409 259.006352 
L 44.44108 258.885168 
L 44.47807 258.673096 
L 44.51506 259.066944 
L 44.55205 259.188128 
L 44.58904 259.127536 
L 44.77399 258.673096 
L 44.84797 259.006352 
L 44.88496 258.915464 
L 44.99593 258.49132 
L 45.06991 258.521616 
L 45.14389 258.430728 
L 45.21787 258.976056 
L 45.25486 258.49132 
L 45.32884 258.733688 
L 45.36583 258.79428 
L 45.40282 258.612504 
L 45.43981 258.733688 
L 45.51379 258.703392 
L 46.06864 261.763288 
L 46.14262 261.490624 
L 46.2166 261.581512 
L 46.36456 262.157136 
L 46.54951 262.005656 
L 46.69747 263.005424 
L 46.77145 262.73276 
L 46.80844 262.702464 
L 46.84543 262.793352 
L 47.06737 263.64164 
L 47.17834 263.33868 
L 47.36329 263.914304 
L 47.40028 263.914304 
L 47.54824 264.974664 
L 47.62222 264.85348 
L 47.65921 264.944368 
L 47.6962 264.792888 
L 47.88115 264.277856 
L 48.10309 265.15644 
L 48.14008 265.00496 
L 48.21406 265.126144 
L 48.25105 264.974664 
L 48.36202 264.520224 
L 48.39901 264.641408 
L 48.436 264.883776 
L 48.50998 264.732296 
L 48.62095 264.520224 
L 48.76891 264.732296 
L 48.8059 264.671704 
L 48.99085 265.732064 
L 49.06483 265.368512 
L 49.1758 265.853248 
L 49.21279 265.429104 
L 49.28677 265.550288 
L 49.65667 266.640944 
L 49.69366 266.853016 
L 49.73065 266.489464 
L 49.87861 267.004496 
L 50.02657 267.88308 
L 50.06356 267.822488 
L 50.10055 267.42864 
L 50.17453 267.489232 
L 50.24851 268.004264 
L 50.32249 267.822488 
L 50.35948 267.88308 
L 50.43346 267.398344 
L 50.47045 267.610416 
L 50.72938 268.549592 
L 50.80336 268.519296 
L 50.84035 268.367816 
L 50.87734 268.64048 
L 50.91433 268.882848 
L 50.98831 268.701072 
L 51.13627 268.579888 
L 51.17326 268.398112 
L 51.21025 268.64048 
L 51.28423 268.973736 
L 51.32122 268.670776 
L 51.3952 268.519296 
L 51.43219 268.64048 
L 51.58015 269.2464 
L 51.61714 269.125216 
L 51.65413 268.852552 
L 51.69112 269.155512 
L 51.83908 269.731136 
L 51.87607 269.367584 
L 51.95005 269.488768 
L 52.02403 270.15528 
L 52.09801 270.0038 
L 52.24597 270.852088 
L 52.35694 270.60972 
L 52.43092 270.700608 
L 52.5049 270.15528 
L 52.61587 270.942976 
L 52.65286 270.852088 
L 52.68985 270.700608 
L 52.76383 270.821792 
L 52.80082 270.7612 
L 52.83781 270.821792 
L 52.98577 271.548896 
L 53.02276 271.5186 
L 53.20771 272.185112 
L 53.2447 271.791264 
L 53.31868 271.82156 
L 53.6146 273.154584 
L 53.68858 272.700144 
L 53.72557 272.791032 
L 53.76256 272.821328 
L 53.87353 272.276 
L 54.09547 273.609024 
L 54.31741 274.366424 
L 54.39139 274.063464 
L 54.42838 273.911984 
L 54.53935 274.85116 
L 54.57634 274.69968 
L 54.68731 274.275536 
L 54.7243 274.578496 
L 54.90925 275.45708 
L 54.98323 275.3056 
L 55.27915 276.36596 
L 55.42711 276.456848 
L 55.50109 275.790336 
L 55.53808 276.032704 
L 55.79701 277.486912 
L 55.834 277.42632 
L 56.2039 279.486448 
L 56.27788 279.153192 
L 56.31487 279.39556 
L 56.35186 279.486448 
L 56.5738 278.456384 
L 56.68477 278.78964 
L 56.72176 278.668456 
L 56.75875 278.577568 
L 56.79574 278.607864 
L 56.86972 279.062304 
L 56.9437 278.910824 
L 56.98069 278.880528 
L 57.01768 278.698752 
L 57.05467 279.032008 
L 57.12865 279.39556 
L 57.16564 279.0926 
L 57.23962 279.001712 
L 57.27661 278.698752 
L 57.3136 279.274376 
L 57.42457 280.062072 
L 57.46156 279.85 
L 57.49855 279.425856 
L 57.57253 279.728816 
L 57.83146 280.880064 
L 57.86845 281.092136 
L 57.90544 280.91036 
L 57.97942 281.001248 
L 58.01641 280.849768 
L 58.09039 281.637464 
L 58.16437 281.395096 
L 58.23835 281.395096 
L 58.4233 282.1222 
L 58.46029 282.27368 
L 58.68223 281.273912 
L 58.71922 281.21332 
L 58.86718 281.97072 
L 58.94116 281.425392 
L 59.01514 281.546576 
L 59.05213 281.334504 
L 59.20009 282.091904 
L 59.27407 281.758648 
L 59.34805 281.849536 
L 59.42203 282.182792 
L 59.49601 281.485984 
L 59.56999 281.788944 
L 59.82892 282.909896 
L 59.9029 282.485752 
L 59.97688 282.637232 
L 60.05086 282.667528 
L 60.08785 282.516048 
L 60.16183 282.57664 
L 60.49474 284.182328 
L 60.53173 284.030848 
L 60.56872 284.273216 
L 60.60571 284.424696 
L 60.6427 284.09144 
L 60.67969 284.24292 
L 60.75367 285.030616 
L 60.79066 284.757952 
L 60.82765 284.69736 
L 61.04959 285.45476 
L 61.08658 285.394168 
L 61.12357 285.666832 
L 61.16056 285.515352 
L 61.19755 285.1518 
L 61.27153 285.363872 
L 61.41949 286.06068 
L 61.45648 285.878904 
L 61.64143 286.81808 
L 61.71541 286.51512 
L 61.7524 286.757488 
L 61.82638 287.242224 
L 61.86337 287.181632 
L 61.90036 286.96956 
L 61.93735 287.484592 
L 62.01133 287.242224 
L 62.08531 287.363408 
L 62.15929 287.27252 
L 62.19628 287.181632 
L 62.4922 288.666136 
L 62.67715 287.72696 
L 62.78812 287.87844 
L 63.12103 289.6962 
L 63.26899 291.211 
L 63.30598 291.05952 
L 63.34297 291.301888 
L 63.52792 292.331952 
L 63.56491 292.089584 
L 63.63889 292.180472 
L 63.78685 292.57432 
L 63.82384 292.513728 
L 63.9718 293.210536 
L 64.00879 293.089352 
L 64.11976 292.846984 
L 64.30471 293.816456 
L 64.3417 293.78616 
L 64.45267 293.422608 
L 64.60063 294.210304 
L 64.67461 293.725568 
L 64.7116 293.907344 
L 64.78558 294.08912 
L 64.82257 293.93764 
L 64.85956 293.78616 
L 64.89655 293.967936 
L 65.19247 295.331256 
L 65.30344 295.543328 
L 65.34043 295.482736 
L 65.37742 295.513032 
L 65.4514 295.815992 
L 65.48839 295.482736 
L 65.52538 295.937176 
L 65.63635 296.300728 
L 65.74732 296.05836 
L 65.96926 296.906648 
L 66.00625 296.482504 
L 66.04324 296.846056 
L 66.11722 296.81576 
L 66.22819 297.633752 
L 66.26518 297.57316 
L 66.30217 297.72464 
L 66.33916 297.72464 
L 66.37615 297.603456 
L 66.5611 298.815296 
L 66.59809 299.027368 
L 66.63508 298.785 
L 66.82003 298.118488 
L 67.00498 299.178848 
L 67.18993 298.845592 
L 67.22692 299.08796 
L 67.3009 298.875888 
L 67.41187 298.360856 
L 67.48585 298.966776 
L 67.52284 298.815296 
L 67.6708 298.572928 
L 67.85575 299.5424 
L 68.11468 300.814832 
L 68.22565 301.905488 
L 68.4106 303.268808 
L 68.59555 302.178152 
L 68.66953 301.875192 
L 68.92846 303.511176 
L 69.07642 302.72348 
L 69.18739 302.935552 
L 69.40933 304.207984 
L 69.44632 304.298872 
L 69.48331 304.965384 
L 69.55729 304.723016 
L 69.63127 305.056272 
L 69.74224 305.6016 
L 70.2601 309.3886 
L 70.29709 309.358304 
L 70.48204 310.721624 
L 70.70398 311.842576 
L 71.03689 317.477632 
L 71.03689 317.477632 
" style="fill:none;stroke:#9467bd;stroke-linecap:square;stroke-width:1.5;"/>
   </g>
   <g id="patch_7">
    <path d="M 33.64 317.72 
L 33.64 14.76 
" style="fill:none;stroke:#000000;stroke-linecap:square;stroke-linejoin:miter;stroke-width:0.8;"/>
   </g>
   <g id="patch_8">
    <path d="M 403.54 317.72 
L 403.54 14.76 
" style="fill:none;stroke:#000000;stroke-linecap:square;stroke-linejoin:miter;stroke-width:0.8;"/>
   </g>
   <g id="patch_9">
    <path d="M 33.64 317.72 
L 403.54 317.72 
" style="fill:none;stroke:#000000;stroke-linecap:square;stroke-linejoin:miter;stroke-width:0.8;"/>
   </g>
   <g id="patch_10">
    <path d="M 33.64 14.76 
L 403.54 14.76 
" style="fill:none;stroke:#000000;stroke-linecap:square;stroke-linejoin:miter;stroke-width:0.8;"/>
   </g>
   <g id="text_20">
    <!-- Size history of the universe for effective cosmological constant 0.56 -->
    <defs>
     <path d="M 53.515625 70.515625 
L 53.515625 60.890625 
Q 47.90625 63.578125 42.921875 64.890625 
Q 37.9375 66.21875 33.296875 66.21875 
Q 25.25 66.21875 20.875 63.09375 
Q 16.5 59.96875 16.5 54.203125 
Q 16.5 49.359375 19.40625 46.890625 
Q 22.3125 44.4375 30.421875 42.921875 
L 36.375 41.703125 
Q 47.40625 39.59375 52.65625 34.296875 
Q 57.90625 29 57.90625 20.125 
Q 57.90625 9.515625 50.796875 4.046875 
Q 43.703125 -1.421875 29.984375 -1.421875 
Q 24.8125 -1.421875 18.96875 -0.25 
Q 13.140625 0.921875 6.890625 3.21875 
L 6.890625 13.375 
Q 12.890625 10.015625 18.65625 8.296875 
Q 24.421875 6.59375 29.984375 6.59375 
Q 38.421875 6.59375 43.015625 9.90625 
Q 47.609375 13.234375 47.609375 19.390625 
Q 47.609375 24.75 44.3125 27.78125 
Q 41.015625 30.8125 33.5 32.328125 
L 27.484375 33.5 
Q 16.453125 35.6875 11.515625 40.375 
Q 6.59375 45.0625 6.59375 53.421875 
Q 6.59375 63.09375 13.40625 68.65625 
Q 20.21875 74.21875 32.171875 74.21875 
Q 37.3125 74.21875 42.625 73.28125 
Q 47.953125 72.359375 53.515625 70.515625 
z
" id="DejaVuSans-83"/>
     <path id="DejaVuSans-32"/>
     <path d="M 54.890625 33.015625 
L 54.890625 0 
L 45.90625 0 
L 45.90625 32.71875 
Q 45.90625 40.484375 42.875 44.328125 
Q 39.84375 48.1875 33.796875 48.1875 
Q 26.515625 48.1875 22.3125 43.546875 
Q 18.109375 38.921875 18.109375 30.90625 
L 18.109375 0 
L 9.078125 0 
L 9.078125 75.984375 
L 18.109375 75.984375 
L 18.109375 46.1875 
Q 21.34375 51.125 25.703125 53.5625 
Q 30.078125 56 35.796875 56 
Q 45.21875 56 50.046875 50.171875 
Q 54.890625 44.34375 54.890625 33.015625 
z
" id="DejaVuSans-104"/>
     <path d="M 18.3125 70.21875 
L 18.3125 54.6875 
L 36.8125 54.6875 
L 36.8125 47.703125 
L 18.3125 47.703125 
L 18.3125 18.015625 
Q 18.3125 11.328125 20.140625 9.421875 
Q 21.96875 7.515625 27.59375 7.515625 
L 36.8125 7.515625 
L 36.8125 0 
L 27.59375 0 
Q 17.1875 0 13.234375 3.875 
Q 9.28125 7.765625 9.28125 18.015625 
L 9.28125 47.703125 
L 2.6875 47.703125 
L 2.6875 54.6875 
L 9.28125 54.6875 
L 9.28125 70.21875 
z
" id="DejaVuSans-116"/>
     <path d="M 30.609375 48.390625 
Q 23.390625 48.390625 19.1875 42.75 
Q 14.984375 37.109375 14.984375 27.296875 
Q 14.984375 17.484375 19.15625 11.84375 
Q 23.34375 6.203125 30.609375 6.203125 
Q 37.796875 6.203125 41.984375 11.859375 
Q 46.1875 17.53125 46.1875 27.296875 
Q 46.1875 37.015625 41.984375 42.703125 
Q 37.796875 48.390625 30.609375 48.390625 
z
M 30.609375 56 
Q 42.328125 56 49.015625 48.375 
Q 55.71875 40.765625 55.71875 27.296875 
Q 55.71875 13.875 49.015625 6.21875 
Q 42.328125 -1.421875 30.609375 -1.421875 
Q 18.84375 -1.421875 12.171875 6.21875 
Q 5.515625 13.875 5.515625 27.296875 
Q 5.515625 40.765625 12.171875 48.375 
Q 18.84375 56 30.609375 56 
z
" id="DejaVuSans-111"/>
     <path d="M 41.109375 46.296875 
Q 39.59375 47.171875 37.8125 47.578125 
Q 36.03125 48 33.890625 48 
Q 26.265625 48 22.1875 43.046875 
Q 18.109375 38.09375 18.109375 28.8125 
L 18.109375 0 
L 9.078125 0 
L 9.078125 54.6875 
L 18.109375 54.6875 
L 18.109375 46.1875 
Q 20.953125 51.171875 25.484375 53.578125 
Q 30.03125 56 36.53125 56 
Q 37.453125 56 38.578125 55.875 
Q 39.703125 55.765625 41.0625 55.515625 
z
" id="DejaVuSans-114"/>
     <path d="M 32.171875 -5.078125 
Q 28.375 -14.84375 24.75 -17.8125 
Q 21.140625 -20.796875 15.09375 -20.796875 
L 7.90625 -20.796875 
L 7.90625 -13.28125 
L 13.1875 -13.28125 
Q 16.890625 -13.28125 18.9375 -11.515625 
Q 21 -9.765625 23.484375 -3.21875 
L 25.09375 0.875 
L 2.984375 54.6875 
L 12.5 54.6875 
L 29.59375 11.921875 
L 46.6875 54.6875 
L 56.203125 54.6875 
z
" id="DejaVuSans-121"/>
     <path d="M 37.109375 75.984375 
L 37.109375 68.5 
L 28.515625 68.5 
Q 23.6875 68.5 21.796875 66.546875 
Q 19.921875 64.59375 19.921875 59.515625 
L 19.921875 54.6875 
L 34.71875 54.6875 
L 34.71875 47.703125 
L 19.921875 47.703125 
L 19.921875 0 
L 10.890625 0 
L 10.890625 47.703125 
L 2.296875 47.703125 
L 2.296875 54.6875 
L 10.890625 54.6875 
L 10.890625 58.5 
Q 10.890625 67.625 15.140625 71.796875 
Q 19.390625 75.984375 28.609375 75.984375 
z
" id="DejaVuSans-102"/>
     <path d="M 8.5 21.578125 
L 8.5 54.6875 
L 17.484375 54.6875 
L 17.484375 21.921875 
Q 17.484375 14.15625 20.5 10.265625 
Q 23.53125 6.390625 29.59375 6.390625 
Q 36.859375 6.390625 41.078125 11.03125 
Q 45.3125 15.671875 45.3125 23.6875 
L 45.3125 54.6875 
L 54.296875 54.6875 
L 54.296875 0 
L 45.3125 0 
L 45.3125 8.40625 
Q 42.046875 3.421875 37.71875 1 
Q 33.40625 -1.421875 27.6875 -1.421875 
Q 18.265625 -1.421875 13.375 4.4375 
Q 8.5 10.296875 8.5 21.578125 
z
M 31.109375 56 
z
" id="DejaVuSans-117"/>
     <path d="M 54.890625 33.015625 
L 54.890625 0 
L 45.90625 0 
L 45.90625 32.71875 
Q 45.90625 40.484375 42.875 44.328125 
Q 39.84375 48.1875 33.796875 48.1875 
Q 26.515625 48.1875 22.3125 43.546875 
Q 18.109375 38.921875 18.109375 30.90625 
L 18.109375 0 
L 9.078125 0 
L 9.078125 54.6875 
L 18.109375 54.6875 
L 18.109375 46.1875 
Q 21.34375 51.125 25.703125 53.5625 
Q 30.078125 56 35.796875 56 
Q 45.21875 56 50.046875 50.171875 
Q 54.890625 44.34375 54.890625 33.015625 
z
" id="DejaVuSans-110"/>
     <path d="M 2.984375 54.6875 
L 12.5 54.6875 
L 29.59375 8.796875 
L 46.6875 54.6875 
L 56.203125 54.6875 
L 35.6875 0 
L 23.484375 0 
z
" id="DejaVuSans-118"/>
     <path d="M 48.78125 52.59375 
L 48.78125 44.1875 
Q 44.96875 46.296875 41.140625 47.34375 
Q 37.3125 48.390625 33.40625 48.390625 
Q 24.65625 48.390625 19.8125 42.84375 
Q 14.984375 37.3125 14.984375 27.296875 
Q 14.984375 17.28125 19.8125 11.734375 
Q 24.65625 6.203125 33.40625 6.203125 
Q 37.3125 6.203125 41.140625 7.25 
Q 44.96875 8.296875 48.78125 10.40625 
L 48.78125 2.09375 
Q 45.015625 0.34375 40.984375 -0.53125 
Q 36.96875 -1.421875 32.421875 -1.421875 
Q 20.0625 -1.421875 12.78125 6.34375 
Q 5.515625 14.109375 5.515625 27.296875 
Q 5.515625 40.671875 12.859375 48.328125 
Q 20.21875 56 33.015625 56 
Q 37.15625 56 41.109375 55.140625 
Q 45.0625 54.296875 48.78125 52.59375 
z
" id="DejaVuSans-99"/>
     <path d="M 52 44.1875 
Q 55.375 50.25 60.0625 53.125 
Q 64.75 56 71.09375 56 
Q 79.640625 56 84.28125 50.015625 
Q 88.921875 44.046875 88.921875 33.015625 
L 88.921875 0 
L 79.890625 0 
L 79.890625 32.71875 
Q 79.890625 40.578125 77.09375 44.375 
Q 74.3125 48.1875 68.609375 48.1875 
Q 61.625 48.1875 57.5625 43.546875 
Q 53.515625 38.921875 53.515625 30.90625 
L 53.515625 0 
L 44.484375 0 
L 44.484375 32.71875 
Q 44.484375 40.625 41.703125 44.40625 
Q 38.921875 48.1875 33.109375 48.1875 
Q 26.21875 48.1875 22.15625 43.53125 
Q 18.109375 38.875 18.109375 30.90625 
L 18.109375 0 
L 9.078125 0 
L 9.078125 54.6875 
L 18.109375 54.6875 
L 18.109375 46.1875 
Q 21.1875 51.21875 25.484375 53.609375 
Q 29.78125 56 35.6875 56 
Q 41.65625 56 45.828125 52.96875 
Q 50 49.953125 52 44.1875 
z
" id="DejaVuSans-109"/>
     <path d="M 9.421875 75.984375 
L 18.40625 75.984375 
L 18.40625 0 
L 9.421875 0 
z
" id="DejaVuSans-108"/>
     <path d="M 45.40625 27.984375 
Q 45.40625 37.75 41.375 43.109375 
Q 37.359375 48.484375 30.078125 48.484375 
Q 22.859375 48.484375 18.828125 43.109375 
Q 14.796875 37.75 14.796875 27.984375 
Q 14.796875 18.265625 18.828125 12.890625 
Q 22.859375 7.515625 30.078125 7.515625 
Q 37.359375 7.515625 41.375 12.890625 
Q 45.40625 18.265625 45.40625 27.984375 
z
M 54.390625 6.78125 
Q 54.390625 -7.171875 48.1875 -13.984375 
Q 42 -20.796875 29.203125 -20.796875 
Q 24.46875 -20.796875 20.265625 -20.09375 
Q 16.0625 -19.390625 12.109375 -17.921875 
L 12.109375 -9.1875 
Q 16.0625 -11.328125 19.921875 -12.34375 
Q 23.78125 -13.375 27.78125 -13.375 
Q 36.625 -13.375 41.015625 -8.765625 
Q 45.40625 -4.15625 45.40625 5.171875 
L 45.40625 9.625 
Q 42.625 4.78125 38.28125 2.390625 
Q 33.9375 0 27.875 0 
Q 17.828125 0 11.671875 7.65625 
Q 5.515625 15.328125 5.515625 27.984375 
Q 5.515625 40.671875 11.671875 48.328125 
Q 17.828125 56 27.875 56 
Q 33.9375 56 38.28125 53.609375 
Q 42.625 51.21875 45.40625 46.390625 
L 45.40625 54.6875 
L 54.390625 54.6875 
z
" id="DejaVuSans-103"/>
     <path d="M 34.28125 27.484375 
Q 23.390625 27.484375 19.1875 25 
Q 14.984375 22.515625 14.984375 16.5 
Q 14.984375 11.71875 18.140625 8.90625 
Q 21.296875 6.109375 26.703125 6.109375 
Q 34.1875 6.109375 38.703125 11.40625 
Q 43.21875 16.703125 43.21875 25.484375 
L 43.21875 27.484375 
z
M 52.203125 31.203125 
L 52.203125 0 
L 43.21875 0 
L 43.21875 8.296875 
Q 40.140625 3.328125 35.546875 0.953125 
Q 30.953125 -1.421875 24.3125 -1.421875 
Q 15.921875 -1.421875 10.953125 3.296875 
Q 6 8.015625 6 15.921875 
Q 6 25.140625 12.171875 29.828125 
Q 18.359375 34.515625 30.609375 34.515625 
L 43.21875 34.515625 
L 43.21875 35.40625 
Q 43.21875 41.609375 39.140625 45 
Q 35.0625 48.390625 27.6875 48.390625 
Q 23 48.390625 18.546875 47.265625 
Q 14.109375 46.140625 10.015625 43.890625 
L 10.015625 52.203125 
Q 14.9375 54.109375 19.578125 55.046875 
Q 24.21875 56 28.609375 56 
Q 40.484375 56 46.34375 49.84375 
Q 52.203125 43.703125 52.203125 31.203125 
z
" id="DejaVuSans-97"/>
     <path d="M 10.796875 72.90625 
L 49.515625 72.90625 
L 49.515625 64.59375 
L 19.828125 64.59375 
L 19.828125 46.734375 
Q 21.96875 47.46875 24.109375 47.828125 
Q 26.265625 48.1875 28.421875 48.1875 
Q 40.625 48.1875 47.75 41.5 
Q 54.890625 34.8125 54.890625 23.390625 
Q 54.890625 11.625 47.5625 5.09375 
Q 40.234375 -1.421875 26.90625 -1.421875 
Q 22.3125 -1.421875 17.546875 -0.640625 
Q 12.796875 0.140625 7.71875 1.703125 
L 7.71875 11.625 
Q 12.109375 9.234375 16.796875 8.0625 
Q 21.484375 6.890625 26.703125 6.890625 
Q 35.15625 6.890625 40.078125 11.328125 
Q 45.015625 15.765625 45.015625 23.390625 
Q 45.015625 31 40.078125 35.4375 
Q 35.15625 39.890625 26.703125 39.890625 
Q 22.75 39.890625 18.8125 39.015625 
Q 14.890625 38.140625 10.796875 36.28125 
z
" id="DejaVuSans-53"/>
    </defs>
    <g transform="translate(14.116562 8.76)scale(0.12 -0.12)">
     <use xlink:href="#DejaVuSans-83"/>
     <use x="63.476562" xlink:href="#DejaVuSans-105"/>
     <use x="91.259766" xlink:href="#DejaVuSans-122"/>
     <use x="143.75" xlink:href="#DejaVuSans-101"/>
     <use x="205.273438" xlink:href="#DejaVuSans-32"/>
     <use x="237.060547" xlink:href="#DejaVuSans-104"/>
     <use x="300.439453" xlink:href="#DejaVuSans-105"/>
     <use x="328.222656" xlink:href="#DejaVuSans-115"/>
     <use x="380.322266" xlink:href="#DejaVuSans-116"/>
     <use x="419.53125" xlink:href="#DejaVuSans-111"/>
     <use x="480.712891" xlink:href="#DejaVuSans-114"/>
     <use x="521.826172" xlink:href="#DejaVuSans-121"/>
     <use x="581.005859" xlink:href="#DejaVuSans-32"/>
     <use x="612.792969" xlink:href="#DejaVuSans-111"/>
     <use x="673.974609" xlink:href="#DejaVuSans-102"/>
     <use x="709.179688" xlink:href="#DejaVuSans-32"/>
     <use x="740.966797" xlink:href="#DejaVuSans-116"/>
     <use x="780.175781" xlink:href="#DejaVuSans-104"/>
     <use x="843.554688" xlink:href="#DejaVuSans-101"/>
     <use x="905.078125" xlink:href="#DejaVuSans-32"/>
     <use x="936.865234" xlink:href="#DejaVuSans-117"/>
     <use x="1000.244141" xlink:href="#DejaVuSans-110"/>
     <use x="1063.623047" xlink:href="#DejaVuSans-105"/>
     <use x="1091.40625" xlink:href="#DejaVuSans-118"/>
     <use x="1150.585938" xlink:href="#DejaVuSans-101"/>
     <use x="1212.109375" xlink:href="#DejaVuSans-114"/>
     <use x="1253.222656" xlink:href="#DejaVuSans-115"/>
     <use x="1305.322266" xlink:href="#DejaVuSans-101"/>
     <use x="1366.845703" xlink:href="#DejaVuSans-32"/>
     <use x="1398.632812" xlink:href="#DejaVuSans-102"/>
     <use x="1433.837891" xlink:href="#DejaVuSans-111"/>
     <use x="1495.019531" xlink:href="#DejaVuSans-114"/>
     <use x="1536.132812" xlink:href="#DejaVuSans-32"/>
     <use x="1567.919922" xlink:href="#DejaVuSans-101"/>
     <use x="1629.443359" xlink:href="#DejaVuSans-102"/>
     <use x="1664.648438" xlink:href="#DejaVuSans-102"/>
     <use x="1699.853516" xlink:href="#DejaVuSans-101"/>
     <use x="1761.376953" xlink:href="#DejaVuSans-99"/>
     <use x="1816.357422" xlink:href="#DejaVuSans-116"/>
     <use x="1855.566406" xlink:href="#DejaVuSans-105"/>
     <use x="1883.349609" xlink:href="#DejaVuSans-118"/>
     <use x="1942.529297" xlink:href="#DejaVuSans-101"/>
     <use x="2004.052734" xlink:href="#DejaVuSans-32"/>
     <use x="2035.839844" xlink:href="#DejaVuSans-99"/>
     <use x="2090.820312" xlink:href="#DejaVuSans-111"/>
     <use x="2152.001953" xlink:href="#DejaVuSans-115"/>
     <use x="2204.101562" xlink:href="#DejaVuSans-109"/>
     <use x="2301.513672" xlink:href="#DejaVuSans-111"/>
     <use x="2362.695312" xlink:href="#DejaVuSans-108"/>
     <use x="2390.478516" xlink:href="#DejaVuSans-111"/>
     <use x="2451.660156" xlink:href="#DejaVuSans-103"/>
     <use x="2515.136719" xlink:href="#DejaVuSans-105"/>
     <use x="2542.919922" xlink:href="#DejaVuSans-99"/>
     <use x="2597.900391" xlink:href="#DejaVuSans-97"/>
     <use x="2659.179688" xlink:href="#DejaVuSans-108"/>
     <use x="2686.962891" xlink:href="#DejaVuSans-32"/>
     <use x="2718.75" xlink:href="#DejaVuSans-99"/>
     <use x="2773.730469" xlink:href="#DejaVuSans-111"/>
     <use x="2834.912109" xlink:href="#DejaVuSans-110"/>
     <use x="2898.291016" xlink:href="#DejaVuSans-115"/>
     <use x="2950.390625" xlink:href="#DejaVuSans-116"/>
     <use x="2989.599609" xlink:href="#DejaVuSans-97"/>
     <use x="3050.878906" xlink:href="#DejaVuSans-110"/>
     <use x="3114.257812" xlink:href="#DejaVuSans-116"/>
     <use x="3153.466797" xlink:href="#DejaVuSans-32"/>
     <use x="3185.253906" xlink:href="#DejaVuSans-48"/>
     <use x="3248.876953" xlink:href="#DejaVuSans-46"/>
     <use x="3280.664062" xlink:href="#DejaVuSans-53"/>
     <use x="3344.287109" xlink:href="#DejaVuSans-54"/>
    </g>
   </g>
  </g>
 </g>
 <defs>
  <clipPath id="pfbc6f9ac0a">
   <rect height="302.96" width="369.9" x="33.64" y="14.76"/>
  </clipPath>
 </defs>
</svg>
