<?xml version="1.0" encoding="utf-8" standalone="no"?>
<!DOCTYPE svg PUBLIC "-//W3C//DTD SVG 1.1//EN"
  "http://www.w3.org/Graphics/SVG/1.1/DTD/svg11.dtd">
<!-- Created with matplotlib (https://matplotlib.org/) -->
<svg height="345.6pt" version="1.1" viewBox="0 0 460.8 345.6" width="460.8pt" xmlns="http://www.w3.org/2000/svg" xmlns:xlink="http://www.w3.org/1999/xlink">
 <defs>
  <style type="text/css">
*{stroke-linecap:butt;stroke-linejoin:round;}
  </style>
 </defs>
 <g id="figure_1">
  <g id="patch_1">
   <path d="M 0 345.6 
L 460.8 345.6 
L 460.8 0 
L 0 0 
z
" style="fill:#ffffff;"/>
  </g>
  <g id="axes_1">
   <g id="patch_2">
    <path d="M 33.64 317.72 
L 403.54 317.72 
L 403.54 15.056171 
L 33.64 15.056171 
z
" style="fill:#ffffff;"/>
   </g>
   <g id="matplotlib.axis_1">
    <g id="xtick_1">
     <g id="line2d_1">
      <defs>
       <path d="M 0 0 
L 0 3.5 
" id="m54ede5764e" style="stroke:#000000;stroke-width:0.8;"/>
      </defs>
      <g>
       <use style="stroke:#000000;stroke-width:0.8;" x="33.64" xlink:href="#m54ede5764e" y="317.72"/>
      </g>
     </g>
     <g id="text_1">
      <!-- 0 -->
      <defs>
       <path d="M 31.78125 66.40625 
Q 24.171875 66.40625 20.328125 58.90625 
Q 16.5 51.421875 16.5 36.375 
Q 16.5 21.390625 20.328125 13.890625 
Q 24.171875 6.390625 31.78125 6.390625 
Q 39.453125 6.390625 43.28125 13.890625 
Q 47.125 21.390625 47.125 36.375 
Q 47.125 51.421875 43.28125 58.90625 
Q 39.453125 66.40625 31.78125 66.40625 
z
M 31.78125 74.21875 
Q 44.046875 74.21875 50.515625 64.515625 
Q 56.984375 54.828125 56.984375 36.375 
Q 56.984375 17.96875 50.515625 8.265625 
Q 44.046875 -1.421875 31.78125 -1.421875 
Q 19.53125 -1.421875 13.0625 8.265625 
Q 6.59375 17.96875 6.59375 36.375 
Q 6.59375 54.828125 13.0625 64.515625 
Q 19.53125 74.21875 31.78125 74.21875 
z
" id="DejaVuSans-48"/>
      </defs>
      <g transform="translate(30.45875 332.318437)scale(0.1 -0.1)">
       <use xlink:href="#DejaVuSans-48"/>
      </g>
     </g>
    </g>
    <g id="xtick_2">
     <g id="line2d_2">
      <g>
       <use style="stroke:#000000;stroke-width:0.8;" x="107.62" xlink:href="#m54ede5764e" y="317.72"/>
      </g>
     </g>
     <g id="text_2">
      <!-- 2000 -->
      <defs>
       <path d="M 19.1875 8.296875 
L 53.609375 8.296875 
L 53.609375 0 
L 7.328125 0 
L 7.328125 8.296875 
Q 12.9375 14.109375 22.625 23.890625 
Q 32.328125 33.6875 34.8125 36.53125 
Q 39.546875 41.84375 41.421875 45.53125 
Q 43.3125 49.21875 43.3125 52.78125 
Q 43.3125 58.59375 39.234375 62.25 
Q 35.15625 65.921875 28.609375 65.921875 
Q 23.96875 65.921875 18.8125 64.3125 
Q 13.671875 62.703125 7.8125 59.421875 
L 7.8125 69.390625 
Q 13.765625 71.78125 18.9375 73 
Q 24.125 74.21875 28.421875 74.21875 
Q 39.75 74.21875 46.484375 68.546875 
Q 53.21875 62.890625 53.21875 53.421875 
Q 53.21875 48.921875 51.53125 44.890625 
Q 49.859375 40.875 45.40625 35.40625 
Q 44.1875 33.984375 37.640625 27.21875 
Q 31.109375 20.453125 19.1875 8.296875 
z
" id="DejaVuSans-50"/>
      </defs>
      <g transform="translate(94.895 332.318437)scale(0.1 -0.1)">
       <use xlink:href="#DejaVuSans-50"/>
       <use x="63.623047" xlink:href="#DejaVuSans-48"/>
       <use x="127.246094" xlink:href="#DejaVuSans-48"/>
       <use x="190.869141" xlink:href="#DejaVuSans-48"/>
      </g>
     </g>
    </g>
    <g id="xtick_3">
     <g id="line2d_3">
      <g>
       <use style="stroke:#000000;stroke-width:0.8;" x="181.6" xlink:href="#m54ede5764e" y="317.72"/>
      </g>
     </g>
     <g id="text_3">
      <!-- 4000 -->
      <defs>
       <path d="M 37.796875 64.3125 
L 12.890625 25.390625 
L 37.796875 25.390625 
z
M 35.203125 72.90625 
L 47.609375 72.90625 
L 47.609375 25.390625 
L 58.015625 25.390625 
L 58.015625 17.1875 
L 47.609375 17.1875 
L 47.609375 0 
L 37.796875 0 
L 37.796875 17.1875 
L 4.890625 17.1875 
L 4.890625 26.703125 
z
" id="DejaVuSans-52"/>
      </defs>
      <g transform="translate(168.875 332.318437)scale(0.1 -0.1)">
       <use xlink:href="#DejaVuSans-52"/>
       <use x="63.623047" xlink:href="#DejaVuSans-48"/>
       <use x="127.246094" xlink:href="#DejaVuSans-48"/>
       <use x="190.869141" xlink:href="#DejaVuSans-48"/>
      </g>
     </g>
    </g>
    <g id="xtick_4">
     <g id="line2d_4">
      <g>
       <use style="stroke:#000000;stroke-width:0.8;" x="255.58" xlink:href="#m54ede5764e" y="317.72"/>
      </g>
     </g>
     <g id="text_4">
      <!-- 6000 -->
      <defs>
       <path d="M 33.015625 40.375 
Q 26.375 40.375 22.484375 35.828125 
Q 18.609375 31.296875 18.609375 23.390625 
Q 18.609375 15.53125 22.484375 10.953125 
Q 26.375 6.390625 33.015625 6.390625 
Q 39.65625 6.390625 43.53125 10.953125 
Q 47.40625 15.53125 47.40625 23.390625 
Q 47.40625 31.296875 43.53125 35.828125 
Q 39.65625 40.375 33.015625 40.375 
z
M 52.59375 71.296875 
L 52.59375 62.3125 
Q 48.875 64.0625 45.09375 64.984375 
Q 41.3125 65.921875 37.59375 65.921875 
Q 27.828125 65.921875 22.671875 59.328125 
Q 17.53125 52.734375 16.796875 39.40625 
Q 19.671875 43.65625 24.015625 45.921875 
Q 28.375 48.1875 33.59375 48.1875 
Q 44.578125 48.1875 50.953125 41.515625 
Q 57.328125 34.859375 57.328125 23.390625 
Q 57.328125 12.15625 50.6875 5.359375 
Q 44.046875 -1.421875 33.015625 -1.421875 
Q 20.359375 -1.421875 13.671875 8.265625 
Q 6.984375 17.96875 6.984375 36.375 
Q 6.984375 53.65625 15.1875 63.9375 
Q 23.390625 74.21875 37.203125 74.21875 
Q 40.921875 74.21875 44.703125 73.484375 
Q 48.484375 72.75 52.59375 71.296875 
z
" id="DejaVuSans-54"/>
      </defs>
      <g transform="translate(242.855 332.318437)scale(0.1 -0.1)">
       <use xlink:href="#DejaVuSans-54"/>
       <use x="63.623047" xlink:href="#DejaVuSans-48"/>
       <use x="127.246094" xlink:href="#DejaVuSans-48"/>
       <use x="190.869141" xlink:href="#DejaVuSans-48"/>
      </g>
     </g>
    </g>
    <g id="xtick_5">
     <g id="line2d_5">
      <g>
       <use style="stroke:#000000;stroke-width:0.8;" x="329.56" xlink:href="#m54ede5764e" y="317.72"/>
      </g>
     </g>
     <g id="text_5">
      <!-- 8000 -->
      <defs>
       <path d="M 31.78125 34.625 
Q 24.75 34.625 20.71875 30.859375 
Q 16.703125 27.09375 16.703125 20.515625 
Q 16.703125 13.921875 20.71875 10.15625 
Q 24.75 6.390625 31.78125 6.390625 
Q 38.8125 6.390625 42.859375 10.171875 
Q 46.921875 13.96875 46.921875 20.515625 
Q 46.921875 27.09375 42.890625 30.859375 
Q 38.875 34.625 31.78125 34.625 
z
M 21.921875 38.8125 
Q 15.578125 40.375 12.03125 44.71875 
Q 8.5 49.078125 8.5 55.328125 
Q 8.5 64.0625 14.71875 69.140625 
Q 20.953125 74.21875 31.78125 74.21875 
Q 42.671875 74.21875 48.875 69.140625 
Q 55.078125 64.0625 55.078125 55.328125 
Q 55.078125 49.078125 51.53125 44.71875 
Q 48 40.375 41.703125 38.8125 
Q 48.828125 37.15625 52.796875 32.3125 
Q 56.78125 27.484375 56.78125 20.515625 
Q 56.78125 9.90625 50.3125 4.234375 
Q 43.84375 -1.421875 31.78125 -1.421875 
Q 19.734375 -1.421875 13.25 4.234375 
Q 6.78125 9.90625 6.78125 20.515625 
Q 6.78125 27.484375 10.78125 32.3125 
Q 14.796875 37.15625 21.921875 38.8125 
z
M 18.3125 54.390625 
Q 18.3125 48.734375 21.84375 45.5625 
Q 25.390625 42.390625 31.78125 42.390625 
Q 38.140625 42.390625 41.71875 45.5625 
Q 45.3125 48.734375 45.3125 54.390625 
Q 45.3125 60.0625 41.71875 63.234375 
Q 38.140625 66.40625 31.78125 66.40625 
Q 25.390625 66.40625 21.84375 63.234375 
Q 18.3125 60.0625 18.3125 54.390625 
z
" id="DejaVuSans-56"/>
      </defs>
      <g transform="translate(316.835 332.318437)scale(0.1 -0.1)">
       <use xlink:href="#DejaVuSans-56"/>
       <use x="63.623047" xlink:href="#DejaVuSans-48"/>
       <use x="127.246094" xlink:href="#DejaVuSans-48"/>
       <use x="190.869141" xlink:href="#DejaVuSans-48"/>
      </g>
     </g>
    </g>
    <g id="xtick_6">
     <g id="line2d_6">
      <g>
       <use style="stroke:#000000;stroke-width:0.8;" x="403.54" xlink:href="#m54ede5764e" y="317.72"/>
      </g>
     </g>
     <g id="text_6">
      <!-- 10000 -->
      <defs>
       <path d="M 12.40625 8.296875 
L 28.515625 8.296875 
L 28.515625 63.921875 
L 10.984375 60.40625 
L 10.984375 69.390625 
L 28.421875 72.90625 
L 38.28125 72.90625 
L 38.28125 8.296875 
L 54.390625 8.296875 
L 54.390625 0 
L 12.40625 0 
z
" id="DejaVuSans-49"/>
      </defs>
      <g transform="translate(387.63375 332.318437)scale(0.1 -0.1)">
       <use xlink:href="#DejaVuSans-49"/>
       <use x="63.623047" xlink:href="#DejaVuSans-48"/>
       <use x="127.246094" xlink:href="#DejaVuSans-48"/>
       <use x="190.869141" xlink:href="#DejaVuSans-48"/>
       <use x="254.492188" xlink:href="#DejaVuSans-48"/>
      </g>
     </g>
    </g>
   </g>
   <g id="matplotlib.axis_2">
    <g id="ytick_1">
     <g id="line2d_7">
      <defs>
       <path d="M 0 0 
L -3.5 0 
" id="m173e441881" style="stroke:#000000;stroke-width:0.8;"/>
      </defs>
      <g>
       <use style="stroke:#000000;stroke-width:0.8;" x="33.64" xlink:href="#m173e441881" y="317.72"/>
      </g>
     </g>
     <g id="text_7">
      <!-- 0.0 -->
      <defs>
       <path d="M 10.6875 12.40625 
L 21 12.40625 
L 21 0 
L 10.6875 0 
z
" id="DejaVuSans-46"/>
      </defs>
      <g transform="translate(10.736875 321.519219)scale(0.1 -0.1)">
       <use xlink:href="#DejaVuSans-48"/>
       <use x="63.623047" xlink:href="#DejaVuSans-46"/>
       <use x="95.410156" xlink:href="#DejaVuSans-48"/>
      </g>
     </g>
    </g>
    <g id="ytick_2">
     <g id="line2d_8">
      <g>
       <use style="stroke:#000000;stroke-width:0.8;" x="33.64" xlink:href="#m173e441881" y="257.187234"/>
      </g>
     </g>
     <g id="text_8">
      <!-- 0.2 -->
      <g transform="translate(10.736875 260.986453)scale(0.1 -0.1)">
       <use xlink:href="#DejaVuSans-48"/>
       <use x="63.623047" xlink:href="#DejaVuSans-46"/>
       <use x="95.410156" xlink:href="#DejaVuSans-50"/>
      </g>
     </g>
    </g>
    <g id="ytick_3">
     <g id="line2d_9">
      <g>
       <use style="stroke:#000000;stroke-width:0.8;" x="33.64" xlink:href="#m173e441881" y="196.654468"/>
      </g>
     </g>
     <g id="text_9">
      <!-- 0.4 -->
      <g transform="translate(10.736875 200.453687)scale(0.1 -0.1)">
       <use xlink:href="#DejaVuSans-48"/>
       <use x="63.623047" xlink:href="#DejaVuSans-46"/>
       <use x="95.410156" xlink:href="#DejaVuSans-52"/>
      </g>
     </g>
    </g>
    <g id="ytick_4">
     <g id="line2d_10">
      <g>
       <use style="stroke:#000000;stroke-width:0.8;" x="33.64" xlink:href="#m173e441881" y="136.121703"/>
      </g>
     </g>
     <g id="text_10">
      <!-- 0.6 -->
      <g transform="translate(10.736875 139.920921)scale(0.1 -0.1)">
       <use xlink:href="#DejaVuSans-48"/>
       <use x="63.623047" xlink:href="#DejaVuSans-46"/>
       <use x="95.410156" xlink:href="#DejaVuSans-54"/>
      </g>
     </g>
    </g>
    <g id="ytick_5">
     <g id="line2d_11">
      <g>
       <use style="stroke:#000000;stroke-width:0.8;" x="33.64" xlink:href="#m173e441881" y="75.588937"/>
      </g>
     </g>
     <g id="text_11">
      <!-- 0.8 -->
      <g transform="translate(10.736875 79.388156)scale(0.1 -0.1)">
       <use xlink:href="#DejaVuSans-48"/>
       <use x="63.623047" xlink:href="#DejaVuSans-46"/>
       <use x="95.410156" xlink:href="#DejaVuSans-56"/>
      </g>
     </g>
    </g>
    <g id="ytick_6">
     <g id="line2d_12">
      <g>
       <use style="stroke:#000000;stroke-width:0.8;" x="33.64" xlink:href="#m173e441881" y="15.056171"/>
      </g>
     </g>
     <g id="text_12">
      <!-- 1.0 -->
      <g transform="translate(10.736875 18.85539)scale(0.1 -0.1)">
       <use xlink:href="#DejaVuSans-49"/>
       <use x="63.623047" xlink:href="#DejaVuSans-46"/>
       <use x="95.410156" xlink:href="#DejaVuSans-48"/>
      </g>
     </g>
    </g>
   </g>
   <g id="patch_3">
    <path d="M 33.64 317.72 
L 33.64 15.056171 
" style="fill:none;stroke:#000000;stroke-linecap:square;stroke-linejoin:miter;stroke-width:0.8;"/>
   </g>
   <g id="patch_4">
    <path d="M 403.54 317.72 
L 403.54 15.056171 
" style="fill:none;stroke:#000000;stroke-linecap:square;stroke-linejoin:miter;stroke-width:0.8;"/>
   </g>
   <g id="patch_5">
    <path d="M 33.64 317.72 
L 403.54 317.72 
" style="fill:none;stroke:#000000;stroke-linecap:square;stroke-linejoin:miter;stroke-width:0.8;"/>
   </g>
   <g id="patch_6">
    <path d="M 33.64 15.056171 
L 403.54 15.056171 
" style="fill:none;stroke:#000000;stroke-linecap:square;stroke-linejoin:miter;stroke-width:0.8;"/>
   </g>
  </g>
  <g id="axes_2">
   <g id="matplotlib.axis_3">
    <g id="ytick_7">
     <g id="line2d_13">
      <defs>
       <path d="M 0 0 
L 3.5 0 
" id="mab0cefefda" style="stroke:#000000;stroke-width:0.8;"/>
      </defs>
      <g>
       <use style="stroke:#000000;stroke-width:0.8;" x="403.54" xlink:href="#mab0cefefda" y="317.72"/>
      </g>
     </g>
     <g id="text_13">
      <!-- 0 -->
      <g transform="translate(410.54 321.519219)scale(0.1 -0.1)">
       <use xlink:href="#DejaVuSans-48"/>
      </g>
     </g>
    </g>
    <g id="ytick_8">
     <g id="line2d_14">
      <g>
       <use style="stroke:#000000;stroke-width:0.8;" x="403.54" xlink:href="#mab0cefefda" y="257.187234"/>
      </g>
     </g>
     <g id="text_14">
      <!-- 2000 -->
      <g transform="translate(410.54 260.986453)scale(0.1 -0.1)">
       <use xlink:href="#DejaVuSans-50"/>
       <use x="63.623047" xlink:href="#DejaVuSans-48"/>
       <use x="127.246094" xlink:href="#DejaVuSans-48"/>
       <use x="190.869141" xlink:href="#DejaVuSans-48"/>
      </g>
     </g>
    </g>
    <g id="ytick_9">
     <g id="line2d_15">
      <g>
       <use style="stroke:#000000;stroke-width:0.8;" x="403.54" xlink:href="#mab0cefefda" y="196.654468"/>
      </g>
     </g>
     <g id="text_15">
      <!-- 4000 -->
      <g transform="translate(410.54 200.453687)scale(0.1 -0.1)">
       <use xlink:href="#DejaVuSans-52"/>
       <use x="63.623047" xlink:href="#DejaVuSans-48"/>
       <use x="127.246094" xlink:href="#DejaVuSans-48"/>
       <use x="190.869141" xlink:href="#DejaVuSans-48"/>
      </g>
     </g>
    </g>
    <g id="ytick_10">
     <g id="line2d_16">
      <g>
       <use style="stroke:#000000;stroke-width:0.8;" x="403.54" xlink:href="#mab0cefefda" y="136.121703"/>
      </g>
     </g>
     <g id="text_16">
      <!-- 6000 -->
      <g transform="translate(410.54 139.920921)scale(0.1 -0.1)">
       <use xlink:href="#DejaVuSans-54"/>
       <use x="63.623047" xlink:href="#DejaVuSans-48"/>
       <use x="127.246094" xlink:href="#DejaVuSans-48"/>
       <use x="190.869141" xlink:href="#DejaVuSans-48"/>
      </g>
     </g>
    </g>
    <g id="ytick_11">
     <g id="line2d_17">
      <g>
       <use style="stroke:#000000;stroke-width:0.8;" x="403.54" xlink:href="#mab0cefefda" y="75.588937"/>
      </g>
     </g>
     <g id="text_17">
      <!-- 8000 -->
      <g transform="translate(410.54 79.388156)scale(0.1 -0.1)">
       <use xlink:href="#DejaVuSans-56"/>
       <use x="63.623047" xlink:href="#DejaVuSans-48"/>
       <use x="127.246094" xlink:href="#DejaVuSans-48"/>
       <use x="190.869141" xlink:href="#DejaVuSans-48"/>
      </g>
     </g>
    </g>
    <g id="ytick_12">
     <g id="line2d_18">
      <g>
       <use style="stroke:#000000;stroke-width:0.8;" x="403.54" xlink:href="#mab0cefefda" y="15.056171"/>
      </g>
     </g>
     <g id="text_18">
      <!-- 10000 -->
      <g transform="translate(410.54 18.85539)scale(0.1 -0.1)">
       <use xlink:href="#DejaVuSans-49"/>
       <use x="63.623047" xlink:href="#DejaVuSans-48"/>
       <use x="127.246094" xlink:href="#DejaVuSans-48"/>
       <use x="190.869141" xlink:href="#DejaVuSans-48"/>
       <use x="254.492188" xlink:href="#DejaVuSans-48"/>
      </g>
     </g>
    </g>
    <g id="text_19">
     <!-- size -->
     <defs>
      <path d="M 44.28125 53.078125 
L 44.28125 44.578125 
Q 40.484375 46.53125 36.375 47.5 
Q 32.28125 48.484375 27.875 48.484375 
Q 21.1875 48.484375 17.84375 46.4375 
Q 14.5 44.390625 14.5 40.28125 
Q 14.5 37.15625 16.890625 35.375 
Q 19.28125 33.59375 26.515625 31.984375 
L 29.59375 31.296875 
Q 39.15625 29.25 43.1875 25.515625 
Q 47.21875 21.78125 47.21875 15.09375 
Q 47.21875 7.46875 41.1875 3.015625 
Q 35.15625 -1.421875 24.609375 -1.421875 
Q 20.21875 -1.421875 15.453125 -0.5625 
Q 10.6875 0.296875 5.421875 2 
L 5.421875 11.28125 
Q 10.40625 8.6875 15.234375 7.390625 
Q 20.0625 6.109375 24.8125 6.109375 
Q 31.15625 6.109375 34.5625 8.28125 
Q 37.984375 10.453125 37.984375 14.40625 
Q 37.984375 18.0625 35.515625 20.015625 
Q 33.0625 21.96875 24.703125 23.78125 
L 21.578125 24.515625 
Q 13.234375 26.265625 9.515625 29.90625 
Q 5.8125 33.546875 5.8125 39.890625 
Q 5.8125 47.609375 11.28125 51.796875 
Q 16.75 56 26.8125 56 
Q 31.78125 56 36.171875 55.265625 
Q 40.578125 54.546875 44.28125 53.078125 
z
" id="DejaVuSans-115"/>
      <path d="M 9.421875 54.6875 
L 18.40625 54.6875 
L 18.40625 0 
L 9.421875 0 
z
M 9.421875 75.984375 
L 18.40625 75.984375 
L 18.40625 64.59375 
L 9.421875 64.59375 
z
" id="DejaVuSans-105"/>
      <path d="M 5.515625 54.6875 
L 48.1875 54.6875 
L 48.1875 46.484375 
L 14.40625 7.171875 
L 48.1875 7.171875 
L 48.1875 0 
L 4.296875 0 
L 4.296875 8.203125 
L 38.09375 47.515625 
L 5.515625 47.515625 
z
" id="DejaVuSans-122"/>
      <path d="M 56.203125 29.59375 
L 56.203125 25.203125 
L 14.890625 25.203125 
Q 15.484375 15.921875 20.484375 11.0625 
Q 25.484375 6.203125 34.421875 6.203125 
Q 39.59375 6.203125 44.453125 7.46875 
Q 49.3125 8.734375 54.109375 11.28125 
L 54.109375 2.78125 
Q 49.265625 0.734375 44.1875 -0.34375 
Q 39.109375 -1.421875 33.890625 -1.421875 
Q 20.796875 -1.421875 13.15625 6.1875 
Q 5.515625 13.8125 5.515625 26.8125 
Q 5.515625 40.234375 12.765625 48.109375 
Q 20.015625 56 32.328125 56 
Q 43.359375 56 49.78125 48.890625 
Q 56.203125 41.796875 56.203125 29.59375 
z
M 47.21875 32.234375 
Q 47.125 39.59375 43.09375 43.984375 
Q 39.0625 48.390625 32.421875 48.390625 
Q 24.90625 48.390625 20.390625 44.140625 
Q 15.875 39.890625 15.1875 32.171875 
z
" id="DejaVuSans-101"/>
     </defs>
     <g transform="translate(453.950937 176.082617)rotate(-90)scale(0.1 -0.1)">
      <use xlink:href="#DejaVuSans-115"/>
      <use x="52.099609" xlink:href="#DejaVuSans-105"/>
      <use x="79.882812" xlink:href="#DejaVuSans-122"/>
      <use x="132.373047" xlink:href="#DejaVuSans-101"/>
     </g>
    </g>
   </g>
   <g id="line2d_19">
    <path clip-path="url(#pbc6846c60e)" d="M 33.64 255.734448 
L 33.82495 253.978998 
L 33.97291 252.647277 
L 34.0099 252.677543 
L 34.30582 251.406355 
L 34.3798 251.497154 
L 34.41679 251.466888 
L 34.56475 250.952359 
L 34.63873 251.073425 
L 34.71271 250.407564 
L 34.78669 250.589163 
L 34.82368 250.922093 
L 34.89766 250.801027 
L 34.97164 250.377298 
L 35.00863 250.498364 
L 35.04562 250.952359 
L 35.1196 250.740495 
L 35.15659 250.801027 
L 35.19358 250.710228 
L 35.30455 250.498364 
L 35.34154 250.619429 
L 35.37853 250.498364 
L 35.56348 250.347032 
L 35.60047 250.558896 
L 35.67445 250.498364 
L 35.89639 249.469307 
L 35.97037 249.529839 
L 36.04435 250.014101 
L 36.11833 249.923302 
L 36.15532 249.620638 
L 36.19231 249.832503 
L 36.34027 250.740495 
L 36.37726 250.347032 
L 36.45124 250.649695 
L 36.48823 250.589163 
L 36.67318 249.923302 
L 36.74716 250.074634 
L 36.89512 250.558896 
L 37.00609 250.86156 
L 37.19104 250.1957 
L 37.22803 250.256233 
L 37.26502 250.1957 
L 37.30201 249.832503 
L 37.37599 250.074634 
L 37.48696 250.074634 
L 37.85686 252.314347 
L 37.89385 252.223547 
L 38.04181 252.011683 
L 38.37472 253.131539 
L 38.4487 253.010473 
L 38.67064 253.464469 
L 38.85559 254.372461 
L 38.89258 254.190862 
L 38.96656 254.281661 
L 39.15151 254.977788 
L 39.1885 254.917255 
L 39.22549 254.281661 
L 39.29947 254.402727 
L 39.37345 254.735657 
L 39.63238 255.583116 
L 39.66937 255.431784 
L 39.74335 255.522583 
L 39.9283 256.914837 
L 40.00228 256.491107 
L 40.18723 255.522583 
L 40.22422 255.825247 
L 40.26121 255.794981 
L 40.44616 256.339775 
L 40.48315 256.400308 
L 40.63111 256.793771 
L 40.74208 257.187234 
L 40.81606 257.64123 
L 40.85305 257.610964 
L 40.89004 257.459632 
L 41.00101 258.337357 
L 41.038 258.034693 
L 41.25994 258.700553 
L 41.48188 260.395471 
L 41.51887 260.213872 
L 41.55586 260.577069 
L 41.59285 260.667868 
L 41.66683 260.577069 
L 41.74081 260.425737 
L 41.7778 260.456004 
L 41.96275 261.15213 
L 41.99974 261.121864 
L 42.22168 262.635183 
L 42.25867 262.57465 
L 42.36964 263.694507 
L 42.44362 263.361576 
L 42.5176 263.391843 
L 42.59158 263.028646 
L 42.8875 264.390633 
L 42.92449 264.330101 
L 43.07245 264.299834 
L 43.10944 263.99717 
L 43.14643 264.330101 
L 43.40536 265.813153 
L 43.44235 265.692088 
L 43.47934 265.480223 
L 43.51633 265.631555 
L 43.66429 266.267149 
L 43.70128 266.206616 
L 43.88623 267.26594 
L 43.96021 266.630346 
L 43.9972 266.902743 
L 44.21914 268.839792 
L 44.29312 268.052866 
L 44.3671 268.26473 
L 44.44108 268.597661 
L 44.47807 268.446329 
L 44.51506 268.446329 
L 44.58904 268.68846 
L 44.62603 268.506861 
L 44.66302 268.506861 
L 44.737 268.748992 
L 44.77399 268.658193 
L 44.81098 268.537128 
L 44.92195 269.142455 
L 44.95894 269.051656 
L 45.06991 269.233255 
L 45.1069 269.142455 
L 45.14389 269.112189 
L 45.73573 271.200569 
L 45.80971 271.018971 
L 45.88369 270.595242 
L 45.92068 270.837373 
L 46.40155 273.046819 
L 46.43854 272.925753 
L 46.47553 272.713889 
L 46.66048 273.894278 
L 46.80844 273.319216 
L 47.28931 274.772003 
L 47.3263 275.0444 
L 47.36329 274.953601 
L 47.47426 274.560138 
L 47.54824 275.37733 
L 47.58523 274.832535 
L 47.6962 274.408806 
L 47.73319 274.71147 
L 47.77018 274.71147 
L 48.10309 276.527453 
L 48.14008 276.315588 
L 48.17707 276.345855 
L 48.65794 279.130362 
L 48.91687 279.614624 
L 48.99085 279.433026 
L 49.02784 279.523825 
L 49.1758 280.06862 
L 49.32376 279.554091 
L 49.39774 279.735689 
L 49.69366 281.097677 
L 49.76764 280.673947 
L 49.80463 280.916078 
L 49.98958 281.309541 
L 50.06356 281.279275 
L 50.10055 281.279275 
L 50.35948 282.399131 
L 50.58142 283.851918 
L 50.76637 284.880975 
L 50.80336 284.941507 
L 50.87734 284.457245 
L 50.95132 284.548044 
L 50.98831 284.487512 
L 51.7651 288.573473 
L 51.80209 288.270809 
L 51.83908 288.452408 
L 51.98704 288.997203 
L 52.02403 289.057735 
L 52.17199 290.268391 
L 52.20898 290.086792 
L 52.43092 291.418513 
L 52.5049 291.085583 
L 52.54189 291.267181 
L 52.68985 291.811976 
L 52.72684 291.630378 
L 52.76383 291.479046 
L 52.80082 291.721177 
L 53.13373 292.931832 
L 53.17072 292.659435 
L 53.20771 293.143697 
L 53.35567 293.567426 
L 53.54062 294.838615 
L 53.68858 294.475418 
L 53.72557 294.596483 
L 53.83654 295.171545 
L 53.87353 295.020213 
L 54.02149 295.655807 
L 54.05848 295.686073 
L 54.13246 295.443942 
L 54.3544 296.563798 
L 54.42838 296.896729 
L 54.65032 298.803511 
L 54.68731 298.591646 
L 54.7243 298.924576 
L 54.87226 299.741769 
L 54.90925 299.590437 
L 54.98323 299.620703 
L 55.02022 299.620703 
L 55.31614 301.527485 
L 55.35313 301.285354 
L 55.39012 300.952424 
L 55.4641 301.285354 
L 55.61206 301.557752 
L 55.64905 301.466952 
L 55.68604 301.436686 
L 55.87099 302.496009 
L 55.90798 302.40521 
L 56.46283 305.341049 
L 56.5738 304.977853 
L 56.61079 305.068652 
L 57.27661 308.882216 
L 58.01641 314.451231 
L 58.12738 316.236947 
L 58.12738 316.236947 
" style="fill:none;stroke:#1f77b4;stroke-linecap:square;stroke-width:1.5;"/>
   </g>
   <g id="line2d_20">
    <path clip-path="url(#pbc6846c60e)" d="M 33.64 255.704181 
L 34.26883 249.77197 
L 34.30582 249.953569 
L 34.34281 249.893036 
L 34.49077 248.470516 
L 34.63873 247.653324 
L 34.67572 247.955987 
L 34.71271 247.774389 
L 34.89766 246.775598 
L 34.93465 246.896664 
L 35.00863 246.775598 
L 35.04562 246.594 
L 35.08261 246.987463 
L 35.1196 246.594 
L 35.19358 245.837341 
L 35.23057 245.958406 
L 35.30455 246.049205 
L 35.34154 245.92814 
L 35.37853 245.716275 
L 35.41552 245.958406 
L 35.45251 245.897873 
L 35.52649 246.018939 
L 35.67445 247.169061 
L 35.74843 246.745332 
L 35.8594 247.562524 
L 35.89639 247.441459 
L 35.97037 247.532258 
L 36.00736 247.380926 
L 36.04435 247.501992 
L 36.19231 248.137586 
L 36.2293 248.046787 
L 36.30328 248.107319 
L 36.37726 248.01652 
L 36.45124 248.258651 
L 36.48823 248.319184 
L 36.52522 247.865188 
L 36.5992 247.955987 
L 36.63619 247.925721 
L 36.78415 248.77318 
L 36.85813 248.561315 
L 36.9691 248.77318 
L 37.00609 248.712647 
L 37.08007 248.531049 
L 37.11706 248.137586 
L 37.19104 248.470516 
L 37.22803 248.409983 
L 37.26502 248.531049 
L 37.30201 248.77318 
L 37.37599 248.621848 
L 37.41298 248.500782 
L 37.44997 248.621848 
L 37.63492 249.10611 
L 37.78288 248.894245 
L 38.00482 249.529839 
L 38.04181 249.287708 
L 38.0788 249.408774 
L 38.41171 251.043158 
L 38.4487 250.619429 
L 38.52268 250.982626 
L 38.63365 251.709019 
L 38.67064 251.557687 
L 38.70763 251.709019 
L 38.78161 252.405146 
L 38.8186 252.102482 
L 38.85559 252.193281 
L 38.89258 251.799818 
L 38.92957 252.405146 
L 39.00355 252.919674 
L 39.07753 252.61701 
L 39.1885 253.282871 
L 39.22549 253.494735 
L 39.29947 253.313137 
L 39.33646 253.434203 
L 39.37345 253.313137 
L 39.48442 252.949941 
L 39.78034 253.857932 
L 39.85432 253.736867 
L 40.11325 255.068587 
L 40.18723 255.310718 
L 40.22422 255.704181 
L 40.2982 255.613382 
L 40.33519 255.613382 
L 40.52014 256.97537 
L 40.59412 256.793771 
L 40.63111 256.702972 
L 40.6681 256.88457 
L 40.81606 257.066169 
L 40.85305 257.066169 
L 41.038 258.064959 
L 41.07499 258.125492 
L 41.11198 258.095226 
L 41.18596 258.004427 
L 41.48188 259.548012 
L 41.51887 259.759877 
L 41.59285 259.608545 
L 41.88877 260.365204 
L 42.07372 259.971741 
L 42.11071 260.032274 
L 42.25867 260.879733 
L 42.36964 260.48627 
L 42.66556 262.362786 
L 42.70255 262.271987 
L 42.73954 262.332519 
L 42.85051 262.604917 
L 42.8875 262.453585 
L 42.92449 262.604917 
L 43.07245 263.210244 
L 43.22041 263.573441 
L 43.36837 263.119445 
L 43.77526 264.723564 
L 43.84924 264.451166 
L 43.96021 264.572232 
L 44.18215 265.631555 
L 44.21914 265.601289 
L 44.3671 266.327682 
L 44.40409 266.418481 
L 44.44108 266.206616 
L 44.47807 266.569813 
L 44.51506 266.448747 
L 44.55205 266.479014 
L 44.737 268.385796 
L 44.77399 268.416062 
L 44.88496 269.051656 
L 44.92195 268.870058 
L 44.99593 269.263521 
L 45.03292 269.233255 
L 45.1069 269.112189 
L 45.99466 274.348273 
L 46.10563 274.227208 
L 46.32757 275.104933 
L 46.36456 274.772003 
L 46.40155 274.650937 
L 46.43854 274.832535 
L 46.51252 275.074666 
L 46.54951 274.620671 
L 46.5865 274.802269 
L 46.73446 275.710261 
L 46.77145 275.407597 
L 46.84543 275.347064 
L 46.9564 275.770793 
L 46.99339 275.80106 
L 47.03038 275.740527 
L 47.17834 276.618252 
L 47.21533 276.345855 
L 47.25232 276.406387 
L 47.54824 278.252637 
L 47.58523 278.192104 
L 47.91814 279.463292 
L 47.99212 279.069829 
L 48.02911 279.433026 
L 48.14008 279.342226 
L 48.47299 281.037144 
L 49.21279 283.942717 
L 49.32376 283.640053 
L 49.47172 284.215114 
L 49.5457 283.700586 
L 49.69366 283.791385 
L 49.80463 284.366446 
L 49.84162 284.154581 
L 49.87861 283.91245 
L 50.02657 284.971774 
L 50.06356 284.911241 
L 50.10055 285.062573 
L 50.17453 285.456036 
L 50.24851 285.395503 
L 50.47045 285.637634 
L 50.54443 285.244171 
L 50.61841 285.304704 
L 50.69239 285.304704 
L 50.84035 285.698167 
L 50.87734 285.728433 
L 50.95132 285.244171 
L 50.98831 285.516569 
L 51.0253 285.486302 
L 51.06229 285.546835 
L 51.09928 285.788966 
L 51.13627 285.698167 
L 51.24724 285.274438 
L 51.28423 285.516569 
L 51.35821 285.425769 
L 51.3952 285.667901 
L 51.46918 285.425769 
L 51.69112 286.636425 
L 51.7651 286.515359 
L 51.80209 286.606158 
L 51.83908 286.394294 
L 51.87607 286.818023 
L 51.95005 287.120687 
L 51.98704 286.878556 
L 52.17199 287.51415 
L 52.20898 287.120687 
L 52.28296 287.453617 
L 52.31995 287.483883 
L 52.46791 288.240543 
L 52.57888 287.937879 
L 52.61587 287.968146 
L 52.80082 289.178801 
L 52.83781 289.088002 
L 52.8748 288.543207 
L 52.94878 288.60374 
L 52.98577 288.755072 
L 53.02276 288.694539 
L 53.05975 288.482674 
L 53.13373 288.634006 
L 53.20771 288.845871 
L 53.2447 288.452408 
L 53.31868 288.755072 
L 53.35567 288.664272 
L 53.39266 288.724805 
L 53.57761 289.60253 
L 53.6146 289.541998 
L 53.76256 290.903985 
L 53.87353 290.873718 
L 54.24343 292.719968 
L 54.3544 292.205439 
L 54.39139 292.326505 
L 54.50236 292.750234 
L 54.53935 292.719968 
L 54.61333 292.962099 
L 54.90925 294.687283 
L 54.98323 294.535951 
L 55.02022 294.95968 
L 55.05721 294.838615 
L 55.0942 294.475418 
L 55.13119 294.657016 
L 55.24216 295.29261 
L 55.27915 295.171545 
L 55.39012 294.808348 
L 55.50109 295.29261 
L 55.53808 295.201811 
L 55.57507 295.141278 
L 55.834 296.805929 
L 55.87099 296.594065 
L 55.98196 297.320458 
L 56.01895 297.229659 
L 56.05594 297.108593 
L 56.12992 297.229659 
L 56.16691 297.320458 
L 56.27788 297.865253 
L 56.31487 297.502056 
L 56.38885 297.592855 
L 56.42584 297.623122 
L 56.49982 298.258716 
L 56.53681 297.925786 
L 56.61079 297.532323 
L 56.64778 297.774454 
L 56.90671 299.408838 
L 56.9437 299.257506 
L 56.98069 299.439105 
L 57.23962 300.468162 
L 57.27661 300.377363 
L 57.3136 300.256297 
L 57.42457 301.043223 
L 57.46156 300.770826 
L 57.49855 300.619494 
L 57.53554 300.831358 
L 57.6835 301.345887 
L 57.75748 301.860415 
L 57.83146 301.799883 
L 57.90544 301.860415 
L 58.01641 302.586809 
L 58.0534 302.435477 
L 58.09039 302.163079 
L 58.12738 302.707874 
L 58.16437 302.798673 
L 58.23835 303.404001 
L 58.31233 303.192136 
L 58.4233 303.888263 
L 58.49728 303.676398 
L 58.57126 303.282935 
L 58.60825 303.4948 
L 58.83019 304.947586 
L 58.94116 304.856787 
L 58.97815 304.826521 
L 59.12611 305.189717 
L 59.27407 306.218774 
L 59.533 307.641294 
L 60.6427 312.635248 
L 60.93862 316.206681 
L 60.93862 316.206681 
" style="fill:none;stroke:#ff7f0e;stroke-linecap:square;stroke-width:1.5;"/>
   </g>
   <g id="line2d_21">
    <path clip-path="url(#pbc6846c60e)" d="M 33.64 255.704181 
L 33.82495 253.767133 
L 34.41679 250.891827 
L 34.60174 249.469307 
L 34.7497 249.620638 
L 34.89766 249.832503 
L 35.04562 248.77318 
L 35.08261 248.863979 
L 35.1196 248.894245 
L 35.26756 248.652114 
L 35.78542 247.047996 
L 35.8594 247.471725 
L 35.89639 247.259861 
L 35.93338 247.169061 
L 35.97037 247.411193 
L 36.04435 247.229594 
L 36.34027 247.986254 
L 36.37726 247.623057 
L 36.45124 247.774389 
L 36.5992 248.44025 
L 36.63619 248.258651 
L 36.67318 248.44025 
L 36.71017 248.470516 
L 36.89512 249.469307 
L 36.93211 249.317975 
L 37.15405 250.679962 
L 37.339 251.28529 
L 37.41298 251.224757 
L 37.44997 251.466888 
L 37.52395 251.345822 
L 37.59793 251.406355 
L 37.7089 251.95115 
L 37.74589 251.709019 
L 37.78288 251.769552 
L 37.89385 252.253814 
L 37.93084 252.193281 
L 38.04181 251.497154 
L 38.0788 251.830084 
L 38.11579 252.193281 
L 38.18977 251.890617 
L 38.22676 251.739285 
L 38.26375 251.890617 
L 38.37472 252.465678 
L 38.41171 252.405146 
L 38.4487 252.405146 
L 38.67064 253.736867 
L 38.8186 253.7066 
L 38.85559 253.343404 
L 38.92957 253.646067 
L 39.04054 253.918465 
L 39.11452 253.555268 
L 39.15151 253.767133 
L 39.22549 254.069797 
L 39.26248 253.857932 
L 39.41044 254.281661 
L 39.48442 254.069797 
L 39.52141 254.281661 
L 39.59539 254.644858 
L 39.63238 254.614592 
L 39.66937 254.493526 
L 39.85432 256.006845 
L 39.89131 255.946313 
L 39.9283 255.794981 
L 40.03927 256.945103 
L 40.11325 256.763505 
L 40.18723 256.491107 
L 40.37218 257.671496 
L 40.40917 257.671496 
L 40.48315 256.97537 
L 40.52014 257.156968 
L 40.59412 257.883361 
L 40.63111 257.671496 
L 40.6681 257.368832 
L 40.74208 257.520164 
L 41.00101 259.033484 
L 41.038 259.06375 
L 41.07499 258.791352 
L 41.11198 259.154549 
L 41.22295 260.092807 
L 41.29693 259.82041 
L 41.33392 259.941475 
L 41.4079 259.82041 
L 41.44489 259.911209 
L 41.48188 259.759877 
L 41.51887 259.638811 
L 41.55586 259.880942 
L 41.66683 260.244139 
L 41.81479 261.515327 
L 41.85178 261.24293 
L 41.96275 260.667868 
L 41.99974 261.000798 
L 42.18469 261.485061 
L 42.22168 261.757458 
L 42.25867 261.24293 
L 42.33265 260.849467 
L 42.36964 261.091598 
L 42.44362 261.212663 
L 42.48061 261.182397 
L 42.55459 262.302253 
L 42.62857 262.211454 
L 42.66556 261.939056 
L 42.70255 262.423318 
L 43.03546 264.08797 
L 43.10944 264.057703 
L 43.18342 264.572232 
L 43.36837 265.571022 
L 43.47934 265.964485 
L 43.51633 265.813153 
L 43.55332 265.782887 
L 43.59031 266.327682 
L 43.66429 266.085551 
L 43.73827 266.146084 
L 43.88623 266.539547 
L 43.92322 267.054075 
L 43.9972 266.933009 
L 44.10817 266.751411 
L 44.14516 266.781678 
L 44.3671 267.508071 
L 44.62603 269.233255 
L 44.70001 269.081923 
L 44.84797 268.658193 
L 44.99593 269.112189 
L 45.03292 269.02139 
L 45.1069 269.384587 
L 45.14389 269.263521 
L 45.18088 269.172722 
L 45.21787 269.535918 
L 45.29185 269.172722 
L 45.40282 270.050447 
L 45.43981 269.868849 
L 45.62476 269.051656 
L 45.66175 269.293787 
L 45.73573 269.081923 
L 45.8467 268.991124 
L 45.99466 269.35432 
L 46.03165 269.172722 
L 46.06864 269.35432 
L 46.32757 269.989914 
L 46.40155 270.020181 
L 46.5865 271.049238 
L 46.77145 271.351901 
L 46.80844 271.654565 
L 46.84543 271.412434 
L 46.88242 271.321635 
L 47.21533 273.167884 
L 47.28931 273.440282 
L 47.36329 272.95602 
L 47.40028 273.440282 
L 47.62222 275.104933 
L 47.6962 274.681204 
L 47.73319 275.014134 
L 47.88115 275.649728 
L 47.91814 275.619461 
L 47.95513 275.679994 
L 47.99212 275.528662 
L 48.02911 275.528662 
L 48.25105 276.527453 
L 48.28804 276.527453 
L 48.39901 276.285322 
L 48.436 276.315588 
L 48.50998 276.376121 
L 48.62095 276.860383 
L 48.69493 276.769584 
L 48.73192 276.557719 
L 48.76891 276.648518 
L 48.91687 277.314379 
L 48.95386 277.132781 
L 49.02784 277.284112 
L 49.32376 278.706632 
L 49.50871 279.856755 
L 49.5457 279.523825 
L 49.58269 279.584358 
L 49.73065 280.250218 
L 49.76764 279.977821 
L 49.80463 280.280484 
L 50.54443 282.883393 
L 50.61841 282.792594 
L 50.84035 284.457245 
L 50.87734 284.33618 
L 50.91433 284.578311 
L 51.06229 284.729643 
L 51.09928 284.487512 
L 51.13627 284.820442 
L 51.21025 285.244171 
L 51.24724 285.123106 
L 51.28423 284.911241 
L 51.32122 284.971774 
L 51.54316 286.152163 
L 51.61714 285.456036 
L 51.69112 285.788966 
L 51.87607 285.33497 
L 51.91306 285.365237 
L 52.02403 286.333761 
L 52.06102 286.212695 
L 52.20898 285.607368 
L 52.28296 286.182429 
L 52.35694 286.000831 
L 52.54189 286.42456 
L 52.65286 286.152163 
L 52.68985 286.42456 
L 52.72684 286.152163 
L 52.76383 286.061363 
L 52.83781 286.666691 
L 52.8748 286.273228 
L 52.91179 286.182429 
L 52.94878 286.303495 
L 52.98577 286.42456 
L 53.02276 286.182429 
L 53.09674 285.819232 
L 53.13373 286.09163 
L 53.17072 286.121896 
L 53.50363 287.604949 
L 53.54062 287.483883 
L 53.57761 287.544416 
L 53.91052 289.632797 
L 53.94751 289.511731 
L 54.02149 290.389456 
L 54.09547 290.147325 
L 54.28042 291.055317 
L 54.31741 290.903985 
L 54.3544 291.176382 
L 54.42838 291.600112 
L 54.46537 291.569845 
L 54.57634 291.176382 
L 54.61333 291.297448 
L 54.83527 292.11464 
L 54.98323 292.629169 
L 55.02022 292.508103 
L 55.05721 292.568636 
L 55.20517 293.264763 
L 55.27915 293.083164 
L 55.31614 292.810767 
L 55.39012 293.083164 
L 55.64905 294.172754 
L 55.68604 294.051689 
L 55.87099 295.262344 
L 56.05594 294.384619 
L 56.09293 294.717549 
L 56.24089 295.413676 
L 56.38885 296.261135 
L 56.42584 295.655807 
L 56.46283 295.988737 
L 56.68477 297.441523 
L 56.79574 297.13886 
L 56.83273 297.169126 
L 56.90671 297.290192 
L 56.98069 297.562589 
L 57.01768 297.532323 
L 57.05467 297.441523 
L 57.09166 297.834986 
L 57.12865 297.47179 
L 57.16564 297.350724 
L 57.20263 297.532323 
L 57.53554 299.8931 
L 57.57253 299.9839 
L 57.72049 299.469371 
L 57.86845 300.256297 
L 57.90544 300.014166 
L 57.94243 300.377363 
L 57.97942 300.498428 
L 58.01641 300.377363 
L 58.0534 300.104965 
L 58.09039 300.226031 
L 58.27534 301.40642 
L 58.31233 301.376153 
L 58.34932 301.194555 
L 58.38631 301.224821 
L 58.53427 302.374944 
L 58.68223 302.859206 
L 58.94116 304.25146 
L 58.97815 304.100128 
L 59.01514 304.009329 
L 59.23708 305.431849 
L 59.27407 305.25025 
L 59.31106 305.371316 
L 59.64397 307.217565 
L 59.68096 307.187299 
L 60.34678 313.966969 
L 60.45775 316.236947 
L 60.45775 316.236947 
" style="fill:none;stroke:#2ca02c;stroke-linecap:square;stroke-width:1.5;"/>
   </g>
   <g id="line2d_22">
    <path clip-path="url(#pbc6846c60e)" d="M 33.64 255.764714 
L 34.12087 251.224757 
L 34.23184 251.255023 
L 34.34281 250.770761 
L 34.41679 249.923302 
L 34.49077 250.165433 
L 34.52776 250.1957 
L 34.71271 249.499573 
L 34.7497 249.802237 
L 34.82368 249.560106 
L 34.86067 249.378507 
L 35.04562 250.468097 
L 35.1196 251.133958 
L 35.23057 251.073425 
L 35.30455 250.831294 
L 35.34154 250.86156 
L 35.4895 251.527421 
L 35.56348 251.224757 
L 35.63746 251.133958 
L 35.67445 251.224757 
L 35.78542 251.769552 
L 35.97037 250.710228 
L 36.00736 250.679962 
L 36.2293 252.132748 
L 36.26629 252.072215 
L 36.41425 252.132748 
L 36.56221 252.768342 
L 36.5992 252.647277 
L 36.63619 252.647277 
L 36.67318 253.192072 
L 36.74716 252.889408 
L 36.89512 252.526211 
L 37.15405 253.434203 
L 37.22803 252.980207 
L 37.37599 253.948731 
L 37.52395 253.736867 
L 37.59793 254.100063 
L 37.63492 253.918465 
L 37.74589 253.767133 
L 38.04181 255.068587 
L 38.4487 256.158177 
L 38.48569 255.88578 
L 38.59666 255.280452 
L 38.70763 256.309509 
L 38.74462 256.127911 
L 38.92957 256.642439 
L 38.96656 256.521374 
L 39.04054 256.400308 
L 39.52141 258.640021 
L 39.5584 258.609754 
L 39.74335 259.82041 
L 39.78034 259.638811 
L 39.85432 259.759877 
L 40.00228 260.304672 
L 40.07626 260.092807 
L 40.11325 260.304672 
L 40.26121 260.8192 
L 40.2982 260.8192 
L 40.44616 261.545593 
L 40.63111 260.395471 
L 40.6681 260.546803 
L 40.70509 260.304672 
L 40.74208 260.274405 
L 41.14897 263.66424 
L 41.48188 264.965695 
L 41.51887 264.905162 
L 41.66683 265.328891 
L 41.81479 264.905162 
L 41.85178 265.147293 
L 41.88877 264.905162 
L 41.92576 264.844629 
L 41.96275 264.965695 
L 42.03673 265.813153 
L 42.25867 267.175141 
L 42.40663 267.810735 
L 42.55459 268.627927 
L 42.73954 270.141246 
L 42.81352 270.020181 
L 42.99847 270.413644 
L 43.07245 270.988705 
L 43.14643 270.867639 
L 43.18342 270.77684 
L 43.36837 272.048028 
L 43.6273 271.10977 
L 43.73827 271.654565 
L 43.77526 271.351901 
L 43.81225 271.805897 
L 43.84924 271.86643 
L 44.03419 272.986286 
L 44.07118 272.713889 
L 44.10817 273.077085 
L 44.21914 273.077085 
L 44.70001 274.196941 
L 44.737 273.924544 
L 44.77399 274.227208 
L 44.81098 274.348273 
L 44.88496 273.591614 
L 44.92195 273.742946 
L 45.03292 274.136409 
L 45.06991 274.106142 
L 45.1069 274.166675 
L 45.32884 275.710261 
L 45.36583 276.194523 
L 45.43981 275.80106 
L 45.58777 276.376121 
L 45.69874 276.587986 
L 45.73573 276.46692 
L 45.77272 276.709051 
L 45.80971 276.709051 
L 45.92068 277.072248 
L 45.95767 276.769584 
L 45.99466 277.193313 
L 46.14262 277.919706 
L 46.17961 277.859174 
L 46.54951 279.342226 
L 46.5865 279.069829 
L 46.62349 279.433026 
L 46.66048 279.765956 
L 46.73446 279.675157 
L 46.80844 279.342226 
L 46.84543 279.493558 
L 46.99339 279.947554 
L 47.03038 279.675157 
L 47.06737 280.06862 
L 47.14135 280.341017 
L 47.17834 280.06862 
L 47.28931 278.676366 
L 47.40028 278.918497 
L 47.51125 278.585567 
L 47.54824 278.767165 
L 47.77018 279.675157 
L 47.80717 280.098886 
L 47.88115 279.765956 
L 47.91814 279.705423 
L 47.95513 280.310751 
L 48.02911 280.06862 
L 48.0661 279.977821 
L 48.10309 280.06862 
L 48.17707 280.552882 
L 48.21406 280.522615 
L 48.25105 280.250218 
L 48.32503 280.341017 
L 48.39901 280.552882 
L 48.47299 280.492349 
L 48.58396 280.40155 
L 48.76891 281.370074 
L 48.84289 281.309541 
L 49.06483 283.064992 
L 49.10182 282.732061 
L 49.1758 282.822861 
L 49.21279 282.792594 
L 49.43473 283.276856 
L 49.47172 283.064992 
L 49.5457 283.095258 
L 49.58269 283.186057 
L 49.76764 284.305913 
L 49.84162 284.245381 
L 49.87861 284.517778 
L 49.9156 284.184848 
L 49.95259 284.215114 
L 50.17453 285.123106 
L 50.24851 285.062573 
L 50.2855 285.092839 
L 50.32249 285.577101 
L 50.35948 285.092839 
L 50.43346 284.699376 
L 50.47045 285.062573 
L 50.50744 285.123106 
L 50.58142 285.274438 
L 50.6554 284.699376 
L 50.80336 286.212695 
L 50.84035 286.212695 
L 50.98831 286.818023 
L 51.0253 286.636425 
L 51.50617 288.18001 
L 51.54316 288.119478 
L 51.58015 288.149744 
L 51.7651 289.299866 
L 51.80209 289.148535 
L 51.87607 288.60374 
L 51.91306 288.906403 
L 51.95005 288.997203 
L 51.98704 288.906403 
L 52.02403 288.876137 
L 52.20898 289.995993 
L 52.31995 289.541998 
L 52.46791 290.35919 
L 52.5049 290.147325 
L 52.54189 290.147325 
L 52.72684 291.115849 
L 52.80082 290.873718 
L 52.83781 290.994784 
L 52.98577 292.205439 
L 53.05975 292.175173 
L 53.17072 292.719968 
L 53.20771 292.598902 
L 53.35567 293.385828 
L 53.39266 293.749025 
L 53.42965 293.325295 
L 53.46664 293.295029 
L 53.65159 294.475418 
L 53.76256 294.62675 
L 53.91052 294.778082 
L 53.94751 294.747815 
L 54.50236 297.986318 
L 54.53935 298.319249 
L 54.61333 298.077117 
L 54.68731 298.500847 
L 54.76129 298.288982 
L 55.94497 303.767197 
L 55.98196 303.706665 
L 56.09293 304.705455 
L 56.16691 304.433058 
L 56.2039 304.614656 
L 56.27788 304.493591 
L 56.35186 304.190927 
L 56.49982 305.643713 
L 56.53681 305.280517 
L 56.5738 305.129185 
L 56.61079 305.310783 
L 56.86972 306.037176 
L 56.9437 305.946377 
L 57.05467 306.67277 
L 57.09166 306.460906 
L 57.12865 306.733303 
L 57.57253 308.337421 
L 57.72049 309.003282 
L 57.75748 308.942749 
L 58.09039 310.577134 
L 58.12738 310.546867 
L 58.20136 310.758732 
L 58.23835 310.6074 
L 58.38631 310.395535 
L 58.7932 313.543239 
L 58.90417 315.238157 
L 58.97815 317.417336 
L 58.97815 317.417336 
" style="fill:none;stroke:#d62728;stroke-linecap:square;stroke-width:1.5;"/>
   </g>
   <g id="line2d_23">
    <path clip-path="url(#pbc6846c60e)" d="M 33.64 255.734448 
L 33.82495 254.614592 
L 34.15786 251.739285 
L 34.19485 251.860351 
L 34.60174 249.499573 
L 34.67572 250.256233 
L 34.7497 250.014101 
L 34.89766 249.86277 
L 35.15659 249.075844 
L 35.23057 249.257442 
L 35.30455 250.044368 
L 35.34154 249.77197 
L 35.37853 249.590372 
L 35.41552 249.983835 
L 35.4895 249.86277 
L 35.52649 249.741704 
L 35.89639 251.890617 
L 35.93338 251.890617 
L 36.08134 251.133958 
L 36.15532 251.436621 
L 36.41425 252.859141 
L 36.48823 252.70781 
L 36.56221 252.132748 
L 36.5992 252.314347 
L 36.78415 252.828875 
L 36.85813 252.465678 
L 36.89512 252.526211 
L 37.00609 253.282871 
L 37.04308 252.949941 
L 37.11706 253.161805 
L 37.19104 253.071006 
L 37.22803 253.071006 
L 37.37599 253.434203 
L 37.41298 253.343404 
L 37.44997 253.464469 
L 37.59793 254.402727 
L 37.63492 254.03953 
L 37.67191 254.584325 
L 37.74589 254.311928 
L 37.78288 254.554059 
L 37.81987 254.79619 
L 37.89385 254.614592 
L 37.96783 254.584325 
L 38.0788 255.340985 
L 38.15278 256.158177 
L 38.18977 255.583116 
L 38.26375 255.976579 
L 38.52268 258.367623 
L 38.55967 257.883361 
L 38.63365 257.943894 
L 38.67064 258.095226 
L 38.70763 257.943894 
L 38.85559 257.520164 
L 38.89258 257.64123 
L 39.00355 258.488689 
L 39.04054 258.216291 
L 39.22549 259.033484 
L 39.26248 258.791352 
L 39.29947 258.821619 
L 39.33646 258.549221 
L 39.37345 258.912418 
L 39.41044 258.73082 
L 39.59539 258.155758 
L 39.66937 258.367623 
L 39.70636 258.186025 
L 39.81733 257.762295 
L 39.96529 258.186025 
L 40.26121 259.184815 
L 40.37218 260.304672 
L 40.48315 259.941475 
L 40.52014 259.699344 
L 40.55713 259.759877 
L 40.59412 260.062541 
L 40.6681 259.82041 
L 40.89004 260.788934 
L 41.00101 260.577069 
L 41.07499 260.395471 
L 41.11198 260.577069 
L 41.22295 260.909999 
L 41.33392 261.787724 
L 41.37091 261.727192 
L 41.51887 260.607335 
L 41.55586 261.031065 
L 41.66683 260.48627 
L 41.70382 260.546803 
L 42.11071 263.240511 
L 42.1477 262.937847 
L 42.18469 263.028646 
L 42.36964 263.815572 
L 42.40663 263.240511 
L 42.48061 263.694507 
L 42.55459 263.785306 
L 42.59158 263.724773 
L 42.70255 263.422109 
L 42.81352 263.724773 
L 42.96148 262.937847 
L 43.18342 264.057703 
L 43.33138 263.482642 
L 43.44235 263.210244 
L 43.6273 263.876105 
L 43.81225 264.905162 
L 43.88623 264.844629 
L 43.92322 264.75383 
L 43.96021 264.935428 
L 44.10817 265.692088 
L 44.25613 264.814363 
L 44.29312 265.026227 
L 44.44108 265.571022 
L 44.47807 265.631555 
L 44.51506 265.571022 
L 44.55205 265.328891 
L 44.58904 265.389424 
L 44.70001 266.17635 
L 44.737 265.873686 
L 44.77399 265.873686 
L 44.81098 265.752621 
L 45.03292 267.084341 
L 45.1069 266.660612 
L 45.32884 268.083132 
L 45.36583 268.052866 
L 45.4768 268.900324 
L 45.80971 270.564975 
L 45.8467 270.534709 
L 46.06864 271.987495 
L 46.2166 273.410015 
L 46.25359 273.379749 
L 46.43854 274.075876 
L 46.47553 273.864011 
L 46.51252 274.106142 
L 46.66048 274.529872 
L 46.69747 274.136409 
L 46.77145 274.37854 
L 46.88242 274.408806 
L 47.10436 273.742946 
L 47.14135 273.95481 
L 47.21533 274.166675 
L 47.3263 273.500815 
L 47.65921 275.649728 
L 47.6962 275.498396 
L 47.73319 275.589195 
L 47.99212 277.677575 
L 48.02911 277.22358 
L 48.0661 277.465711 
L 48.14008 277.828907 
L 48.17707 277.798641 
L 48.32503 277.55651 
L 48.58396 279.039563 
L 48.95386 280.341017 
L 49.1758 282.005668 
L 49.21279 282.035935 
L 49.24978 282.338598 
L 49.28677 281.884603 
L 49.32376 281.945135 
L 49.36075 281.884603 
L 49.50871 281.188476 
L 49.58269 281.793803 
L 49.80463 282.762328 
L 49.84162 282.641262 
L 49.87861 282.822861 
L 49.9156 282.732061 
L 50.06356 283.549254 
L 50.10055 283.186057 
L 50.17453 283.337389 
L 50.32249 284.184848 
L 50.47045 285.213905 
L 50.50744 285.00204 
L 50.80336 286.575892 
L 50.84035 287.211486 
L 50.91433 287.120687 
L 51.0253 286.878556 
L 51.3952 288.997203 
L 51.43219 288.845871 
L 51.50617 288.966936 
L 51.65413 290.207858 
L 51.80209 291.206649 
L 51.83908 291.176382 
L 52.09801 292.931832 
L 52.20898 293.325295 
L 52.24597 293.234496 
L 52.28296 293.173963 
L 52.5049 294.717549 
L 52.68985 294.929414 
L 52.72684 295.171545 
L 52.80082 295.080746 
L 52.8748 294.899147 
L 52.94878 295.262344 
L 52.98577 294.989946 
L 53.02276 294.989946 
L 53.13373 295.655807 
L 53.2447 295.201811 
L 53.46664 296.079536 
L 53.50363 295.988737 
L 53.54062 296.170335 
L 53.57761 296.200602 
L 53.65159 296.230868 
L 53.72557 296.019003 
L 53.76256 296.291401 
L 53.79955 296.140069 
L 53.87353 295.807139 
L 53.91052 295.928204 
L 54.13246 297.04806 
L 54.16945 296.866462 
L 54.31741 298.167917 
L 54.3544 297.834986 
L 54.42838 298.077117 
L 54.57634 298.410048 
L 54.61333 298.319249 
L 55.0942 301.769616 
L 55.13119 301.709083 
L 55.24216 302.132813 
L 55.27915 302.102546 
L 55.31614 302.011747 
L 55.50109 303.16187 
L 55.72303 303.434267 
L 55.76002 303.706665 
L 55.834 303.4948 
L 55.94497 302.40521 
L 56.01895 302.889472 
L 56.05594 302.889472 
L 56.16691 303.4948 
L 56.2039 303.131603 
L 56.24089 303.010538 
L 56.31487 303.040804 
L 56.35186 303.040804 
L 56.46283 302.132813 
L 56.49982 302.526276 
L 56.68477 303.555333 
L 56.72176 303.585599 
L 56.90671 303.071071 
L 56.98069 303.192136 
L 57.05467 303.979062 
L 57.12865 303.857997 
L 57.3136 303.313202 
L 57.38758 303.252669 
L 57.49855 303.615866 
L 57.53554 303.282935 
L 57.57253 303.615866 
L 57.60952 304.009329 
L 57.64651 303.736931 
L 57.6835 303.464534 
L 57.75748 303.646132 
L 57.86845 303.979062 
L 58.01641 303.585599 
L 58.0534 303.797464 
L 58.09039 303.676398 
L 58.12738 303.4948 
L 58.16437 303.82773 
L 58.31233 304.190927 
L 58.4233 304.675189 
L 58.46029 304.342259 
L 58.49728 304.342259 
L 58.68223 305.159451 
L 58.71922 305.159451 
L 58.90417 304.644923 
L 59.01514 305.522648 
L 59.08912 305.462115 
L 59.23708 304.947586 
L 59.27407 305.159451 
L 59.49601 307.459696 
L 59.533 307.338631 
L 59.60698 307.459696 
L 59.97688 308.973015 
L 60.01387 308.579552 
L 60.08785 308.942749 
L 60.16183 309.275679 
L 60.30979 309.790208 
L 60.38377 311.27326 
L 60.56872 316.115882 
L 60.56872 316.115882 
" style="fill:none;stroke:#9467bd;stroke-linecap:square;stroke-width:1.5;"/>
   </g>
   <g id="patch_7">
    <path d="M 33.64 317.72 
L 33.64 15.056171 
" style="fill:none;stroke:#000000;stroke-linecap:square;stroke-linejoin:miter;stroke-width:0.8;"/>
   </g>
   <g id="patch_8">
    <path d="M 403.54 317.72 
L 403.54 15.056171 
" style="fill:none;stroke:#000000;stroke-linecap:square;stroke-linejoin:miter;stroke-width:0.8;"/>
   </g>
   <g id="patch_9">
    <path d="M 33.64 317.72 
L 403.54 317.72 
" style="fill:none;stroke:#000000;stroke-linecap:square;stroke-linejoin:miter;stroke-width:0.8;"/>
   </g>
   <g id="patch_10">
    <path d="M 33.64 15.056171 
L 403.54 15.056171 
" style="fill:none;stroke:#000000;stroke-linecap:square;stroke-linejoin:miter;stroke-width:0.8;"/>
   </g>
   <g id="text_20">
    <!-- Size history of the universe for effective cosmological constant 0.57 -->
    <defs>
     <path d="M 53.515625 70.515625 
L 53.515625 60.890625 
Q 47.90625 63.578125 42.921875 64.890625 
Q 37.9375 66.21875 33.296875 66.21875 
Q 25.25 66.21875 20.875 63.09375 
Q 16.5 59.96875 16.5 54.203125 
Q 16.5 49.359375 19.40625 46.890625 
Q 22.3125 44.4375 30.421875 42.921875 
L 36.375 41.703125 
Q 47.40625 39.59375 52.65625 34.296875 
Q 57.90625 29 57.90625 20.125 
Q 57.90625 9.515625 50.796875 4.046875 
Q 43.703125 -1.421875 29.984375 -1.421875 
Q 24.8125 -1.421875 18.96875 -0.25 
Q 13.140625 0.921875 6.890625 3.21875 
L 6.890625 13.375 
Q 12.890625 10.015625 18.65625 8.296875 
Q 24.421875 6.59375 29.984375 6.59375 
Q 38.421875 6.59375 43.015625 9.90625 
Q 47.609375 13.234375 47.609375 19.390625 
Q 47.609375 24.75 44.3125 27.78125 
Q 41.015625 30.8125 33.5 32.328125 
L 27.484375 33.5 
Q 16.453125 35.6875 11.515625 40.375 
Q 6.59375 45.0625 6.59375 53.421875 
Q 6.59375 63.09375 13.40625 68.65625 
Q 20.21875 74.21875 32.171875 74.21875 
Q 37.3125 74.21875 42.625 73.28125 
Q 47.953125 72.359375 53.515625 70.515625 
z
" id="DejaVuSans-83"/>
     <path id="DejaVuSans-32"/>
     <path d="M 54.890625 33.015625 
L 54.890625 0 
L 45.90625 0 
L 45.90625 32.71875 
Q 45.90625 40.484375 42.875 44.328125 
Q 39.84375 48.1875 33.796875 48.1875 
Q 26.515625 48.1875 22.3125 43.546875 
Q 18.109375 38.921875 18.109375 30.90625 
L 18.109375 0 
L 9.078125 0 
L 9.078125 75.984375 
L 18.109375 75.984375 
L 18.109375 46.1875 
Q 21.34375 51.125 25.703125 53.5625 
Q 30.078125 56 35.796875 56 
Q 45.21875 56 50.046875 50.171875 
Q 54.890625 44.34375 54.890625 33.015625 
z
" id="DejaVuSans-104"/>
     <path d="M 18.3125 70.21875 
L 18.3125 54.6875 
L 36.8125 54.6875 
L 36.8125 47.703125 
L 18.3125 47.703125 
L 18.3125 18.015625 
Q 18.3125 11.328125 20.140625 9.421875 
Q 21.96875 7.515625 27.59375 7.515625 
L 36.8125 7.515625 
L 36.8125 0 
L 27.59375 0 
Q 17.1875 0 13.234375 3.875 
Q 9.28125 7.765625 9.28125 18.015625 
L 9.28125 47.703125 
L 2.6875 47.703125 
L 2.6875 54.6875 
L 9.28125 54.6875 
L 9.28125 70.21875 
z
" id="DejaVuSans-116"/>
     <path d="M 30.609375 48.390625 
Q 23.390625 48.390625 19.1875 42.75 
Q 14.984375 37.109375 14.984375 27.296875 
Q 14.984375 17.484375 19.15625 11.84375 
Q 23.34375 6.203125 30.609375 6.203125 
Q 37.796875 6.203125 41.984375 11.859375 
Q 46.1875 17.53125 46.1875 27.296875 
Q 46.1875 37.015625 41.984375 42.703125 
Q 37.796875 48.390625 30.609375 48.390625 
z
M 30.609375 56 
Q 42.328125 56 49.015625 48.375 
Q 55.71875 40.765625 55.71875 27.296875 
Q 55.71875 13.875 49.015625 6.21875 
Q 42.328125 -1.421875 30.609375 -1.421875 
Q 18.84375 -1.421875 12.171875 6.21875 
Q 5.515625 13.875 5.515625 27.296875 
Q 5.515625 40.765625 12.171875 48.375 
Q 18.84375 56 30.609375 56 
z
" id="DejaVuSans-111"/>
     <path d="M 41.109375 46.296875 
Q 39.59375 47.171875 37.8125 47.578125 
Q 36.03125 48 33.890625 48 
Q 26.265625 48 22.1875 43.046875 
Q 18.109375 38.09375 18.109375 28.8125 
L 18.109375 0 
L 9.078125 0 
L 9.078125 54.6875 
L 18.109375 54.6875 
L 18.109375 46.1875 
Q 20.953125 51.171875 25.484375 53.578125 
Q 30.03125 56 36.53125 56 
Q 37.453125 56 38.578125 55.875 
Q 39.703125 55.765625 41.0625 55.515625 
z
" id="DejaVuSans-114"/>
     <path d="M 32.171875 -5.078125 
Q 28.375 -14.84375 24.75 -17.8125 
Q 21.140625 -20.796875 15.09375 -20.796875 
L 7.90625 -20.796875 
L 7.90625 -13.28125 
L 13.1875 -13.28125 
Q 16.890625 -13.28125 18.9375 -11.515625 
Q 21 -9.765625 23.484375 -3.21875 
L 25.09375 0.875 
L 2.984375 54.6875 
L 12.5 54.6875 
L 29.59375 11.921875 
L 46.6875 54.6875 
L 56.203125 54.6875 
z
" id="DejaVuSans-121"/>
     <path d="M 37.109375 75.984375 
L 37.109375 68.5 
L 28.515625 68.5 
Q 23.6875 68.5 21.796875 66.546875 
Q 19.921875 64.59375 19.921875 59.515625 
L 19.921875 54.6875 
L 34.71875 54.6875 
L 34.71875 47.703125 
L 19.921875 47.703125 
L 19.921875 0 
L 10.890625 0 
L 10.890625 47.703125 
L 2.296875 47.703125 
L 2.296875 54.6875 
L 10.890625 54.6875 
L 10.890625 58.5 
Q 10.890625 67.625 15.140625 71.796875 
Q 19.390625 75.984375 28.609375 75.984375 
z
" id="DejaVuSans-102"/>
     <path d="M 8.5 21.578125 
L 8.5 54.6875 
L 17.484375 54.6875 
L 17.484375 21.921875 
Q 17.484375 14.15625 20.5 10.265625 
Q 23.53125 6.390625 29.59375 6.390625 
Q 36.859375 6.390625 41.078125 11.03125 
Q 45.3125 15.671875 45.3125 23.6875 
L 45.3125 54.6875 
L 54.296875 54.6875 
L 54.296875 0 
L 45.3125 0 
L 45.3125 8.40625 
Q 42.046875 3.421875 37.71875 1 
Q 33.40625 -1.421875 27.6875 -1.421875 
Q 18.265625 -1.421875 13.375 4.4375 
Q 8.5 10.296875 8.5 21.578125 
z
M 31.109375 56 
z
" id="DejaVuSans-117"/>
     <path d="M 54.890625 33.015625 
L 54.890625 0 
L 45.90625 0 
L 45.90625 32.71875 
Q 45.90625 40.484375 42.875 44.328125 
Q 39.84375 48.1875 33.796875 48.1875 
Q 26.515625 48.1875 22.3125 43.546875 
Q 18.109375 38.921875 18.109375 30.90625 
L 18.109375 0 
L 9.078125 0 
L 9.078125 54.6875 
L 18.109375 54.6875 
L 18.109375 46.1875 
Q 21.34375 51.125 25.703125 53.5625 
Q 30.078125 56 35.796875 56 
Q 45.21875 56 50.046875 50.171875 
Q 54.890625 44.34375 54.890625 33.015625 
z
" id="DejaVuSans-110"/>
     <path d="M 2.984375 54.6875 
L 12.5 54.6875 
L 29.59375 8.796875 
L 46.6875 54.6875 
L 56.203125 54.6875 
L 35.6875 0 
L 23.484375 0 
z
" id="DejaVuSans-118"/>
     <path d="M 48.78125 52.59375 
L 48.78125 44.1875 
Q 44.96875 46.296875 41.140625 47.34375 
Q 37.3125 48.390625 33.40625 48.390625 
Q 24.65625 48.390625 19.8125 42.84375 
Q 14.984375 37.3125 14.984375 27.296875 
Q 14.984375 17.28125 19.8125 11.734375 
Q 24.65625 6.203125 33.40625 6.203125 
Q 37.3125 6.203125 41.140625 7.25 
Q 44.96875 8.296875 48.78125 10.40625 
L 48.78125 2.09375 
Q 45.015625 0.34375 40.984375 -0.53125 
Q 36.96875 -1.421875 32.421875 -1.421875 
Q 20.0625 -1.421875 12.78125 6.34375 
Q 5.515625 14.109375 5.515625 27.296875 
Q 5.515625 40.671875 12.859375 48.328125 
Q 20.21875 56 33.015625 56 
Q 37.15625 56 41.109375 55.140625 
Q 45.0625 54.296875 48.78125 52.59375 
z
" id="DejaVuSans-99"/>
     <path d="M 52 44.1875 
Q 55.375 50.25 60.0625 53.125 
Q 64.75 56 71.09375 56 
Q 79.640625 56 84.28125 50.015625 
Q 88.921875 44.046875 88.921875 33.015625 
L 88.921875 0 
L 79.890625 0 
L 79.890625 32.71875 
Q 79.890625 40.578125 77.09375 44.375 
Q 74.3125 48.1875 68.609375 48.1875 
Q 61.625 48.1875 57.5625 43.546875 
Q 53.515625 38.921875 53.515625 30.90625 
L 53.515625 0 
L 44.484375 0 
L 44.484375 32.71875 
Q 44.484375 40.625 41.703125 44.40625 
Q 38.921875 48.1875 33.109375 48.1875 
Q 26.21875 48.1875 22.15625 43.53125 
Q 18.109375 38.875 18.109375 30.90625 
L 18.109375 0 
L 9.078125 0 
L 9.078125 54.6875 
L 18.109375 54.6875 
L 18.109375 46.1875 
Q 21.1875 51.21875 25.484375 53.609375 
Q 29.78125 56 35.6875 56 
Q 41.65625 56 45.828125 52.96875 
Q 50 49.953125 52 44.1875 
z
" id="DejaVuSans-109"/>
     <path d="M 9.421875 75.984375 
L 18.40625 75.984375 
L 18.40625 0 
L 9.421875 0 
z
" id="DejaVuSans-108"/>
     <path d="M 45.40625 27.984375 
Q 45.40625 37.75 41.375 43.109375 
Q 37.359375 48.484375 30.078125 48.484375 
Q 22.859375 48.484375 18.828125 43.109375 
Q 14.796875 37.75 14.796875 27.984375 
Q 14.796875 18.265625 18.828125 12.890625 
Q 22.859375 7.515625 30.078125 7.515625 
Q 37.359375 7.515625 41.375 12.890625 
Q 45.40625 18.265625 45.40625 27.984375 
z
M 54.390625 6.78125 
Q 54.390625 -7.171875 48.1875 -13.984375 
Q 42 -20.796875 29.203125 -20.796875 
Q 24.46875 -20.796875 20.265625 -20.09375 
Q 16.0625 -19.390625 12.109375 -17.921875 
L 12.109375 -9.1875 
Q 16.0625 -11.328125 19.921875 -12.34375 
Q 23.78125 -13.375 27.78125 -13.375 
Q 36.625 -13.375 41.015625 -8.765625 
Q 45.40625 -4.15625 45.40625 5.171875 
L 45.40625 9.625 
Q 42.625 4.78125 38.28125 2.390625 
Q 33.9375 0 27.875 0 
Q 17.828125 0 11.671875 7.65625 
Q 5.515625 15.328125 5.515625 27.984375 
Q 5.515625 40.671875 11.671875 48.328125 
Q 17.828125 56 27.875 56 
Q 33.9375 56 38.28125 53.609375 
Q 42.625 51.21875 45.40625 46.390625 
L 45.40625 54.6875 
L 54.390625 54.6875 
z
" id="DejaVuSans-103"/>
     <path d="M 34.28125 27.484375 
Q 23.390625 27.484375 19.1875 25 
Q 14.984375 22.515625 14.984375 16.5 
Q 14.984375 11.71875 18.140625 8.90625 
Q 21.296875 6.109375 26.703125 6.109375 
Q 34.1875 6.109375 38.703125 11.40625 
Q 43.21875 16.703125 43.21875 25.484375 
L 43.21875 27.484375 
z
M 52.203125 31.203125 
L 52.203125 0 
L 43.21875 0 
L 43.21875 8.296875 
Q 40.140625 3.328125 35.546875 0.953125 
Q 30.953125 -1.421875 24.3125 -1.421875 
Q 15.921875 -1.421875 10.953125 3.296875 
Q 6 8.015625 6 15.921875 
Q 6 25.140625 12.171875 29.828125 
Q 18.359375 34.515625 30.609375 34.515625 
L 43.21875 34.515625 
L 43.21875 35.40625 
Q 43.21875 41.609375 39.140625 45 
Q 35.0625 48.390625 27.6875 48.390625 
Q 23 48.390625 18.546875 47.265625 
Q 14.109375 46.140625 10.015625 43.890625 
L 10.015625 52.203125 
Q 14.9375 54.109375 19.578125 55.046875 
Q 24.21875 56 28.609375 56 
Q 40.484375 56 46.34375 49.84375 
Q 52.203125 43.703125 52.203125 31.203125 
z
" id="DejaVuSans-97"/>
     <path d="M 10.796875 72.90625 
L 49.515625 72.90625 
L 49.515625 64.59375 
L 19.828125 64.59375 
L 19.828125 46.734375 
Q 21.96875 47.46875 24.109375 47.828125 
Q 26.265625 48.1875 28.421875 48.1875 
Q 40.625 48.1875 47.75 41.5 
Q 54.890625 34.8125 54.890625 23.390625 
Q 54.890625 11.625 47.5625 5.09375 
Q 40.234375 -1.421875 26.90625 -1.421875 
Q 22.3125 -1.421875 17.546875 -0.640625 
Q 12.796875 0.140625 7.71875 1.703125 
L 7.71875 11.625 
Q 12.109375 9.234375 16.796875 8.0625 
Q 21.484375 6.890625 26.703125 6.890625 
Q 35.15625 6.890625 40.078125 11.328125 
Q 45.015625 15.765625 45.015625 23.390625 
Q 45.015625 31 40.078125 35.4375 
Q 35.15625 39.890625 26.703125 39.890625 
Q 22.75 39.890625 18.8125 39.015625 
Q 14.890625 38.140625 10.796875 36.28125 
z
" id="DejaVuSans-53"/>
     <path d="M 8.203125 72.90625 
L 55.078125 72.90625 
L 55.078125 68.703125 
L 28.609375 0 
L 18.3125 0 
L 43.21875 64.59375 
L 8.203125 64.59375 
z
" id="DejaVuSans-55"/>
    </defs>
    <g transform="translate(14.116562 9.056171)scale(0.12 -0.12)">
     <use xlink:href="#DejaVuSans-83"/>
     <use x="63.476562" xlink:href="#DejaVuSans-105"/>
     <use x="91.259766" xlink:href="#DejaVuSans-122"/>
     <use x="143.75" xlink:href="#DejaVuSans-101"/>
     <use x="205.273438" xlink:href="#DejaVuSans-32"/>
     <use x="237.060547" xlink:href="#DejaVuSans-104"/>
     <use x="300.439453" xlink:href="#DejaVuSans-105"/>
     <use x="328.222656" xlink:href="#DejaVuSans-115"/>
     <use x="380.322266" xlink:href="#DejaVuSans-116"/>
     <use x="419.53125" xlink:href="#DejaVuSans-111"/>
     <use x="480.712891" xlink:href="#DejaVuSans-114"/>
     <use x="521.826172" xlink:href="#DejaVuSans-121"/>
     <use x="581.005859" xlink:href="#DejaVuSans-32"/>
     <use x="612.792969" xlink:href="#DejaVuSans-111"/>
     <use x="673.974609" xlink:href="#DejaVuSans-102"/>
     <use x="709.179688" xlink:href="#DejaVuSans-32"/>
     <use x="740.966797" xlink:href="#DejaVuSans-116"/>
     <use x="780.175781" xlink:href="#DejaVuSans-104"/>
     <use x="843.554688" xlink:href="#DejaVuSans-101"/>
     <use x="905.078125" xlink:href="#DejaVuSans-32"/>
     <use x="936.865234" xlink:href="#DejaVuSans-117"/>
     <use x="1000.244141" xlink:href="#DejaVuSans-110"/>
     <use x="1063.623047" xlink:href="#DejaVuSans-105"/>
     <use x="1091.40625" xlink:href="#DejaVuSans-118"/>
     <use x="1150.585938" xlink:href="#DejaVuSans-101"/>
     <use x="1212.109375" xlink:href="#DejaVuSans-114"/>
     <use x="1253.222656" xlink:href="#DejaVuSans-115"/>
     <use x="1305.322266" xlink:href="#DejaVuSans-101"/>
     <use x="1366.845703" xlink:href="#DejaVuSans-32"/>
     <use x="1398.632812" xlink:href="#DejaVuSans-102"/>
     <use x="1433.837891" xlink:href="#DejaVuSans-111"/>
     <use x="1495.019531" xlink:href="#DejaVuSans-114"/>
     <use x="1536.132812" xlink:href="#DejaVuSans-32"/>
     <use x="1567.919922" xlink:href="#DejaVuSans-101"/>
     <use x="1629.443359" xlink:href="#DejaVuSans-102"/>
     <use x="1664.648438" xlink:href="#DejaVuSans-102"/>
     <use x="1699.853516" xlink:href="#DejaVuSans-101"/>
     <use x="1761.376953" xlink:href="#DejaVuSans-99"/>
     <use x="1816.357422" xlink:href="#DejaVuSans-116"/>
     <use x="1855.566406" xlink:href="#DejaVuSans-105"/>
     <use x="1883.349609" xlink:href="#DejaVuSans-118"/>
     <use x="1942.529297" xlink:href="#DejaVuSans-101"/>
     <use x="2004.052734" xlink:href="#DejaVuSans-32"/>
     <use x="2035.839844" xlink:href="#DejaVuSans-99"/>
     <use x="2090.820312" xlink:href="#DejaVuSans-111"/>
     <use x="2152.001953" xlink:href="#DejaVuSans-115"/>
     <use x="2204.101562" xlink:href="#DejaVuSans-109"/>
     <use x="2301.513672" xlink:href="#DejaVuSans-111"/>
     <use x="2362.695312" xlink:href="#DejaVuSans-108"/>
     <use x="2390.478516" xlink:href="#DejaVuSans-111"/>
     <use x="2451.660156" xlink:href="#DejaVuSans-103"/>
     <use x="2515.136719" xlink:href="#DejaVuSans-105"/>
     <use x="2542.919922" xlink:href="#DejaVuSans-99"/>
     <use x="2597.900391" xlink:href="#DejaVuSans-97"/>
     <use x="2659.179688" xlink:href="#DejaVuSans-108"/>
     <use x="2686.962891" xlink:href="#DejaVuSans-32"/>
     <use x="2718.75" xlink:href="#DejaVuSans-99"/>
     <use x="2773.730469" xlink:href="#DejaVuSans-111"/>
     <use x="2834.912109" xlink:href="#DejaVuSans-110"/>
     <use x="2898.291016" xlink:href="#DejaVuSans-115"/>
     <use x="2950.390625" xlink:href="#DejaVuSans-116"/>
     <use x="2989.599609" xlink:href="#DejaVuSans-97"/>
     <use x="3050.878906" xlink:href="#DejaVuSans-110"/>
     <use x="3114.257812" xlink:href="#DejaVuSans-116"/>
     <use x="3153.466797" xlink:href="#DejaVuSans-32"/>
     <use x="3185.253906" xlink:href="#DejaVuSans-48"/>
     <use x="3248.876953" xlink:href="#DejaVuSans-46"/>
     <use x="3280.664062" xlink:href="#DejaVuSans-53"/>
     <use x="3344.287109" xlink:href="#DejaVuSans-55"/>
    </g>
   </g>
  </g>
 </g>
 <defs>
  <clipPath id="pbc6846c60e">
   <rect height="302.663829" width="369.9" x="33.64" y="15.056171"/>
  </clipPath>
 </defs>
</svg>
