<?xml version="1.0" encoding="utf-8" standalone="no"?>
<!DOCTYPE svg PUBLIC "-//W3C//DTD SVG 1.1//EN"
  "http://www.w3.org/Graphics/SVG/1.1/DTD/svg11.dtd">
<!-- Created with matplotlib (https://matplotlib.org/) -->
<svg height="345.6pt" version="1.1" viewBox="0 0 460.8 345.6" width="460.8pt" xmlns="http://www.w3.org/2000/svg" xmlns:xlink="http://www.w3.org/1999/xlink">
 <defs>
  <style type="text/css">
*{stroke-linecap:butt;stroke-linejoin:round;}
  </style>
 </defs>
 <g id="figure_1">
  <g id="patch_1">
   <path d="M 0 345.6 
L 460.8 345.6 
L 460.8 0 
L 0 0 
z
" style="fill:#ffffff;"/>
  </g>
  <g id="axes_1">
   <g id="patch_2">
    <path d="M 33.64 317.72 
L 403.54 317.72 
L 403.54 14.76 
L 33.64 14.76 
z
" style="fill:#ffffff;"/>
   </g>
   <g id="matplotlib.axis_1">
    <g id="xtick_1">
     <g id="line2d_1">
      <defs>
       <path d="M 0 0 
L 0 3.5 
" id="m38158c8295" style="stroke:#000000;stroke-width:0.8;"/>
      </defs>
      <g>
       <use style="stroke:#000000;stroke-width:0.8;" x="33.64" xlink:href="#m38158c8295" y="317.72"/>
      </g>
     </g>
     <g id="text_1">
      <!-- 0 -->
      <defs>
       <path d="M 31.78125 66.40625 
Q 24.171875 66.40625 20.328125 58.90625 
Q 16.5 51.421875 16.5 36.375 
Q 16.5 21.390625 20.328125 13.890625 
Q 24.171875 6.390625 31.78125 6.390625 
Q 39.453125 6.390625 43.28125 13.890625 
Q 47.125 21.390625 47.125 36.375 
Q 47.125 51.421875 43.28125 58.90625 
Q 39.453125 66.40625 31.78125 66.40625 
z
M 31.78125 74.21875 
Q 44.046875 74.21875 50.515625 64.515625 
Q 56.984375 54.828125 56.984375 36.375 
Q 56.984375 17.96875 50.515625 8.265625 
Q 44.046875 -1.421875 31.78125 -1.421875 
Q 19.53125 -1.421875 13.0625 8.265625 
Q 6.59375 17.96875 6.59375 36.375 
Q 6.59375 54.828125 13.0625 64.515625 
Q 19.53125 74.21875 31.78125 74.21875 
z
" id="DejaVuSans-48"/>
      </defs>
      <g transform="translate(30.45875 332.318437)scale(0.1 -0.1)">
       <use xlink:href="#DejaVuSans-48"/>
      </g>
     </g>
    </g>
    <g id="xtick_2">
     <g id="line2d_2">
      <g>
       <use style="stroke:#000000;stroke-width:0.8;" x="107.62" xlink:href="#m38158c8295" y="317.72"/>
      </g>
     </g>
     <g id="text_2">
      <!-- 2000 -->
      <defs>
       <path d="M 19.1875 8.296875 
L 53.609375 8.296875 
L 53.609375 0 
L 7.328125 0 
L 7.328125 8.296875 
Q 12.9375 14.109375 22.625 23.890625 
Q 32.328125 33.6875 34.8125 36.53125 
Q 39.546875 41.84375 41.421875 45.53125 
Q 43.3125 49.21875 43.3125 52.78125 
Q 43.3125 58.59375 39.234375 62.25 
Q 35.15625 65.921875 28.609375 65.921875 
Q 23.96875 65.921875 18.8125 64.3125 
Q 13.671875 62.703125 7.8125 59.421875 
L 7.8125 69.390625 
Q 13.765625 71.78125 18.9375 73 
Q 24.125 74.21875 28.421875 74.21875 
Q 39.75 74.21875 46.484375 68.546875 
Q 53.21875 62.890625 53.21875 53.421875 
Q 53.21875 48.921875 51.53125 44.890625 
Q 49.859375 40.875 45.40625 35.40625 
Q 44.1875 33.984375 37.640625 27.21875 
Q 31.109375 20.453125 19.1875 8.296875 
z
" id="DejaVuSans-50"/>
      </defs>
      <g transform="translate(94.895 332.318437)scale(0.1 -0.1)">
       <use xlink:href="#DejaVuSans-50"/>
       <use x="63.623047" xlink:href="#DejaVuSans-48"/>
       <use x="127.246094" xlink:href="#DejaVuSans-48"/>
       <use x="190.869141" xlink:href="#DejaVuSans-48"/>
      </g>
     </g>
    </g>
    <g id="xtick_3">
     <g id="line2d_3">
      <g>
       <use style="stroke:#000000;stroke-width:0.8;" x="181.6" xlink:href="#m38158c8295" y="317.72"/>
      </g>
     </g>
     <g id="text_3">
      <!-- 4000 -->
      <defs>
       <path d="M 37.796875 64.3125 
L 12.890625 25.390625 
L 37.796875 25.390625 
z
M 35.203125 72.90625 
L 47.609375 72.90625 
L 47.609375 25.390625 
L 58.015625 25.390625 
L 58.015625 17.1875 
L 47.609375 17.1875 
L 47.609375 0 
L 37.796875 0 
L 37.796875 17.1875 
L 4.890625 17.1875 
L 4.890625 26.703125 
z
" id="DejaVuSans-52"/>
      </defs>
      <g transform="translate(168.875 332.318437)scale(0.1 -0.1)">
       <use xlink:href="#DejaVuSans-52"/>
       <use x="63.623047" xlink:href="#DejaVuSans-48"/>
       <use x="127.246094" xlink:href="#DejaVuSans-48"/>
       <use x="190.869141" xlink:href="#DejaVuSans-48"/>
      </g>
     </g>
    </g>
    <g id="xtick_4">
     <g id="line2d_4">
      <g>
       <use style="stroke:#000000;stroke-width:0.8;" x="255.58" xlink:href="#m38158c8295" y="317.72"/>
      </g>
     </g>
     <g id="text_4">
      <!-- 6000 -->
      <defs>
       <path d="M 33.015625 40.375 
Q 26.375 40.375 22.484375 35.828125 
Q 18.609375 31.296875 18.609375 23.390625 
Q 18.609375 15.53125 22.484375 10.953125 
Q 26.375 6.390625 33.015625 6.390625 
Q 39.65625 6.390625 43.53125 10.953125 
Q 47.40625 15.53125 47.40625 23.390625 
Q 47.40625 31.296875 43.53125 35.828125 
Q 39.65625 40.375 33.015625 40.375 
z
M 52.59375 71.296875 
L 52.59375 62.3125 
Q 48.875 64.0625 45.09375 64.984375 
Q 41.3125 65.921875 37.59375 65.921875 
Q 27.828125 65.921875 22.671875 59.328125 
Q 17.53125 52.734375 16.796875 39.40625 
Q 19.671875 43.65625 24.015625 45.921875 
Q 28.375 48.1875 33.59375 48.1875 
Q 44.578125 48.1875 50.953125 41.515625 
Q 57.328125 34.859375 57.328125 23.390625 
Q 57.328125 12.15625 50.6875 5.359375 
Q 44.046875 -1.421875 33.015625 -1.421875 
Q 20.359375 -1.421875 13.671875 8.265625 
Q 6.984375 17.96875 6.984375 36.375 
Q 6.984375 53.65625 15.1875 63.9375 
Q 23.390625 74.21875 37.203125 74.21875 
Q 40.921875 74.21875 44.703125 73.484375 
Q 48.484375 72.75 52.59375 71.296875 
z
" id="DejaVuSans-54"/>
      </defs>
      <g transform="translate(242.855 332.318437)scale(0.1 -0.1)">
       <use xlink:href="#DejaVuSans-54"/>
       <use x="63.623047" xlink:href="#DejaVuSans-48"/>
       <use x="127.246094" xlink:href="#DejaVuSans-48"/>
       <use x="190.869141" xlink:href="#DejaVuSans-48"/>
      </g>
     </g>
    </g>
    <g id="xtick_5">
     <g id="line2d_5">
      <g>
       <use style="stroke:#000000;stroke-width:0.8;" x="329.56" xlink:href="#m38158c8295" y="317.72"/>
      </g>
     </g>
     <g id="text_5">
      <!-- 8000 -->
      <defs>
       <path d="M 31.78125 34.625 
Q 24.75 34.625 20.71875 30.859375 
Q 16.703125 27.09375 16.703125 20.515625 
Q 16.703125 13.921875 20.71875 10.15625 
Q 24.75 6.390625 31.78125 6.390625 
Q 38.8125 6.390625 42.859375 10.171875 
Q 46.921875 13.96875 46.921875 20.515625 
Q 46.921875 27.09375 42.890625 30.859375 
Q 38.875 34.625 31.78125 34.625 
z
M 21.921875 38.8125 
Q 15.578125 40.375 12.03125 44.71875 
Q 8.5 49.078125 8.5 55.328125 
Q 8.5 64.0625 14.71875 69.140625 
Q 20.953125 74.21875 31.78125 74.21875 
Q 42.671875 74.21875 48.875 69.140625 
Q 55.078125 64.0625 55.078125 55.328125 
Q 55.078125 49.078125 51.53125 44.71875 
Q 48 40.375 41.703125 38.8125 
Q 48.828125 37.15625 52.796875 32.3125 
Q 56.78125 27.484375 56.78125 20.515625 
Q 56.78125 9.90625 50.3125 4.234375 
Q 43.84375 -1.421875 31.78125 -1.421875 
Q 19.734375 -1.421875 13.25 4.234375 
Q 6.78125 9.90625 6.78125 20.515625 
Q 6.78125 27.484375 10.78125 32.3125 
Q 14.796875 37.15625 21.921875 38.8125 
z
M 18.3125 54.390625 
Q 18.3125 48.734375 21.84375 45.5625 
Q 25.390625 42.390625 31.78125 42.390625 
Q 38.140625 42.390625 41.71875 45.5625 
Q 45.3125 48.734375 45.3125 54.390625 
Q 45.3125 60.0625 41.71875 63.234375 
Q 38.140625 66.40625 31.78125 66.40625 
Q 25.390625 66.40625 21.84375 63.234375 
Q 18.3125 60.0625 18.3125 54.390625 
z
" id="DejaVuSans-56"/>
      </defs>
      <g transform="translate(316.835 332.318437)scale(0.1 -0.1)">
       <use xlink:href="#DejaVuSans-56"/>
       <use x="63.623047" xlink:href="#DejaVuSans-48"/>
       <use x="127.246094" xlink:href="#DejaVuSans-48"/>
       <use x="190.869141" xlink:href="#DejaVuSans-48"/>
      </g>
     </g>
    </g>
    <g id="xtick_6">
     <g id="line2d_6">
      <g>
       <use style="stroke:#000000;stroke-width:0.8;" x="403.54" xlink:href="#m38158c8295" y="317.72"/>
      </g>
     </g>
     <g id="text_6">
      <!-- 10000 -->
      <defs>
       <path d="M 12.40625 8.296875 
L 28.515625 8.296875 
L 28.515625 63.921875 
L 10.984375 60.40625 
L 10.984375 69.390625 
L 28.421875 72.90625 
L 38.28125 72.90625 
L 38.28125 8.296875 
L 54.390625 8.296875 
L 54.390625 0 
L 12.40625 0 
z
" id="DejaVuSans-49"/>
      </defs>
      <g transform="translate(387.63375 332.318437)scale(0.1 -0.1)">
       <use xlink:href="#DejaVuSans-49"/>
       <use x="63.623047" xlink:href="#DejaVuSans-48"/>
       <use x="127.246094" xlink:href="#DejaVuSans-48"/>
       <use x="190.869141" xlink:href="#DejaVuSans-48"/>
       <use x="254.492188" xlink:href="#DejaVuSans-48"/>
      </g>
     </g>
    </g>
   </g>
   <g id="matplotlib.axis_2">
    <g id="ytick_1">
     <g id="line2d_7">
      <defs>
       <path d="M 0 0 
L -3.5 0 
" id="me65cae7259" style="stroke:#000000;stroke-width:0.8;"/>
      </defs>
      <g>
       <use style="stroke:#000000;stroke-width:0.8;" x="33.64" xlink:href="#me65cae7259" y="317.72"/>
      </g>
     </g>
     <g id="text_7">
      <!-- 0.0 -->
      <defs>
       <path d="M 10.6875 12.40625 
L 21 12.40625 
L 21 0 
L 10.6875 0 
z
" id="DejaVuSans-46"/>
      </defs>
      <g transform="translate(10.736875 321.519219)scale(0.1 -0.1)">
       <use xlink:href="#DejaVuSans-48"/>
       <use x="63.623047" xlink:href="#DejaVuSans-46"/>
       <use x="95.410156" xlink:href="#DejaVuSans-48"/>
      </g>
     </g>
    </g>
    <g id="ytick_2">
     <g id="line2d_8">
      <g>
       <use style="stroke:#000000;stroke-width:0.8;" x="33.64" xlink:href="#me65cae7259" y="257.128"/>
      </g>
     </g>
     <g id="text_8">
      <!-- 0.2 -->
      <g transform="translate(10.736875 260.927219)scale(0.1 -0.1)">
       <use xlink:href="#DejaVuSans-48"/>
       <use x="63.623047" xlink:href="#DejaVuSans-46"/>
       <use x="95.410156" xlink:href="#DejaVuSans-50"/>
      </g>
     </g>
    </g>
    <g id="ytick_3">
     <g id="line2d_9">
      <g>
       <use style="stroke:#000000;stroke-width:0.8;" x="33.64" xlink:href="#me65cae7259" y="196.536"/>
      </g>
     </g>
     <g id="text_9">
      <!-- 0.4 -->
      <g transform="translate(10.736875 200.335219)scale(0.1 -0.1)">
       <use xlink:href="#DejaVuSans-48"/>
       <use x="63.623047" xlink:href="#DejaVuSans-46"/>
       <use x="95.410156" xlink:href="#DejaVuSans-52"/>
      </g>
     </g>
    </g>
    <g id="ytick_4">
     <g id="line2d_10">
      <g>
       <use style="stroke:#000000;stroke-width:0.8;" x="33.64" xlink:href="#me65cae7259" y="135.944"/>
      </g>
     </g>
     <g id="text_10">
      <!-- 0.6 -->
      <g transform="translate(10.736875 139.743219)scale(0.1 -0.1)">
       <use xlink:href="#DejaVuSans-48"/>
       <use x="63.623047" xlink:href="#DejaVuSans-46"/>
       <use x="95.410156" xlink:href="#DejaVuSans-54"/>
      </g>
     </g>
    </g>
    <g id="ytick_5">
     <g id="line2d_11">
      <g>
       <use style="stroke:#000000;stroke-width:0.8;" x="33.64" xlink:href="#me65cae7259" y="75.352"/>
      </g>
     </g>
     <g id="text_11">
      <!-- 0.8 -->
      <g transform="translate(10.736875 79.151219)scale(0.1 -0.1)">
       <use xlink:href="#DejaVuSans-48"/>
       <use x="63.623047" xlink:href="#DejaVuSans-46"/>
       <use x="95.410156" xlink:href="#DejaVuSans-56"/>
      </g>
     </g>
    </g>
    <g id="ytick_6">
     <g id="line2d_12">
      <g>
       <use style="stroke:#000000;stroke-width:0.8;" x="33.64" xlink:href="#me65cae7259" y="14.76"/>
      </g>
     </g>
     <g id="text_12">
      <!-- 1.0 -->
      <g transform="translate(10.736875 18.559219)scale(0.1 -0.1)">
       <use xlink:href="#DejaVuSans-49"/>
       <use x="63.623047" xlink:href="#DejaVuSans-46"/>
       <use x="95.410156" xlink:href="#DejaVuSans-48"/>
      </g>
     </g>
    </g>
   </g>
   <g id="patch_3">
    <path d="M 33.64 317.72 
L 33.64 14.76 
" style="fill:none;stroke:#000000;stroke-linecap:square;stroke-linejoin:miter;stroke-width:0.8;"/>
   </g>
   <g id="patch_4">
    <path d="M 403.54 317.72 
L 403.54 14.76 
" style="fill:none;stroke:#000000;stroke-linecap:square;stroke-linejoin:miter;stroke-width:0.8;"/>
   </g>
   <g id="patch_5">
    <path d="M 33.64 317.72 
L 403.54 317.72 
" style="fill:none;stroke:#000000;stroke-linecap:square;stroke-linejoin:miter;stroke-width:0.8;"/>
   </g>
   <g id="patch_6">
    <path d="M 33.64 14.76 
L 403.54 14.76 
" style="fill:none;stroke:#000000;stroke-linecap:square;stroke-linejoin:miter;stroke-width:0.8;"/>
   </g>
  </g>
  <g id="axes_2">
   <g id="matplotlib.axis_3">
    <g id="ytick_7">
     <g id="line2d_13">
      <defs>
       <path d="M 0 0 
L 3.5 0 
" id="m8b4f3f627a" style="stroke:#000000;stroke-width:0.8;"/>
      </defs>
      <g>
       <use style="stroke:#000000;stroke-width:0.8;" x="403.54" xlink:href="#m8b4f3f627a" y="317.72"/>
      </g>
     </g>
     <g id="text_13">
      <!-- 0 -->
      <g transform="translate(410.54 321.519219)scale(0.1 -0.1)">
       <use xlink:href="#DejaVuSans-48"/>
      </g>
     </g>
    </g>
    <g id="ytick_8">
     <g id="line2d_14">
      <g>
       <use style="stroke:#000000;stroke-width:0.8;" x="403.54" xlink:href="#m8b4f3f627a" y="257.128"/>
      </g>
     </g>
     <g id="text_14">
      <!-- 2000 -->
      <g transform="translate(410.54 260.927219)scale(0.1 -0.1)">
       <use xlink:href="#DejaVuSans-50"/>
       <use x="63.623047" xlink:href="#DejaVuSans-48"/>
       <use x="127.246094" xlink:href="#DejaVuSans-48"/>
       <use x="190.869141" xlink:href="#DejaVuSans-48"/>
      </g>
     </g>
    </g>
    <g id="ytick_9">
     <g id="line2d_15">
      <g>
       <use style="stroke:#000000;stroke-width:0.8;" x="403.54" xlink:href="#m8b4f3f627a" y="196.536"/>
      </g>
     </g>
     <g id="text_15">
      <!-- 4000 -->
      <g transform="translate(410.54 200.335219)scale(0.1 -0.1)">
       <use xlink:href="#DejaVuSans-52"/>
       <use x="63.623047" xlink:href="#DejaVuSans-48"/>
       <use x="127.246094" xlink:href="#DejaVuSans-48"/>
       <use x="190.869141" xlink:href="#DejaVuSans-48"/>
      </g>
     </g>
    </g>
    <g id="ytick_10">
     <g id="line2d_16">
      <g>
       <use style="stroke:#000000;stroke-width:0.8;" x="403.54" xlink:href="#m8b4f3f627a" y="135.944"/>
      </g>
     </g>
     <g id="text_16">
      <!-- 6000 -->
      <g transform="translate(410.54 139.743219)scale(0.1 -0.1)">
       <use xlink:href="#DejaVuSans-54"/>
       <use x="63.623047" xlink:href="#DejaVuSans-48"/>
       <use x="127.246094" xlink:href="#DejaVuSans-48"/>
       <use x="190.869141" xlink:href="#DejaVuSans-48"/>
      </g>
     </g>
    </g>
    <g id="ytick_11">
     <g id="line2d_17">
      <g>
       <use style="stroke:#000000;stroke-width:0.8;" x="403.54" xlink:href="#m8b4f3f627a" y="75.352"/>
      </g>
     </g>
     <g id="text_17">
      <!-- 8000 -->
      <g transform="translate(410.54 79.151219)scale(0.1 -0.1)">
       <use xlink:href="#DejaVuSans-56"/>
       <use x="63.623047" xlink:href="#DejaVuSans-48"/>
       <use x="127.246094" xlink:href="#DejaVuSans-48"/>
       <use x="190.869141" xlink:href="#DejaVuSans-48"/>
      </g>
     </g>
    </g>
    <g id="ytick_12">
     <g id="line2d_18">
      <g>
       <use style="stroke:#000000;stroke-width:0.8;" x="403.54" xlink:href="#m8b4f3f627a" y="14.76"/>
      </g>
     </g>
     <g id="text_18">
      <!-- 10000 -->
      <g transform="translate(410.54 18.559219)scale(0.1 -0.1)">
       <use xlink:href="#DejaVuSans-49"/>
       <use x="63.623047" xlink:href="#DejaVuSans-48"/>
       <use x="127.246094" xlink:href="#DejaVuSans-48"/>
       <use x="190.869141" xlink:href="#DejaVuSans-48"/>
       <use x="254.492188" xlink:href="#DejaVuSans-48"/>
      </g>
     </g>
    </g>
    <g id="text_19">
     <!-- size -->
     <defs>
      <path d="M 44.28125 53.078125 
L 44.28125 44.578125 
Q 40.484375 46.53125 36.375 47.5 
Q 32.28125 48.484375 27.875 48.484375 
Q 21.1875 48.484375 17.84375 46.4375 
Q 14.5 44.390625 14.5 40.28125 
Q 14.5 37.15625 16.890625 35.375 
Q 19.28125 33.59375 26.515625 31.984375 
L 29.59375 31.296875 
Q 39.15625 29.25 43.1875 25.515625 
Q 47.21875 21.78125 47.21875 15.09375 
Q 47.21875 7.46875 41.1875 3.015625 
Q 35.15625 -1.421875 24.609375 -1.421875 
Q 20.21875 -1.421875 15.453125 -0.5625 
Q 10.6875 0.296875 5.421875 2 
L 5.421875 11.28125 
Q 10.40625 8.6875 15.234375 7.390625 
Q 20.0625 6.109375 24.8125 6.109375 
Q 31.15625 6.109375 34.5625 8.28125 
Q 37.984375 10.453125 37.984375 14.40625 
Q 37.984375 18.0625 35.515625 20.015625 
Q 33.0625 21.96875 24.703125 23.78125 
L 21.578125 24.515625 
Q 13.234375 26.265625 9.515625 29.90625 
Q 5.8125 33.546875 5.8125 39.890625 
Q 5.8125 47.609375 11.28125 51.796875 
Q 16.75 56 26.8125 56 
Q 31.78125 56 36.171875 55.265625 
Q 40.578125 54.546875 44.28125 53.078125 
z
" id="DejaVuSans-115"/>
      <path d="M 9.421875 54.6875 
L 18.40625 54.6875 
L 18.40625 0 
L 9.421875 0 
z
M 9.421875 75.984375 
L 18.40625 75.984375 
L 18.40625 64.59375 
L 9.421875 64.59375 
z
" id="DejaVuSans-105"/>
      <path d="M 5.515625 54.6875 
L 48.1875 54.6875 
L 48.1875 46.484375 
L 14.40625 7.171875 
L 48.1875 7.171875 
L 48.1875 0 
L 4.296875 0 
L 4.296875 8.203125 
L 38.09375 47.515625 
L 5.515625 47.515625 
z
" id="DejaVuSans-122"/>
      <path d="M 56.203125 29.59375 
L 56.203125 25.203125 
L 14.890625 25.203125 
Q 15.484375 15.921875 20.484375 11.0625 
Q 25.484375 6.203125 34.421875 6.203125 
Q 39.59375 6.203125 44.453125 7.46875 
Q 49.3125 8.734375 54.109375 11.28125 
L 54.109375 2.78125 
Q 49.265625 0.734375 44.1875 -0.34375 
Q 39.109375 -1.421875 33.890625 -1.421875 
Q 20.796875 -1.421875 13.15625 6.1875 
Q 5.515625 13.8125 5.515625 26.8125 
Q 5.515625 40.234375 12.765625 48.109375 
Q 20.015625 56 32.328125 56 
Q 43.359375 56 49.78125 48.890625 
Q 56.203125 41.796875 56.203125 29.59375 
z
M 47.21875 32.234375 
Q 47.125 39.59375 43.09375 43.984375 
Q 39.0625 48.390625 32.421875 48.390625 
Q 24.90625 48.390625 20.390625 44.140625 
Q 15.875 39.890625 15.1875 32.171875 
z
" id="DejaVuSans-101"/>
     </defs>
     <g transform="translate(453.950937 175.934531)rotate(-90)scale(0.1 -0.1)">
      <use xlink:href="#DejaVuSans-115"/>
      <use x="52.099609" xlink:href="#DejaVuSans-105"/>
      <use x="79.882812" xlink:href="#DejaVuSans-122"/>
      <use x="132.373047" xlink:href="#DejaVuSans-101"/>
     </g>
    </g>
   </g>
   <g id="line2d_19">
    <path clip-path="url(#p35c8b23d5a)" d="M 33.64 255.673792 
L 33.93592 253.94692 
L 33.97291 253.977216 
L 34.04689 253.704552 
L 34.26883 252.098864 
L 34.34281 251.886792 
L 34.52776 252.492712 
L 35.08261 254.128696 
L 34.60174 252.43212 
L 35.1196 253.734848 
L 35.19358 253.825736 
L 35.34154 254.189288 
L 35.37853 254.128696 
L 35.41552 254.189288 
L 35.52649 254.795208 
L 35.56348 254.461952 
L 35.60047 254.280176 
L 35.8594 256.3706 
L 36.04435 257.037112 
L 36.11833 256.764448 
L 36.2293 256.340304 
L 36.30328 256.3706 
L 36.41425 257.097704 
L 36.56221 258.158064 
L 36.63619 258.006584 
L 36.67318 257.794512 
L 36.71017 257.976288 
L 36.93211 259.09724 
L 37.00609 258.703392 
L 37.04308 258.309544 
L 37.11706 258.6428 
L 37.44997 260.581744 
L 37.63492 262.248024 
L 37.67191 262.157136 
L 37.81987 262.702464 
L 37.96783 263.550752 
L 38.00482 263.429568 
L 38.04181 263.126608 
L 38.0788 263.64164 
L 38.33773 264.338448 
L 38.52268 266.186504 
L 38.55967 266.247096 
L 38.67064 267.004496 
L 38.8186 266.337984 
L 39.15151 268.367816 
L 39.22549 268.095152 
L 39.41044 269.488768 
L 39.44743 269.488768 
L 39.70636 270.882384 
L 39.81733 271.06416 
L 39.85432 270.91268 
L 39.89131 270.791496 
L 40.11325 272.185112 
L 40.15024 272.457776 
L 40.18723 272.276 
L 40.22422 271.942744 
L 40.26121 272.063928 
L 40.48315 273.48784 
L 40.52014 273.396952 
L 40.55713 273.457544 
L 41.14897 276.880992 
L 41.33392 278.062536 
L 41.37091 278.062536 
L 41.51887 278.850232 
L 41.66683 279.304672 
L 41.74081 279.032008 
L 41.7778 279.0926 
L 41.96275 279.940888 
L 41.99974 279.910592 
L 42.73954 283.78848 
L 42.8875 284.788248 
L 42.92449 284.818544 
L 43.07245 285.545648 
L 43.10944 285.485056 
L 43.14643 285.575944 
L 43.51633 286.908968 
L 43.55332 286.81808 
L 43.77526 287.817848 
L 43.84924 287.999624 
L 43.92322 287.545184 
L 43.9972 287.605776 
L 44.14516 288.393472 
L 44.18215 288.33288 
L 44.66302 291.120112 
L 44.70001 290.786856 
L 44.77399 290.968632 
L 45.36583 294.998 
L 45.40282 294.937408 
L 45.73573 296.452208 
L 45.77272 296.36132 
L 46.03165 298.209376 
L 46.17961 297.936712 
L 46.43854 298.694112 
L 46.47553 298.148784 
L 46.51252 298.572928 
L 46.5865 298.93648 
L 46.62349 298.724408 
L 46.66048 298.572928 
L 46.69747 298.63352 
L 46.91941 299.481808 
L 47.03038 299.269736 
L 47.28931 301.36016 
L 47.3263 301.299568 
L 47.47426 302.299336 
L 47.51125 302.238744 
L 47.54824 302.329632 
L 47.58523 302.238744 
L 47.65921 302.056968 
L 48.0661 304.0868 
L 48.10309 304.177688 
L 48.17707 304.147392 
L 48.21406 303.965616 
L 48.25105 304.026208 
L 48.36202 304.662424 
L 48.39901 304.632128 
L 48.436 304.571536 
L 49.06483 308.297944 
L 49.10182 308.146464 
L 49.13881 308.449424 
L 49.1758 308.510016 
L 49.36075 309.661264 
L 49.9156 314.569216 
L 50.02657 316.780824 
L 50.02657 316.780824 
" style="fill:none;stroke:#1f77b4;stroke-linecap:square;stroke-width:1.5;"/>
   </g>
   <g id="line2d_20">
    <path clip-path="url(#p35c8b23d5a)" d="M 33.64 255.704088 
L 33.67699 255.643496 
L 33.97291 253.49248 
L 34.0099 253.401592 
L 34.19485 252.371528 
L 34.26883 252.553304 
L 34.30582 252.765376 
L 34.3798 252.704784 
L 34.52776 251.67472 
L 34.63873 252.220048 
L 34.71271 251.795904 
L 34.7497 252.159456 
L 34.78669 252.007976 
L 34.82368 252.038272 
L 34.97164 252.73508 
L 35.04562 252.523008 
L 35.1196 252.73508 
L 35.19358 252.644192 
L 35.26756 252.674488 
L 35.37853 253.431888 
L 35.41552 253.18952 
L 35.52649 253.79544 
L 35.71144 254.70432 
L 35.78542 254.371064 
L 35.82241 254.55284 
L 36.04435 255.128464 
L 36.08134 255.522312 
L 36.15532 255.340536 
L 36.30328 254.916392 
L 36.37726 255.098168 
L 36.41425 255.037576 
L 36.48823 254.643728 
L 36.52522 254.946688 
L 36.5992 255.976752 
L 36.67318 255.794976 
L 36.71017 255.885864 
L 36.74716 256.400896 
L 36.82114 256.06764 
L 36.85813 256.188824 
L 36.89512 255.976752 
L 36.93211 256.037344 
L 36.9691 255.91616 
L 37.00609 255.825272 
L 37.04308 256.007048 
L 37.15405 256.007048 
L 37.30201 256.764448 
L 37.339 256.552376 
L 37.37599 256.794744 
L 37.41298 256.855336 
L 37.44997 257.188592 
L 37.48696 257.158296 
L 37.52395 256.764448 
L 37.59793 257.158296 
L 37.63492 257.037112 
L 37.78288 258.248952 
L 37.81987 257.764216 
L 37.89385 258.218656 
L 37.96783 258.006584 
L 38.00482 258.158064 
L 38.18977 259.127536 
L 38.48569 260.127304 
L 38.52268 259.915232 
L 38.59666 260.036416 
L 38.89258 261.97536 
L 38.96656 261.642104 
L 39.00355 261.97536 
L 39.04054 262.520688 
L 39.07753 262.248024 
L 39.11452 261.945064 
L 39.15151 262.217728 
L 39.22549 262.763056 
L 39.29947 262.611576 
L 39.37345 262.793352 
L 39.44743 262.611576 
L 39.48442 262.490392 
L 39.52141 262.672168 
L 39.63238 262.73276 
L 39.66937 262.853944 
L 39.74335 263.9446 
L 39.81733 263.581048 
L 39.9283 264.09608 
L 39.96529 264.065784 
L 40.07626 263.520456 
L 40.15024 263.884008 
L 40.18723 263.823416 
L 40.22422 263.732528 
L 40.2982 263.79312 
L 40.37218 263.914304 
L 40.63111 265.15644 
L 40.6681 264.85348 
L 40.74208 264.277856 
L 40.77907 264.489928 
L 41.00101 265.580584 
L 41.038 265.76236 
L 41.07499 265.519992 
L 41.11198 265.4594 
L 41.14897 265.519992 
L 41.18596 265.792656 
L 41.22295 265.671472 
L 41.29693 265.277624 
L 41.48188 267.307456 
L 41.51887 267.610416 
L 41.55586 267.307456 
L 41.59285 267.27716 
L 41.74081 268.004264 
L 42.22168 271.033864 
L 42.25867 270.852088 
L 42.29566 271.094456 
L 42.44362 271.5186 
L 42.48061 271.488304 
L 42.5176 271.21564 
L 42.59158 271.245936 
L 42.85051 272.276 
L 42.8875 272.094224 
L 42.92449 272.033632 
L 42.96148 271.639784 
L 42.99847 271.942744 
L 43.18342 273.063696 
L 43.40536 274.820864 
L 43.51633 275.214712 
L 43.59031 276.093296 
L 43.6273 276.032704 
L 43.66429 275.881224 
L 43.70128 276.153888 
L 43.84924 277.002176 
L 43.88623 276.911288 
L 43.92322 276.880992 
L 43.96021 277.153656 
L 43.9972 276.941584 
L 44.03419 276.729512 
L 44.07118 276.941584 
L 44.25613 277.72928 
L 45.25486 284.061144 
L 45.29185 284.000552 
L 45.32884 283.727888 
L 45.51379 285.1518 
L 45.55078 284.84884 
L 45.62476 284.909432 
L 45.77272 285.45476 
L 45.80971 285.363872 
L 45.8467 285.424464 
L 45.95767 286.272752 
L 45.99466 286.21216 
L 46.06864 285.969792 
L 46.10563 286.121272 
L 46.17961 286.030384 
L 46.29058 286.545416 
L 46.36456 286.06068 
L 46.40155 286.303048 
L 46.51252 286.696896 
L 46.69747 285.485056 
L 46.73446 285.545648 
L 46.9564 287.424 
L 46.99339 287.242224 
L 47.03038 286.81808 
L 47.10436 287.12104 
L 47.43727 288.605544 
L 47.51125 288.272288 
L 47.6962 289.059984 
L 47.73319 289.059984 
L 47.88115 289.514424 
L 47.91814 289.39324 
L 48.10309 290.30212 
L 48.28804 290.817152 
L 48.39901 290.120344 
L 48.436 290.544488 
L 48.50998 291.453368 
L 48.54697 291.423072 
L 48.58396 291.36248 
L 48.62095 291.726032 
L 48.65794 291.574552 
L 48.73192 291.180704 
L 48.87988 292.544024 
L 48.91687 292.483432 
L 48.95386 292.331952 
L 48.99085 292.57432 
L 49.02784 292.604616 
L 49.47172 295.331256 
L 49.50871 295.179776 
L 49.80463 296.936944 
L 49.84162 296.876352 
L 49.95259 297.694344 
L 49.98958 297.542864 
L 50.13754 297.330792 
L 50.43346 298.997072 
L 50.50744 299.481808 
L 50.58142 299.330328 
L 50.6554 298.93648 
L 50.69239 298.724408 
L 50.72938 298.997072 
L 50.98831 300.572464 
L 51.0253 300.45128 
L 51.06229 300.511872 
L 51.21025 300.845128 
L 51.24724 300.75424 
L 51.28423 300.875424 
L 51.43219 301.299568 
L 52.17199 304.147392 
L 52.24597 303.905024 
L 52.72684 307.72232 
L 52.76383 307.631432 
L 52.80082 307.782912 
L 53.09674 309.903632 
L 53.13373 309.903632 
L 53.6146 314.569216 
L 53.76256 317.41704 
L 53.76256 317.41704 
" style="fill:none;stroke:#ff7f0e;stroke-linecap:square;stroke-width:1.5;"/>
   </g>
   <g id="line2d_21">
    <path clip-path="url(#p35c8b23d5a)" d="M 33.64 255.673792 
L 34.08388 251.311168 
L 34.12087 251.614128 
L 34.15786 251.099096 
L 34.30582 250.341696 
L 34.34281 251.038504 
L 34.41679 250.947616 
L 34.49077 250.76584 
L 34.52776 251.038504 
L 34.56475 250.76584 
L 34.60174 250.735544 
L 34.71271 250.129624 
L 34.7497 250.3114 
L 34.78669 250.735544 
L 34.86067 250.584064 
L 34.89766 250.61436 
L 35.00863 251.67472 
L 35.08261 251.129392 
L 35.15659 251.008208 
L 35.41552 252.341232 
L 35.45251 252.220048 
L 35.60047 251.917088 
L 35.71144 252.5836 
L 35.74843 252.310936 
L 35.78542 252.371528 
L 35.82241 252.916856 
L 35.89639 252.523008 
L 36.2293 253.886328 
L 36.30328 253.734848 
L 36.34027 253.310704 
L 36.37726 253.734848 
L 36.45124 254.0984 
L 36.48823 253.765144 
L 36.52522 253.79544 
L 36.71017 254.8558 
L 36.74716 254.643728 
L 36.78415 254.40136 
L 36.85813 254.583136 
L 37.11706 255.825272 
L 37.15405 255.643496 
L 37.19104 255.582904 
L 37.339 256.21912 
L 37.37599 256.128232 
L 37.41298 255.855568 
L 37.44997 256.128232 
L 37.56094 256.188824 
L 37.59793 256.128232 
L 37.67191 255.825272 
L 37.81987 256.188824 
L 37.85686 256.158528 
L 38.22676 258.6428 
L 38.26375 258.551912 
L 38.30074 258.673096 
L 38.41171 259.218424 
L 38.63365 260.187896 
L 38.67064 260.097008 
L 39.29947 264.338448 
L 39.78034 267.155976 
L 39.81733 267.095384 
L 39.89131 267.307456 
L 40.00228 268.610184 
L 40.03927 268.428408 
L 40.59412 270.30676 
L 40.70509 271.003568 
L 40.74208 270.60972 
L 40.77907 271.124752 
L 40.81606 271.033864 
L 40.96402 272.063928 
L 41.00101 272.033632 
L 41.22295 273.275768 
L 41.29693 272.760736 
L 41.33392 272.821328 
L 41.51887 274.790568 
L 41.55586 274.669384 
L 41.66683 275.396488 
L 41.70382 275.15412 
L 41.74081 275.093528 
L 41.99974 276.66892 
L 42.03673 276.426552 
L 42.11071 276.638624 
L 42.1477 276.638624 
L 42.29566 276.911288 
L 42.40663 276.487144 
L 42.5176 277.456616 
L 42.59158 277.214248 
L 42.99847 279.274376 
L 43.03546 279.183488 
L 43.14643 279.39556 
L 43.22041 279.759112 
L 43.2574 279.54704 
L 43.36837 280.031776 
L 43.59031 281.758648 
L 43.73827 282.57664 
L 43.84924 282.303976 
L 43.96021 283.303744 
L 44.14516 284.909432 
L 44.25613 285.182096 
L 44.40409 286.303048 
L 44.44108 285.969792 
L 44.47807 286.06068 
L 44.62603 286.727192 
L 44.66302 286.6666 
L 44.84797 287.969328 
L 44.99593 287.757256 
L 45.03292 287.817848 
L 45.25486 288.9388 
L 45.29185 288.969096 
L 45.62476 290.544488 
L 45.66175 290.362712 
L 45.69874 290.271824 
L 45.8467 290.968632 
L 45.92068 291.423072 
L 45.95767 290.998928 
L 45.99466 290.817152 
L 46.29058 292.968168 
L 46.32757 292.998464 
L 46.47553 293.967936 
L 46.54951 293.907344 
L 46.73446 294.876816 
L 46.91941 295.634216 
L 46.99339 295.815992 
L 47.10436 295.513032 
L 47.17834 296.028064 
L 47.25232 295.967472 
L 47.28931 295.997768 
L 47.54824 297.058128 
L 47.62222 296.936944 
L 48.0661 298.694112 
L 48.10309 298.451744 
L 48.14008 298.724408 
L 48.21406 298.906184 
L 48.32503 299.300032 
L 48.39901 299.08796 
L 48.54697 300.087728 
L 48.65794 299.39092 
L 48.73192 299.84536 
L 48.8059 299.784768 
L 48.99085 300.936016 
L 49.02784 300.633056 
L 49.06483 301.026904 
L 49.21279 301.481344 
L 49.24978 301.390456 
L 49.28677 301.8146 
L 49.36075 301.602528 
L 49.39774 301.66312 
L 49.61968 303.056736 
L 49.65667 303.238512 
L 49.73065 303.056736 
L 49.84162 303.753544 
L 49.95259 304.480648 
L 49.98958 304.23828 
L 50.61841 307.752616 
L 50.69239 307.692024 
L 50.72938 308.055576 
L 50.87734 308.93416 
L 50.91433 308.873568 
L 50.95132 308.994752 
L 51.0253 309.08564 
L 51.06229 308.691792 
L 51.13627 309.055344 
L 51.21025 309.54008 
L 51.24724 309.479488 
L 51.28423 309.358304 
L 51.32122 309.418896 
L 51.43219 310.691328 
L 51.46918 310.267184 
L 51.50617 310.085408 
L 51.54316 310.358072 
L 51.91306 313.902704 
L 52.02403 316.750528 
L 52.02403 316.750528 
" style="fill:none;stroke:#2ca02c;stroke-linecap:square;stroke-width:1.5;"/>
   </g>
   <g id="line2d_22">
    <path clip-path="url(#p35c8b23d5a)" d="M 33.64 255.643496 
L 33.67699 255.582904 
L 33.86194 253.977216 
L 33.89893 253.79544 
L 33.93592 254.128696 
L 33.97291 254.189288 
L 34.0099 254.068104 
L 34.08388 253.49248 
L 34.12087 253.553072 
L 34.15786 253.583368 
L 34.26883 253.219816 
L 34.30582 253.250112 
L 34.41679 253.886328 
L 34.60174 253.159224 
L 34.63873 253.03804 
L 34.67572 253.310704 
L 34.7497 253.219816 
L 34.78669 253.068336 
L 34.93465 253.674256 
L 34.97164 253.522776 
L 35.00863 253.734848 
L 35.08261 253.704552 
L 35.41552 255.189056 
L 35.45251 254.734616 
L 35.52649 254.916392 
L 35.67445 255.825272 
L 35.71144 255.794976 
L 35.82241 255.279944 
L 35.8594 255.643496 
L 35.93338 255.370832 
L 36.08134 256.279712 
L 36.2293 256.97652 
L 36.26629 256.734152 
L 36.34027 256.97652 
L 36.37726 257.097704 
L 36.41425 256.885632 
L 36.45124 256.855336 
L 36.56221 256.643264 
L 36.71017 257.612736 
L 36.74716 257.400664 
L 36.78415 257.58244 
L 36.89512 258.673096 
L 36.93211 258.33984 
L 37.00609 258.248952 
L 37.08007 258.763984 
L 37.11706 258.430728 
L 37.15405 258.067176 
L 37.22803 258.400432 
L 37.30201 258.703392 
L 37.48696 259.430496 
L 37.67191 258.79428 
L 37.81987 259.460792 
L 38.26375 261.460328 
L 38.30074 261.430032 
L 38.37472 261.97536 
L 38.55967 263.005424 
L 38.59666 262.823648 
L 39.1885 266.610648 
L 39.26248 266.125912 
L 39.33646 266.156208 
L 39.41044 265.974432 
L 39.48442 266.610648 
L 39.59539 266.277392 
L 39.63238 265.974432 
L 39.70636 266.186504 
L 39.74335 266.156208 
L 39.78034 266.2168 
L 39.81733 266.247096 
L 39.96529 267.12568 
L 40.00228 266.943904 
L 40.03927 266.82272 
L 40.18723 267.549824 
L 40.22422 267.549824 
L 40.70509 269.882616 
L 40.74208 269.731136 
L 40.77907 269.973504 
L 42.29566 277.608096 
L 42.48061 279.183488 
L 42.62857 278.698752 
L 42.77653 279.486448 
L 42.8875 280.425624 
L 42.92449 280.00148 
L 42.99847 280.062072 
L 43.03546 280.062072 
L 43.07245 280.365032 
L 43.10944 280.213552 
L 43.18342 279.971184 
L 43.22041 280.092368 
L 43.51633 281.546576 
L 43.66429 280.970952 
L 43.70128 281.092136 
L 43.77526 281.334504 
L 43.9972 282.970488 
L 44.03419 282.758416 
L 44.07118 283.061376 
L 44.10817 283.000784 
L 44.25613 282.516048 
L 44.33011 282.091904 
L 44.3671 282.27368 
L 44.40409 282.940192 
L 44.47807 282.606936 
L 44.81098 284.24292 
L 44.88496 284.000552 
L 44.92195 284.182328 
L 45.29185 286.939264 
L 45.40282 286.96956 
L 45.51379 287.454296 
L 45.55078 287.030152 
L 45.62476 287.393704 
L 45.66175 287.181632 
L 45.69874 287.454296 
L 45.73573 287.302816 
L 45.88369 288.1814 
L 45.92068 288.090512 
L 45.95767 287.636072 
L 46.03165 288.060216 
L 46.10563 287.87844 
L 46.14262 288.090512 
L 46.32757 288.878208 
L 46.51252 290.695968 
L 46.54951 290.574784 
L 46.5865 290.362712 
L 46.62349 290.60508 
L 46.66048 290.4536 
L 46.77145 290.90804 
L 46.80844 290.877744 
L 47.43727 293.4832 
L 47.47426 293.392312 
L 47.51125 293.574088 
L 47.54824 293.574088 
L 48.32503 297.845824 
L 48.36202 297.785232 
L 48.39901 297.603456 
L 48.436 297.936712 
L 48.95386 300.390688 
L 48.99085 300.420984 
L 49.21279 301.693416 
L 49.24978 301.329864 
L 49.32376 301.451048 
L 49.36075 301.451048 
L 49.65667 302.602296 
L 49.69366 302.632592 
L 49.9156 304.056504 
L 49.98958 304.207984 
L 50.58142 306.874032 
L 50.72938 308.02528 
L 50.76637 307.813208 
L 50.84035 307.934392 
L 51.28423 313.387672 
L 51.46918 316.992896 
L 51.46918 316.992896 
" style="fill:none;stroke:#d62728;stroke-linecap:square;stroke-width:1.5;"/>
   </g>
   <g id="line2d_23">
    <path clip-path="url(#p35c8b23d5a)" d="M 33.64 255.673792 
L 33.93592 253.401592 
L 34.0099 253.310704 
L 34.08388 253.007744 
L 34.15786 253.03804 
L 34.19485 253.03804 
L 34.30582 252.220048 
L 34.3798 252.88656 
L 34.45378 252.73508 
L 34.52776 252.88656 
L 34.82368 251.583832 
L 34.89766 251.735312 
L 35.30455 253.18952 
L 35.34154 253.03804 
L 35.37853 253.068336 
L 35.45251 253.765144 
L 35.4895 253.371296 
L 35.56348 253.098632 
L 35.67445 254.037808 
L 35.74843 253.79544 
L 35.78542 253.765144 
L 35.82241 253.825736 
L 35.93338 253.068336 
L 35.97037 253.401592 
L 36.08134 253.159224 
L 36.2293 253.94692 
L 36.26629 253.916624 
L 36.30328 253.94692 
L 36.37726 253.734848 
L 36.67318 255.31024 
L 36.71017 255.128464 
L 36.93211 256.703856 
L 36.9691 256.612968 
L 37.00609 256.764448 
L 37.11706 257.521848 
L 37.22803 257.006816 
L 37.44997 258.824576 
L 37.48696 258.551912 
L 37.52395 258.673096 
L 37.7089 259.24872 
L 37.78288 259.612272 
L 37.93084 260.642336 
L 37.96783 260.430264 
L 38.15278 261.187664 
L 38.18977 261.005888 
L 38.22676 261.127072 
L 38.4487 262.27832 
L 38.52268 262.369208 
L 38.55967 262.217728 
L 38.74462 263.278088 
L 38.89258 262.702464 
L 38.92957 262.853944 
L 38.96656 262.88424 
L 39.04054 262.611576 
L 39.29947 264.974664 
L 39.37345 264.702 
L 39.41044 264.823184 
L 39.85432 267.095384 
L 39.89131 266.913608 
L 39.9283 267.155976 
L 39.96529 267.004496 
L 40.07626 266.853016 
L 40.11325 266.9742 
L 40.26121 267.42864 
L 40.44616 268.398112 
L 40.52014 268.216336 
L 40.59412 268.155744 
L 40.63111 268.18604 
L 40.85305 269.306992 
L 40.89004 269.216104 
L 41.07499 270.518832 
L 41.14897 270.397648 
L 41.18596 270.064392 
L 41.22295 270.124984 
L 41.4079 271.124752 
L 41.44489 270.7612 
L 41.51887 270.852088 
L 41.59285 271.124752 
L 41.62984 270.791496 
L 41.66683 271.003568 
L 41.88877 272.033632 
L 41.92576 272.003336 
L 42.1477 274.366424 
L 42.25867 274.336128 
L 42.29566 274.305832 
L 42.33265 274.39672 
L 42.8875 277.002176 
L 42.92449 276.941584 
L 43.10944 277.850464 
L 43.14643 277.850464 
L 43.18342 277.72928 
L 43.22041 277.850464 
L 43.36837 279.183488 
L 43.40536 278.971416 
L 43.44235 279.153192 
L 43.47934 279.425856 
L 43.55332 279.213784 
L 43.84924 280.516512 
L 43.96021 281.001248 
L 43.9972 280.970952 
L 44.03419 280.880064 
L 44.07118 281.001248 
L 45.03292 286.81808 
L 45.06991 286.757488 
L 45.55078 290.180936 
L 45.58777 289.938568 
L 45.62476 290.362712 
L 46.03165 291.847216 
L 46.06864 291.786624 
L 46.10563 291.51396 
L 46.14262 291.726032 
L 46.2166 292.27136 
L 46.29058 292.059288 
L 46.40155 292.42284 
L 46.54951 293.543792 
L 46.5865 293.422608 
L 46.69747 293.4832 
L 46.80844 294.180008 
L 46.84543 294.119416 
L 46.91941 293.755864 
L 46.9564 293.998232 
L 46.99339 293.967936 
L 47.14135 294.876816 
L 47.17834 294.816224 
L 47.21533 294.907112 
L 47.47426 296.66428 
L 47.51125 296.846056 
L 47.54824 296.603688 
L 47.58523 296.66428 
L 47.62222 296.573392 
L 48.17707 299.512104 
L 48.25105 299.815064 
L 48.32503 300.542168 
L 48.39901 300.420984 
L 48.436 300.390688 
L 48.47299 300.45128 
L 48.73192 301.087496 
L 48.8059 300.936016 
L 48.99085 301.754008 
L 49.84162 306.419592 
L 50.02657 307.72232 
L 50.06356 307.26788 
L 50.10055 307.479952 
L 50.32249 309.08564 
L 50.35948 309.206824 
L 50.61841 311.600208 
L 50.69239 312.26672 
L 50.95132 315.538688 
L 51.0253 317.083784 
L 51.0253 317.083784 
" style="fill:none;stroke:#9467bd;stroke-linecap:square;stroke-width:1.5;"/>
   </g>
   <g id="patch_7">
    <path d="M 33.64 317.72 
L 33.64 14.76 
" style="fill:none;stroke:#000000;stroke-linecap:square;stroke-linejoin:miter;stroke-width:0.8;"/>
   </g>
   <g id="patch_8">
    <path d="M 403.54 317.72 
L 403.54 14.76 
" style="fill:none;stroke:#000000;stroke-linecap:square;stroke-linejoin:miter;stroke-width:0.8;"/>
   </g>
   <g id="patch_9">
    <path d="M 33.64 317.72 
L 403.54 317.72 
" style="fill:none;stroke:#000000;stroke-linecap:square;stroke-linejoin:miter;stroke-width:0.8;"/>
   </g>
   <g id="patch_10">
    <path d="M 33.64 14.76 
L 403.54 14.76 
" style="fill:none;stroke:#000000;stroke-linecap:square;stroke-linejoin:miter;stroke-width:0.8;"/>
   </g>
   <g id="text_20">
    <!-- Size history of the universe for effective cosmological constant 0.59 -->
    <defs>
     <path d="M 53.515625 70.515625 
L 53.515625 60.890625 
Q 47.90625 63.578125 42.921875 64.890625 
Q 37.9375 66.21875 33.296875 66.21875 
Q 25.25 66.21875 20.875 63.09375 
Q 16.5 59.96875 16.5 54.203125 
Q 16.5 49.359375 19.40625 46.890625 
Q 22.3125 44.4375 30.421875 42.921875 
L 36.375 41.703125 
Q 47.40625 39.59375 52.65625 34.296875 
Q 57.90625 29 57.90625 20.125 
Q 57.90625 9.515625 50.796875 4.046875 
Q 43.703125 -1.421875 29.984375 -1.421875 
Q 24.8125 -1.421875 18.96875 -0.25 
Q 13.140625 0.921875 6.890625 3.21875 
L 6.890625 13.375 
Q 12.890625 10.015625 18.65625 8.296875 
Q 24.421875 6.59375 29.984375 6.59375 
Q 38.421875 6.59375 43.015625 9.90625 
Q 47.609375 13.234375 47.609375 19.390625 
Q 47.609375 24.75 44.3125 27.78125 
Q 41.015625 30.8125 33.5 32.328125 
L 27.484375 33.5 
Q 16.453125 35.6875 11.515625 40.375 
Q 6.59375 45.0625 6.59375 53.421875 
Q 6.59375 63.09375 13.40625 68.65625 
Q 20.21875 74.21875 32.171875 74.21875 
Q 37.3125 74.21875 42.625 73.28125 
Q 47.953125 72.359375 53.515625 70.515625 
z
" id="DejaVuSans-83"/>
     <path id="DejaVuSans-32"/>
     <path d="M 54.890625 33.015625 
L 54.890625 0 
L 45.90625 0 
L 45.90625 32.71875 
Q 45.90625 40.484375 42.875 44.328125 
Q 39.84375 48.1875 33.796875 48.1875 
Q 26.515625 48.1875 22.3125 43.546875 
Q 18.109375 38.921875 18.109375 30.90625 
L 18.109375 0 
L 9.078125 0 
L 9.078125 75.984375 
L 18.109375 75.984375 
L 18.109375 46.1875 
Q 21.34375 51.125 25.703125 53.5625 
Q 30.078125 56 35.796875 56 
Q 45.21875 56 50.046875 50.171875 
Q 54.890625 44.34375 54.890625 33.015625 
z
" id="DejaVuSans-104"/>
     <path d="M 18.3125 70.21875 
L 18.3125 54.6875 
L 36.8125 54.6875 
L 36.8125 47.703125 
L 18.3125 47.703125 
L 18.3125 18.015625 
Q 18.3125 11.328125 20.140625 9.421875 
Q 21.96875 7.515625 27.59375 7.515625 
L 36.8125 7.515625 
L 36.8125 0 
L 27.59375 0 
Q 17.1875 0 13.234375 3.875 
Q 9.28125 7.765625 9.28125 18.015625 
L 9.28125 47.703125 
L 2.6875 47.703125 
L 2.6875 54.6875 
L 9.28125 54.6875 
L 9.28125 70.21875 
z
" id="DejaVuSans-116"/>
     <path d="M 30.609375 48.390625 
Q 23.390625 48.390625 19.1875 42.75 
Q 14.984375 37.109375 14.984375 27.296875 
Q 14.984375 17.484375 19.15625 11.84375 
Q 23.34375 6.203125 30.609375 6.203125 
Q 37.796875 6.203125 41.984375 11.859375 
Q 46.1875 17.53125 46.1875 27.296875 
Q 46.1875 37.015625 41.984375 42.703125 
Q 37.796875 48.390625 30.609375 48.390625 
z
M 30.609375 56 
Q 42.328125 56 49.015625 48.375 
Q 55.71875 40.765625 55.71875 27.296875 
Q 55.71875 13.875 49.015625 6.21875 
Q 42.328125 -1.421875 30.609375 -1.421875 
Q 18.84375 -1.421875 12.171875 6.21875 
Q 5.515625 13.875 5.515625 27.296875 
Q 5.515625 40.765625 12.171875 48.375 
Q 18.84375 56 30.609375 56 
z
" id="DejaVuSans-111"/>
     <path d="M 41.109375 46.296875 
Q 39.59375 47.171875 37.8125 47.578125 
Q 36.03125 48 33.890625 48 
Q 26.265625 48 22.1875 43.046875 
Q 18.109375 38.09375 18.109375 28.8125 
L 18.109375 0 
L 9.078125 0 
L 9.078125 54.6875 
L 18.109375 54.6875 
L 18.109375 46.1875 
Q 20.953125 51.171875 25.484375 53.578125 
Q 30.03125 56 36.53125 56 
Q 37.453125 56 38.578125 55.875 
Q 39.703125 55.765625 41.0625 55.515625 
z
" id="DejaVuSans-114"/>
     <path d="M 32.171875 -5.078125 
Q 28.375 -14.84375 24.75 -17.8125 
Q 21.140625 -20.796875 15.09375 -20.796875 
L 7.90625 -20.796875 
L 7.90625 -13.28125 
L 13.1875 -13.28125 
Q 16.890625 -13.28125 18.9375 -11.515625 
Q 21 -9.765625 23.484375 -3.21875 
L 25.09375 0.875 
L 2.984375 54.6875 
L 12.5 54.6875 
L 29.59375 11.921875 
L 46.6875 54.6875 
L 56.203125 54.6875 
z
" id="DejaVuSans-121"/>
     <path d="M 37.109375 75.984375 
L 37.109375 68.5 
L 28.515625 68.5 
Q 23.6875 68.5 21.796875 66.546875 
Q 19.921875 64.59375 19.921875 59.515625 
L 19.921875 54.6875 
L 34.71875 54.6875 
L 34.71875 47.703125 
L 19.921875 47.703125 
L 19.921875 0 
L 10.890625 0 
L 10.890625 47.703125 
L 2.296875 47.703125 
L 2.296875 54.6875 
L 10.890625 54.6875 
L 10.890625 58.5 
Q 10.890625 67.625 15.140625 71.796875 
Q 19.390625 75.984375 28.609375 75.984375 
z
" id="DejaVuSans-102"/>
     <path d="M 8.5 21.578125 
L 8.5 54.6875 
L 17.484375 54.6875 
L 17.484375 21.921875 
Q 17.484375 14.15625 20.5 10.265625 
Q 23.53125 6.390625 29.59375 6.390625 
Q 36.859375 6.390625 41.078125 11.03125 
Q 45.3125 15.671875 45.3125 23.6875 
L 45.3125 54.6875 
L 54.296875 54.6875 
L 54.296875 0 
L 45.3125 0 
L 45.3125 8.40625 
Q 42.046875 3.421875 37.71875 1 
Q 33.40625 -1.421875 27.6875 -1.421875 
Q 18.265625 -1.421875 13.375 4.4375 
Q 8.5 10.296875 8.5 21.578125 
z
M 31.109375 56 
z
" id="DejaVuSans-117"/>
     <path d="M 54.890625 33.015625 
L 54.890625 0 
L 45.90625 0 
L 45.90625 32.71875 
Q 45.90625 40.484375 42.875 44.328125 
Q 39.84375 48.1875 33.796875 48.1875 
Q 26.515625 48.1875 22.3125 43.546875 
Q 18.109375 38.921875 18.109375 30.90625 
L 18.109375 0 
L 9.078125 0 
L 9.078125 54.6875 
L 18.109375 54.6875 
L 18.109375 46.1875 
Q 21.34375 51.125 25.703125 53.5625 
Q 30.078125 56 35.796875 56 
Q 45.21875 56 50.046875 50.171875 
Q 54.890625 44.34375 54.890625 33.015625 
z
" id="DejaVuSans-110"/>
     <path d="M 2.984375 54.6875 
L 12.5 54.6875 
L 29.59375 8.796875 
L 46.6875 54.6875 
L 56.203125 54.6875 
L 35.6875 0 
L 23.484375 0 
z
" id="DejaVuSans-118"/>
     <path d="M 48.78125 52.59375 
L 48.78125 44.1875 
Q 44.96875 46.296875 41.140625 47.34375 
Q 37.3125 48.390625 33.40625 48.390625 
Q 24.65625 48.390625 19.8125 42.84375 
Q 14.984375 37.3125 14.984375 27.296875 
Q 14.984375 17.28125 19.8125 11.734375 
Q 24.65625 6.203125 33.40625 6.203125 
Q 37.3125 6.203125 41.140625 7.25 
Q 44.96875 8.296875 48.78125 10.40625 
L 48.78125 2.09375 
Q 45.015625 0.34375 40.984375 -0.53125 
Q 36.96875 -1.421875 32.421875 -1.421875 
Q 20.0625 -1.421875 12.78125 6.34375 
Q 5.515625 14.109375 5.515625 27.296875 
Q 5.515625 40.671875 12.859375 48.328125 
Q 20.21875 56 33.015625 56 
Q 37.15625 56 41.109375 55.140625 
Q 45.0625 54.296875 48.78125 52.59375 
z
" id="DejaVuSans-99"/>
     <path d="M 52 44.1875 
Q 55.375 50.25 60.0625 53.125 
Q 64.75 56 71.09375 56 
Q 79.640625 56 84.28125 50.015625 
Q 88.921875 44.046875 88.921875 33.015625 
L 88.921875 0 
L 79.890625 0 
L 79.890625 32.71875 
Q 79.890625 40.578125 77.09375 44.375 
Q 74.3125 48.1875 68.609375 48.1875 
Q 61.625 48.1875 57.5625 43.546875 
Q 53.515625 38.921875 53.515625 30.90625 
L 53.515625 0 
L 44.484375 0 
L 44.484375 32.71875 
Q 44.484375 40.625 41.703125 44.40625 
Q 38.921875 48.1875 33.109375 48.1875 
Q 26.21875 48.1875 22.15625 43.53125 
Q 18.109375 38.875 18.109375 30.90625 
L 18.109375 0 
L 9.078125 0 
L 9.078125 54.6875 
L 18.109375 54.6875 
L 18.109375 46.1875 
Q 21.1875 51.21875 25.484375 53.609375 
Q 29.78125 56 35.6875 56 
Q 41.65625 56 45.828125 52.96875 
Q 50 49.953125 52 44.1875 
z
" id="DejaVuSans-109"/>
     <path d="M 9.421875 75.984375 
L 18.40625 75.984375 
L 18.40625 0 
L 9.421875 0 
z
" id="DejaVuSans-108"/>
     <path d="M 45.40625 27.984375 
Q 45.40625 37.75 41.375 43.109375 
Q 37.359375 48.484375 30.078125 48.484375 
Q 22.859375 48.484375 18.828125 43.109375 
Q 14.796875 37.75 14.796875 27.984375 
Q 14.796875 18.265625 18.828125 12.890625 
Q 22.859375 7.515625 30.078125 7.515625 
Q 37.359375 7.515625 41.375 12.890625 
Q 45.40625 18.265625 45.40625 27.984375 
z
M 54.390625 6.78125 
Q 54.390625 -7.171875 48.1875 -13.984375 
Q 42 -20.796875 29.203125 -20.796875 
Q 24.46875 -20.796875 20.265625 -20.09375 
Q 16.0625 -19.390625 12.109375 -17.921875 
L 12.109375 -9.1875 
Q 16.0625 -11.328125 19.921875 -12.34375 
Q 23.78125 -13.375 27.78125 -13.375 
Q 36.625 -13.375 41.015625 -8.765625 
Q 45.40625 -4.15625 45.40625 5.171875 
L 45.40625 9.625 
Q 42.625 4.78125 38.28125 2.390625 
Q 33.9375 0 27.875 0 
Q 17.828125 0 11.671875 7.65625 
Q 5.515625 15.328125 5.515625 27.984375 
Q 5.515625 40.671875 11.671875 48.328125 
Q 17.828125 56 27.875 56 
Q 33.9375 56 38.28125 53.609375 
Q 42.625 51.21875 45.40625 46.390625 
L 45.40625 54.6875 
L 54.390625 54.6875 
z
" id="DejaVuSans-103"/>
     <path d="M 34.28125 27.484375 
Q 23.390625 27.484375 19.1875 25 
Q 14.984375 22.515625 14.984375 16.5 
Q 14.984375 11.71875 18.140625 8.90625 
Q 21.296875 6.109375 26.703125 6.109375 
Q 34.1875 6.109375 38.703125 11.40625 
Q 43.21875 16.703125 43.21875 25.484375 
L 43.21875 27.484375 
z
M 52.203125 31.203125 
L 52.203125 0 
L 43.21875 0 
L 43.21875 8.296875 
Q 40.140625 3.328125 35.546875 0.953125 
Q 30.953125 -1.421875 24.3125 -1.421875 
Q 15.921875 -1.421875 10.953125 3.296875 
Q 6 8.015625 6 15.921875 
Q 6 25.140625 12.171875 29.828125 
Q 18.359375 34.515625 30.609375 34.515625 
L 43.21875 34.515625 
L 43.21875 35.40625 
Q 43.21875 41.609375 39.140625 45 
Q 35.0625 48.390625 27.6875 48.390625 
Q 23 48.390625 18.546875 47.265625 
Q 14.109375 46.140625 10.015625 43.890625 
L 10.015625 52.203125 
Q 14.9375 54.109375 19.578125 55.046875 
Q 24.21875 56 28.609375 56 
Q 40.484375 56 46.34375 49.84375 
Q 52.203125 43.703125 52.203125 31.203125 
z
" id="DejaVuSans-97"/>
     <path d="M 10.796875 72.90625 
L 49.515625 72.90625 
L 49.515625 64.59375 
L 19.828125 64.59375 
L 19.828125 46.734375 
Q 21.96875 47.46875 24.109375 47.828125 
Q 26.265625 48.1875 28.421875 48.1875 
Q 40.625 48.1875 47.75 41.5 
Q 54.890625 34.8125 54.890625 23.390625 
Q 54.890625 11.625 47.5625 5.09375 
Q 40.234375 -1.421875 26.90625 -1.421875 
Q 22.3125 -1.421875 17.546875 -0.640625 
Q 12.796875 0.140625 7.71875 1.703125 
L 7.71875 11.625 
Q 12.109375 9.234375 16.796875 8.0625 
Q 21.484375 6.890625 26.703125 6.890625 
Q 35.15625 6.890625 40.078125 11.328125 
Q 45.015625 15.765625 45.015625 23.390625 
Q 45.015625 31 40.078125 35.4375 
Q 35.15625 39.890625 26.703125 39.890625 
Q 22.75 39.890625 18.8125 39.015625 
Q 14.890625 38.140625 10.796875 36.28125 
z
" id="DejaVuSans-53"/>
     <path d="M 10.984375 1.515625 
L 10.984375 10.5 
Q 14.703125 8.734375 18.5 7.8125 
Q 22.3125 6.890625 25.984375 6.890625 
Q 35.75 6.890625 40.890625 13.453125 
Q 46.046875 20.015625 46.78125 33.40625 
Q 43.953125 29.203125 39.59375 26.953125 
Q 35.25 24.703125 29.984375 24.703125 
Q 19.046875 24.703125 12.671875 31.3125 
Q 6.296875 37.9375 6.296875 49.421875 
Q 6.296875 60.640625 12.9375 67.421875 
Q 19.578125 74.21875 30.609375 74.21875 
Q 43.265625 74.21875 49.921875 64.515625 
Q 56.59375 54.828125 56.59375 36.375 
Q 56.59375 19.140625 48.40625 8.859375 
Q 40.234375 -1.421875 26.421875 -1.421875 
Q 22.703125 -1.421875 18.890625 -0.6875 
Q 15.09375 0.046875 10.984375 1.515625 
z
M 30.609375 32.421875 
Q 37.25 32.421875 41.125 36.953125 
Q 45.015625 41.5 45.015625 49.421875 
Q 45.015625 57.28125 41.125 61.84375 
Q 37.25 66.40625 30.609375 66.40625 
Q 23.96875 66.40625 20.09375 61.84375 
Q 16.21875 57.28125 16.21875 49.421875 
Q 16.21875 41.5 20.09375 36.953125 
Q 23.96875 32.421875 30.609375 32.421875 
z
" id="DejaVuSans-57"/>
    </defs>
    <g transform="translate(14.116562 8.76)scale(0.12 -0.12)">
     <use xlink:href="#DejaVuSans-83"/>
     <use x="63.476562" xlink:href="#DejaVuSans-105"/>
     <use x="91.259766" xlink:href="#DejaVuSans-122"/>
     <use x="143.75" xlink:href="#DejaVuSans-101"/>
     <use x="205.273438" xlink:href="#DejaVuSans-32"/>
     <use x="237.060547" xlink:href="#DejaVuSans-104"/>
     <use x="300.439453" xlink:href="#DejaVuSans-105"/>
     <use x="328.222656" xlink:href="#DejaVuSans-115"/>
     <use x="380.322266" xlink:href="#DejaVuSans-116"/>
     <use x="419.53125" xlink:href="#DejaVuSans-111"/>
     <use x="480.712891" xlink:href="#DejaVuSans-114"/>
     <use x="521.826172" xlink:href="#DejaVuSans-121"/>
     <use x="581.005859" xlink:href="#DejaVuSans-32"/>
     <use x="612.792969" xlink:href="#DejaVuSans-111"/>
     <use x="673.974609" xlink:href="#DejaVuSans-102"/>
     <use x="709.179688" xlink:href="#DejaVuSans-32"/>
     <use x="740.966797" xlink:href="#DejaVuSans-116"/>
     <use x="780.175781" xlink:href="#DejaVuSans-104"/>
     <use x="843.554688" xlink:href="#DejaVuSans-101"/>
     <use x="905.078125" xlink:href="#DejaVuSans-32"/>
     <use x="936.865234" xlink:href="#DejaVuSans-117"/>
     <use x="1000.244141" xlink:href="#DejaVuSans-110"/>
     <use x="1063.623047" xlink:href="#DejaVuSans-105"/>
     <use x="1091.40625" xlink:href="#DejaVuSans-118"/>
     <use x="1150.585938" xlink:href="#DejaVuSans-101"/>
     <use x="1212.109375" xlink:href="#DejaVuSans-114"/>
     <use x="1253.222656" xlink:href="#DejaVuSans-115"/>
     <use x="1305.322266" xlink:href="#DejaVuSans-101"/>
     <use x="1366.845703" xlink:href="#DejaVuSans-32"/>
     <use x="1398.632812" xlink:href="#DejaVuSans-102"/>
     <use x="1433.837891" xlink:href="#DejaVuSans-111"/>
     <use x="1495.019531" xlink:href="#DejaVuSans-114"/>
     <use x="1536.132812" xlink:href="#DejaVuSans-32"/>
     <use x="1567.919922" xlink:href="#DejaVuSans-101"/>
     <use x="1629.443359" xlink:href="#DejaVuSans-102"/>
     <use x="1664.648438" xlink:href="#DejaVuSans-102"/>
     <use x="1699.853516" xlink:href="#DejaVuSans-101"/>
     <use x="1761.376953" xlink:href="#DejaVuSans-99"/>
     <use x="1816.357422" xlink:href="#DejaVuSans-116"/>
     <use x="1855.566406" xlink:href="#DejaVuSans-105"/>
     <use x="1883.349609" xlink:href="#DejaVuSans-118"/>
     <use x="1942.529297" xlink:href="#DejaVuSans-101"/>
     <use x="2004.052734" xlink:href="#DejaVuSans-32"/>
     <use x="2035.839844" xlink:href="#DejaVuSans-99"/>
     <use x="2090.820312" xlink:href="#DejaVuSans-111"/>
     <use x="2152.001953" xlink:href="#DejaVuSans-115"/>
     <use x="2204.101562" xlink:href="#DejaVuSans-109"/>
     <use x="2301.513672" xlink:href="#DejaVuSans-111"/>
     <use x="2362.695312" xlink:href="#DejaVuSans-108"/>
     <use x="2390.478516" xlink:href="#DejaVuSans-111"/>
     <use x="2451.660156" xlink:href="#DejaVuSans-103"/>
     <use x="2515.136719" xlink:href="#DejaVuSans-105"/>
     <use x="2542.919922" xlink:href="#DejaVuSans-99"/>
     <use x="2597.900391" xlink:href="#DejaVuSans-97"/>
     <use x="2659.179688" xlink:href="#DejaVuSans-108"/>
     <use x="2686.962891" xlink:href="#DejaVuSans-32"/>
     <use x="2718.75" xlink:href="#DejaVuSans-99"/>
     <use x="2773.730469" xlink:href="#DejaVuSans-111"/>
     <use x="2834.912109" xlink:href="#DejaVuSans-110"/>
     <use x="2898.291016" xlink:href="#DejaVuSans-115"/>
     <use x="2950.390625" xlink:href="#DejaVuSans-116"/>
     <use x="2989.599609" xlink:href="#DejaVuSans-97"/>
     <use x="3050.878906" xlink:href="#DejaVuSans-110"/>
     <use x="3114.257812" xlink:href="#DejaVuSans-116"/>
     <use x="3153.466797" xlink:href="#DejaVuSans-32"/>
     <use x="3185.253906" xlink:href="#DejaVuSans-48"/>
     <use x="3248.876953" xlink:href="#DejaVuSans-46"/>
     <use x="3280.664062" xlink:href="#DejaVuSans-53"/>
     <use x="3344.287109" xlink:href="#DejaVuSans-57"/>
    </g>
   </g>
  </g>
 </g>
 <defs>
  <clipPath id="p35c8b23d5a">
   <rect height="302.96" width="369.9" x="33.64" y="14.76"/>
  </clipPath>
 </defs>
</svg>
