<?xml version="1.0" encoding="utf-8" standalone="no"?>
<!DOCTYPE svg PUBLIC "-//W3C//DTD SVG 1.1//EN"
  "http://www.w3.org/Graphics/SVG/1.1/DTD/svg11.dtd">
<!-- Created with matplotlib (https://matplotlib.org/) -->
<svg height="345.6pt" version="1.1" viewBox="0 0 460.8 345.6" width="460.8pt" xmlns="http://www.w3.org/2000/svg" xmlns:xlink="http://www.w3.org/1999/xlink">
 <defs>
  <style type="text/css">
*{stroke-linecap:butt;stroke-linejoin:round;}
  </style>
 </defs>
 <g id="figure_1">
  <g id="patch_1">
   <path d="M 0 345.6 
L 460.8 345.6 
L 460.8 0 
L 0 0 
z
" style="fill:#ffffff;"/>
  </g>
  <g id="axes_1">
   <g id="patch_2">
    <path d="M 33.64 317.72 
L 403.54 317.72 
L 403.54 14.76 
L 33.64 14.76 
z
" style="fill:#ffffff;"/>
   </g>
   <g id="matplotlib.axis_1">
    <g id="xtick_1">
     <g id="line2d_1">
      <defs>
       <path d="M 0 0 
L 0 3.5 
" id="m416b1bdcc5" style="stroke:#000000;stroke-width:0.8;"/>
      </defs>
      <g>
       <use style="stroke:#000000;stroke-width:0.8;" x="33.64" xlink:href="#m416b1bdcc5" y="317.72"/>
      </g>
     </g>
     <g id="text_1">
      <!-- 0 -->
      <defs>
       <path d="M 31.78125 66.40625 
Q 24.171875 66.40625 20.328125 58.90625 
Q 16.5 51.421875 16.5 36.375 
Q 16.5 21.390625 20.328125 13.890625 
Q 24.171875 6.390625 31.78125 6.390625 
Q 39.453125 6.390625 43.28125 13.890625 
Q 47.125 21.390625 47.125 36.375 
Q 47.125 51.421875 43.28125 58.90625 
Q 39.453125 66.40625 31.78125 66.40625 
z
M 31.78125 74.21875 
Q 44.046875 74.21875 50.515625 64.515625 
Q 56.984375 54.828125 56.984375 36.375 
Q 56.984375 17.96875 50.515625 8.265625 
Q 44.046875 -1.421875 31.78125 -1.421875 
Q 19.53125 -1.421875 13.0625 8.265625 
Q 6.59375 17.96875 6.59375 36.375 
Q 6.59375 54.828125 13.0625 64.515625 
Q 19.53125 74.21875 31.78125 74.21875 
z
" id="DejaVuSans-48"/>
      </defs>
      <g transform="translate(30.45875 332.318437)scale(0.1 -0.1)">
       <use xlink:href="#DejaVuSans-48"/>
      </g>
     </g>
    </g>
    <g id="xtick_2">
     <g id="line2d_2">
      <g>
       <use style="stroke:#000000;stroke-width:0.8;" x="107.62" xlink:href="#m416b1bdcc5" y="317.72"/>
      </g>
     </g>
     <g id="text_2">
      <!-- 2000 -->
      <defs>
       <path d="M 19.1875 8.296875 
L 53.609375 8.296875 
L 53.609375 0 
L 7.328125 0 
L 7.328125 8.296875 
Q 12.9375 14.109375 22.625 23.890625 
Q 32.328125 33.6875 34.8125 36.53125 
Q 39.546875 41.84375 41.421875 45.53125 
Q 43.3125 49.21875 43.3125 52.78125 
Q 43.3125 58.59375 39.234375 62.25 
Q 35.15625 65.921875 28.609375 65.921875 
Q 23.96875 65.921875 18.8125 64.3125 
Q 13.671875 62.703125 7.8125 59.421875 
L 7.8125 69.390625 
Q 13.765625 71.78125 18.9375 73 
Q 24.125 74.21875 28.421875 74.21875 
Q 39.75 74.21875 46.484375 68.546875 
Q 53.21875 62.890625 53.21875 53.421875 
Q 53.21875 48.921875 51.53125 44.890625 
Q 49.859375 40.875 45.40625 35.40625 
Q 44.1875 33.984375 37.640625 27.21875 
Q 31.109375 20.453125 19.1875 8.296875 
z
" id="DejaVuSans-50"/>
      </defs>
      <g transform="translate(94.895 332.318437)scale(0.1 -0.1)">
       <use xlink:href="#DejaVuSans-50"/>
       <use x="63.623047" xlink:href="#DejaVuSans-48"/>
       <use x="127.246094" xlink:href="#DejaVuSans-48"/>
       <use x="190.869141" xlink:href="#DejaVuSans-48"/>
      </g>
     </g>
    </g>
    <g id="xtick_3">
     <g id="line2d_3">
      <g>
       <use style="stroke:#000000;stroke-width:0.8;" x="181.6" xlink:href="#m416b1bdcc5" y="317.72"/>
      </g>
     </g>
     <g id="text_3">
      <!-- 4000 -->
      <defs>
       <path d="M 37.796875 64.3125 
L 12.890625 25.390625 
L 37.796875 25.390625 
z
M 35.203125 72.90625 
L 47.609375 72.90625 
L 47.609375 25.390625 
L 58.015625 25.390625 
L 58.015625 17.1875 
L 47.609375 17.1875 
L 47.609375 0 
L 37.796875 0 
L 37.796875 17.1875 
L 4.890625 17.1875 
L 4.890625 26.703125 
z
" id="DejaVuSans-52"/>
      </defs>
      <g transform="translate(168.875 332.318437)scale(0.1 -0.1)">
       <use xlink:href="#DejaVuSans-52"/>
       <use x="63.623047" xlink:href="#DejaVuSans-48"/>
       <use x="127.246094" xlink:href="#DejaVuSans-48"/>
       <use x="190.869141" xlink:href="#DejaVuSans-48"/>
      </g>
     </g>
    </g>
    <g id="xtick_4">
     <g id="line2d_4">
      <g>
       <use style="stroke:#000000;stroke-width:0.8;" x="255.58" xlink:href="#m416b1bdcc5" y="317.72"/>
      </g>
     </g>
     <g id="text_4">
      <!-- 6000 -->
      <defs>
       <path d="M 33.015625 40.375 
Q 26.375 40.375 22.484375 35.828125 
Q 18.609375 31.296875 18.609375 23.390625 
Q 18.609375 15.53125 22.484375 10.953125 
Q 26.375 6.390625 33.015625 6.390625 
Q 39.65625 6.390625 43.53125 10.953125 
Q 47.40625 15.53125 47.40625 23.390625 
Q 47.40625 31.296875 43.53125 35.828125 
Q 39.65625 40.375 33.015625 40.375 
z
M 52.59375 71.296875 
L 52.59375 62.3125 
Q 48.875 64.0625 45.09375 64.984375 
Q 41.3125 65.921875 37.59375 65.921875 
Q 27.828125 65.921875 22.671875 59.328125 
Q 17.53125 52.734375 16.796875 39.40625 
Q 19.671875 43.65625 24.015625 45.921875 
Q 28.375 48.1875 33.59375 48.1875 
Q 44.578125 48.1875 50.953125 41.515625 
Q 57.328125 34.859375 57.328125 23.390625 
Q 57.328125 12.15625 50.6875 5.359375 
Q 44.046875 -1.421875 33.015625 -1.421875 
Q 20.359375 -1.421875 13.671875 8.265625 
Q 6.984375 17.96875 6.984375 36.375 
Q 6.984375 53.65625 15.1875 63.9375 
Q 23.390625 74.21875 37.203125 74.21875 
Q 40.921875 74.21875 44.703125 73.484375 
Q 48.484375 72.75 52.59375 71.296875 
z
" id="DejaVuSans-54"/>
      </defs>
      <g transform="translate(242.855 332.318437)scale(0.1 -0.1)">
       <use xlink:href="#DejaVuSans-54"/>
       <use x="63.623047" xlink:href="#DejaVuSans-48"/>
       <use x="127.246094" xlink:href="#DejaVuSans-48"/>
       <use x="190.869141" xlink:href="#DejaVuSans-48"/>
      </g>
     </g>
    </g>
    <g id="xtick_5">
     <g id="line2d_5">
      <g>
       <use style="stroke:#000000;stroke-width:0.8;" x="329.56" xlink:href="#m416b1bdcc5" y="317.72"/>
      </g>
     </g>
     <g id="text_5">
      <!-- 8000 -->
      <defs>
       <path d="M 31.78125 34.625 
Q 24.75 34.625 20.71875 30.859375 
Q 16.703125 27.09375 16.703125 20.515625 
Q 16.703125 13.921875 20.71875 10.15625 
Q 24.75 6.390625 31.78125 6.390625 
Q 38.8125 6.390625 42.859375 10.171875 
Q 46.921875 13.96875 46.921875 20.515625 
Q 46.921875 27.09375 42.890625 30.859375 
Q 38.875 34.625 31.78125 34.625 
z
M 21.921875 38.8125 
Q 15.578125 40.375 12.03125 44.71875 
Q 8.5 49.078125 8.5 55.328125 
Q 8.5 64.0625 14.71875 69.140625 
Q 20.953125 74.21875 31.78125 74.21875 
Q 42.671875 74.21875 48.875 69.140625 
Q 55.078125 64.0625 55.078125 55.328125 
Q 55.078125 49.078125 51.53125 44.71875 
Q 48 40.375 41.703125 38.8125 
Q 48.828125 37.15625 52.796875 32.3125 
Q 56.78125 27.484375 56.78125 20.515625 
Q 56.78125 9.90625 50.3125 4.234375 
Q 43.84375 -1.421875 31.78125 -1.421875 
Q 19.734375 -1.421875 13.25 4.234375 
Q 6.78125 9.90625 6.78125 20.515625 
Q 6.78125 27.484375 10.78125 32.3125 
Q 14.796875 37.15625 21.921875 38.8125 
z
M 18.3125 54.390625 
Q 18.3125 48.734375 21.84375 45.5625 
Q 25.390625 42.390625 31.78125 42.390625 
Q 38.140625 42.390625 41.71875 45.5625 
Q 45.3125 48.734375 45.3125 54.390625 
Q 45.3125 60.0625 41.71875 63.234375 
Q 38.140625 66.40625 31.78125 66.40625 
Q 25.390625 66.40625 21.84375 63.234375 
Q 18.3125 60.0625 18.3125 54.390625 
z
" id="DejaVuSans-56"/>
      </defs>
      <g transform="translate(316.835 332.318437)scale(0.1 -0.1)">
       <use xlink:href="#DejaVuSans-56"/>
       <use x="63.623047" xlink:href="#DejaVuSans-48"/>
       <use x="127.246094" xlink:href="#DejaVuSans-48"/>
       <use x="190.869141" xlink:href="#DejaVuSans-48"/>
      </g>
     </g>
    </g>
    <g id="xtick_6">
     <g id="line2d_6">
      <g>
       <use style="stroke:#000000;stroke-width:0.8;" x="403.54" xlink:href="#m416b1bdcc5" y="317.72"/>
      </g>
     </g>
     <g id="text_6">
      <!-- 10000 -->
      <defs>
       <path d="M 12.40625 8.296875 
L 28.515625 8.296875 
L 28.515625 63.921875 
L 10.984375 60.40625 
L 10.984375 69.390625 
L 28.421875 72.90625 
L 38.28125 72.90625 
L 38.28125 8.296875 
L 54.390625 8.296875 
L 54.390625 0 
L 12.40625 0 
z
" id="DejaVuSans-49"/>
      </defs>
      <g transform="translate(387.63375 332.318437)scale(0.1 -0.1)">
       <use xlink:href="#DejaVuSans-49"/>
       <use x="63.623047" xlink:href="#DejaVuSans-48"/>
       <use x="127.246094" xlink:href="#DejaVuSans-48"/>
       <use x="190.869141" xlink:href="#DejaVuSans-48"/>
       <use x="254.492188" xlink:href="#DejaVuSans-48"/>
      </g>
     </g>
    </g>
   </g>
   <g id="matplotlib.axis_2">
    <g id="ytick_1">
     <g id="line2d_7">
      <defs>
       <path d="M 0 0 
L -3.5 0 
" id="mb530dea681" style="stroke:#000000;stroke-width:0.8;"/>
      </defs>
      <g>
       <use style="stroke:#000000;stroke-width:0.8;" x="33.64" xlink:href="#mb530dea681" y="317.72"/>
      </g>
     </g>
     <g id="text_7">
      <!-- 0.0 -->
      <defs>
       <path d="M 10.6875 12.40625 
L 21 12.40625 
L 21 0 
L 10.6875 0 
z
" id="DejaVuSans-46"/>
      </defs>
      <g transform="translate(10.736875 321.519219)scale(0.1 -0.1)">
       <use xlink:href="#DejaVuSans-48"/>
       <use x="63.623047" xlink:href="#DejaVuSans-46"/>
       <use x="95.410156" xlink:href="#DejaVuSans-48"/>
      </g>
     </g>
    </g>
    <g id="ytick_2">
     <g id="line2d_8">
      <g>
       <use style="stroke:#000000;stroke-width:0.8;" x="33.64" xlink:href="#mb530dea681" y="257.128"/>
      </g>
     </g>
     <g id="text_8">
      <!-- 0.2 -->
      <g transform="translate(10.736875 260.927219)scale(0.1 -0.1)">
       <use xlink:href="#DejaVuSans-48"/>
       <use x="63.623047" xlink:href="#DejaVuSans-46"/>
       <use x="95.410156" xlink:href="#DejaVuSans-50"/>
      </g>
     </g>
    </g>
    <g id="ytick_3">
     <g id="line2d_9">
      <g>
       <use style="stroke:#000000;stroke-width:0.8;" x="33.64" xlink:href="#mb530dea681" y="196.536"/>
      </g>
     </g>
     <g id="text_9">
      <!-- 0.4 -->
      <g transform="translate(10.736875 200.335219)scale(0.1 -0.1)">
       <use xlink:href="#DejaVuSans-48"/>
       <use x="63.623047" xlink:href="#DejaVuSans-46"/>
       <use x="95.410156" xlink:href="#DejaVuSans-52"/>
      </g>
     </g>
    </g>
    <g id="ytick_4">
     <g id="line2d_10">
      <g>
       <use style="stroke:#000000;stroke-width:0.8;" x="33.64" xlink:href="#mb530dea681" y="135.944"/>
      </g>
     </g>
     <g id="text_10">
      <!-- 0.6 -->
      <g transform="translate(10.736875 139.743219)scale(0.1 -0.1)">
       <use xlink:href="#DejaVuSans-48"/>
       <use x="63.623047" xlink:href="#DejaVuSans-46"/>
       <use x="95.410156" xlink:href="#DejaVuSans-54"/>
      </g>
     </g>
    </g>
    <g id="ytick_5">
     <g id="line2d_11">
      <g>
       <use style="stroke:#000000;stroke-width:0.8;" x="33.64" xlink:href="#mb530dea681" y="75.352"/>
      </g>
     </g>
     <g id="text_11">
      <!-- 0.8 -->
      <g transform="translate(10.736875 79.151219)scale(0.1 -0.1)">
       <use xlink:href="#DejaVuSans-48"/>
       <use x="63.623047" xlink:href="#DejaVuSans-46"/>
       <use x="95.410156" xlink:href="#DejaVuSans-56"/>
      </g>
     </g>
    </g>
    <g id="ytick_6">
     <g id="line2d_12">
      <g>
       <use style="stroke:#000000;stroke-width:0.8;" x="33.64" xlink:href="#mb530dea681" y="14.76"/>
      </g>
     </g>
     <g id="text_12">
      <!-- 1.0 -->
      <g transform="translate(10.736875 18.559219)scale(0.1 -0.1)">
       <use xlink:href="#DejaVuSans-49"/>
       <use x="63.623047" xlink:href="#DejaVuSans-46"/>
       <use x="95.410156" xlink:href="#DejaVuSans-48"/>
      </g>
     </g>
    </g>
   </g>
   <g id="patch_3">
    <path d="M 33.64 317.72 
L 33.64 14.76 
" style="fill:none;stroke:#000000;stroke-linecap:square;stroke-linejoin:miter;stroke-width:0.8;"/>
   </g>
   <g id="patch_4">
    <path d="M 403.54 317.72 
L 403.54 14.76 
" style="fill:none;stroke:#000000;stroke-linecap:square;stroke-linejoin:miter;stroke-width:0.8;"/>
   </g>
   <g id="patch_5">
    <path d="M 33.64 317.72 
L 403.54 317.72 
" style="fill:none;stroke:#000000;stroke-linecap:square;stroke-linejoin:miter;stroke-width:0.8;"/>
   </g>
   <g id="patch_6">
    <path d="M 33.64 14.76 
L 403.54 14.76 
" style="fill:none;stroke:#000000;stroke-linecap:square;stroke-linejoin:miter;stroke-width:0.8;"/>
   </g>
  </g>
  <g id="axes_2">
   <g id="matplotlib.axis_3">
    <g id="ytick_7">
     <g id="line2d_13">
      <defs>
       <path d="M 0 0 
L 3.5 0 
" id="m509fcd3234" style="stroke:#000000;stroke-width:0.8;"/>
      </defs>
      <g>
       <use style="stroke:#000000;stroke-width:0.8;" x="403.54" xlink:href="#m509fcd3234" y="317.72"/>
      </g>
     </g>
     <g id="text_13">
      <!-- 0 -->
      <g transform="translate(410.54 321.519219)scale(0.1 -0.1)">
       <use xlink:href="#DejaVuSans-48"/>
      </g>
     </g>
    </g>
    <g id="ytick_8">
     <g id="line2d_14">
      <g>
       <use style="stroke:#000000;stroke-width:0.8;" x="403.54" xlink:href="#m509fcd3234" y="257.128"/>
      </g>
     </g>
     <g id="text_14">
      <!-- 2000 -->
      <g transform="translate(410.54 260.927219)scale(0.1 -0.1)">
       <use xlink:href="#DejaVuSans-50"/>
       <use x="63.623047" xlink:href="#DejaVuSans-48"/>
       <use x="127.246094" xlink:href="#DejaVuSans-48"/>
       <use x="190.869141" xlink:href="#DejaVuSans-48"/>
      </g>
     </g>
    </g>
    <g id="ytick_9">
     <g id="line2d_15">
      <g>
       <use style="stroke:#000000;stroke-width:0.8;" x="403.54" xlink:href="#m509fcd3234" y="196.536"/>
      </g>
     </g>
     <g id="text_15">
      <!-- 4000 -->
      <g transform="translate(410.54 200.335219)scale(0.1 -0.1)">
       <use xlink:href="#DejaVuSans-52"/>
       <use x="63.623047" xlink:href="#DejaVuSans-48"/>
       <use x="127.246094" xlink:href="#DejaVuSans-48"/>
       <use x="190.869141" xlink:href="#DejaVuSans-48"/>
      </g>
     </g>
    </g>
    <g id="ytick_10">
     <g id="line2d_16">
      <g>
       <use style="stroke:#000000;stroke-width:0.8;" x="403.54" xlink:href="#m509fcd3234" y="135.944"/>
      </g>
     </g>
     <g id="text_16">
      <!-- 6000 -->
      <g transform="translate(410.54 139.743219)scale(0.1 -0.1)">
       <use xlink:href="#DejaVuSans-54"/>
       <use x="63.623047" xlink:href="#DejaVuSans-48"/>
       <use x="127.246094" xlink:href="#DejaVuSans-48"/>
       <use x="190.869141" xlink:href="#DejaVuSans-48"/>
      </g>
     </g>
    </g>
    <g id="ytick_11">
     <g id="line2d_17">
      <g>
       <use style="stroke:#000000;stroke-width:0.8;" x="403.54" xlink:href="#m509fcd3234" y="75.352"/>
      </g>
     </g>
     <g id="text_17">
      <!-- 8000 -->
      <g transform="translate(410.54 79.151219)scale(0.1 -0.1)">
       <use xlink:href="#DejaVuSans-56"/>
       <use x="63.623047" xlink:href="#DejaVuSans-48"/>
       <use x="127.246094" xlink:href="#DejaVuSans-48"/>
       <use x="190.869141" xlink:href="#DejaVuSans-48"/>
      </g>
     </g>
    </g>
    <g id="ytick_12">
     <g id="line2d_18">
      <g>
       <use style="stroke:#000000;stroke-width:0.8;" x="403.54" xlink:href="#m509fcd3234" y="14.76"/>
      </g>
     </g>
     <g id="text_18">
      <!-- 10000 -->
      <g transform="translate(410.54 18.559219)scale(0.1 -0.1)">
       <use xlink:href="#DejaVuSans-49"/>
       <use x="63.623047" xlink:href="#DejaVuSans-48"/>
       <use x="127.246094" xlink:href="#DejaVuSans-48"/>
       <use x="190.869141" xlink:href="#DejaVuSans-48"/>
       <use x="254.492188" xlink:href="#DejaVuSans-48"/>
      </g>
     </g>
    </g>
    <g id="text_19">
     <!-- size -->
     <defs>
      <path d="M 44.28125 53.078125 
L 44.28125 44.578125 
Q 40.484375 46.53125 36.375 47.5 
Q 32.28125 48.484375 27.875 48.484375 
Q 21.1875 48.484375 17.84375 46.4375 
Q 14.5 44.390625 14.5 40.28125 
Q 14.5 37.15625 16.890625 35.375 
Q 19.28125 33.59375 26.515625 31.984375 
L 29.59375 31.296875 
Q 39.15625 29.25 43.1875 25.515625 
Q 47.21875 21.78125 47.21875 15.09375 
Q 47.21875 7.46875 41.1875 3.015625 
Q 35.15625 -1.421875 24.609375 -1.421875 
Q 20.21875 -1.421875 15.453125 -0.5625 
Q 10.6875 0.296875 5.421875 2 
L 5.421875 11.28125 
Q 10.40625 8.6875 15.234375 7.390625 
Q 20.0625 6.109375 24.8125 6.109375 
Q 31.15625 6.109375 34.5625 8.28125 
Q 37.984375 10.453125 37.984375 14.40625 
Q 37.984375 18.0625 35.515625 20.015625 
Q 33.0625 21.96875 24.703125 23.78125 
L 21.578125 24.515625 
Q 13.234375 26.265625 9.515625 29.90625 
Q 5.8125 33.546875 5.8125 39.890625 
Q 5.8125 47.609375 11.28125 51.796875 
Q 16.75 56 26.8125 56 
Q 31.78125 56 36.171875 55.265625 
Q 40.578125 54.546875 44.28125 53.078125 
z
" id="DejaVuSans-115"/>
      <path d="M 9.421875 54.6875 
L 18.40625 54.6875 
L 18.40625 0 
L 9.421875 0 
z
M 9.421875 75.984375 
L 18.40625 75.984375 
L 18.40625 64.59375 
L 9.421875 64.59375 
z
" id="DejaVuSans-105"/>
      <path d="M 5.515625 54.6875 
L 48.1875 54.6875 
L 48.1875 46.484375 
L 14.40625 7.171875 
L 48.1875 7.171875 
L 48.1875 0 
L 4.296875 0 
L 4.296875 8.203125 
L 38.09375 47.515625 
L 5.515625 47.515625 
z
" id="DejaVuSans-122"/>
      <path d="M 56.203125 29.59375 
L 56.203125 25.203125 
L 14.890625 25.203125 
Q 15.484375 15.921875 20.484375 11.0625 
Q 25.484375 6.203125 34.421875 6.203125 
Q 39.59375 6.203125 44.453125 7.46875 
Q 49.3125 8.734375 54.109375 11.28125 
L 54.109375 2.78125 
Q 49.265625 0.734375 44.1875 -0.34375 
Q 39.109375 -1.421875 33.890625 -1.421875 
Q 20.796875 -1.421875 13.15625 6.1875 
Q 5.515625 13.8125 5.515625 26.8125 
Q 5.515625 40.234375 12.765625 48.109375 
Q 20.015625 56 32.328125 56 
Q 43.359375 56 49.78125 48.890625 
Q 56.203125 41.796875 56.203125 29.59375 
z
M 47.21875 32.234375 
Q 47.125 39.59375 43.09375 43.984375 
Q 39.0625 48.390625 32.421875 48.390625 
Q 24.90625 48.390625 20.390625 44.140625 
Q 15.875 39.890625 15.1875 32.171875 
z
" id="DejaVuSans-101"/>
     </defs>
     <g transform="translate(453.950937 175.934531)rotate(-90)scale(0.1 -0.1)">
      <use xlink:href="#DejaVuSans-115"/>
      <use x="52.099609" xlink:href="#DejaVuSans-105"/>
      <use x="79.882812" xlink:href="#DejaVuSans-122"/>
      <use x="132.373047" xlink:href="#DejaVuSans-101"/>
     </g>
    </g>
   </g>
   <g id="line2d_19">
    <path clip-path="url(#pf2336dbe74)" d="M 33.64 255.673792 
L 33.86194 254.0984 
L 34.12087 252.250344 
L 34.26883 251.280872 
L 34.30582 251.402056 
L 34.3798 251.099096 
L 34.45378 251.22028 
L 34.49077 251.250576 
L 34.67572 250.644656 
L 34.71271 250.553768 
L 34.7497 250.826432 
L 34.78669 250.46288 
L 34.86067 250.038736 
L 34.89766 250.432584 
L 34.93465 250.493176 
L 35.04562 250.15992 
L 35.15659 251.159688 
L 35.19358 250.977912 
L 35.26756 251.22028 
L 35.45251 250.281104 
L 35.71144 251.735312 
L 35.8594 251.099096 
L 35.89639 251.038504 
L 36.11833 252.068568 
L 36.2293 251.492944 
L 36.34027 252.159456 
L 36.37726 252.038272 
L 36.52522 252.462416 
L 36.63619 251.67472 
L 36.74716 251.8262 
L 36.82114 251.765608 
L 36.9691 252.644192 
L 37.00609 252.977448 
L 37.08007 252.644192 
L 37.26502 252.28064 
L 37.41298 251.765608 
L 37.81987 253.916624 
L 37.89385 253.856032 
L 37.93084 253.916624 
L 38.04181 252.977448 
L 38.11579 253.371296 
L 38.26375 254.674024 
L 38.48569 256.612968 
L 38.52268 256.946224 
L 38.59666 256.764448 
L 38.67064 256.340304 
L 38.74462 256.643264 
L 38.96656 257.673328 
L 39.00355 257.400664 
L 39.04054 257.673328 
L 39.1885 258.703392 
L 39.22549 258.49132 
L 39.26248 258.551912 
L 39.29947 258.430728 
L 39.44743 259.763752 
L 39.48442 259.612272 
L 39.9283 262.27832 
L 39.96529 262.308616 
L 40.18723 263.581048 
L 40.52014 264.611112 
L 40.55713 264.459632 
L 40.59412 264.762592 
L 40.63111 264.671704 
L 40.6681 264.792888 
L 40.74208 264.732296 
L 40.77907 264.671704 
L 40.85305 265.00496 
L 40.89004 264.883776 
L 41.00101 264.762592 
L 41.07499 265.00496 
L 41.22295 264.126376 
L 41.25994 264.217264 
L 41.29693 263.914304 
L 41.37091 264.156672 
L 41.4079 264.005192 
L 41.70382 266.004728 
L 41.74081 265.974432 
L 41.96275 267.186272 
L 41.99974 267.155976 
L 42.1477 266.640944 
L 42.33265 267.610416 
L 42.36964 267.398344 
L 42.40663 267.640712 
L 42.96148 270.397648 
L 43.07245 270.034096 
L 43.2574 271.306528 
L 43.29439 271.21564 
L 43.33138 271.003568 
L 43.40536 271.124752 
L 43.6273 271.730672 
L 43.66429 271.639784 
L 43.70128 271.458008 
L 43.92322 272.851624 
L 44.07118 273.609024 
L 44.10817 273.548432 
L 44.18215 273.275768 
L 44.29312 273.7908 
L 44.33011 273.669616 
L 44.3671 273.7908 
L 44.40409 273.699912 
L 44.55205 272.912216 
L 44.58904 272.972808 
L 44.77399 273.94228 
L 44.81098 274.063464 
L 44.84797 273.911984 
L 44.88496 273.518136 
L 44.92195 273.972576 
L 44.95894 273.851392 
L 45.1069 274.69968 
L 45.14389 274.669384 
L 45.25486 275.547968 
L 45.29185 275.3056 
L 45.32884 275.245008 
L 45.51379 276.426552 
L 45.55078 276.426552 
L 45.62476 276.275072 
L 45.69874 276.911288 
L 45.80971 277.789872 
L 45.8467 278.062536 
L 45.88369 277.941352 
L 45.92068 277.668688 
L 45.99466 277.789872 
L 46.03165 277.941352 
L 46.06864 277.638392 
L 46.10563 277.88076 
L 46.14262 277.547504 
L 46.17961 278.03224 
L 46.2166 277.759576 
L 46.29058 277.941352 
L 46.32757 278.123128 
L 46.36456 278.03224 
L 46.40155 277.88076 
L 46.43854 278.062536 
L 46.51252 278.819936 
L 46.5865 278.78964 
L 46.62349 278.819936 
L 46.69747 278.577568 
L 46.84543 279.274376 
L 47.25232 280.698288 
L 47.28931 281.122432 
L 47.36329 280.940656 
L 47.40028 280.546808 
L 47.43727 280.789176 
L 47.58523 281.940424 
L 47.65921 281.81924 
L 47.6962 281.728352 
L 47.77018 281.758648 
L 47.91814 282.182792 
L 47.95513 282.364568 
L 48.02911 282.243384 
L 48.0661 282.061608 
L 48.10309 282.334272 
L 48.17707 282.334272 
L 48.28804 282.970488 
L 48.32503 282.72812 
L 48.36202 282.758416 
L 48.91687 285.121504 
L 48.95386 285.060912 
L 49.21279 286.242456 
L 49.28677 286.000088 
L 49.32376 286.090976 
L 49.39774 285.848608 
L 49.47172 286.424232 
L 49.50871 286.454528 
L 49.73065 288.575248 
L 49.9156 289.484128 
L 49.95259 289.39324 
L 49.98958 289.6962 
L 50.06356 289.423536 
L 50.13754 289.514424 
L 50.21152 289.938568 
L 50.24851 289.817384 
L 50.2855 289.84768 
L 50.35948 290.30212 
L 50.39647 290.211232 
L 50.50744 289.817384 
L 50.47045 290.241528 
L 50.54443 289.877976 
L 50.69239 290.483896 
L 50.72938 290.393008 
L 50.80336 290.938336 
L 50.84035 290.817152 
L 50.98831 289.908272 
L 51.0253 290.4536 
L 51.09928 290.332416 
L 51.17326 290.483896 
L 51.24724 290.695968 
L 51.28423 290.514192 
L 51.32122 290.362712 
L 51.35821 290.574784 
L 51.69112 292.089584 
L 51.72811 291.938104 
L 51.7651 291.9684 
L 51.80209 291.756328 
L 51.83908 292.089584 
L 52.39393 295.815992 
L 52.43092 295.90688 
L 52.68985 298.209376 
L 52.76383 298.088192 
L 52.80082 298.148784 
L 53.17072 300.208912 
L 53.20771 300.178616 
L 53.65159 302.844664 
L 53.68858 302.572 
L 53.72557 302.935552 
L 53.79955 302.784072 
L 54.09547 304.723016 
L 54.13246 304.723016 
L 54.31741 306.389296 
L 54.39139 307.540544 
L 54.46537 307.41936 
L 54.50236 306.96492 
L 54.57634 307.328472 
L 54.83527 308.752384 
L 54.90925 309.025048 
L 55.16818 311.05488 
L 55.20517 311.024584 
L 55.24216 310.812512 
L 55.27915 310.933696 
L 55.64905 314.38744 
L 55.79701 315.90224 
L 55.87099 316.750528 
L 55.87099 316.750528 
" style="fill:none;stroke:#1f77b4;stroke-linecap:square;stroke-width:1.5;"/>
   </g>
   <g id="line2d_20">
    <path clip-path="url(#pf2336dbe74)" d="M 33.64 255.643496 
L 33.67699 255.492016 
L 33.82495 254.522544 
L 34.45378 251.341464 
L 34.49077 251.553536 
L 34.52776 251.492944 
L 34.56475 251.008208 
L 34.60174 251.52324 
L 34.63873 251.311168 
L 34.67572 251.0688 
L 34.71271 251.402056 
L 34.82368 251.038504 
L 35.00863 250.735544 
L 35.1196 250.523472 
L 35.15659 250.3114 
L 35.19358 250.523472 
L 35.34154 250.947616 
L 35.4895 251.280872 
L 35.63746 250.91732 
L 35.78542 251.765608 
L 35.97037 251.22028 
L 36.08134 252.098864 
L 36.41425 254.310472 
L 36.48823 254.189288 
L 37.11706 257.249184 
L 37.19104 257.128 
L 37.30201 256.734152 
L 37.37599 257.128 
L 37.44997 256.643264 
L 37.48696 256.794744 
L 37.63492 257.158296 
L 37.67191 257.249184 
L 37.81987 258.097472 
L 37.89385 258.158064 
L 37.93084 258.400432 
L 37.96783 258.127768 
L 38.00482 257.8854 
L 38.04181 258.03688 
L 38.55967 260.915 
L 38.70763 261.581512 
L 38.74462 261.52092 
L 38.78161 261.551216 
L 38.92957 262.248024 
L 38.96656 262.005656 
L 39.00355 262.338912 
L 39.04054 262.4298 
L 39.07753 262.27832 
L 39.15151 261.793584 
L 39.1885 262.157136 
L 39.22549 262.217728 
L 39.26248 262.035952 
L 39.33646 262.217728 
L 39.44743 263.520456 
L 39.52141 263.33868 
L 39.70636 263.671936 
L 39.78034 263.79312 
L 39.85432 263.308384 
L 39.89131 263.1872 
L 39.9283 263.368976 
L 40.00228 263.581048 
L 40.07626 262.763056 
L 40.15024 262.975128 
L 40.55713 266.2168 
L 40.70509 266.9742 
L 40.77907 266.36828 
L 40.81606 266.731832 
L 41.00101 267.792192 
L 41.038 267.610416 
L 41.07499 267.852784 
L 41.11198 267.822488 
L 41.44489 269.09492 
L 41.48188 269.034328 
L 41.51887 269.185808 
L 41.62984 269.640248 
L 41.66683 269.367584 
L 41.7778 270.549128 
L 41.81479 270.488536 
L 41.92576 270.7612 
L 41.99974 270.670312 
L 42.07372 270.397648 
L 42.11071 270.549128 
L 42.1477 270.094688 
L 42.22168 270.337056 
L 42.40663 271.397416 
L 42.48061 271.488304 
L 42.55459 271.245936 
L 42.59158 271.155048 
L 42.77653 272.457776 
L 42.81352 272.033632 
L 42.8875 272.336592 
L 43.07245 273.0334 
L 43.33138 274.881456 
L 43.36837 274.820864 
L 43.55332 276.063 
L 43.59031 275.76004 
L 43.66429 275.820632 
L 43.77526 276.36596 
L 43.81225 276.335664 
L 43.84924 276.002408 
L 43.92322 276.123592 
L 43.96021 276.184184 
L 44.21914 277.789872 
L 44.25613 277.72928 
L 44.55205 279.728816 
L 44.58904 279.728816 
L 44.62603 280.395328 
L 44.66302 280.031776 
L 44.70001 279.69852 
L 44.77399 280.00148 
L 44.95894 280.91036 
L 45.03292 280.789176 
L 45.06991 281.122432 
L 45.14389 280.940656 
L 45.18088 280.940656 
L 45.32884 282.152496 
L 45.36583 282.1222 
L 45.40282 281.728352 
L 45.43981 282.152496 
L 45.4768 281.97072 
L 45.62476 282.849304 
L 45.66175 282.485752 
L 45.73573 282.516048 
L 45.99466 284.121736 
L 46.06864 284.061144 
L 46.10563 284.000552 
L 46.14262 284.061144 
L 46.25359 284.606472 
L 46.29058 284.364104 
L 46.32757 284.727656 
L 46.77145 286.696896 
L 46.91941 288.060216 
L 47.06737 287.514888 
L 47.10436 287.545184 
L 47.17834 287.302816 
L 47.21533 287.636072 
L 47.28931 287.363408 
L 47.36329 286.848376 
L 47.40028 287.333112 
L 47.43727 287.605776 
L 47.47426 287.181632 
L 47.51125 287.393704 
L 47.73319 289.029688 
L 47.80717 288.878208 
L 47.88115 289.272056 
L 47.99212 288.575248 
L 48.02911 288.726728 
L 48.436 291.453368 
L 48.47299 291.423072 
L 48.76891 293.240832 
L 48.8059 292.998464 
L 48.84289 293.089352 
L 49.06483 294.755632 
L 49.10182 294.573856 
L 49.13881 294.634448 
L 49.21279 295.331256 
L 49.24978 295.028296 
L 49.39774 295.937176 
L 49.47172 295.90688 
L 49.50871 295.725104 
L 49.5457 295.90688 
L 50.06356 299.330328 
L 50.17453 299.148552 
L 50.2855 299.875656 
L 50.32249 299.724176 
L 50.61841 300.208912 
L 50.69239 299.815064 
L 50.91433 301.329864 
L 50.95132 301.329864 
L 50.98831 301.481344 
L 51.0253 300.90572 
L 51.09928 300.966312 
L 51.35821 302.541704 
L 51.54316 303.48088 
L 51.61714 303.299104 
L 51.65413 303.238512 
L 52.09801 305.843968 
L 52.57888 310.44896 
L 52.61587 310.388368 
L 52.91179 313.387672 
L 53.05975 314.660104 
L 53.13373 316.902008 
L 53.13373 316.902008 
" style="fill:none;stroke:#ff7f0e;stroke-linecap:square;stroke-width:1.5;"/>
   </g>
   <g id="line2d_21">
    <path clip-path="url(#pf2336dbe74)" d="M 33.64 255.673792 
L 33.86194 254.613432 
L 34.04689 253.18952 
L 34.08388 253.098632 
L 34.12087 253.371296 
L 34.19485 253.159224 
L 34.26883 252.825968 
L 34.30582 252.88656 
L 34.3798 253.159224 
L 34.41679 252.825968 
L 34.49077 252.947152 
L 34.67572 252.613896 
L 34.7497 253.098632 
L 34.78669 252.704784 
L 34.86067 251.705016 
L 34.93465 251.856496 
L 35.04562 252.5836 
L 35.15659 252.12916 
L 35.34154 253.128928 
L 35.37853 252.916856 
L 35.41552 253.159224 
L 35.4895 253.098632 
L 35.56348 253.553072 
L 35.71144 254.431656 
L 35.78542 254.734616 
L 35.82241 254.55284 
L 35.8594 254.461952 
L 35.89639 254.583136 
L 36.89512 257.8854 
L 36.9691 258.461024 
L 37.00609 258.279248 
L 37.15405 257.643032 
L 37.30201 258.370136 
L 37.48696 259.127536 
L 37.56094 259.309312 
L 37.59793 259.218424 
L 37.67191 258.976056 
L 37.81987 259.672864 
L 37.93084 259.066944 
L 37.96783 259.09724 
L 38.18977 260.581744 
L 38.22676 260.066712 
L 38.26375 260.036416 
L 38.41171 260.702928 
L 38.48569 260.945296 
L 38.52268 260.854408 
L 38.55967 260.61204 
L 38.59666 261.036184 
L 38.78161 262.096544 
L 38.8186 261.854176 
L 38.89258 261.97536 
L 39.15151 263.611344 
L 39.1885 263.581048 
L 39.22549 263.278088 
L 39.29947 263.459864 
L 39.44743 263.853712 
L 39.48442 263.732528 
L 39.52141 263.823416 
L 39.70636 265.095848 
L 40.00228 267.216568 
L 40.37218 269.85232 
L 40.48315 269.912912 
L 40.6681 270.730904 
L 40.70509 270.45824 
L 40.74208 270.640016 
L 41.00101 271.97304 
L 41.14897 270.91268 
L 41.18596 271.245936 
L 41.22295 271.276232 
L 41.4079 272.245704 
L 41.44489 272.306296 
L 41.62984 273.275768 
L 41.81479 273.7908 
L 41.85178 273.396952 
L 41.88877 273.548432 
L 42.1477 275.3056 
L 42.25867 274.942048 
L 42.48061 276.487144 
L 42.5176 276.487144 
L 42.8875 277.42632 
L 42.99847 277.214248 
L 43.07245 277.305136 
L 43.33138 278.698752 
L 43.36837 278.456384 
L 43.55332 279.516744 
L 43.77526 280.516512 
L 44.03419 282.031312 
L 44.07118 282.667528 
L 44.14516 282.606936 
L 44.18215 282.394864 
L 44.21914 282.72812 
L 44.25613 282.72812 
L 44.33011 283.212856 
L 44.40409 284.030848 
L 44.47807 283.697592 
L 44.51506 283.121968 
L 44.58904 283.394632 
L 44.66302 283.212856 
L 44.737 283.849072 
L 44.77399 283.576408 
L 44.81098 283.394632 
L 44.84797 283.697592 
L 44.99593 284.09144 
L 45.03292 283.970256 
L 45.1069 284.030848 
L 45.62476 286.727192 
L 45.73573 286.636304 
L 45.77272 286.424232 
L 45.80971 286.575712 
L 45.99466 287.12104 
L 46.03165 286.787784 
L 46.06864 286.848376 
L 46.10563 287.242224 
L 46.14262 286.81808 
L 46.17961 286.787784 
L 46.2166 286.393936 
L 46.25359 286.757488 
L 46.43854 288.151104 
L 46.47553 288.060216 
L 46.51252 288.211696 
L 46.54951 288.272288 
L 46.62349 288.02992 
L 46.66048 288.1814 
L 47.03038 289.968864 
L 47.3263 290.635376 
L 47.43727 291.332184 
L 47.54824 290.635376 
L 47.6962 291.150408 
L 47.95513 292.665208 
L 48.0661 292.180472 
L 48.28804 293.78616 
L 48.36202 293.452904 
L 48.39901 293.725568 
L 48.58396 294.119416 
L 48.62095 293.846752 
L 48.65794 294.301192 
L 48.91687 295.634216 
L 49.02784 295.058592 
L 49.06483 295.240368 
L 49.28677 296.270432 
L 49.32376 295.997768 
L 49.36075 296.331024 
L 49.80463 298.603224 
L 50.02657 299.572696 
L 50.06356 299.23944 
L 50.24851 301.117792 
L 50.35948 300.45128 
L 50.43346 300.481576 
L 50.47045 300.511872 
L 50.72938 302.965848 
L 50.76637 302.632592 
L 50.80336 303.087032 
L 50.98831 303.965616 
L 51.0253 303.723248 
L 51.09928 303.874728 
L 51.13627 303.965616 
L 51.17326 303.753544 
L 51.21025 303.844432 
L 51.35821 304.38976 
L 51.3952 304.632128 
L 51.46918 304.571536 
L 51.50617 304.54124 
L 51.69112 305.874264 
L 51.7651 306.116632 
L 51.80209 305.783376 
L 51.87607 305.843968 
L 52.5049 310.630736 
L 52.54189 310.60044 
L 52.94878 313.78152 
L 52.98577 313.690632 
L 53.02276 313.599744 
L 53.39266 317.659408 
L 53.39266 317.659408 
" style="fill:none;stroke:#2ca02c;stroke-linecap:square;stroke-width:1.5;"/>
   </g>
   <g id="line2d_22">
    <path clip-path="url(#pf2336dbe74)" d="M 33.64 255.673792 
L 33.93592 253.462184 
L 33.97291 253.49248 
L 34.45378 249.614592 
L 34.52776 249.735776 
L 34.67572 250.493176 
L 34.71271 250.402288 
L 34.7497 250.341696 
L 34.78669 250.493176 
L 34.82368 250.402288 
L 35.04562 252.28064 
L 35.08261 252.189752 
L 35.1196 252.28064 
L 35.15659 252.765376 
L 35.23057 252.674488 
L 35.26756 252.704784 
L 35.30455 252.613896 
L 35.34154 252.492712 
L 35.45251 253.03804 
L 35.56348 252.73508 
L 35.71144 253.49248 
L 35.78542 253.098632 
L 35.82241 253.613664 
L 35.89639 253.431888 
L 35.93338 253.219816 
L 35.97037 253.371296 
L 36.04435 253.583368 
L 36.08134 253.553072 
L 36.37726 252.977448 
L 36.48823 253.522776 
L 36.52522 253.250112 
L 36.56221 253.341 
L 36.5992 253.128928 
L 36.67318 253.341 
L 36.85813 254.128696 
L 36.89512 253.977216 
L 37.15405 255.6132 
L 37.19104 255.704088 
L 37.22803 255.673792 
L 37.26502 255.46172 
L 37.30201 255.885864 
L 37.48696 256.552376 
L 37.63492 258.279248 
L 37.67191 257.764216 
L 37.7089 257.612736 
L 37.74589 257.855104 
L 37.93084 258.915464 
L 37.96783 258.49132 
L 38.0788 258.158064 
L 38.22676 258.521616 
L 38.30074 258.067176 
L 38.33773 258.370136 
L 38.48569 258.763984 
L 38.52268 258.733688 
L 38.59666 258.582208 
L 38.70763 259.127536 
L 38.74462 259.066944 
L 38.78161 259.09724 
L 38.96656 259.915232 
L 39.00355 259.733456 
L 39.04054 259.612272 
L 39.07753 260.066712 
L 39.11452 259.672864 
L 39.15151 259.521384 
L 39.1885 259.763752 
L 39.59539 262.035952 
L 39.63238 261.854176 
L 39.70636 261.399736 
L 39.78034 261.581512 
L 39.81733 261.97536 
L 39.85432 261.581512 
L 39.89131 261.551216 
L 39.9283 261.308848 
L 39.96529 261.763288 
L 40.15024 262.763056 
L 40.18723 262.641872 
L 40.52014 264.792888 
L 40.55713 264.732296 
L 40.59412 264.944368 
L 40.6681 264.792888 
L 40.70509 264.308152 
L 40.77907 264.55052 
L 40.96402 265.429104 
L 41.00101 265.368512 
L 41.4079 268.064856 
L 41.44489 267.913376 
L 41.48188 268.155744 
L 41.74081 270.337056 
L 41.81479 270.215872 
L 41.85178 270.30676 
L 41.88877 270.15528 
L 41.92576 270.246168 
L 41.96275 270.15528 
L 42.40663 272.609256 
L 42.44362 272.548664 
L 42.48061 272.700144 
L 42.73954 273.669616 
L 42.85051 273.669616 
L 42.92449 274.002872 
L 42.99847 273.911984 
L 43.10944 273.730208 
L 43.18342 274.336128 
L 43.2574 274.305832 
L 43.29439 274.24524 
L 43.36837 273.881688 
L 43.59031 275.123824 
L 43.6273 275.032936 
L 43.66429 275.063232 
L 43.77526 275.45708 
L 43.88623 275.00264 
L 43.92322 275.123824 
L 44.10817 276.153888 
L 44.25613 276.063 
L 44.29312 275.941816 
L 44.33011 276.093296 
L 44.70001 277.183952 
L 44.84797 278.062536 
L 44.88496 278.092832 
L 45.06991 278.668456 
L 45.18088 278.971416 
L 45.21787 278.910824 
L 45.40282 280.546808 
L 45.43981 280.45592 
L 45.4768 280.45592 
L 46.17961 284.152032 
L 46.25359 283.697592 
L 46.32757 283.818776 
L 46.36456 283.93996 
L 46.47553 283.424928 
L 46.69747 285.00032 
L 46.77145 284.970024 
L 46.80844 285.424464 
L 46.91941 285.939496 
L 46.9564 285.818312 
L 46.99339 285.727424 
L 47.25232 287.242224 
L 47.28931 287.211928 
L 47.47426 288.33288 
L 47.54824 288.302584 
L 47.58523 288.48436 
L 47.6962 288.423768 
L 47.91814 289.6962 
L 47.95513 289.938568 
L 47.99212 289.453832 
L 48.02911 289.635608 
L 48.0661 289.272056 
L 48.10309 289.272056 
L 48.17707 289.817384 
L 48.28804 289.575016 
L 48.36202 289.484128 
L 48.39901 289.575016 
L 48.436 289.665904 
L 48.47299 290.090048 
L 48.54697 289.908272 
L 48.58396 289.877976 
L 48.65794 290.483896 
L 48.73192 290.4536 
L 48.87988 290.75656 
L 48.95386 290.4536 
L 48.99085 290.574784 
L 49.10182 291.36248 
L 49.13881 291.301888 
L 49.1758 290.998928 
L 49.21279 291.150408 
L 49.47172 293.4832 
L 49.73065 295.179776 
L 49.76764 295.14948 
L 49.95259 295.815992 
L 49.98958 295.45244 
L 50.02657 295.876584 
L 50.17453 296.846056 
L 50.24851 297.72464 
L 50.2855 297.451976 
L 50.32249 297.179312 
L 50.35948 297.2702 
L 50.61841 299.39092 
L 50.6554 299.300032 
L 50.95132 300.814832 
L 50.98831 300.723944 
L 51.06229 300.60276 
L 51.13627 300.966312 
L 51.17326 300.936016 
L 51.28423 300.481576 
L 51.54316 301.996376 
L 51.98704 304.420056 
L 52.02403 304.147392 
L 52.06102 304.38976 
L 52.20898 305.419824 
L 52.24597 305.389528 
L 52.31995 305.692488 
L 52.5049 307.176992 
L 53.2447 317.659408 
L 53.2447 317.659408 
" style="fill:none;stroke:#d62728;stroke-linecap:square;stroke-width:1.5;"/>
   </g>
   <g id="line2d_23">
    <path clip-path="url(#pf2336dbe74)" d="M 33.64 255.704088 
L 33.89893 253.94692 
L 33.93592 254.037808 
L 34.15786 252.553304 
L 34.26883 252.613896 
L 34.34281 252.523008 
L 34.45378 252.88656 
L 34.56475 251.917088 
L 34.60174 252.007976 
L 34.71271 252.43212 
L 34.93465 251.159688 
L 35.15659 252.250344 
L 35.30455 251.856496 
L 35.34154 251.886792 
L 35.4895 252.644192 
L 35.52649 252.553304 
L 35.60047 251.917088 
L 35.63746 251.947384 
L 35.71144 252.341232 
L 35.74843 252.159456 
L 36.08134 253.522776 
L 36.11833 253.462184 
L 36.19231 252.947152 
L 36.2293 253.068336 
L 36.63619 254.522544 
L 36.67318 254.280176 
L 36.71017 254.55284 
L 36.74716 254.492248 
L 36.82114 254.795208 
L 36.85813 254.55284 
L 36.89512 254.431656 
L 37.04308 255.219352 
L 37.15405 255.522312 
L 37.11706 255.128464 
L 37.22803 255.46172 
L 37.26502 255.401128 
L 37.30201 255.552608 
L 37.59793 256.915928 
L 37.63492 256.855336 
L 37.67191 256.946224 
L 37.81987 257.249184 
L 37.85686 257.006816 
L 37.89385 257.218888 
L 37.96783 257.824808 
L 38.0788 257.73392 
L 38.11579 257.552144 
L 38.26375 258.309544 
L 38.30074 258.309544 
L 38.37472 258.673096 
L 38.48569 259.309312 
L 38.52268 259.24872 
L 38.55967 259.279016 
L 38.67064 260.793816 
L 38.70763 260.733224 
L 38.8186 260.642336 
L 39.00355 259.85464 
L 39.04054 259.975824 
L 39.07753 260.066712 
L 39.11452 259.945528 
L 39.15151 259.794048 
L 39.1885 259.945528 
L 39.33646 261.005888 
L 39.37345 260.824112 
L 39.41044 260.945296 
L 39.44743 260.824112 
L 39.48442 260.733224 
L 39.66937 261.460328 
L 39.70636 261.157368 
L 39.78034 261.339144 
L 39.81733 261.278552 
L 39.85432 261.430032 
L 39.96529 261.884472 
L 40.03927 261.21796 
L 40.07626 261.339144 
L 40.15024 261.763288 
L 40.22422 261.611808 
L 40.2982 262.12684 
L 40.52014 263.217496 
L 40.55713 263.066016 
L 40.59412 263.096312 
L 40.74208 263.49016 
L 40.77907 263.217496 
L 40.81606 263.550752 
L 40.92703 263.702232 
L 41.07499 264.732296 
L 41.25994 265.4594 
L 41.29693 265.217032 
L 41.33392 265.489696 
L 41.37091 265.429104 
L 41.51887 265.398808 
L 41.55586 265.247328 
L 41.70382 266.2168 
L 41.74081 266.095616 
L 41.92576 266.853016 
L 41.99974 266.943904 
L 42.03673 267.004496 
L 42.07372 267.337752 
L 42.1477 267.12568 
L 43.03546 270.549128 
L 43.07245 270.45824 
L 43.10944 270.215872 
L 43.18342 270.246168 
L 43.44235 272.185112 
L 43.51633 272.003336 
L 43.55332 271.97304 
L 43.6273 272.457776 
L 43.66429 272.42748 
L 43.77526 272.033632 
L 43.81225 272.245704 
L 43.88623 272.639552 
L 43.96021 272.488072 
L 44.03419 272.12452 
L 44.07118 272.245704 
L 44.21914 272.821328 
L 44.25613 272.791032 
L 44.40409 273.63932 
L 44.44108 273.396952 
L 44.47807 273.851392 
L 44.51506 273.911984 
L 44.55205 273.881688 
L 44.62603 274.5482 
L 44.70001 274.517904 
L 44.88496 274.39672 
L 45.21787 276.51744 
L 45.58777 278.18372 
L 45.62476 277.789872 
L 45.66175 278.001944 
L 45.69874 278.304904 
L 45.77272 278.214016 
L 45.80971 278.153424 
L 45.88369 277.547504 
L 45.92068 277.88076 
L 46.03165 279.032008 
L 46.06864 278.971416 
L 46.10563 279.001712 
L 46.14262 279.304672 
L 46.17961 279.153192 
L 46.25359 278.3352 
L 46.32757 278.395792 
L 46.54951 279.607632 
L 46.62349 279.54704 
L 46.77145 280.122664 
L 46.80844 280.30444 
L 46.88242 280.15296 
L 46.91941 280.183256 
L 47.17834 281.273912 
L 47.28931 280.698288 
L 47.3263 280.91036 
L 47.47426 281.243616 
L 47.51125 281.879832 
L 47.58523 281.51628 
L 47.65921 281.485984 
L 47.77018 281.152728 
L 48.28804 283.152264 
L 48.36202 282.606936 
L 48.39901 283.000784 
L 48.47299 283.727888 
L 48.54697 283.515816 
L 48.8059 284.576176 
L 48.84289 284.303512 
L 48.87988 284.485288 
L 49.02784 284.879136 
L 49.06483 284.818544 
L 49.32376 286.121272 
L 49.36075 286.090976 
L 49.47172 287.151336 
L 49.50871 286.757488 
L 49.5457 286.575712 
L 49.58269 286.757488 
L 49.9156 288.575248 
L 49.98958 288.544952 
L 50.02657 288.33288 
L 50.06356 288.48436 
L 50.13754 288.423768 
L 50.69239 291.938104 
L 50.76637 292.180472 
L 50.84035 292.665208 
L 50.87734 292.301656 
L 51.0253 293.089352 
L 51.13627 293.422608 
L 51.17326 293.33172 
L 51.21025 293.513496 
L 51.24724 293.4832 
L 51.35821 293.877048 
L 51.3952 293.543792 
L 51.43219 293.967936 
L 51.61714 294.785928 
L 51.65413 294.513264 
L 51.83908 293.998232 
L 51.95005 294.180008 
L 51.98704 294.058824 
L 52.02403 294.08912 
L 52.20898 294.937408 
L 52.24597 294.725336 
L 52.39393 295.028296 
L 52.31995 294.664744 
L 52.43092 294.998 
L 52.46791 294.876816 
L 52.5049 294.998 
L 52.76383 296.633984 
L 52.80082 296.482504 
L 52.83781 296.421912 
L 52.8748 296.452208 
L 53.05975 297.754936 
L 53.35567 299.754472 
L 53.46664 299.936248 
L 53.54062 299.724176 
L 53.57761 299.754472 
L 53.76256 301.117792 
L 53.79955 300.996608 
L 53.83654 301.087496 
L 53.9845 302.026672 
L 54.05848 301.723712 
L 54.09547 301.996376 
L 54.13246 302.11756 
L 54.16945 302.056968 
L 54.20644 301.602528 
L 54.28042 302.056968 
L 54.39139 301.66312 
L 54.53935 302.147856 
L 54.65032 301.875192 
L 54.79828 302.238744 
L 54.83527 302.602296 
L 54.90925 302.26904 
L 55.0942 302.996144 
L 55.16818 302.844664 
L 55.27915 303.147624 
L 55.31614 303.02644 
L 55.39012 303.056736 
L 55.57507 303.995912 
L 55.61206 303.965616 
L 55.98196 305.268344 
L 56.01895 305.086568 
L 56.05594 305.268344 
L 56.2039 305.662192 
L 56.24089 305.207752 
L 56.31487 305.571304 
L 56.38885 305.207752 
L 56.49982 305.268344 
L 56.5738 305.6016 
L 56.61079 305.207752 
L 56.68477 305.571304 
L 56.75875 304.965384 
L 56.79574 305.207752 
L 56.83273 305.480416 
L 56.86972 305.14716 
L 56.90671 305.238048 
L 56.9437 304.632128 
L 57.01768 304.753312 
L 57.12865 304.723016 
L 57.16564 304.23828 
L 57.23962 304.601832 
L 57.38758 305.056272 
L 57.42457 304.965384 
L 57.53554 304.571536 
L 57.60952 305.086568 
L 57.64651 304.783608 
L 57.72049 304.207984 
L 57.75748 304.54124 
L 58.01641 306.237816 
L 58.0534 306.20752 
L 58.09039 306.146928 
L 58.20136 306.722552 
L 58.23835 306.480184 
L 58.27534 306.449888 
L 58.83019 312.387904 
L 58.94116 316.750528 
L 58.94116 316.750528 
" style="fill:none;stroke:#9467bd;stroke-linecap:square;stroke-width:1.5;"/>
   </g>
   <g id="patch_7">
    <path d="M 33.64 317.72 
L 33.64 14.76 
" style="fill:none;stroke:#000000;stroke-linecap:square;stroke-linejoin:miter;stroke-width:0.8;"/>
   </g>
   <g id="patch_8">
    <path d="M 403.54 317.72 
L 403.54 14.76 
" style="fill:none;stroke:#000000;stroke-linecap:square;stroke-linejoin:miter;stroke-width:0.8;"/>
   </g>
   <g id="patch_9">
    <path d="M 33.64 317.72 
L 403.54 317.72 
" style="fill:none;stroke:#000000;stroke-linecap:square;stroke-linejoin:miter;stroke-width:0.8;"/>
   </g>
   <g id="patch_10">
    <path d="M 33.64 14.76 
L 403.54 14.76 
" style="fill:none;stroke:#000000;stroke-linecap:square;stroke-linejoin:miter;stroke-width:0.8;"/>
   </g>
   <g id="text_20">
    <!-- Size history of the universe for effective cosmological constant 0.58 -->
    <defs>
     <path d="M 53.515625 70.515625 
L 53.515625 60.890625 
Q 47.90625 63.578125 42.921875 64.890625 
Q 37.9375 66.21875 33.296875 66.21875 
Q 25.25 66.21875 20.875 63.09375 
Q 16.5 59.96875 16.5 54.203125 
Q 16.5 49.359375 19.40625 46.890625 
Q 22.3125 44.4375 30.421875 42.921875 
L 36.375 41.703125 
Q 47.40625 39.59375 52.65625 34.296875 
Q 57.90625 29 57.90625 20.125 
Q 57.90625 9.515625 50.796875 4.046875 
Q 43.703125 -1.421875 29.984375 -1.421875 
Q 24.8125 -1.421875 18.96875 -0.25 
Q 13.140625 0.921875 6.890625 3.21875 
L 6.890625 13.375 
Q 12.890625 10.015625 18.65625 8.296875 
Q 24.421875 6.59375 29.984375 6.59375 
Q 38.421875 6.59375 43.015625 9.90625 
Q 47.609375 13.234375 47.609375 19.390625 
Q 47.609375 24.75 44.3125 27.78125 
Q 41.015625 30.8125 33.5 32.328125 
L 27.484375 33.5 
Q 16.453125 35.6875 11.515625 40.375 
Q 6.59375 45.0625 6.59375 53.421875 
Q 6.59375 63.09375 13.40625 68.65625 
Q 20.21875 74.21875 32.171875 74.21875 
Q 37.3125 74.21875 42.625 73.28125 
Q 47.953125 72.359375 53.515625 70.515625 
z
" id="DejaVuSans-83"/>
     <path id="DejaVuSans-32"/>
     <path d="M 54.890625 33.015625 
L 54.890625 0 
L 45.90625 0 
L 45.90625 32.71875 
Q 45.90625 40.484375 42.875 44.328125 
Q 39.84375 48.1875 33.796875 48.1875 
Q 26.515625 48.1875 22.3125 43.546875 
Q 18.109375 38.921875 18.109375 30.90625 
L 18.109375 0 
L 9.078125 0 
L 9.078125 75.984375 
L 18.109375 75.984375 
L 18.109375 46.1875 
Q 21.34375 51.125 25.703125 53.5625 
Q 30.078125 56 35.796875 56 
Q 45.21875 56 50.046875 50.171875 
Q 54.890625 44.34375 54.890625 33.015625 
z
" id="DejaVuSans-104"/>
     <path d="M 18.3125 70.21875 
L 18.3125 54.6875 
L 36.8125 54.6875 
L 36.8125 47.703125 
L 18.3125 47.703125 
L 18.3125 18.015625 
Q 18.3125 11.328125 20.140625 9.421875 
Q 21.96875 7.515625 27.59375 7.515625 
L 36.8125 7.515625 
L 36.8125 0 
L 27.59375 0 
Q 17.1875 0 13.234375 3.875 
Q 9.28125 7.765625 9.28125 18.015625 
L 9.28125 47.703125 
L 2.6875 47.703125 
L 2.6875 54.6875 
L 9.28125 54.6875 
L 9.28125 70.21875 
z
" id="DejaVuSans-116"/>
     <path d="M 30.609375 48.390625 
Q 23.390625 48.390625 19.1875 42.75 
Q 14.984375 37.109375 14.984375 27.296875 
Q 14.984375 17.484375 19.15625 11.84375 
Q 23.34375 6.203125 30.609375 6.203125 
Q 37.796875 6.203125 41.984375 11.859375 
Q 46.1875 17.53125 46.1875 27.296875 
Q 46.1875 37.015625 41.984375 42.703125 
Q 37.796875 48.390625 30.609375 48.390625 
z
M 30.609375 56 
Q 42.328125 56 49.015625 48.375 
Q 55.71875 40.765625 55.71875 27.296875 
Q 55.71875 13.875 49.015625 6.21875 
Q 42.328125 -1.421875 30.609375 -1.421875 
Q 18.84375 -1.421875 12.171875 6.21875 
Q 5.515625 13.875 5.515625 27.296875 
Q 5.515625 40.765625 12.171875 48.375 
Q 18.84375 56 30.609375 56 
z
" id="DejaVuSans-111"/>
     <path d="M 41.109375 46.296875 
Q 39.59375 47.171875 37.8125 47.578125 
Q 36.03125 48 33.890625 48 
Q 26.265625 48 22.1875 43.046875 
Q 18.109375 38.09375 18.109375 28.8125 
L 18.109375 0 
L 9.078125 0 
L 9.078125 54.6875 
L 18.109375 54.6875 
L 18.109375 46.1875 
Q 20.953125 51.171875 25.484375 53.578125 
Q 30.03125 56 36.53125 56 
Q 37.453125 56 38.578125 55.875 
Q 39.703125 55.765625 41.0625 55.515625 
z
" id="DejaVuSans-114"/>
     <path d="M 32.171875 -5.078125 
Q 28.375 -14.84375 24.75 -17.8125 
Q 21.140625 -20.796875 15.09375 -20.796875 
L 7.90625 -20.796875 
L 7.90625 -13.28125 
L 13.1875 -13.28125 
Q 16.890625 -13.28125 18.9375 -11.515625 
Q 21 -9.765625 23.484375 -3.21875 
L 25.09375 0.875 
L 2.984375 54.6875 
L 12.5 54.6875 
L 29.59375 11.921875 
L 46.6875 54.6875 
L 56.203125 54.6875 
z
" id="DejaVuSans-121"/>
     <path d="M 37.109375 75.984375 
L 37.109375 68.5 
L 28.515625 68.5 
Q 23.6875 68.5 21.796875 66.546875 
Q 19.921875 64.59375 19.921875 59.515625 
L 19.921875 54.6875 
L 34.71875 54.6875 
L 34.71875 47.703125 
L 19.921875 47.703125 
L 19.921875 0 
L 10.890625 0 
L 10.890625 47.703125 
L 2.296875 47.703125 
L 2.296875 54.6875 
L 10.890625 54.6875 
L 10.890625 58.5 
Q 10.890625 67.625 15.140625 71.796875 
Q 19.390625 75.984375 28.609375 75.984375 
z
" id="DejaVuSans-102"/>
     <path d="M 8.5 21.578125 
L 8.5 54.6875 
L 17.484375 54.6875 
L 17.484375 21.921875 
Q 17.484375 14.15625 20.5 10.265625 
Q 23.53125 6.390625 29.59375 6.390625 
Q 36.859375 6.390625 41.078125 11.03125 
Q 45.3125 15.671875 45.3125 23.6875 
L 45.3125 54.6875 
L 54.296875 54.6875 
L 54.296875 0 
L 45.3125 0 
L 45.3125 8.40625 
Q 42.046875 3.421875 37.71875 1 
Q 33.40625 -1.421875 27.6875 -1.421875 
Q 18.265625 -1.421875 13.375 4.4375 
Q 8.5 10.296875 8.5 21.578125 
z
M 31.109375 56 
z
" id="DejaVuSans-117"/>
     <path d="M 54.890625 33.015625 
L 54.890625 0 
L 45.90625 0 
L 45.90625 32.71875 
Q 45.90625 40.484375 42.875 44.328125 
Q 39.84375 48.1875 33.796875 48.1875 
Q 26.515625 48.1875 22.3125 43.546875 
Q 18.109375 38.921875 18.109375 30.90625 
L 18.109375 0 
L 9.078125 0 
L 9.078125 54.6875 
L 18.109375 54.6875 
L 18.109375 46.1875 
Q 21.34375 51.125 25.703125 53.5625 
Q 30.078125 56 35.796875 56 
Q 45.21875 56 50.046875 50.171875 
Q 54.890625 44.34375 54.890625 33.015625 
z
" id="DejaVuSans-110"/>
     <path d="M 2.984375 54.6875 
L 12.5 54.6875 
L 29.59375 8.796875 
L 46.6875 54.6875 
L 56.203125 54.6875 
L 35.6875 0 
L 23.484375 0 
z
" id="DejaVuSans-118"/>
     <path d="M 48.78125 52.59375 
L 48.78125 44.1875 
Q 44.96875 46.296875 41.140625 47.34375 
Q 37.3125 48.390625 33.40625 48.390625 
Q 24.65625 48.390625 19.8125 42.84375 
Q 14.984375 37.3125 14.984375 27.296875 
Q 14.984375 17.28125 19.8125 11.734375 
Q 24.65625 6.203125 33.40625 6.203125 
Q 37.3125 6.203125 41.140625 7.25 
Q 44.96875 8.296875 48.78125 10.40625 
L 48.78125 2.09375 
Q 45.015625 0.34375 40.984375 -0.53125 
Q 36.96875 -1.421875 32.421875 -1.421875 
Q 20.0625 -1.421875 12.78125 6.34375 
Q 5.515625 14.109375 5.515625 27.296875 
Q 5.515625 40.671875 12.859375 48.328125 
Q 20.21875 56 33.015625 56 
Q 37.15625 56 41.109375 55.140625 
Q 45.0625 54.296875 48.78125 52.59375 
z
" id="DejaVuSans-99"/>
     <path d="M 52 44.1875 
Q 55.375 50.25 60.0625 53.125 
Q 64.75 56 71.09375 56 
Q 79.640625 56 84.28125 50.015625 
Q 88.921875 44.046875 88.921875 33.015625 
L 88.921875 0 
L 79.890625 0 
L 79.890625 32.71875 
Q 79.890625 40.578125 77.09375 44.375 
Q 74.3125 48.1875 68.609375 48.1875 
Q 61.625 48.1875 57.5625 43.546875 
Q 53.515625 38.921875 53.515625 30.90625 
L 53.515625 0 
L 44.484375 0 
L 44.484375 32.71875 
Q 44.484375 40.625 41.703125 44.40625 
Q 38.921875 48.1875 33.109375 48.1875 
Q 26.21875 48.1875 22.15625 43.53125 
Q 18.109375 38.875 18.109375 30.90625 
L 18.109375 0 
L 9.078125 0 
L 9.078125 54.6875 
L 18.109375 54.6875 
L 18.109375 46.1875 
Q 21.1875 51.21875 25.484375 53.609375 
Q 29.78125 56 35.6875 56 
Q 41.65625 56 45.828125 52.96875 
Q 50 49.953125 52 44.1875 
z
" id="DejaVuSans-109"/>
     <path d="M 9.421875 75.984375 
L 18.40625 75.984375 
L 18.40625 0 
L 9.421875 0 
z
" id="DejaVuSans-108"/>
     <path d="M 45.40625 27.984375 
Q 45.40625 37.75 41.375 43.109375 
Q 37.359375 48.484375 30.078125 48.484375 
Q 22.859375 48.484375 18.828125 43.109375 
Q 14.796875 37.75 14.796875 27.984375 
Q 14.796875 18.265625 18.828125 12.890625 
Q 22.859375 7.515625 30.078125 7.515625 
Q 37.359375 7.515625 41.375 12.890625 
Q 45.40625 18.265625 45.40625 27.984375 
z
M 54.390625 6.78125 
Q 54.390625 -7.171875 48.1875 -13.984375 
Q 42 -20.796875 29.203125 -20.796875 
Q 24.46875 -20.796875 20.265625 -20.09375 
Q 16.0625 -19.390625 12.109375 -17.921875 
L 12.109375 -9.1875 
Q 16.0625 -11.328125 19.921875 -12.34375 
Q 23.78125 -13.375 27.78125 -13.375 
Q 36.625 -13.375 41.015625 -8.765625 
Q 45.40625 -4.15625 45.40625 5.171875 
L 45.40625 9.625 
Q 42.625 4.78125 38.28125 2.390625 
Q 33.9375 0 27.875 0 
Q 17.828125 0 11.671875 7.65625 
Q 5.515625 15.328125 5.515625 27.984375 
Q 5.515625 40.671875 11.671875 48.328125 
Q 17.828125 56 27.875 56 
Q 33.9375 56 38.28125 53.609375 
Q 42.625 51.21875 45.40625 46.390625 
L 45.40625 54.6875 
L 54.390625 54.6875 
z
" id="DejaVuSans-103"/>
     <path d="M 34.28125 27.484375 
Q 23.390625 27.484375 19.1875 25 
Q 14.984375 22.515625 14.984375 16.5 
Q 14.984375 11.71875 18.140625 8.90625 
Q 21.296875 6.109375 26.703125 6.109375 
Q 34.1875 6.109375 38.703125 11.40625 
Q 43.21875 16.703125 43.21875 25.484375 
L 43.21875 27.484375 
z
M 52.203125 31.203125 
L 52.203125 0 
L 43.21875 0 
L 43.21875 8.296875 
Q 40.140625 3.328125 35.546875 0.953125 
Q 30.953125 -1.421875 24.3125 -1.421875 
Q 15.921875 -1.421875 10.953125 3.296875 
Q 6 8.015625 6 15.921875 
Q 6 25.140625 12.171875 29.828125 
Q 18.359375 34.515625 30.609375 34.515625 
L 43.21875 34.515625 
L 43.21875 35.40625 
Q 43.21875 41.609375 39.140625 45 
Q 35.0625 48.390625 27.6875 48.390625 
Q 23 48.390625 18.546875 47.265625 
Q 14.109375 46.140625 10.015625 43.890625 
L 10.015625 52.203125 
Q 14.9375 54.109375 19.578125 55.046875 
Q 24.21875 56 28.609375 56 
Q 40.484375 56 46.34375 49.84375 
Q 52.203125 43.703125 52.203125 31.203125 
z
" id="DejaVuSans-97"/>
     <path d="M 10.796875 72.90625 
L 49.515625 72.90625 
L 49.515625 64.59375 
L 19.828125 64.59375 
L 19.828125 46.734375 
Q 21.96875 47.46875 24.109375 47.828125 
Q 26.265625 48.1875 28.421875 48.1875 
Q 40.625 48.1875 47.75 41.5 
Q 54.890625 34.8125 54.890625 23.390625 
Q 54.890625 11.625 47.5625 5.09375 
Q 40.234375 -1.421875 26.90625 -1.421875 
Q 22.3125 -1.421875 17.546875 -0.640625 
Q 12.796875 0.140625 7.71875 1.703125 
L 7.71875 11.625 
Q 12.109375 9.234375 16.796875 8.0625 
Q 21.484375 6.890625 26.703125 6.890625 
Q 35.15625 6.890625 40.078125 11.328125 
Q 45.015625 15.765625 45.015625 23.390625 
Q 45.015625 31 40.078125 35.4375 
Q 35.15625 39.890625 26.703125 39.890625 
Q 22.75 39.890625 18.8125 39.015625 
Q 14.890625 38.140625 10.796875 36.28125 
z
" id="DejaVuSans-53"/>
    </defs>
    <g transform="translate(14.116562 8.76)scale(0.12 -0.12)">
     <use xlink:href="#DejaVuSans-83"/>
     <use x="63.476562" xlink:href="#DejaVuSans-105"/>
     <use x="91.259766" xlink:href="#DejaVuSans-122"/>
     <use x="143.75" xlink:href="#DejaVuSans-101"/>
     <use x="205.273438" xlink:href="#DejaVuSans-32"/>
     <use x="237.060547" xlink:href="#DejaVuSans-104"/>
     <use x="300.439453" xlink:href="#DejaVuSans-105"/>
     <use x="328.222656" xlink:href="#DejaVuSans-115"/>
     <use x="380.322266" xlink:href="#DejaVuSans-116"/>
     <use x="419.53125" xlink:href="#DejaVuSans-111"/>
     <use x="480.712891" xlink:href="#DejaVuSans-114"/>
     <use x="521.826172" xlink:href="#DejaVuSans-121"/>
     <use x="581.005859" xlink:href="#DejaVuSans-32"/>
     <use x="612.792969" xlink:href="#DejaVuSans-111"/>
     <use x="673.974609" xlink:href="#DejaVuSans-102"/>
     <use x="709.179688" xlink:href="#DejaVuSans-32"/>
     <use x="740.966797" xlink:href="#DejaVuSans-116"/>
     <use x="780.175781" xlink:href="#DejaVuSans-104"/>
     <use x="843.554688" xlink:href="#DejaVuSans-101"/>
     <use x="905.078125" xlink:href="#DejaVuSans-32"/>
     <use x="936.865234" xlink:href="#DejaVuSans-117"/>
     <use x="1000.244141" xlink:href="#DejaVuSans-110"/>
     <use x="1063.623047" xlink:href="#DejaVuSans-105"/>
     <use x="1091.40625" xlink:href="#DejaVuSans-118"/>
     <use x="1150.585938" xlink:href="#DejaVuSans-101"/>
     <use x="1212.109375" xlink:href="#DejaVuSans-114"/>
     <use x="1253.222656" xlink:href="#DejaVuSans-115"/>
     <use x="1305.322266" xlink:href="#DejaVuSans-101"/>
     <use x="1366.845703" xlink:href="#DejaVuSans-32"/>
     <use x="1398.632812" xlink:href="#DejaVuSans-102"/>
     <use x="1433.837891" xlink:href="#DejaVuSans-111"/>
     <use x="1495.019531" xlink:href="#DejaVuSans-114"/>
     <use x="1536.132812" xlink:href="#DejaVuSans-32"/>
     <use x="1567.919922" xlink:href="#DejaVuSans-101"/>
     <use x="1629.443359" xlink:href="#DejaVuSans-102"/>
     <use x="1664.648438" xlink:href="#DejaVuSans-102"/>
     <use x="1699.853516" xlink:href="#DejaVuSans-101"/>
     <use x="1761.376953" xlink:href="#DejaVuSans-99"/>
     <use x="1816.357422" xlink:href="#DejaVuSans-116"/>
     <use x="1855.566406" xlink:href="#DejaVuSans-105"/>
     <use x="1883.349609" xlink:href="#DejaVuSans-118"/>
     <use x="1942.529297" xlink:href="#DejaVuSans-101"/>
     <use x="2004.052734" xlink:href="#DejaVuSans-32"/>
     <use x="2035.839844" xlink:href="#DejaVuSans-99"/>
     <use x="2090.820312" xlink:href="#DejaVuSans-111"/>
     <use x="2152.001953" xlink:href="#DejaVuSans-115"/>
     <use x="2204.101562" xlink:href="#DejaVuSans-109"/>
     <use x="2301.513672" xlink:href="#DejaVuSans-111"/>
     <use x="2362.695312" xlink:href="#DejaVuSans-108"/>
     <use x="2390.478516" xlink:href="#DejaVuSans-111"/>
     <use x="2451.660156" xlink:href="#DejaVuSans-103"/>
     <use x="2515.136719" xlink:href="#DejaVuSans-105"/>
     <use x="2542.919922" xlink:href="#DejaVuSans-99"/>
     <use x="2597.900391" xlink:href="#DejaVuSans-97"/>
     <use x="2659.179688" xlink:href="#DejaVuSans-108"/>
     <use x="2686.962891" xlink:href="#DejaVuSans-32"/>
     <use x="2718.75" xlink:href="#DejaVuSans-99"/>
     <use x="2773.730469" xlink:href="#DejaVuSans-111"/>
     <use x="2834.912109" xlink:href="#DejaVuSans-110"/>
     <use x="2898.291016" xlink:href="#DejaVuSans-115"/>
     <use x="2950.390625" xlink:href="#DejaVuSans-116"/>
     <use x="2989.599609" xlink:href="#DejaVuSans-97"/>
     <use x="3050.878906" xlink:href="#DejaVuSans-110"/>
     <use x="3114.257812" xlink:href="#DejaVuSans-116"/>
     <use x="3153.466797" xlink:href="#DejaVuSans-32"/>
     <use x="3185.253906" xlink:href="#DejaVuSans-48"/>
     <use x="3248.876953" xlink:href="#DejaVuSans-46"/>
     <use x="3280.664062" xlink:href="#DejaVuSans-53"/>
     <use x="3344.287109" xlink:href="#DejaVuSans-56"/>
    </g>
   </g>
  </g>
 </g>
 <defs>
  <clipPath id="pf2336dbe74">
   <rect height="302.96" width="369.9" x="33.64" y="14.76"/>
  </clipPath>
 </defs>
</svg>
